<svg width="2806" height="173" viewBox="0 0 2806 173" fill="none" xmlns="http://www.w3.org/2000/svg">
<g clip-path="url(#clip0_701_561)">
<path d="M1328 75.0002L1328 73.5002L1326.5 73.5002L1326.5 75.0002L1328 75.0002ZM1478 75.0002L1479.5 75.0002L1479.5 73.5002L1478 73.5002L1478 75.0002ZM1403 0.000222325L1404.5 -0.0981811L1401.5 -0.0981813L1403 0.000222325ZM1411.8 133.926L1410.31 134.025L1410.31 134.025L1411.8 133.926ZM1408.85 154.447L1410.25 154.964L1410.25 154.964L1408.85 154.447ZM1415.08 135.069L1413.59 135.219L1413.59 135.219L1415.08 135.069ZM1413.62 153.063L1415.07 153.453L1415.07 153.453L1413.62 153.063ZM1394.2 133.926L1395.69 134.025L1395.69 134.025L1394.2 133.926ZM1397.15 154.447L1395.75 154.964L1395.75 154.964L1397.15 154.447ZM1390.92 135.069L1392.41 135.219L1390.92 135.069ZM1392.38 153.063L1390.93 153.453L1390.93 153.453L1392.38 153.063ZM1329.5 94.0002L1329.5 75.0002L1326.5 75.0002L1326.5 94.0002L1329.5 94.0002ZM1476.5 75.0002L1476.5 94.0002L1479.5 94.0002L1479.5 75.0002L1476.5 75.0002ZM1403 167.5C1362.41 167.5 1329.5 134.593 1329.5 94.0002L1326.5 94.0002C1326.5 136.25 1360.75 170.5 1403 170.5L1403 167.5ZM1403 170.5C1445.25 170.5 1479.5 136.25 1479.5 94.0002L1476.5 94.0002C1476.5 134.593 1443.59 167.5 1403 167.5L1403 170.5ZM1478 73.5002C1437.41 73.5002 1404.5 40.5932 1404.5 0.000222456L1401.5 0.000222194C1401.5 42.25 1435.75 76.5002 1478 76.5002L1478 73.5002ZM1478 83.5002C1437.58 83.5002 1404.5 46.2979 1404.5 0.000222456L1401.5 0.000222194C1401.5 47.5909 1435.58 86.5002 1478 86.5002L1478 83.5002ZM1478 94.5002C1437.73 94.5002 1404.5 52.557 1404.5 0.000222456L1401.5 0.000222194C1401.5 53.4821 1435.43 97.5002 1478 97.5002L1478 94.5002ZM1477 105.5C1457.2 105.5 1439.11 93.8958 1425.91 74.8074C1412.71 55.725 1404.5 29.2813 1404.5 0.000222456L1401.5 0.000222194C1401.5 29.8136 1409.85 56.8699 1423.44 76.5139C1437.02 96.1519 1455.93 108.5 1477 108.5L1477 105.5ZM1474 116.5C1455.13 116.5 1437.78 103.778 1425.08 82.6655C1412.39 61.5821 1404.5 32.3592 1404.5 0.000222456L1401.5 0.000222194C1401.5 32.8109 1409.5 62.5879 1422.51 84.2122C1435.5 105.807 1453.66 119.5 1474 119.5L1474 116.5ZM1470 126.5C1452.34 126.5 1435.98 112.794 1423.95 89.8143C1411.96 66.9059 1404.5 35.1543 1404.5 0.000222456L1401.5 0.000222194C1401.5 35.5386 1409.04 67.787 1421.29 91.2055C1433.52 114.553 1450.66 129.5 1470 129.5L1470 126.5ZM1401.5 0.000222194C1401.5 40.5932 1368.59 73.5002 1328 73.5002L1328 76.5002C1370.25 76.5002 1404.5 42.25 1404.5 0.000222456L1401.5 0.000222194ZM1401.5 0.000222194C1401.5 46.2979 1368.42 83.5002 1328 83.5002L1328 86.5002C1370.42 86.5002 1404.5 47.5909 1404.5 0.000222456L1401.5 0.000222194ZM1401.5 0.000222194C1401.5 52.557 1368.27 94.5002 1328 94.5002L1328 97.5002C1370.57 97.5002 1404.5 53.4821 1404.5 0.000222456L1401.5 0.000222194ZM1401.5 0.000222194C1401.5 29.2813 1393.29 55.725 1380.09 74.8074C1366.89 93.8958 1348.8 105.5 1329 105.5L1329 108.5C1350.07 108.5 1368.98 96.1518 1382.56 76.5139C1396.15 56.8699 1404.5 29.8136 1404.5 0.000222456L1401.5 0.000222194ZM1401.5 0.000222194C1401.5 32.3592 1393.61 61.5821 1380.92 82.6655C1368.22 103.778 1350.87 116.5 1332 116.5L1332 119.5C1352.34 119.5 1370.5 105.807 1383.49 84.2122C1396.5 62.5879 1404.5 32.8109 1404.5 0.000222456L1401.5 0.000222194ZM1401.5 0.000222194C1401.5 35.1543 1394.04 66.9059 1382.05 89.8143C1370.02 112.794 1353.66 126.5 1336 126.5L1336 129.5C1355.34 129.5 1372.48 114.553 1384.71 91.2055C1396.96 67.787 1404.5 35.5386 1404.5 0.000222456L1401.5 0.000222194ZM1401.5 0.0986257L1410.31 134.025L1413.3 133.828L1404.5 -0.0981811L1401.5 0.0986257ZM1407.44 153.93L1402.09 168.483L1404.91 169.517L1410.25 154.964L1407.44 153.93ZM1410.31 134.025C1410.75 140.787 1409.78 147.568 1407.44 153.93L1410.25 154.964C1412.74 148.209 1413.77 141.009 1413.3 133.828L1410.31 134.025ZM1404.51 45.1507L1413.59 135.219L1416.57 134.918L1407.49 44.8498L1404.51 45.1507ZM1412.17 152.674L1407.88 168.611L1410.78 169.39L1415.07 153.453L1412.17 152.674ZM1413.59 135.219C1414.18 141.075 1413.7 146.99 1412.17 152.674L1415.07 153.453C1416.69 147.417 1417.2 141.137 1416.57 134.918L1413.59 135.219ZM1401.5 -0.0981813L1392.7 133.828L1395.69 134.025L1404.5 0.098626L1401.5 -0.0981813ZM1395.75 154.964L1401.09 169.517L1403.91 168.483L1398.56 153.93L1395.75 154.964ZM1392.7 133.828C1392.23 141.009 1393.26 148.209 1395.75 154.964L1398.56 153.93C1396.23 147.568 1395.25 140.787 1395.69 134.025L1392.7 133.828ZM1398.51 44.8498L1389.43 134.918L1392.41 135.219L1401.49 45.1507L1398.51 44.8498ZM1390.93 153.453L1395.22 169.39L1398.12 168.611L1393.83 152.674L1390.93 153.453ZM1389.43 134.918C1388.8 141.137 1389.31 147.417 1390.93 153.453L1393.83 152.674C1392.3 146.99 1391.82 141.075 1392.41 135.219L1389.43 134.918Z" fill="#ECECEC"/>
<path d="M1478 75.0002L1478 73.5002L1476.5 73.5002L1476.5 75.0002L1478 75.0002ZM1628 75.0002L1629.5 75.0002L1629.5 73.5002L1628 73.5002L1628 75.0002ZM1553 0.000222325L1554.5 -0.0981811L1551.5 -0.0981813L1553 0.000222325ZM1561.8 133.926L1560.31 134.025L1560.31 134.025L1561.8 133.926ZM1558.85 154.447L1560.25 154.964L1560.25 154.964L1558.85 154.447ZM1565.08 135.069L1563.59 135.219L1563.59 135.219L1565.08 135.069ZM1563.62 153.063L1565.07 153.453L1565.07 153.453L1563.62 153.063ZM1544.2 133.926L1545.69 134.025L1545.69 134.025L1544.2 133.926ZM1547.15 154.447L1545.75 154.964L1545.75 154.964L1547.15 154.447ZM1540.92 135.069L1542.41 135.219L1540.92 135.069ZM1542.38 153.063L1540.93 153.453L1540.93 153.453L1542.38 153.063ZM1479.5 94.0002L1479.5 75.0002L1476.5 75.0002L1476.5 94.0002L1479.5 94.0002ZM1626.5 75.0002L1626.5 94.0002L1629.5 94.0002L1629.5 75.0002L1626.5 75.0002ZM1553 167.5C1512.41 167.5 1479.5 134.593 1479.5 94.0002L1476.5 94.0002C1476.5 136.25 1510.75 170.5 1553 170.5L1553 167.5ZM1553 170.5C1595.25 170.5 1629.5 136.25 1629.5 94.0002L1626.5 94.0002C1626.5 134.593 1593.59 167.5 1553 167.5L1553 170.5ZM1628 73.5002C1587.41 73.5002 1554.5 40.5932 1554.5 0.000222456L1551.5 0.000222194C1551.5 42.25 1585.75 76.5002 1628 76.5002L1628 73.5002ZM1628 83.5002C1587.58 83.5002 1554.5 46.2979 1554.5 0.000222456L1551.5 0.000222194C1551.5 47.5909 1585.58 86.5002 1628 86.5002L1628 83.5002ZM1628 94.5002C1587.73 94.5002 1554.5 52.557 1554.5 0.000222456L1551.5 0.000222194C1551.5 53.4821 1585.43 97.5002 1628 97.5002L1628 94.5002ZM1627 105.5C1607.2 105.5 1589.11 93.8958 1575.91 74.8074C1562.71 55.725 1554.5 29.2813 1554.5 0.000222456L1551.5 0.000222194C1551.5 29.8136 1559.85 56.8699 1573.44 76.5139C1587.02 96.1519 1605.93 108.5 1627 108.5L1627 105.5ZM1624 116.5C1605.13 116.5 1587.78 103.778 1575.08 82.6655C1562.39 61.5821 1554.5 32.3592 1554.5 0.000222456L1551.5 0.000222194C1551.5 32.8109 1559.5 62.5879 1572.51 84.2122C1585.5 105.807 1603.66 119.5 1624 119.5L1624 116.5ZM1620 126.5C1602.34 126.5 1585.98 112.794 1573.95 89.8143C1561.96 66.9059 1554.5 35.1543 1554.5 0.000222456L1551.5 0.000222194C1551.5 35.5386 1559.04 67.787 1571.29 91.2055C1583.52 114.553 1600.66 129.5 1620 129.5L1620 126.5ZM1551.5 0.000222194C1551.5 40.5932 1518.59 73.5002 1478 73.5002L1478 76.5002C1520.25 76.5002 1554.5 42.25 1554.5 0.000222456L1551.5 0.000222194ZM1551.5 0.000222194C1551.5 46.2979 1518.42 83.5002 1478 83.5002L1478 86.5002C1520.42 86.5002 1554.5 47.5909 1554.5 0.000222456L1551.5 0.000222194ZM1551.5 0.000222194C1551.5 52.557 1518.27 94.5002 1478 94.5002L1478 97.5002C1520.57 97.5002 1554.5 53.4821 1554.5 0.000222456L1551.5 0.000222194ZM1551.5 0.000222194C1551.5 29.2813 1543.29 55.725 1530.09 74.8074C1516.89 93.8958 1498.8 105.5 1479 105.5L1479 108.5C1500.07 108.5 1518.98 96.1518 1532.56 76.5139C1546.15 56.8699 1554.5 29.8136 1554.5 0.000222456L1551.5 0.000222194ZM1551.5 0.000222194C1551.5 32.3592 1543.61 61.5821 1530.92 82.6655C1518.22 103.778 1500.87 116.5 1482 116.5L1482 119.5C1502.34 119.5 1520.5 105.807 1533.49 84.2122C1546.5 62.5879 1554.5 32.8109 1554.5 0.000222456L1551.5 0.000222194ZM1551.5 0.000222194C1551.5 35.1543 1544.04 66.9059 1532.05 89.8143C1520.02 112.794 1503.66 126.5 1486 126.5L1486 129.5C1505.34 129.5 1522.48 114.553 1534.71 91.2055C1546.96 67.787 1554.5 35.5386 1554.5 0.000222456L1551.5 0.000222194ZM1551.5 0.0986257L1560.31 134.025L1563.3 133.828L1554.5 -0.0981811L1551.5 0.0986257ZM1557.44 153.93L1552.09 168.483L1554.91 169.517L1560.25 154.964L1557.44 153.93ZM1560.31 134.025C1560.75 140.787 1559.78 147.568 1557.44 153.93L1560.25 154.964C1562.74 148.209 1563.77 141.009 1563.3 133.828L1560.31 134.025ZM1554.51 45.1507L1563.59 135.219L1566.57 134.918L1557.49 44.8498L1554.51 45.1507ZM1562.17 152.674L1557.88 168.611L1560.78 169.39L1565.07 153.453L1562.17 152.674ZM1563.59 135.219C1564.18 141.075 1563.7 146.99 1562.17 152.674L1565.07 153.453C1566.69 147.417 1567.2 141.137 1566.57 134.918L1563.59 135.219ZM1551.5 -0.0981813L1542.7 133.828L1545.69 134.025L1554.5 0.098626L1551.5 -0.0981813ZM1545.75 154.964L1551.09 169.517L1553.91 168.483L1548.56 153.93L1545.75 154.964ZM1542.7 133.828C1542.23 141.009 1543.26 148.209 1545.75 154.964L1548.56 153.93C1546.23 147.568 1545.25 140.787 1545.69 134.025L1542.7 133.828ZM1548.51 44.8498L1539.43 134.918L1542.41 135.219L1551.49 45.1507L1548.51 44.8498ZM1540.93 153.453L1545.22 169.39L1548.12 168.611L1543.83 152.674L1540.93 153.453ZM1539.43 134.918C1538.8 141.137 1539.31 147.417 1540.93 153.453L1543.83 152.674C1542.3 146.99 1541.82 141.075 1542.41 135.219L1539.43 134.918Z" fill="#ECECEC"/>
<path d="M1178 75.0002L1178 73.5002L1176.5 73.5002L1176.5 75.0002L1178 75.0002ZM1328 75.0002L1329.5 75.0002L1329.5 73.5002L1328 73.5002L1328 75.0002ZM1253 0.000222325L1254.5 -0.0981811L1251.5 -0.0981813L1253 0.000222325ZM1261.8 133.926L1260.31 134.025L1260.31 134.025L1261.8 133.926ZM1258.85 154.447L1260.25 154.964L1260.25 154.964L1258.85 154.447ZM1265.08 135.069L1263.59 135.219L1263.59 135.219L1265.08 135.069ZM1263.62 153.063L1265.07 153.453L1265.07 153.453L1263.62 153.063ZM1244.2 133.926L1245.69 134.025L1245.69 134.025L1244.2 133.926ZM1247.15 154.447L1245.75 154.964L1245.75 154.964L1247.15 154.447ZM1240.92 135.069L1242.41 135.219L1240.92 135.069ZM1242.38 153.063L1240.93 153.453L1240.93 153.453L1242.38 153.063ZM1179.5 94.0002L1179.5 75.0002L1176.5 75.0002L1176.5 94.0002L1179.5 94.0002ZM1326.5 75.0002L1326.5 94.0002L1329.5 94.0002L1329.5 75.0002L1326.5 75.0002ZM1253 167.5C1212.41 167.5 1179.5 134.593 1179.5 94.0002L1176.5 94.0002C1176.5 136.25 1210.75 170.5 1253 170.5L1253 167.5ZM1253 170.5C1295.25 170.5 1329.5 136.25 1329.5 94.0002L1326.5 94.0002C1326.5 134.593 1293.59 167.5 1253 167.5L1253 170.5ZM1328 73.5002C1287.41 73.5002 1254.5 40.5932 1254.5 0.000222456L1251.5 0.000222194C1251.5 42.25 1285.75 76.5002 1328 76.5002L1328 73.5002ZM1328 83.5002C1287.58 83.5002 1254.5 46.2979 1254.5 0.000222456L1251.5 0.000222194C1251.5 47.5909 1285.58 86.5002 1328 86.5002L1328 83.5002ZM1328 94.5002C1287.73 94.5002 1254.5 52.557 1254.5 0.000222456L1251.5 0.000222194C1251.5 53.4821 1285.43 97.5002 1328 97.5002L1328 94.5002ZM1327 105.5C1307.2 105.5 1289.11 93.8958 1275.91 74.8074C1262.71 55.725 1254.5 29.2813 1254.5 0.000222456L1251.5 0.000222194C1251.5 29.8136 1259.85 56.8699 1273.44 76.5139C1287.02 96.1519 1305.93 108.5 1327 108.5L1327 105.5ZM1324 116.5C1305.13 116.5 1287.78 103.778 1275.08 82.6655C1262.39 61.5821 1254.5 32.3592 1254.5 0.000222456L1251.5 0.000222194C1251.5 32.8109 1259.5 62.5879 1272.51 84.2122C1285.5 105.807 1303.66 119.5 1324 119.5L1324 116.5ZM1320 126.5C1302.34 126.5 1285.98 112.794 1273.95 89.8143C1261.96 66.9059 1254.5 35.1543 1254.5 0.000222456L1251.5 0.000222194C1251.5 35.5386 1259.04 67.787 1271.29 91.2055C1283.52 114.553 1300.66 129.5 1320 129.5L1320 126.5ZM1251.5 0.000222194C1251.5 40.5932 1218.59 73.5002 1178 73.5002L1178 76.5002C1220.25 76.5002 1254.5 42.25 1254.5 0.000222456L1251.5 0.000222194ZM1251.5 0.000222194C1251.5 46.2979 1218.42 83.5002 1178 83.5002L1178 86.5002C1220.42 86.5002 1254.5 47.5909 1254.5 0.000222456L1251.5 0.000222194ZM1251.5 0.000222194C1251.5 52.557 1218.27 94.5002 1178 94.5002L1178 97.5002C1220.57 97.5002 1254.5 53.4821 1254.5 0.000222456L1251.5 0.000222194ZM1251.5 0.000222194C1251.5 29.2813 1243.29 55.725 1230.09 74.8074C1216.89 93.8958 1198.8 105.5 1179 105.5L1179 108.5C1200.07 108.5 1218.98 96.1518 1232.56 76.5139C1246.15 56.8699 1254.5 29.8136 1254.5 0.000222456L1251.5 0.000222194ZM1251.5 0.000222194C1251.5 32.3592 1243.61 61.5821 1230.92 82.6655C1218.22 103.778 1200.87 116.5 1182 116.5L1182 119.5C1202.34 119.5 1220.5 105.807 1233.49 84.2122C1246.5 62.5879 1254.5 32.8109 1254.5 0.000222456L1251.5 0.000222194ZM1251.5 0.000222194C1251.5 35.1543 1244.04 66.9059 1232.05 89.8143C1220.02 112.794 1203.66 126.5 1186 126.5L1186 129.5C1205.34 129.5 1222.48 114.553 1234.71 91.2055C1246.96 67.787 1254.5 35.5386 1254.5 0.000222456L1251.5 0.000222194ZM1251.5 0.0986257L1260.31 134.025L1263.3 133.828L1254.5 -0.0981811L1251.5 0.0986257ZM1257.44 153.93L1252.09 168.483L1254.91 169.517L1260.25 154.964L1257.44 153.93ZM1260.31 134.025C1260.75 140.787 1259.78 147.568 1257.44 153.93L1260.25 154.964C1262.74 148.209 1263.77 141.009 1263.3 133.828L1260.31 134.025ZM1254.51 45.1507L1263.59 135.219L1266.57 134.918L1257.49 44.8498L1254.51 45.1507ZM1262.17 152.674L1257.88 168.611L1260.78 169.39L1265.07 153.453L1262.17 152.674ZM1263.59 135.219C1264.18 141.075 1263.7 146.99 1262.17 152.674L1265.07 153.453C1266.69 147.417 1267.2 141.137 1266.57 134.918L1263.59 135.219ZM1251.5 -0.0981813L1242.7 133.828L1245.69 134.025L1254.5 0.098626L1251.5 -0.0981813ZM1245.75 154.964L1251.09 169.517L1253.91 168.483L1248.56 153.93L1245.75 154.964ZM1242.7 133.828C1242.23 141.009 1243.26 148.209 1245.75 154.964L1248.56 153.93C1246.23 147.568 1245.25 140.787 1245.69 134.025L1242.7 133.828ZM1248.51 44.8498L1239.43 134.918L1242.41 135.219L1251.49 45.1507L1248.51 44.8498ZM1240.93 153.453L1245.22 169.39L1248.12 168.611L1243.83 152.674L1240.93 153.453ZM1239.43 134.918C1238.8 141.137 1239.31 147.417 1240.93 153.453L1243.83 152.674C1242.3 146.99 1241.82 141.075 1242.41 135.219L1239.43 134.918Z" fill="#ECECEC"/>
<path d="M1778 75.0002L1778 73.5002L1776.5 73.5002L1776.5 75.0002L1778 75.0002ZM1928 75.0002L1929.5 75.0002L1929.5 73.5002L1928 73.5002L1928 75.0002ZM1853 0.000222325L1854.5 -0.0981811L1851.5 -0.0981813L1853 0.000222325ZM1861.8 133.926L1860.31 134.025L1860.31 134.025L1861.8 133.926ZM1858.85 154.447L1860.25 154.964L1860.25 154.964L1858.85 154.447ZM1865.08 135.069L1863.59 135.219L1863.59 135.219L1865.08 135.069ZM1863.62 153.063L1865.07 153.453L1865.07 153.453L1863.62 153.063ZM1844.2 133.926L1845.69 134.025L1845.69 134.025L1844.2 133.926ZM1847.15 154.447L1845.75 154.964L1845.75 154.964L1847.15 154.447ZM1840.92 135.069L1842.41 135.219L1840.92 135.069ZM1842.38 153.063L1840.93 153.453L1840.93 153.453L1842.38 153.063ZM1779.5 94.0002L1779.5 75.0002L1776.5 75.0002L1776.5 94.0002L1779.5 94.0002ZM1926.5 75.0002L1926.5 94.0002L1929.5 94.0002L1929.5 75.0002L1926.5 75.0002ZM1853 167.5C1812.41 167.5 1779.5 134.593 1779.5 94.0002L1776.5 94.0002C1776.5 136.25 1810.75 170.5 1853 170.5L1853 167.5ZM1853 170.5C1895.25 170.5 1929.5 136.25 1929.5 94.0002L1926.5 94.0002C1926.5 134.593 1893.59 167.5 1853 167.5L1853 170.5ZM1928 73.5002C1887.41 73.5002 1854.5 40.5932 1854.5 0.000222456L1851.5 0.000222194C1851.5 42.25 1885.75 76.5002 1928 76.5002L1928 73.5002ZM1928 83.5002C1887.58 83.5002 1854.5 46.2979 1854.5 0.000222456L1851.5 0.000222194C1851.5 47.5909 1885.58 86.5002 1928 86.5002L1928 83.5002ZM1928 94.5002C1887.73 94.5002 1854.5 52.557 1854.5 0.000222456L1851.5 0.000222194C1851.5 53.4821 1885.43 97.5002 1928 97.5002L1928 94.5002ZM1927 105.5C1907.2 105.5 1889.11 93.8958 1875.91 74.8074C1862.71 55.725 1854.5 29.2813 1854.5 0.000222456L1851.5 0.000222194C1851.5 29.8136 1859.85 56.8699 1873.44 76.5139C1887.02 96.1519 1905.93 108.5 1927 108.5L1927 105.5ZM1924 116.5C1905.13 116.5 1887.78 103.778 1875.08 82.6655C1862.39 61.5821 1854.5 32.3592 1854.5 0.000222456L1851.5 0.000222194C1851.5 32.8109 1859.5 62.5879 1872.51 84.2122C1885.5 105.807 1903.66 119.5 1924 119.5L1924 116.5ZM1920 126.5C1902.34 126.5 1885.98 112.794 1873.95 89.8143C1861.96 66.9059 1854.5 35.1543 1854.5 0.000222456L1851.5 0.000222194C1851.5 35.5386 1859.04 67.787 1871.29 91.2055C1883.52 114.553 1900.66 129.5 1920 129.5L1920 126.5ZM1851.5 0.000222194C1851.5 40.5932 1818.59 73.5002 1778 73.5002L1778 76.5002C1820.25 76.5002 1854.5 42.25 1854.5 0.000222456L1851.5 0.000222194ZM1851.5 0.000222194C1851.5 46.2979 1818.42 83.5002 1778 83.5002L1778 86.5002C1820.42 86.5002 1854.5 47.5909 1854.5 0.000222456L1851.5 0.000222194ZM1851.5 0.000222194C1851.5 52.557 1818.27 94.5002 1778 94.5002L1778 97.5002C1820.57 97.5002 1854.5 53.4821 1854.5 0.000222456L1851.5 0.000222194ZM1851.5 0.000222194C1851.5 29.2813 1843.29 55.725 1830.09 74.8074C1816.89 93.8958 1798.8 105.5 1779 105.5L1779 108.5C1800.07 108.5 1818.98 96.1518 1832.56 76.5139C1846.15 56.8699 1854.5 29.8136 1854.5 0.000222456L1851.5 0.000222194ZM1851.5 0.000222194C1851.5 32.3592 1843.61 61.5821 1830.92 82.6655C1818.22 103.778 1800.87 116.5 1782 116.5L1782 119.5C1802.34 119.5 1820.5 105.807 1833.49 84.2122C1846.5 62.5879 1854.5 32.8109 1854.5 0.000222456L1851.5 0.000222194ZM1851.5 0.000222194C1851.5 35.1543 1844.04 66.9059 1832.05 89.8143C1820.02 112.794 1803.66 126.5 1786 126.5L1786 129.5C1805.34 129.5 1822.48 114.553 1834.71 91.2055C1846.96 67.787 1854.5 35.5386 1854.5 0.000222456L1851.5 0.000222194ZM1851.5 0.0986257L1860.31 134.025L1863.3 133.828L1854.5 -0.0981811L1851.5 0.0986257ZM1857.44 153.93L1852.09 168.483L1854.91 169.517L1860.25 154.964L1857.44 153.93ZM1860.31 134.025C1860.75 140.787 1859.78 147.568 1857.44 153.93L1860.25 154.964C1862.74 148.209 1863.77 141.009 1863.3 133.828L1860.31 134.025ZM1854.51 45.1507L1863.59 135.219L1866.57 134.918L1857.49 44.8498L1854.51 45.1507ZM1862.17 152.674L1857.88 168.611L1860.78 169.39L1865.07 153.453L1862.17 152.674ZM1863.59 135.219C1864.18 141.075 1863.7 146.99 1862.17 152.674L1865.07 153.453C1866.69 147.417 1867.2 141.137 1866.57 134.918L1863.59 135.219ZM1851.5 -0.0981813L1842.7 133.828L1845.69 134.025L1854.5 0.098626L1851.5 -0.0981813ZM1845.75 154.964L1851.09 169.517L1853.91 168.483L1848.56 153.93L1845.75 154.964ZM1842.7 133.828C1842.23 141.009 1843.26 148.209 1845.75 154.964L1848.56 153.93C1846.23 147.568 1845.25 140.787 1845.69 134.025L1842.7 133.828ZM1848.51 44.8498L1839.43 134.918L1842.41 135.219L1851.49 45.1507L1848.51 44.8498ZM1840.93 153.453L1845.22 169.39L1848.12 168.611L1843.83 152.674L1840.93 153.453ZM1839.43 134.918C1838.8 141.137 1839.31 147.417 1840.93 153.453L1843.83 152.674C1842.3 146.99 1841.82 141.075 1842.41 135.219L1839.43 134.918Z" fill="#ECECEC"/>
<path d="M1928 75.0002L1928 73.5002L1926.5 73.5002L1926.5 75.0002L1928 75.0002ZM2078 75.0002L2079.5 75.0002L2079.5 73.5002L2078 73.5002L2078 75.0002ZM2003 0.000222325L2004.5 -0.0981811L2001.5 -0.0981813L2003 0.000222325ZM2011.8 133.926L2010.31 134.025L2010.31 134.025L2011.8 133.926ZM2008.85 154.447L2010.25 154.964L2010.25 154.964L2008.85 154.447ZM2015.08 135.069L2013.59 135.219L2013.59 135.219L2015.08 135.069ZM2013.62 153.063L2015.07 153.453L2015.07 153.453L2013.62 153.063ZM1994.2 133.926L1995.69 134.025L1995.69 134.025L1994.2 133.926ZM1997.15 154.447L1995.75 154.964L1995.75 154.964L1997.15 154.447ZM1990.92 135.069L1992.41 135.219L1990.92 135.069ZM1992.38 153.063L1990.93 153.453L1990.93 153.453L1992.38 153.063ZM1929.5 94.0002L1929.5 75.0002L1926.5 75.0002L1926.5 94.0002L1929.5 94.0002ZM2076.5 75.0002L2076.5 94.0002L2079.5 94.0002L2079.5 75.0002L2076.5 75.0002ZM2003 167.5C1962.41 167.5 1929.5 134.593 1929.5 94.0002L1926.5 94.0002C1926.5 136.25 1960.75 170.5 2003 170.5L2003 167.5ZM2003 170.5C2045.25 170.5 2079.5 136.25 2079.5 94.0002L2076.5 94.0002C2076.5 134.593 2043.59 167.5 2003 167.5L2003 170.5ZM2078 73.5002C2037.41 73.5002 2004.5 40.5932 2004.5 0.000222456L2001.5 0.000222194C2001.5 42.25 2035.75 76.5002 2078 76.5002L2078 73.5002ZM2078 83.5002C2037.58 83.5002 2004.5 46.2979 2004.5 0.000222456L2001.5 0.000222194C2001.5 47.5909 2035.58 86.5002 2078 86.5002L2078 83.5002ZM2078 94.5002C2037.73 94.5002 2004.5 52.557 2004.5 0.000222456L2001.5 0.000222194C2001.5 53.4821 2035.43 97.5002 2078 97.5002L2078 94.5002ZM2077 105.5C2057.2 105.5 2039.11 93.8958 2025.91 74.8074C2012.71 55.725 2004.5 29.2813 2004.5 0.000222456L2001.5 0.000222194C2001.5 29.8136 2009.85 56.8699 2023.44 76.5139C2037.02 96.1519 2055.93 108.5 2077 108.5L2077 105.5ZM2074 116.5C2055.13 116.5 2037.78 103.778 2025.08 82.6655C2012.39 61.5821 2004.5 32.3592 2004.5 0.000222456L2001.5 0.000222194C2001.5 32.8109 2009.5 62.5879 2022.51 84.2122C2035.5 105.807 2053.66 119.5 2074 119.5L2074 116.5ZM2070 126.5C2052.34 126.5 2035.98 112.794 2023.95 89.8143C2011.96 66.9059 2004.5 35.1543 2004.5 0.000222456L2001.5 0.000222194C2001.5 35.5386 2009.04 67.787 2021.29 91.2055C2033.52 114.553 2050.66 129.5 2070 129.5L2070 126.5ZM2001.5 0.000222194C2001.5 40.5932 1968.59 73.5002 1928 73.5002L1928 76.5002C1970.25 76.5002 2004.5 42.25 2004.5 0.000222456L2001.5 0.000222194ZM2001.5 0.000222194C2001.5 46.2979 1968.42 83.5002 1928 83.5002L1928 86.5002C1970.42 86.5002 2004.5 47.5909 2004.5 0.000222456L2001.5 0.000222194ZM2001.5 0.000222194C2001.5 52.557 1968.27 94.5002 1928 94.5002L1928 97.5002C1970.57 97.5002 2004.5 53.4821 2004.5 0.000222456L2001.5 0.000222194ZM2001.5 0.000222194C2001.5 29.2813 1993.29 55.725 1980.09 74.8074C1966.89 93.8958 1948.8 105.5 1929 105.5L1929 108.5C1950.07 108.5 1968.98 96.1518 1982.56 76.5139C1996.15 56.8699 2004.5 29.8136 2004.5 0.000222456L2001.5 0.000222194ZM2001.5 0.000222194C2001.5 32.3592 1993.61 61.5821 1980.92 82.6655C1968.22 103.778 1950.87 116.5 1932 116.5L1932 119.5C1952.34 119.5 1970.5 105.807 1983.49 84.2122C1996.5 62.5879 2004.5 32.8109 2004.5 0.000222456L2001.5 0.000222194ZM2001.5 0.000222194C2001.5 35.1543 1994.04 66.9059 1982.05 89.8143C1970.02 112.794 1953.66 126.5 1936 126.5L1936 129.5C1955.34 129.5 1972.48 114.553 1984.71 91.2055C1996.96 67.787 2004.5 35.5386 2004.5 0.000222456L2001.5 0.000222194ZM2001.5 0.0986257L2010.31 134.025L2013.3 133.828L2004.5 -0.0981811L2001.5 0.0986257ZM2007.44 153.93L2002.09 168.483L2004.91 169.517L2010.25 154.964L2007.44 153.93ZM2010.31 134.025C2010.75 140.787 2009.78 147.568 2007.44 153.93L2010.25 154.964C2012.74 148.209 2013.77 141.009 2013.3 133.828L2010.31 134.025ZM2004.51 45.1507L2013.59 135.219L2016.57 134.918L2007.49 44.8498L2004.51 45.1507ZM2012.17 152.674L2007.88 168.611L2010.78 169.39L2015.07 153.453L2012.17 152.674ZM2013.59 135.219C2014.18 141.075 2013.7 146.99 2012.17 152.674L2015.07 153.453C2016.69 147.417 2017.2 141.137 2016.57 134.918L2013.59 135.219ZM2001.5 -0.0981813L1992.7 133.828L1995.69 134.025L2004.5 0.098626L2001.5 -0.0981813ZM1995.75 154.964L2001.09 169.517L2003.91 168.483L1998.56 153.93L1995.75 154.964ZM1992.7 133.828C1992.23 141.009 1993.26 148.209 1995.75 154.964L1998.56 153.93C1996.23 147.568 1995.25 140.787 1995.69 134.025L1992.7 133.828ZM1998.51 44.8498L1989.43 134.918L1992.41 135.219L2001.49 45.1507L1998.51 44.8498ZM1990.93 153.453L1995.22 169.39L1998.12 168.611L1993.83 152.674L1990.93 153.453ZM1989.43 134.918C1988.8 141.137 1989.31 147.417 1990.93 153.453L1993.83 152.674C1992.3 146.99 1991.82 141.075 1992.41 135.219L1989.43 134.918Z" fill="#ECECEC"/>
<path d="M2078 75.0002L2078 73.5002L2076.5 73.5002L2076.5 75.0002L2078 75.0002ZM2228 75.0002L2229.5 75.0002L2229.5 73.5002L2228 73.5002L2228 75.0002ZM2153 0.000222325L2154.5 -0.0981811L2151.5 -0.0981813L2153 0.000222325ZM2161.8 133.926L2160.31 134.025L2160.31 134.025L2161.8 133.926ZM2158.85 154.447L2160.25 154.964L2160.25 154.964L2158.85 154.447ZM2165.08 135.069L2163.59 135.219L2163.59 135.219L2165.08 135.069ZM2163.62 153.063L2165.07 153.453L2165.07 153.453L2163.62 153.063ZM2144.2 133.926L2145.69 134.025L2145.69 134.025L2144.2 133.926ZM2147.15 154.447L2145.75 154.964L2145.75 154.964L2147.15 154.447ZM2140.92 135.069L2142.41 135.219L2140.92 135.069ZM2142.38 153.063L2140.93 153.453L2140.93 153.453L2142.38 153.063ZM2079.5 94.0002L2079.5 75.0002L2076.5 75.0002L2076.5 94.0002L2079.5 94.0002ZM2226.5 75.0002L2226.5 94.0002L2229.5 94.0002L2229.5 75.0002L2226.5 75.0002ZM2153 167.5C2112.41 167.5 2079.5 134.593 2079.5 94.0002L2076.5 94.0002C2076.5 136.25 2110.75 170.5 2153 170.5L2153 167.5ZM2153 170.5C2195.25 170.5 2229.5 136.25 2229.5 94.0002L2226.5 94.0002C2226.5 134.593 2193.59 167.5 2153 167.5L2153 170.5ZM2228 73.5002C2187.41 73.5002 2154.5 40.5932 2154.5 0.000222456L2151.5 0.000222194C2151.5 42.25 2185.75 76.5002 2228 76.5002L2228 73.5002ZM2228 83.5002C2187.58 83.5002 2154.5 46.2979 2154.5 0.000222456L2151.5 0.000222194C2151.5 47.5909 2185.58 86.5002 2228 86.5002L2228 83.5002ZM2228 94.5002C2187.73 94.5002 2154.5 52.557 2154.5 0.000222456L2151.5 0.000222194C2151.5 53.4821 2185.43 97.5002 2228 97.5002L2228 94.5002ZM2227 105.5C2207.2 105.5 2189.11 93.8958 2175.91 74.8074C2162.71 55.725 2154.5 29.2813 2154.5 0.000222456L2151.5 0.000222194C2151.5 29.8136 2159.85 56.8699 2173.44 76.5139C2187.02 96.1519 2205.93 108.5 2227 108.5L2227 105.5ZM2224 116.5C2205.13 116.5 2187.78 103.778 2175.08 82.6655C2162.39 61.5821 2154.5 32.3592 2154.5 0.000222456L2151.5 0.000222194C2151.5 32.8109 2159.5 62.5879 2172.51 84.2122C2185.5 105.807 2203.66 119.5 2224 119.5L2224 116.5ZM2220 126.5C2202.34 126.5 2185.98 112.794 2173.95 89.8143C2161.96 66.9059 2154.5 35.1543 2154.5 0.000222456L2151.5 0.000222194C2151.5 35.5386 2159.04 67.787 2171.29 91.2055C2183.52 114.553 2200.66 129.5 2220 129.5L2220 126.5ZM2151.5 0.000222194C2151.5 40.5932 2118.59 73.5002 2078 73.5002L2078 76.5002C2120.25 76.5002 2154.5 42.25 2154.5 0.000222456L2151.5 0.000222194ZM2151.5 0.000222194C2151.5 46.2979 2118.42 83.5002 2078 83.5002L2078 86.5002C2120.42 86.5002 2154.5 47.5909 2154.5 0.000222456L2151.5 0.000222194ZM2151.5 0.000222194C2151.5 52.557 2118.27 94.5002 2078 94.5002L2078 97.5002C2120.57 97.5002 2154.5 53.4821 2154.5 0.000222456L2151.5 0.000222194ZM2151.5 0.000222194C2151.5 29.2813 2143.29 55.725 2130.09 74.8074C2116.89 93.8958 2098.8 105.5 2079 105.5L2079 108.5C2100.07 108.5 2118.98 96.1518 2132.56 76.5139C2146.15 56.8699 2154.5 29.8136 2154.5 0.000222456L2151.5 0.000222194ZM2151.5 0.000222194C2151.5 32.3592 2143.61 61.5821 2130.92 82.6655C2118.22 103.778 2100.87 116.5 2082 116.5L2082 119.5C2102.34 119.5 2120.5 105.807 2133.49 84.2122C2146.5 62.5879 2154.5 32.8109 2154.5 0.000222456L2151.5 0.000222194ZM2151.5 0.000222194C2151.5 35.1543 2144.04 66.9059 2132.05 89.8143C2120.02 112.794 2103.66 126.5 2086 126.5L2086 129.5C2105.34 129.5 2122.48 114.553 2134.71 91.2055C2146.96 67.787 2154.5 35.5386 2154.5 0.000222456L2151.5 0.000222194ZM2151.5 0.0986257L2160.31 134.025L2163.3 133.828L2154.5 -0.0981811L2151.5 0.0986257ZM2157.44 153.93L2152.09 168.483L2154.91 169.517L2160.25 154.964L2157.44 153.93ZM2160.31 134.025C2160.75 140.787 2159.78 147.568 2157.44 153.93L2160.25 154.964C2162.74 148.209 2163.77 141.009 2163.3 133.828L2160.31 134.025ZM2154.51 45.1507L2163.59 135.219L2166.57 134.918L2157.49 44.8498L2154.51 45.1507ZM2162.17 152.674L2157.88 168.611L2160.78 169.39L2165.07 153.453L2162.17 152.674ZM2163.59 135.219C2164.18 141.075 2163.7 146.99 2162.17 152.674L2165.07 153.453C2166.69 147.417 2167.2 141.137 2166.57 134.918L2163.59 135.219ZM2151.5 -0.0981813L2142.7 133.828L2145.69 134.025L2154.5 0.098626L2151.5 -0.0981813ZM2145.75 154.964L2151.09 169.517L2153.91 168.483L2148.56 153.93L2145.75 154.964ZM2142.7 133.828C2142.23 141.009 2143.26 148.209 2145.75 154.964L2148.56 153.93C2146.23 147.568 2145.25 140.787 2145.69 134.025L2142.7 133.828ZM2148.51 44.8498L2139.43 134.918L2142.41 135.219L2151.49 45.1507L2148.51 44.8498ZM2140.93 153.453L2145.22 169.39L2148.12 168.611L2143.83 152.674L2140.93 153.453ZM2139.43 134.918C2138.8 141.137 2139.31 147.417 2140.93 153.453L2143.83 152.674C2142.3 146.99 2141.82 141.075 2142.41 135.219L2139.43 134.918Z" fill="#ECECEC"/>
<path d="M1628 75.0002L1628 73.5002L1626.5 73.5002L1626.5 75.0002L1628 75.0002ZM1778 75.0002L1779.5 75.0002L1779.5 73.5002L1778 73.5002L1778 75.0002ZM1703 0.000222325L1704.5 -0.0981811L1701.5 -0.0981813L1703 0.000222325ZM1711.8 133.926L1710.31 134.025L1710.31 134.025L1711.8 133.926ZM1708.85 154.447L1710.25 154.964L1710.25 154.964L1708.85 154.447ZM1715.08 135.069L1713.59 135.219L1713.59 135.219L1715.08 135.069ZM1713.62 153.063L1715.07 153.453L1715.07 153.453L1713.62 153.063ZM1694.2 133.926L1695.69 134.025L1695.69 134.025L1694.2 133.926ZM1697.15 154.447L1695.75 154.964L1695.75 154.964L1697.15 154.447ZM1690.92 135.069L1692.41 135.219L1690.92 135.069ZM1692.38 153.063L1690.93 153.453L1690.93 153.453L1692.38 153.063ZM1629.5 94.0002L1629.5 75.0002L1626.5 75.0002L1626.5 94.0002L1629.5 94.0002ZM1776.5 75.0002L1776.5 94.0002L1779.5 94.0002L1779.5 75.0002L1776.5 75.0002ZM1703 167.5C1662.41 167.5 1629.5 134.593 1629.5 94.0002L1626.5 94.0002C1626.5 136.25 1660.75 170.5 1703 170.5L1703 167.5ZM1703 170.5C1745.25 170.5 1779.5 136.25 1779.5 94.0002L1776.5 94.0002C1776.5 134.593 1743.59 167.5 1703 167.5L1703 170.5ZM1778 73.5002C1737.41 73.5002 1704.5 40.5932 1704.5 0.000222456L1701.5 0.000222194C1701.5 42.25 1735.75 76.5002 1778 76.5002L1778 73.5002ZM1778 83.5002C1737.58 83.5002 1704.5 46.2979 1704.5 0.000222456L1701.5 0.000222194C1701.5 47.5909 1735.58 86.5002 1778 86.5002L1778 83.5002ZM1778 94.5002C1737.73 94.5002 1704.5 52.557 1704.5 0.000222456L1701.5 0.000222194C1701.5 53.4821 1735.43 97.5002 1778 97.5002L1778 94.5002ZM1777 105.5C1757.2 105.5 1739.11 93.8958 1725.91 74.8074C1712.71 55.725 1704.5 29.2813 1704.5 0.000222456L1701.5 0.000222194C1701.5 29.8136 1709.85 56.8699 1723.44 76.5139C1737.02 96.1519 1755.93 108.5 1777 108.5L1777 105.5ZM1774 116.5C1755.13 116.5 1737.78 103.778 1725.08 82.6655C1712.39 61.5821 1704.5 32.3592 1704.5 0.000222456L1701.5 0.000222194C1701.5 32.8109 1709.5 62.5879 1722.51 84.2122C1735.5 105.807 1753.66 119.5 1774 119.5L1774 116.5ZM1770 126.5C1752.34 126.5 1735.98 112.794 1723.95 89.8143C1711.96 66.9059 1704.5 35.1543 1704.5 0.000222456L1701.5 0.000222194C1701.5 35.5386 1709.04 67.787 1721.29 91.2055C1733.52 114.553 1750.66 129.5 1770 129.5L1770 126.5ZM1701.5 0.000222194C1701.5 40.5932 1668.59 73.5002 1628 73.5002L1628 76.5002C1670.25 76.5002 1704.5 42.25 1704.5 0.000222456L1701.5 0.000222194ZM1701.5 0.000222194C1701.5 46.2979 1668.42 83.5002 1628 83.5002L1628 86.5002C1670.42 86.5002 1704.5 47.5909 1704.5 0.000222456L1701.5 0.000222194ZM1701.5 0.000222194C1701.5 52.557 1668.27 94.5002 1628 94.5002L1628 97.5002C1670.57 97.5002 1704.5 53.4821 1704.5 0.000222456L1701.5 0.000222194ZM1701.5 0.000222194C1701.5 29.2813 1693.29 55.725 1680.09 74.8074C1666.89 93.8958 1648.8 105.5 1629 105.5L1629 108.5C1650.07 108.5 1668.98 96.1518 1682.56 76.5139C1696.15 56.8699 1704.5 29.8136 1704.5 0.000222456L1701.5 0.000222194ZM1701.5 0.000222194C1701.5 32.3592 1693.61 61.5821 1680.92 82.6655C1668.22 103.778 1650.87 116.5 1632 116.5L1632 119.5C1652.34 119.5 1670.5 105.807 1683.49 84.2122C1696.5 62.5879 1704.5 32.8109 1704.5 0.000222456L1701.5 0.000222194ZM1701.5 0.000222194C1701.5 35.1543 1694.04 66.9059 1682.05 89.8143C1670.02 112.794 1653.66 126.5 1636 126.5L1636 129.5C1655.34 129.5 1672.48 114.553 1684.71 91.2055C1696.96 67.787 1704.5 35.5386 1704.5 0.000222456L1701.5 0.000222194ZM1701.5 0.0986257L1710.31 134.025L1713.3 133.828L1704.5 -0.0981811L1701.5 0.0986257ZM1707.44 153.93L1702.09 168.483L1704.91 169.517L1710.25 154.964L1707.44 153.93ZM1710.31 134.025C1710.75 140.787 1709.78 147.568 1707.44 153.93L1710.25 154.964C1712.74 148.209 1713.77 141.009 1713.3 133.828L1710.31 134.025ZM1704.51 45.1507L1713.59 135.219L1716.57 134.918L1707.49 44.8498L1704.51 45.1507ZM1712.17 152.674L1707.88 168.611L1710.78 169.39L1715.07 153.453L1712.17 152.674ZM1713.59 135.219C1714.18 141.075 1713.7 146.99 1712.17 152.674L1715.07 153.453C1716.69 147.417 1717.2 141.137 1716.57 134.918L1713.59 135.219ZM1701.5 -0.0981813L1692.7 133.828L1695.69 134.025L1704.5 0.098626L1701.5 -0.0981813ZM1695.75 154.964L1701.09 169.517L1703.91 168.483L1698.56 153.93L1695.75 154.964ZM1692.7 133.828C1692.23 141.009 1693.26 148.209 1695.75 154.964L1698.56 153.93C1696.23 147.568 1695.25 140.787 1695.69 134.025L1692.7 133.828ZM1698.51 44.8498L1689.43 134.918L1692.41 135.219L1701.49 45.1507L1698.51 44.8498ZM1690.93 153.453L1695.22 169.39L1698.12 168.611L1693.83 152.674L1690.93 153.453ZM1689.43 134.918C1688.8 141.137 1689.31 147.417 1690.93 153.453L1693.83 152.674C1692.3 146.99 1691.82 141.075 1692.41 135.219L1689.43 134.918Z" fill="#ECECEC"/>
<path d="M878 75L878 73.5L876.5 73.5L876.5 75L878 75ZM1028 75L1029.5 75L1029.5 73.5L1028 73.5L1028 75ZM953 -2.18155e-05L954.497 -0.0984252L951.503 -0.0984255L953 -2.18155e-05ZM961.805 133.926L960.308 134.024L960.308 134.024L961.805 133.926ZM958.846 154.447L960.254 154.964L960.254 154.964L958.846 154.447ZM965.079 135.068L963.587 135.219L963.587 135.219L965.079 135.068ZM963.617 153.063L965.066 153.453L965.066 153.453L963.617 153.063ZM944.195 133.926L945.692 134.024L945.692 134.024L944.195 133.926ZM947.154 154.447L945.746 154.964L945.746 154.964L947.154 154.447ZM940.921 135.068L942.413 135.219L940.921 135.068ZM942.383 153.063L940.934 153.453L940.934 153.453L942.383 153.063ZM879.5 94L879.5 75L876.5 75L876.5 94L879.5 94ZM1026.5 75L1026.5 94L1029.5 94L1029.5 75L1026.5 75ZM953 167.5C912.407 167.5 879.5 134.593 879.5 94L876.5 94C876.5 136.25 910.75 170.5 953 170.5L953 167.5ZM953 170.5C995.25 170.5 1029.5 136.25 1029.5 94L1026.5 94C1026.5 134.593 993.593 167.5 953 167.5L953 170.5ZM1028 73.5C987.407 73.5 954.5 40.5929 954.5 -2.16844e-05L951.5 -2.19466e-05C951.5 42.2498 985.75 76.5 1028 76.5L1028 73.5ZM1028 83.5C987.578 83.5 954.5 46.2977 954.5 -2.16844e-05L951.5 -2.19466e-05C951.5 47.5907 985.579 86.5 1028 86.5L1028 83.5ZM1028 94.5C987.731 94.5 954.5 52.5567 954.5 -2.16844e-05L951.5 -2.19466e-05C951.5 53.4819 985.427 97.5 1028 97.5L1028 94.5ZM1027 105.5C1007.2 105.5 989.109 93.8956 975.908 74.8072C962.711 55.7248 954.5 29.281 954.5 -2.16844e-05L951.5 -2.19466e-05C951.5 29.8134 959.855 56.8697 973.44 76.5136C987.022 96.1516 1005.93 108.5 1027 108.5L1027 105.5ZM1024 116.5C1005.13 116.5 987.784 103.778 975.081 82.6652C962.395 61.5819 954.5 32.3589 954.5 -2.16844e-05L951.5 -2.19466e-05C951.5 32.8106 959.499 62.5877 972.51 84.2119C985.504 105.807 1003.66 119.5 1024 119.5L1024 116.5ZM1020 126.5C1002.34 126.5 985.981 112.794 973.953 89.814C961.962 66.9056 954.5 35.154 954.5 -2.16844e-05L951.5 -2.19466e-05C951.5 35.5384 959.037 67.7868 971.295 91.2053C983.516 114.552 1000.66 129.5 1020 129.5L1020 126.5ZM951.5 -2.19466e-05C951.5 40.5929 918.593 73.5 878 73.5L878 76.5C920.25 76.5 954.5 42.2498 954.5 -2.16844e-05L951.5 -2.19466e-05ZM951.5 -2.19466e-05C951.5 46.2977 918.422 83.5 878 83.5L878 86.5C920.421 86.5 954.5 47.5907 954.5 -2.16844e-05L951.5 -2.19466e-05ZM951.5 -2.19466e-05C951.5 52.5567 918.269 94.5 878 94.5L878 97.5C920.573 97.5 954.5 53.4819 954.5 -2.16844e-05L951.5 -2.19466e-05ZM951.5 -2.19466e-05C951.5 29.281 943.289 55.7248 930.092 74.8072C916.891 93.8956 898.802 105.5 879 105.5L879 108.5C900.067 108.5 918.978 96.1516 932.56 76.5136C946.145 56.8697 954.5 29.8134 954.5 -2.16844e-05L951.5 -2.19466e-05ZM951.5 -2.19466e-05C951.5 32.3589 943.605 61.5819 930.919 82.6652C918.216 103.778 900.874 116.5 882 116.5L882 119.5C902.338 119.5 920.496 105.807 933.49 84.2119C946.501 62.5877 954.5 32.8106 954.5 -2.16844e-05L951.5 -2.19466e-05ZM951.5 -2.19466e-05C951.5 35.154 944.038 66.9056 932.047 89.814C920.019 112.794 903.663 126.5 886 126.5L886 129.5C905.34 129.5 922.484 114.552 934.705 91.2053C946.963 67.7868 954.5 35.5384 954.5 -2.16844e-05L951.5 -2.19466e-05ZM951.503 0.0983816L960.308 134.024L963.302 133.828L954.497 -0.0984252L951.503 0.0983816ZM957.438 153.93L952.092 168.483L954.908 169.517L960.254 154.964L957.438 153.93ZM960.308 134.024C960.753 140.787 959.775 147.568 957.438 153.93L960.254 154.964C962.736 148.209 963.774 141.009 963.302 133.828L960.308 134.024ZM954.508 45.1504L963.587 135.219L966.572 134.918L957.492 44.8495L954.508 45.1504ZM962.169 152.674L957.885 168.611L960.782 169.389L965.066 153.453L962.169 152.674ZM963.587 135.219C964.177 141.075 963.697 146.99 962.169 152.674L965.066 153.453C966.688 147.417 967.199 141.136 966.572 134.918L963.587 135.219ZM951.503 -0.0984255L942.698 133.828L945.692 134.024L954.497 0.0983818L951.503 -0.0984255ZM945.746 154.964L951.092 169.517L953.908 168.483L948.562 153.93L945.746 154.964ZM942.698 133.828C942.226 141.009 943.264 148.209 945.746 154.964L948.562 153.93C946.225 147.568 945.247 140.787 945.692 134.024L942.698 133.828ZM948.508 44.8495L939.428 134.918L942.413 135.219L951.492 45.1504L948.508 44.8495ZM940.934 153.453L945.218 169.389L948.115 168.611L943.831 152.674L940.934 153.453ZM939.428 134.918C938.801 141.136 939.312 147.417 940.934 153.453L943.831 152.674C942.303 146.99 941.823 141.075 942.413 135.219L939.428 134.918Z" fill="#ECECEC"/>
<path d="M1028 75L1028 73.5L1026.5 73.5L1026.5 75L1028 75ZM1178 75L1179.5 75L1179.5 73.5L1178 73.5L1178 75ZM1103 -2.18155e-05L1104.5 -0.0984252L1101.5 -0.0984255L1103 -2.18155e-05ZM1111.8 133.926L1110.31 134.024L1110.31 134.024L1111.8 133.926ZM1108.85 154.447L1110.25 154.964L1110.25 154.964L1108.85 154.447ZM1115.08 135.068L1113.59 135.219L1113.59 135.219L1115.08 135.068ZM1113.62 153.063L1115.07 153.453L1115.07 153.453L1113.62 153.063ZM1094.2 133.926L1095.69 134.024L1095.69 134.024L1094.2 133.926ZM1097.15 154.447L1095.75 154.964L1095.75 154.964L1097.15 154.447ZM1090.92 135.068L1092.41 135.219L1090.92 135.068ZM1092.38 153.063L1090.93 153.453L1090.93 153.453L1092.38 153.063ZM1029.5 94L1029.5 75L1026.5 75L1026.5 94L1029.5 94ZM1176.5 75L1176.5 94L1179.5 94L1179.5 75L1176.5 75ZM1103 167.5C1062.41 167.5 1029.5 134.593 1029.5 94L1026.5 94C1026.5 136.25 1060.75 170.5 1103 170.5L1103 167.5ZM1103 170.5C1145.25 170.5 1179.5 136.25 1179.5 94L1176.5 94C1176.5 134.593 1143.59 167.5 1103 167.5L1103 170.5ZM1178 73.5C1137.41 73.5 1104.5 40.5929 1104.5 -2.16844e-05L1101.5 -2.19466e-05C1101.5 42.2498 1135.75 76.5 1178 76.5L1178 73.5ZM1178 83.5C1137.58 83.5 1104.5 46.2977 1104.5 -2.16844e-05L1101.5 -2.19466e-05C1101.5 47.5907 1135.58 86.5 1178 86.5L1178 83.5ZM1178 94.5C1137.73 94.5 1104.5 52.5567 1104.5 -2.16844e-05L1101.5 -2.19466e-05C1101.5 53.4819 1135.43 97.5 1178 97.5L1178 94.5ZM1177 105.5C1157.2 105.5 1139.11 93.8956 1125.91 74.8072C1112.71 55.7248 1104.5 29.281 1104.5 -2.16844e-05L1101.5 -2.19466e-05C1101.5 29.8134 1109.85 56.8697 1123.44 76.5136C1137.02 96.1516 1155.93 108.5 1177 108.5L1177 105.5ZM1174 116.5C1155.13 116.5 1137.78 103.778 1125.08 82.6652C1112.39 61.5819 1104.5 32.3589 1104.5 -2.16844e-05L1101.5 -2.19466e-05C1101.5 32.8106 1109.5 62.5877 1122.51 84.2119C1135.5 105.807 1153.66 119.5 1174 119.5L1174 116.5ZM1170 126.5C1152.34 126.5 1135.98 112.794 1123.95 89.814C1111.96 66.9056 1104.5 35.154 1104.5 -2.16844e-05L1101.5 -2.19466e-05C1101.5 35.5384 1109.04 67.7868 1121.29 91.2053C1133.52 114.552 1150.66 129.5 1170 129.5L1170 126.5ZM1101.5 -2.19466e-05C1101.5 40.5929 1068.59 73.5 1028 73.5L1028 76.5C1070.25 76.5 1104.5 42.2498 1104.5 -2.16844e-05L1101.5 -2.19466e-05ZM1101.5 -2.19466e-05C1101.5 46.2977 1068.42 83.5 1028 83.5L1028 86.5C1070.42 86.5 1104.5 47.5907 1104.5 -2.16844e-05L1101.5 -2.19466e-05ZM1101.5 -2.19466e-05C1101.5 52.5567 1068.27 94.5 1028 94.5L1028 97.5C1070.57 97.5 1104.5 53.4819 1104.5 -2.16844e-05L1101.5 -2.19466e-05ZM1101.5 -2.19466e-05C1101.5 29.281 1093.29 55.7248 1080.09 74.8072C1066.89 93.8956 1048.8 105.5 1029 105.5L1029 108.5C1050.07 108.5 1068.98 96.1516 1082.56 76.5136C1096.15 56.8697 1104.5 29.8134 1104.5 -2.16844e-05L1101.5 -2.19466e-05ZM1101.5 -2.19466e-05C1101.5 32.3589 1093.61 61.5819 1080.92 82.6652C1068.22 103.778 1050.87 116.5 1032 116.5L1032 119.5C1052.34 119.5 1070.5 105.807 1083.49 84.2119C1096.5 62.5877 1104.5 32.8106 1104.5 -2.16844e-05L1101.5 -2.19466e-05ZM1101.5 -2.19466e-05C1101.5 35.154 1094.04 66.9056 1082.05 89.814C1070.02 112.794 1053.66 126.5 1036 126.5L1036 129.5C1055.34 129.5 1072.48 114.552 1084.71 91.2053C1096.96 67.7868 1104.5 35.5384 1104.5 -2.16844e-05L1101.5 -2.19466e-05ZM1101.5 0.0983816L1110.31 134.024L1113.3 133.828L1104.5 -0.0984252L1101.5 0.0983816ZM1107.44 153.93L1102.09 168.483L1104.91 169.517L1110.25 154.964L1107.44 153.93ZM1110.31 134.024C1110.75 140.787 1109.78 147.568 1107.44 153.93L1110.25 154.964C1112.74 148.209 1113.77 141.009 1113.3 133.828L1110.31 134.024ZM1104.51 45.1504L1113.59 135.219L1116.57 134.918L1107.49 44.8495L1104.51 45.1504ZM1112.17 152.674L1107.88 168.611L1110.78 169.389L1115.07 153.453L1112.17 152.674ZM1113.59 135.219C1114.18 141.075 1113.7 146.99 1112.17 152.674L1115.07 153.453C1116.69 147.417 1117.2 141.136 1116.57 134.918L1113.59 135.219ZM1101.5 -0.0984255L1092.7 133.828L1095.69 134.024L1104.5 0.0983818L1101.5 -0.0984255ZM1095.75 154.964L1101.09 169.517L1103.91 168.483L1098.56 153.93L1095.75 154.964ZM1092.7 133.828C1092.23 141.009 1093.26 148.209 1095.75 154.964L1098.56 153.93C1096.23 147.568 1095.25 140.787 1095.69 134.024L1092.7 133.828ZM1098.51 44.8495L1089.43 134.918L1092.41 135.219L1101.49 45.1504L1098.51 44.8495ZM1090.93 153.453L1095.22 169.389L1098.12 168.611L1093.83 152.674L1090.93 153.453ZM1089.43 134.918C1088.8 141.136 1089.31 147.417 1090.93 153.453L1093.83 152.674C1092.3 146.99 1091.82 141.075 1092.41 135.219L1089.43 134.918Z" fill="#ECECEC"/>
<path d="M728 75L728 73.5L726.5 73.5L726.5 75L728 75ZM878 75L879.5 75L879.5 73.5L878 73.5L878 75ZM803 -2.18155e-05L804.497 -0.0984252L801.503 -0.0984255L803 -2.18155e-05ZM811.805 133.926L810.308 134.024L810.308 134.024L811.805 133.926ZM808.846 154.447L810.254 154.964L810.254 154.964L808.846 154.447ZM815.079 135.068L813.587 135.219L813.587 135.219L815.079 135.068ZM813.617 153.063L815.066 153.453L815.066 153.453L813.617 153.063ZM794.195 133.926L795.692 134.024L795.692 134.024L794.195 133.926ZM797.154 154.447L795.746 154.964L795.746 154.964L797.154 154.447ZM790.921 135.068L792.413 135.219L790.921 135.068ZM792.383 153.063L790.934 153.453L790.934 153.453L792.383 153.063ZM729.5 94L729.5 75L726.5 75L726.5 94L729.5 94ZM876.5 75L876.5 94L879.5 94L879.5 75L876.5 75ZM803 167.5C762.407 167.5 729.5 134.593 729.5 94L726.5 94C726.5 136.25 760.75 170.5 803 170.5L803 167.5ZM803 170.5C845.25 170.5 879.5 136.25 879.5 94L876.5 94C876.5 134.593 843.593 167.5 803 167.5L803 170.5ZM878 73.5C837.407 73.5 804.5 40.5929 804.5 -2.16844e-05L801.5 -2.19466e-05C801.5 42.2498 835.75 76.5 878 76.5L878 73.5ZM878 83.5C837.578 83.5 804.5 46.2977 804.5 -2.16844e-05L801.5 -2.19466e-05C801.5 47.5907 835.579 86.5 878 86.5L878 83.5ZM878 94.5C837.731 94.5 804.5 52.5567 804.5 -2.16844e-05L801.5 -2.19466e-05C801.5 53.4819 835.427 97.5 878 97.5L878 94.5ZM877 105.5C857.198 105.5 839.109 93.8956 825.908 74.8072C812.711 55.7248 804.5 29.281 804.5 -2.16844e-05L801.5 -2.19466e-05C801.5 29.8134 809.855 56.8697 823.44 76.5136C837.022 96.1516 855.933 108.5 877 108.5L877 105.5ZM874 116.5C855.126 116.5 837.784 103.778 825.081 82.6652C812.395 61.5819 804.5 32.3589 804.5 -2.16844e-05L801.5 -2.19466e-05C801.5 32.8106 809.499 62.5877 822.51 84.2119C835.504 105.807 853.662 119.5 874 119.5L874 116.5ZM870 126.5C852.337 126.5 835.981 112.794 823.953 89.814C811.962 66.9056 804.5 35.154 804.5 -2.16844e-05L801.5 -2.19466e-05C801.5 35.5384 809.037 67.7868 821.295 91.2053C833.516 114.552 850.66 129.5 870 129.5L870 126.5ZM801.5 -2.19466e-05C801.5 40.5929 768.593 73.5 728 73.5L728 76.5C770.25 76.5 804.5 42.2498 804.5 -2.16844e-05L801.5 -2.19466e-05ZM801.5 -2.19466e-05C801.5 46.2977 768.422 83.5 728 83.5L728 86.5C770.421 86.5 804.5 47.5907 804.5 -2.16844e-05L801.5 -2.19466e-05ZM801.5 -2.19466e-05C801.5 52.5567 768.269 94.5 728 94.5L728 97.5C770.573 97.5 804.5 53.4819 804.5 -2.16844e-05L801.5 -2.19466e-05ZM801.5 -2.19466e-05C801.5 29.281 793.289 55.7248 780.092 74.8072C766.891 93.8956 748.802 105.5 729 105.5L729 108.5C750.067 108.5 768.978 96.1516 782.56 76.5136C796.145 56.8697 804.5 29.8134 804.5 -2.16844e-05L801.5 -2.19466e-05ZM801.5 -2.19466e-05C801.5 32.3589 793.605 61.5819 780.919 82.6652C768.216 103.778 750.874 116.5 732 116.5L732 119.5C752.338 119.5 770.496 105.807 783.49 84.2119C796.501 62.5877 804.5 32.8106 804.5 -2.16844e-05L801.5 -2.19466e-05ZM801.5 -2.19466e-05C801.5 35.154 794.038 66.9056 782.047 89.814C770.019 112.794 753.663 126.5 736 126.5L736 129.5C755.34 129.5 772.484 114.552 784.705 91.2053C796.963 67.7868 804.5 35.5384 804.5 -2.16844e-05L801.5 -2.19466e-05ZM801.503 0.0983816L810.308 134.024L813.302 133.828L804.497 -0.0984252L801.503 0.0983816ZM807.438 153.93L802.092 168.483L804.908 169.517L810.254 154.964L807.438 153.93ZM810.308 134.024C810.753 140.787 809.775 147.568 807.438 153.93L810.254 154.964C812.736 148.209 813.774 141.009 813.302 133.828L810.308 134.024ZM804.508 45.1504L813.587 135.219L816.572 134.918L807.492 44.8495L804.508 45.1504ZM812.169 152.674L807.885 168.611L810.782 169.389L815.066 153.453L812.169 152.674ZM813.587 135.219C814.177 141.075 813.697 146.99 812.169 152.674L815.066 153.453C816.688 147.417 817.199 141.136 816.572 134.918L813.587 135.219ZM801.503 -0.0984255L792.698 133.828L795.692 134.024L804.497 0.0983818L801.503 -0.0984255ZM795.746 154.964L801.092 169.517L803.908 168.483L798.562 153.93L795.746 154.964ZM792.698 133.828C792.226 141.009 793.264 148.209 795.746 154.964L798.562 153.93C796.225 147.568 795.247 140.787 795.692 134.024L792.698 133.828ZM798.508 44.8495L789.428 134.918L792.413 135.219L801.492 45.1504L798.508 44.8495ZM790.934 153.453L795.218 169.389L798.115 168.611L793.831 152.674L790.934 153.453ZM789.428 134.918C788.801 141.136 789.312 147.417 790.934 153.453L793.831 152.674C792.303 146.99 791.823 141.075 792.413 135.219L789.428 134.918Z" fill="#ECECEC"/>
<path d="M578 75L578 73.5L576.5 73.5L576.5 75L578 75ZM728 75L729.5 75L729.5 73.5L728 73.5L728 75ZM653 -2.18155e-05L654.497 -0.0984252L651.503 -0.0984255L653 -2.18155e-05ZM661.805 133.926L660.308 134.024L660.308 134.024L661.805 133.926ZM658.846 154.447L660.254 154.964L660.254 154.964L658.846 154.447ZM665.079 135.068L663.587 135.219L663.587 135.219L665.079 135.068ZM663.617 153.063L665.066 153.453L665.066 153.453L663.617 153.063ZM644.195 133.926L645.692 134.024L645.692 134.024L644.195 133.926ZM647.154 154.447L645.746 154.964L645.746 154.964L647.154 154.447ZM640.921 135.068L642.413 135.219L640.921 135.068ZM642.383 153.063L640.934 153.453L640.934 153.453L642.383 153.063ZM579.5 94L579.5 75L576.5 75L576.5 94L579.5 94ZM726.5 75L726.5 94L729.5 94L729.5 75L726.5 75ZM653 167.5C612.407 167.5 579.5 134.593 579.5 94L576.5 94C576.5 136.25 610.75 170.5 653 170.5L653 167.5ZM653 170.5C695.25 170.5 729.5 136.25 729.5 94L726.5 94C726.5 134.593 693.593 167.5 653 167.5L653 170.5ZM728 73.5C687.407 73.5 654.5 40.5929 654.5 -2.16844e-05L651.5 -2.19466e-05C651.5 42.2498 685.75 76.5 728 76.5L728 73.5ZM728 83.5C687.578 83.5 654.5 46.2977 654.5 -2.16844e-05L651.5 -2.19466e-05C651.5 47.5907 685.579 86.5 728 86.5L728 83.5ZM728 94.5C687.731 94.5 654.5 52.5567 654.5 -2.16844e-05L651.5 -2.19466e-05C651.5 53.4819 685.427 97.5 728 97.5L728 94.5ZM727 105.5C707.198 105.5 689.109 93.8956 675.908 74.8072C662.711 55.7248 654.5 29.281 654.5 -2.16844e-05L651.5 -2.19466e-05C651.5 29.8134 659.855 56.8697 673.44 76.5136C687.022 96.1516 705.933 108.5 727 108.5L727 105.5ZM724 116.5C705.126 116.5 687.784 103.778 675.081 82.6652C662.395 61.5819 654.5 32.3589 654.5 -2.16844e-05L651.5 -2.19466e-05C651.5 32.8106 659.499 62.5877 672.51 84.2119C685.504 105.807 703.662 119.5 724 119.5L724 116.5ZM720 126.5C702.337 126.5 685.981 112.794 673.953 89.814C661.962 66.9056 654.5 35.154 654.5 -2.16844e-05L651.5 -2.19466e-05C651.5 35.5384 659.037 67.7868 671.295 91.2053C683.516 114.552 700.66 129.5 720 129.5L720 126.5ZM651.5 -2.19466e-05C651.5 40.5929 618.593 73.5 578 73.5L578 76.5C620.25 76.5 654.5 42.2498 654.5 -2.16844e-05L651.5 -2.19466e-05ZM651.5 -2.19466e-05C651.5 46.2977 618.422 83.5 578 83.5L578 86.5C620.421 86.5 654.5 47.5907 654.5 -2.16844e-05L651.5 -2.19466e-05ZM651.5 -2.19466e-05C651.5 52.5567 618.269 94.5 578 94.5L578 97.5C620.573 97.5 654.5 53.4819 654.5 -2.16844e-05L651.5 -2.19466e-05ZM651.5 -2.19466e-05C651.5 29.281 643.289 55.7248 630.092 74.8072C616.891 93.8956 598.802 105.5 579 105.5L579 108.5C600.067 108.5 618.978 96.1516 632.56 76.5136C646.145 56.8697 654.5 29.8134 654.5 -2.16844e-05L651.5 -2.19466e-05ZM651.5 -2.19466e-05C651.5 32.3589 643.605 61.5819 630.919 82.6652C618.216 103.778 600.874 116.5 582 116.5L582 119.5C602.338 119.5 620.496 105.807 633.49 84.2119C646.501 62.5877 654.5 32.8106 654.5 -2.16844e-05L651.5 -2.19466e-05ZM651.5 -2.19466e-05C651.5 35.154 644.038 66.9056 632.047 89.814C620.019 112.794 603.663 126.5 586 126.5L586 129.5C605.34 129.5 622.484 114.552 634.705 91.2053C646.963 67.7868 654.5 35.5384 654.5 -2.16844e-05L651.5 -2.19466e-05ZM651.503 0.0983816L660.308 134.024L663.302 133.828L654.497 -0.0984252L651.503 0.0983816ZM657.438 153.93L652.092 168.483L654.908 169.517L660.254 154.964L657.438 153.93ZM660.308 134.024C660.753 140.787 659.775 147.568 657.438 153.93L660.254 154.964C662.736 148.209 663.774 141.009 663.302 133.828L660.308 134.024ZM654.508 45.1504L663.587 135.219L666.572 134.918L657.492 44.8495L654.508 45.1504ZM662.169 152.674L657.885 168.611L660.782 169.389L665.066 153.453L662.169 152.674ZM663.587 135.219C664.177 141.075 663.697 146.99 662.169 152.674L665.066 153.453C666.688 147.417 667.199 141.136 666.572 134.918L663.587 135.219ZM651.503 -0.0984255L642.698 133.828L645.692 134.024L654.497 0.0983818L651.503 -0.0984255ZM645.746 154.964L651.092 169.517L653.908 168.483L648.562 153.93L645.746 154.964ZM642.698 133.828C642.226 141.009 643.264 148.209 645.746 154.964L648.562 153.93C646.225 147.568 645.247 140.787 645.692 134.024L642.698 133.828ZM648.508 44.8495L639.428 134.918L642.413 135.219L651.492 45.1504L648.508 44.8495ZM640.934 153.453L645.218 169.389L648.115 168.611L643.831 152.674L640.934 153.453ZM639.428 134.918C638.801 141.136 639.312 147.417 640.934 153.453L643.831 152.674C642.303 146.99 641.823 141.075 642.413 135.219L639.428 134.918Z" fill="#ECECEC"/>
<path d="M278 75L278 73.5L276.5 73.5L276.5 75L278 75ZM428 75L429.5 75L429.5 73.5L428 73.5L428 75ZM353 -2.18155e-05L354.497 -0.0984252L351.503 -0.0984255L353 -2.18155e-05ZM361.805 133.926L360.308 134.024L360.308 134.024L361.805 133.926ZM358.846 154.447L360.254 154.964L360.254 154.964L358.846 154.447ZM365.079 135.068L363.587 135.219L363.587 135.219L365.079 135.068ZM363.617 153.063L365.066 153.453L365.066 153.453L363.617 153.063ZM344.195 133.926L345.692 134.024L345.692 134.024L344.195 133.926ZM347.154 154.447L345.746 154.964L345.746 154.964L347.154 154.447ZM340.921 135.068L342.413 135.219L340.921 135.068ZM342.383 153.063L340.934 153.453L340.934 153.453L342.383 153.063ZM279.5 94L279.5 75L276.5 75L276.5 94L279.5 94ZM426.5 75L426.5 94L429.5 94L429.5 75L426.5 75ZM353 167.5C312.407 167.5 279.5 134.593 279.5 94L276.5 94C276.5 136.25 310.75 170.5 353 170.5L353 167.5ZM353 170.5C395.25 170.5 429.5 136.25 429.5 94L426.5 94C426.5 134.593 393.593 167.5 353 167.5L353 170.5ZM428 73.5C387.407 73.5 354.5 40.5929 354.5 -2.16844e-05L351.5 -2.19466e-05C351.5 42.2498 385.75 76.5 428 76.5L428 73.5ZM428 83.5C387.578 83.5 354.5 46.2977 354.5 -2.16844e-05L351.5 -2.19466e-05C351.5 47.5907 385.579 86.5 428 86.5L428 83.5ZM428 94.5C387.731 94.5 354.5 52.5567 354.5 -2.16844e-05L351.5 -2.19466e-05C351.5 53.4819 385.427 97.5 428 97.5L428 94.5ZM427 105.5C407.198 105.5 389.109 93.8956 375.908 74.8072C362.711 55.7248 354.5 29.281 354.5 -2.16844e-05L351.5 -2.19466e-05C351.5 29.8134 359.855 56.8697 373.44 76.5136C387.022 96.1516 405.933 108.5 427 108.5L427 105.5ZM424 116.5C405.126 116.5 387.784 103.778 375.081 82.6652C362.395 61.5819 354.5 32.3589 354.5 -2.16844e-05L351.5 -2.19466e-05C351.5 32.8106 359.499 62.5877 372.51 84.2119C385.504 105.807 403.662 119.5 424 119.5L424 116.5ZM420 126.5C402.337 126.5 385.981 112.794 373.953 89.814C361.962 66.9056 354.5 35.154 354.5 -2.16844e-05L351.5 -2.19466e-05C351.5 35.5384 359.037 67.7868 371.295 91.2053C383.516 114.552 400.66 129.5 420 129.5L420 126.5ZM351.5 -2.19466e-05C351.5 40.5929 318.593 73.5 278 73.5L278 76.5C320.25 76.5 354.5 42.2498 354.5 -2.16844e-05L351.5 -2.19466e-05ZM351.5 -2.19466e-05C351.5 46.2977 318.422 83.5 278 83.5L278 86.5C320.421 86.5 354.5 47.5907 354.5 -2.16844e-05L351.5 -2.19466e-05ZM351.5 -2.19466e-05C351.5 52.5567 318.269 94.5 278 94.5L278 97.5C320.573 97.5 354.5 53.4819 354.5 -2.16844e-05L351.5 -2.19466e-05ZM351.5 -2.19466e-05C351.5 29.281 343.289 55.7248 330.092 74.8072C316.891 93.8956 298.802 105.5 279 105.5L279 108.5C300.067 108.5 318.978 96.1516 332.56 76.5136C346.145 56.8697 354.5 29.8134 354.5 -2.16844e-05L351.5 -2.19466e-05ZM351.5 -2.19466e-05C351.5 32.3589 343.605 61.5819 330.919 82.6652C318.216 103.778 300.874 116.5 282 116.5L282 119.5C302.338 119.5 320.496 105.807 333.49 84.2119C346.501 62.5877 354.5 32.8106 354.5 -2.16844e-05L351.5 -2.19466e-05ZM351.5 -2.19466e-05C351.5 35.154 344.038 66.9056 332.047 89.814C320.019 112.794 303.663 126.5 286 126.5L286 129.5C305.34 129.5 322.484 114.552 334.705 91.2053C346.963 67.7868 354.5 35.5384 354.5 -2.16844e-05L351.5 -2.19466e-05ZM351.503 0.0983816L360.308 134.024L363.302 133.828L354.497 -0.0984252L351.503 0.0983816ZM357.438 153.93L352.092 168.483L354.908 169.517L360.254 154.964L357.438 153.93ZM360.308 134.024C360.753 140.787 359.775 147.568 357.438 153.93L360.254 154.964C362.736 148.209 363.774 141.009 363.302 133.828L360.308 134.024ZM354.508 45.1504L363.587 135.219L366.572 134.918L357.492 44.8495L354.508 45.1504ZM362.169 152.674L357.885 168.611L360.782 169.389L365.066 153.453L362.169 152.674ZM363.587 135.219C364.177 141.075 363.697 146.99 362.169 152.674L365.066 153.453C366.688 147.417 367.199 141.136 366.572 134.918L363.587 135.219ZM351.503 -0.0984255L342.698 133.828L345.692 134.024L354.497 0.0983818L351.503 -0.0984255ZM345.746 154.964L351.092 169.517L353.908 168.483L348.562 153.93L345.746 154.964ZM342.698 133.828C342.226 141.009 343.264 148.209 345.746 154.964L348.562 153.93C346.225 147.568 345.247 140.787 345.692 134.024L342.698 133.828ZM348.508 44.8495L339.428 134.918L342.413 135.219L351.492 45.1504L348.508 44.8495ZM340.934 153.453L345.218 169.389L348.115 168.611L343.831 152.674L340.934 153.453ZM339.428 134.918C338.801 141.136 339.312 147.417 340.934 153.453L343.831 152.674C342.303 146.99 341.823 141.075 342.413 135.219L339.428 134.918Z" fill="#ECECEC"/>
<path d="M428 75L428 73.5L426.5 73.5L426.5 75L428 75ZM578 75L579.5 75L579.5 73.5L578 73.5L578 75ZM503 -2.18155e-05L504.497 -0.0984252L501.503 -0.0984255L503 -2.18155e-05ZM511.805 133.926L510.308 134.024L510.308 134.024L511.805 133.926ZM508.846 154.447L510.254 154.964L510.254 154.964L508.846 154.447ZM515.079 135.068L513.587 135.219L513.587 135.219L515.079 135.068ZM513.617 153.063L515.066 153.453L515.066 153.453L513.617 153.063ZM494.195 133.926L495.692 134.024L495.692 134.024L494.195 133.926ZM497.154 154.447L495.746 154.964L495.746 154.964L497.154 154.447ZM490.921 135.068L492.413 135.219L490.921 135.068ZM492.383 153.063L490.934 153.453L490.934 153.453L492.383 153.063ZM429.5 94L429.5 75L426.5 75L426.5 94L429.5 94ZM576.5 75L576.5 94L579.5 94L579.5 75L576.5 75ZM503 167.5C462.407 167.5 429.5 134.593 429.5 94L426.5 94C426.5 136.25 460.75 170.5 503 170.5L503 167.5ZM503 170.5C545.25 170.5 579.5 136.25 579.5 94L576.5 94C576.5 134.593 543.593 167.5 503 167.5L503 170.5ZM578 73.5C537.407 73.5 504.5 40.5929 504.5 -2.16844e-05L501.5 -2.19466e-05C501.5 42.2498 535.75 76.5 578 76.5L578 73.5ZM578 83.5C537.578 83.5 504.5 46.2977 504.5 -2.16844e-05L501.5 -2.19466e-05C501.5 47.5907 535.579 86.5 578 86.5L578 83.5ZM578 94.5C537.731 94.5 504.5 52.5567 504.5 -2.16844e-05L501.5 -2.19466e-05C501.5 53.4819 535.427 97.5 578 97.5L578 94.5ZM577 105.5C557.198 105.5 539.109 93.8956 525.908 74.8072C512.711 55.7248 504.5 29.281 504.5 -2.16844e-05L501.5 -2.19466e-05C501.5 29.8134 509.855 56.8697 523.44 76.5136C537.022 96.1516 555.933 108.5 577 108.5L577 105.5ZM574 116.5C555.126 116.5 537.784 103.778 525.081 82.6652C512.395 61.5819 504.5 32.3589 504.5 -2.16844e-05L501.5 -2.19466e-05C501.5 32.8106 509.499 62.5877 522.51 84.2119C535.504 105.807 553.662 119.5 574 119.5L574 116.5ZM570 126.5C552.337 126.5 535.981 112.794 523.953 89.814C511.962 66.9056 504.5 35.154 504.5 -2.16844e-05L501.5 -2.19466e-05C501.5 35.5384 509.037 67.7868 521.295 91.2053C533.516 114.552 550.66 129.5 570 129.5L570 126.5ZM501.5 -2.19466e-05C501.5 40.5929 468.593 73.5 428 73.5L428 76.5C470.25 76.5 504.5 42.2498 504.5 -2.16844e-05L501.5 -2.19466e-05ZM501.5 -2.19466e-05C501.5 46.2977 468.422 83.5 428 83.5L428 86.5C470.421 86.5 504.5 47.5907 504.5 -2.16844e-05L501.5 -2.19466e-05ZM501.5 -2.19466e-05C501.5 52.5567 468.269 94.5 428 94.5L428 97.5C470.573 97.5 504.5 53.4819 504.5 -2.16844e-05L501.5 -2.19466e-05ZM501.5 -2.19466e-05C501.5 29.281 493.289 55.7248 480.092 74.8072C466.891 93.8956 448.802 105.5 429 105.5L429 108.5C450.067 108.5 468.978 96.1516 482.56 76.5136C496.145 56.8697 504.5 29.8134 504.5 -2.16844e-05L501.5 -2.19466e-05ZM501.5 -2.19466e-05C501.5 32.3589 493.605 61.5819 480.919 82.6652C468.216 103.778 450.874 116.5 432 116.5L432 119.5C452.338 119.5 470.496 105.807 483.49 84.2119C496.501 62.5877 504.5 32.8106 504.5 -2.16844e-05L501.5 -2.19466e-05ZM501.5 -2.19466e-05C501.5 35.154 494.038 66.9056 482.047 89.814C470.019 112.794 453.663 126.5 436 126.5L436 129.5C455.34 129.5 472.484 114.552 484.705 91.2053C496.963 67.7868 504.5 35.5384 504.5 -2.16844e-05L501.5 -2.19466e-05ZM501.503 0.0983816L510.308 134.024L513.302 133.828L504.497 -0.0984252L501.503 0.0983816ZM507.438 153.93L502.092 168.483L504.908 169.517L510.254 154.964L507.438 153.93ZM510.308 134.024C510.753 140.787 509.775 147.568 507.438 153.93L510.254 154.964C512.736 148.209 513.774 141.009 513.302 133.828L510.308 134.024ZM504.508 45.1504L513.587 135.219L516.572 134.918L507.492 44.8495L504.508 45.1504ZM512.169 152.674L507.885 168.611L510.782 169.389L515.066 153.453L512.169 152.674ZM513.587 135.219C514.177 141.075 513.697 146.99 512.169 152.674L515.066 153.453C516.688 147.417 517.199 141.136 516.572 134.918L513.587 135.219ZM501.503 -0.0984255L492.698 133.828L495.692 134.024L504.497 0.0983818L501.503 -0.0984255ZM495.746 154.964L501.092 169.517L503.908 168.483L498.562 153.93L495.746 154.964ZM492.698 133.828C492.226 141.009 493.264 148.209 495.746 154.964L498.562 153.93C496.225 147.568 495.247 140.787 495.692 134.024L492.698 133.828ZM498.508 44.8495L489.428 134.918L492.413 135.219L501.492 45.1504L498.508 44.8495ZM490.934 153.453L495.218 169.389L498.115 168.611L493.831 152.674L490.934 153.453ZM489.428 134.918C488.801 141.136 489.312 147.417 490.934 153.453L493.831 152.674C492.303 146.99 491.823 141.075 492.413 135.219L489.428 134.918Z" fill="#ECECEC"/>
<path d="M128 75L128 73.5L126.5 73.5L126.5 75L128 75ZM278 75L279.5 75L279.5 73.5L278 73.5L278 75ZM203 -2.18155e-05L204.497 -0.0984252L201.503 -0.0984255L203 -2.18155e-05ZM211.805 133.926L210.308 134.024L210.308 134.024L211.805 133.926ZM208.846 154.447L210.254 154.964L210.254 154.964L208.846 154.447ZM215.079 135.068L213.587 135.219L213.587 135.219L215.079 135.068ZM213.617 153.063L215.066 153.453L215.066 153.453L213.617 153.063ZM194.195 133.926L195.692 134.024L195.692 134.024L194.195 133.926ZM197.154 154.447L195.746 154.964L195.746 154.964L197.154 154.447ZM190.921 135.068L192.413 135.219L190.921 135.068ZM192.383 153.063L190.934 153.453L190.934 153.453L192.383 153.063ZM129.5 94L129.5 75L126.5 75L126.5 94L129.5 94ZM276.5 75L276.5 94L279.5 94L279.5 75L276.5 75ZM203 167.5C162.407 167.5 129.5 134.593 129.5 94L126.5 94C126.5 136.25 160.75 170.5 203 170.5L203 167.5ZM203 170.5C245.25 170.5 279.5 136.25 279.5 94L276.5 94C276.5 134.593 243.593 167.5 203 167.5L203 170.5ZM278 73.5C237.407 73.5 204.5 40.5929 204.5 -2.16844e-05L201.5 -2.19466e-05C201.5 42.2498 235.75 76.5 278 76.5L278 73.5ZM278 83.5C237.578 83.5 204.5 46.2977 204.5 -2.16844e-05L201.5 -2.19466e-05C201.5 47.5907 235.579 86.5 278 86.5L278 83.5ZM278 94.5C237.731 94.5 204.5 52.5567 204.5 -2.16844e-05L201.5 -2.19466e-05C201.5 53.4819 235.427 97.5 278 97.5L278 94.5ZM277 105.5C257.198 105.5 239.109 93.8956 225.908 74.8072C212.711 55.7248 204.5 29.281 204.5 -2.16844e-05L201.5 -2.19466e-05C201.5 29.8134 209.855 56.8697 223.44 76.5136C237.022 96.1516 255.933 108.5 277 108.5L277 105.5ZM274 116.5C255.126 116.5 237.784 103.778 225.081 82.6652C212.395 61.5819 204.5 32.3589 204.5 -2.16844e-05L201.5 -2.19466e-05C201.5 32.8106 209.499 62.5877 222.51 84.2119C235.504 105.807 253.662 119.5 274 119.5L274 116.5ZM270 126.5C252.337 126.5 235.981 112.794 223.953 89.814C211.962 66.9056 204.5 35.154 204.5 -2.16844e-05L201.5 -2.19466e-05C201.5 35.5384 209.037 67.7868 221.295 91.2053C233.516 114.552 250.66 129.5 270 129.5L270 126.5ZM201.5 -2.19466e-05C201.5 40.5929 168.593 73.5 128 73.5L128 76.5C170.25 76.5 204.5 42.2498 204.5 -2.16844e-05L201.5 -2.19466e-05ZM201.5 -2.19466e-05C201.5 46.2977 168.422 83.5 128 83.5L128 86.5C170.421 86.5 204.5 47.5907 204.5 -2.16844e-05L201.5 -2.19466e-05ZM201.5 -2.19466e-05C201.5 52.5567 168.269 94.5 128 94.5L128 97.5C170.573 97.5 204.5 53.4819 204.5 -2.16844e-05L201.5 -2.19466e-05ZM201.5 -2.19466e-05C201.5 29.281 193.289 55.7248 180.092 74.8072C166.891 93.8956 148.802 105.5 129 105.5L129 108.5C150.067 108.5 168.978 96.1516 182.56 76.5136C196.145 56.8697 204.5 29.8134 204.5 -2.16844e-05L201.5 -2.19466e-05ZM201.5 -2.19466e-05C201.5 32.3589 193.605 61.5819 180.919 82.6652C168.216 103.778 150.874 116.5 132 116.5L132 119.5C152.338 119.5 170.496 105.807 183.49 84.2119C196.501 62.5877 204.5 32.8106 204.5 -2.16844e-05L201.5 -2.19466e-05ZM201.5 -2.19466e-05C201.5 35.154 194.038 66.9056 182.047 89.814C170.019 112.794 153.663 126.5 136 126.5L136 129.5C155.34 129.5 172.484 114.552 184.705 91.2053C196.963 67.7868 204.5 35.5384 204.5 -2.16844e-05L201.5 -2.19466e-05ZM201.503 0.0983816L210.308 134.024L213.302 133.828L204.497 -0.0984252L201.503 0.0983816ZM207.438 153.93L202.092 168.483L204.908 169.517L210.254 154.964L207.438 153.93ZM210.308 134.024C210.753 140.787 209.775 147.568 207.438 153.93L210.254 154.964C212.736 148.209 213.774 141.009 213.302 133.828L210.308 134.024ZM204.508 45.1504L213.587 135.219L216.572 134.918L207.492 44.8495L204.508 45.1504ZM212.169 152.674L207.885 168.611L210.782 169.389L215.066 153.453L212.169 152.674ZM213.587 135.219C214.177 141.075 213.697 146.99 212.169 152.674L215.066 153.453C216.688 147.417 217.199 141.136 216.572 134.918L213.587 135.219ZM201.503 -0.0984255L192.698 133.828L195.692 134.024L204.497 0.0983818L201.503 -0.0984255ZM195.746 154.964L201.092 169.517L203.908 168.483L198.562 153.93L195.746 154.964ZM192.698 133.828C192.226 141.009 193.264 148.209 195.746 154.964L198.562 153.93C196.225 147.568 195.247 140.787 195.692 134.024L192.698 133.828ZM198.508 44.8495L189.428 134.918L192.413 135.219L201.492 45.1504L198.508 44.8495ZM190.934 153.453L195.218 169.389L198.115 168.611L193.831 152.674L190.934 153.453ZM189.428 134.918C188.801 141.136 189.312 147.417 190.934 153.453L193.831 152.674C192.303 146.99 191.823 141.075 192.413 135.219L189.428 134.918Z" fill="#ECECEC"/>
<path d="M-22 75L-22 73.5L-23.5 73.5L-23.5 75L-22 75ZM128 75L129.5 75L129.5 73.5L128 73.5L128 75ZM53 -2.18155e-05L54.4968 -0.0984252L51.5032 -0.0984255L53 -2.18155e-05ZM61.8048 133.926L60.3081 134.024L60.3081 134.024L61.8048 133.926ZM58.8461 154.447L60.2541 154.964L60.2541 154.964L58.8461 154.447ZM65.0795 135.068L63.587 135.219L63.587 135.219L65.0795 135.068ZM63.6174 153.063L65.066 153.453L65.066 153.453L63.6174 153.063ZM44.1952 133.926L45.6919 134.024L45.6919 134.024L44.1952 133.926ZM47.1539 154.447L45.7459 154.964L45.7459 154.964L47.1539 154.447ZM40.9205 135.068L42.413 135.219L40.9205 135.068ZM42.3826 153.063L40.934 153.453L40.934 153.453L42.3826 153.063ZM-20.5 94L-20.5 75L-23.5 75L-23.5 94L-20.5 94ZM126.5 75L126.5 94L129.5 94L129.5 75L126.5 75ZM53 167.5C12.4071 167.5 -20.5 134.593 -20.5 94L-23.5 94C-23.5 136.25 10.7502 170.5 53 170.5L53 167.5ZM53 170.5C95.2498 170.5 129.5 136.25 129.5 94L126.5 94C126.5 134.593 93.5929 167.5 53 167.5L53 170.5ZM128 73.5C87.4071 73.5 54.5 40.5929 54.5 -2.16844e-05L51.5 -2.19466e-05C51.5 42.2498 85.7502 76.5 128 76.5L128 73.5ZM128 83.5C87.578 83.5 54.5 46.2977 54.5 -2.16844e-05L51.5 -2.19466e-05C51.5 47.5907 85.5793 86.5 128 86.5L128 83.5ZM128 94.5C87.7307 94.5 54.5 52.5567 54.5 -2.16844e-05L51.5 -2.19466e-05C51.5 53.4819 85.4266 97.5 128 97.5L128 94.5ZM127 105.5C107.198 105.5 89.1091 93.8956 75.9078 74.8072C62.7106 55.7248 54.5 29.281 54.5 -2.16844e-05L51.5 -2.19466e-05C51.5 29.8134 59.8549 56.8697 73.4404 76.5136C87.0218 96.1516 105.933 108.5 127 108.5L127 105.5ZM124 116.5C105.126 116.5 87.784 103.778 75.0807 82.6652C62.395 61.5819 54.5 32.3589 54.5 -2.16844e-05L51.5 -2.19466e-05C51.5 32.8106 59.4989 62.5877 72.5101 84.2119C85.5038 105.807 103.662 119.5 124 119.5L124 116.5ZM120 126.5C102.337 126.5 85.9812 112.794 73.9528 89.814C61.9617 66.9056 54.5 35.154 54.5 -2.16844e-05L51.5 -2.19466e-05C51.5 35.5384 59.0368 67.7868 71.2949 91.2053C83.5157 114.552 100.66 129.5 120 129.5L120 126.5ZM51.5 -2.19466e-05C51.5 40.5929 18.5929 73.5 -22 73.5L-22 76.5C20.2498 76.5 54.5 42.2498 54.5 -2.16844e-05L51.5 -2.19466e-05ZM51.5 -2.19466e-05C51.5 46.2977 18.422 83.5 -22 83.5L-22 86.5C20.4207 86.5 54.5 47.5907 54.5 -2.16844e-05L51.5 -2.19466e-05ZM51.5 -2.19466e-05C51.5 52.5567 18.2693 94.5 -22 94.5L-22 97.5C20.5735 97.5 54.5 53.4819 54.5 -2.16844e-05L51.5 -2.19466e-05ZM51.5 -2.19466e-05C51.5 29.281 43.2894 55.7248 30.0922 74.8072C16.8909 93.8956 -1.19754 105.5 -21 105.5L-21 108.5C0.0666187 108.5 18.9782 96.1516 32.5596 76.5136C46.1452 56.8697 54.5 29.8134 54.5 -2.16844e-05L51.5 -2.19466e-05ZM51.5 -2.19466e-05C51.5 32.3589 43.6051 61.5819 30.9193 82.6652C18.216 103.778 0.874323 116.5 -18 116.5L-18 119.5C2.33791 119.5 20.4962 105.807 33.4899 84.2119C46.5011 62.5877 54.5 32.8106 54.5 -2.16844e-05L51.5 -2.19466e-05ZM51.5 -2.19466e-05C51.5 35.154 44.0383 66.9056 32.0472 89.814C20.0188 112.794 3.66329 126.5 -14 126.5L-14 129.5C5.3398 129.5 22.4843 114.552 34.7051 91.2053C46.9632 67.7868 54.5 35.5384 54.5 -2.16844e-05L51.5 -2.19466e-05ZM51.5032 0.0983816L60.3081 134.024L63.3016 133.828L54.4968 -0.0984252L51.5032 0.0983816ZM57.4381 153.93L52.0921 168.483L54.9081 169.517L60.2541 154.964L57.4381 153.93ZM60.3081 134.024C60.7527 140.787 59.775 147.568 57.4381 153.93L60.2541 154.964C62.7356 148.209 63.7737 141.009 63.3016 133.828L60.3081 134.024ZM54.5076 45.1504L63.587 135.219L66.5719 134.918L57.4924 44.8495L54.5076 45.1504ZM62.1689 152.674L57.8848 168.611L60.782 169.389L65.066 153.453L62.1689 152.674ZM63.587 135.219C64.1774 141.075 63.6968 146.99 62.1689 152.674L65.066 153.453C66.6885 147.417 67.1988 141.136 66.5719 134.918L63.587 135.219ZM51.5032 -0.0984255L42.6984 133.828L45.6919 134.024L54.4968 0.0983818L51.5032 -0.0984255ZM45.7459 154.964L51.0919 169.517L53.9079 168.483L48.5619 153.93L45.7459 154.964ZM42.6984 133.828C42.2263 141.009 43.2644 148.209 45.7459 154.964L48.5619 153.93C46.225 147.568 45.2473 140.787 45.6919 134.024L42.6984 133.828ZM48.5076 44.8495L39.4281 134.918L42.413 135.219L51.4924 45.1504L48.5076 44.8495ZM40.934 153.453L45.218 169.389L48.1152 168.611L43.8311 152.674L40.934 153.453ZM39.4281 134.918C38.8012 141.136 39.3115 147.417 40.934 153.453L43.8311 152.674C42.3032 146.99 41.8226 141.075 42.413 135.219L39.4281 134.918Z" fill="#ECECEC"/>
<path d="M2528 75.0002L2528 73.5002L2526.5 73.5002L2526.5 75.0002L2528 75.0002ZM2678 75.0002L2679.5 75.0002L2679.5 73.5002L2678 73.5002L2678 75.0002ZM2603 0.000222325L2604.5 -0.0981811L2601.5 -0.0981813L2603 0.000222325ZM2611.8 133.926L2610.31 134.025L2610.31 134.025L2611.8 133.926ZM2608.85 154.447L2610.25 154.964L2610.25 154.964L2608.85 154.447ZM2615.08 135.069L2613.59 135.219L2613.59 135.219L2615.08 135.069ZM2613.62 153.063L2615.07 153.453L2615.07 153.453L2613.62 153.063ZM2594.2 133.926L2595.69 134.025L2595.69 134.025L2594.2 133.926ZM2597.15 154.447L2595.75 154.964L2595.75 154.964L2597.15 154.447ZM2590.92 135.069L2592.41 135.219L2590.92 135.069ZM2592.38 153.063L2590.93 153.453L2590.93 153.453L2592.38 153.063ZM2529.5 94.0002L2529.5 75.0002L2526.5 75.0002L2526.5 94.0002L2529.5 94.0002ZM2676.5 75.0002L2676.5 94.0002L2679.5 94.0002L2679.5 75.0002L2676.5 75.0002ZM2603 167.5C2562.41 167.5 2529.5 134.593 2529.5 94.0002L2526.5 94.0002C2526.5 136.25 2560.75 170.5 2603 170.5L2603 167.5ZM2603 170.5C2645.25 170.5 2679.5 136.25 2679.5 94.0002L2676.5 94.0002C2676.5 134.593 2643.59 167.5 2603 167.5L2603 170.5ZM2678 73.5002C2637.41 73.5002 2604.5 40.5932 2604.5 0.000222456L2601.5 0.000222194C2601.5 42.25 2635.75 76.5002 2678 76.5002L2678 73.5002ZM2678 83.5002C2637.58 83.5002 2604.5 46.2979 2604.5 0.000222456L2601.5 0.000222194C2601.5 47.5909 2635.58 86.5002 2678 86.5002L2678 83.5002ZM2678 94.5002C2637.73 94.5002 2604.5 52.557 2604.5 0.000222456L2601.5 0.000222194C2601.5 53.4821 2635.43 97.5002 2678 97.5002L2678 94.5002ZM2677 105.5C2657.2 105.5 2639.11 93.8958 2625.91 74.8074C2612.71 55.725 2604.5 29.2813 2604.5 0.000222456L2601.5 0.000222194C2601.5 29.8136 2609.85 56.8699 2623.44 76.5139C2637.02 96.1519 2655.93 108.5 2677 108.5L2677 105.5ZM2674 116.5C2655.13 116.5 2637.78 103.778 2625.08 82.6655C2612.39 61.5821 2604.5 32.3592 2604.5 0.000222456L2601.5 0.000222194C2601.5 32.8109 2609.5 62.5879 2622.51 84.2122C2635.5 105.807 2653.66 119.5 2674 119.5L2674 116.5ZM2670 126.5C2652.34 126.5 2635.98 112.794 2623.95 89.8143C2611.96 66.9059 2604.5 35.1543 2604.5 0.000222456L2601.5 0.000222194C2601.5 35.5386 2609.04 67.787 2621.29 91.2055C2633.52 114.553 2650.66 129.5 2670 129.5L2670 126.5ZM2601.5 0.000222194C2601.5 40.5932 2568.59 73.5002 2528 73.5002L2528 76.5002C2570.25 76.5002 2604.5 42.25 2604.5 0.000222456L2601.5 0.000222194ZM2601.5 0.000222194C2601.5 46.2979 2568.42 83.5002 2528 83.5002L2528 86.5002C2570.42 86.5002 2604.5 47.5909 2604.5 0.000222456L2601.5 0.000222194ZM2601.5 0.000222194C2601.5 52.557 2568.27 94.5002 2528 94.5002L2528 97.5002C2570.57 97.5002 2604.5 53.4821 2604.5 0.000222456L2601.5 0.000222194ZM2601.5 0.000222194C2601.5 29.2813 2593.29 55.725 2580.09 74.8074C2566.89 93.8958 2548.8 105.5 2529 105.5L2529 108.5C2550.07 108.5 2568.98 96.1518 2582.56 76.5139C2596.15 56.8699 2604.5 29.8136 2604.5 0.000222456L2601.5 0.000222194ZM2601.5 0.000222194C2601.5 32.3592 2593.61 61.5821 2580.92 82.6655C2568.22 103.778 2550.87 116.5 2532 116.5L2532 119.5C2552.34 119.5 2570.5 105.807 2583.49 84.2122C2596.5 62.5879 2604.5 32.8109 2604.5 0.000222456L2601.5 0.000222194ZM2601.5 0.000222194C2601.5 35.1543 2594.04 66.9059 2582.05 89.8143C2570.02 112.794 2553.66 126.5 2536 126.5L2536 129.5C2555.34 129.5 2572.48 114.553 2584.71 91.2055C2596.96 67.787 2604.5 35.5386 2604.5 0.000222456L2601.5 0.000222194ZM2601.5 0.0986257L2610.31 134.025L2613.3 133.828L2604.5 -0.0981811L2601.5 0.0986257ZM2607.44 153.93L2602.09 168.483L2604.91 169.517L2610.25 154.964L2607.44 153.93ZM2610.31 134.025C2610.75 140.787 2609.78 147.568 2607.44 153.93L2610.25 154.964C2612.74 148.209 2613.77 141.009 2613.3 133.828L2610.31 134.025ZM2604.51 45.1507L2613.59 135.219L2616.57 134.918L2607.49 44.8498L2604.51 45.1507ZM2612.17 152.674L2607.88 168.611L2610.78 169.39L2615.07 153.453L2612.17 152.674ZM2613.59 135.219C2614.18 141.075 2613.7 146.99 2612.17 152.674L2615.07 153.453C2616.69 147.417 2617.2 141.137 2616.57 134.918L2613.59 135.219ZM2601.5 -0.0981813L2592.7 133.828L2595.69 134.025L2604.5 0.098626L2601.5 -0.0981813ZM2595.75 154.964L2601.09 169.517L2603.91 168.483L2598.56 153.93L2595.75 154.964ZM2592.7 133.828C2592.23 141.009 2593.26 148.209 2595.75 154.964L2598.56 153.93C2596.23 147.568 2595.25 140.787 2595.69 134.025L2592.7 133.828ZM2598.51 44.8498L2589.43 134.918L2592.41 135.219L2601.49 45.1507L2598.51 44.8498ZM2590.93 153.453L2595.22 169.39L2598.12 168.611L2593.83 152.674L2590.93 153.453ZM2589.43 134.918C2588.8 141.137 2589.31 147.417 2590.93 153.453L2593.83 152.674C2592.3 146.99 2591.82 141.075 2592.41 135.219L2589.43 134.918Z" fill="#ECECEC"/>
<path d="M2678 75.0002L2678 73.5002L2676.5 73.5002L2676.5 75.0002L2678 75.0002ZM2828 75.0002L2829.5 75.0002L2829.5 73.5002L2828 73.5002L2828 75.0002ZM2753 0.000222325L2754.5 -0.0981811L2751.5 -0.0981813L2753 0.000222325ZM2761.8 133.926L2760.31 134.025L2760.31 134.025L2761.8 133.926ZM2758.85 154.447L2760.25 154.964L2760.25 154.964L2758.85 154.447ZM2765.08 135.069L2763.59 135.219L2763.59 135.219L2765.08 135.069ZM2763.62 153.063L2765.07 153.453L2765.07 153.453L2763.62 153.063ZM2744.2 133.926L2745.69 134.025L2745.69 134.025L2744.2 133.926ZM2747.15 154.447L2745.75 154.964L2745.75 154.964L2747.15 154.447ZM2740.92 135.069L2742.41 135.219L2740.92 135.069ZM2742.38 153.063L2740.93 153.453L2740.93 153.453L2742.38 153.063ZM2679.5 94.0002L2679.5 75.0002L2676.5 75.0002L2676.5 94.0002L2679.5 94.0002ZM2826.5 75.0002L2826.5 94.0002L2829.5 94.0002L2829.5 75.0002L2826.5 75.0002ZM2753 167.5C2712.41 167.5 2679.5 134.593 2679.5 94.0002L2676.5 94.0002C2676.5 136.25 2710.75 170.5 2753 170.5L2753 167.5ZM2753 170.5C2795.25 170.5 2829.5 136.25 2829.5 94.0002L2826.5 94.0002C2826.5 134.593 2793.59 167.5 2753 167.5L2753 170.5ZM2828 73.5002C2787.41 73.5002 2754.5 40.5932 2754.5 0.000222456L2751.5 0.000222194C2751.5 42.25 2785.75 76.5002 2828 76.5002L2828 73.5002ZM2828 83.5002C2787.58 83.5002 2754.5 46.2979 2754.5 0.000222456L2751.5 0.000222194C2751.5 47.5909 2785.58 86.5002 2828 86.5002L2828 83.5002ZM2828 94.5002C2787.73 94.5002 2754.5 52.557 2754.5 0.000222456L2751.5 0.000222194C2751.5 53.4821 2785.43 97.5002 2828 97.5002L2828 94.5002ZM2827 105.5C2807.2 105.5 2789.11 93.8958 2775.91 74.8074C2762.71 55.725 2754.5 29.2813 2754.5 0.000222456L2751.5 0.000222194C2751.5 29.8136 2759.85 56.8699 2773.44 76.5139C2787.02 96.1519 2805.93 108.5 2827 108.5L2827 105.5ZM2824 116.5C2805.13 116.5 2787.78 103.778 2775.08 82.6655C2762.39 61.5821 2754.5 32.3592 2754.5 0.000222456L2751.5 0.000222194C2751.5 32.8109 2759.5 62.5879 2772.51 84.2122C2785.5 105.807 2803.66 119.5 2824 119.5L2824 116.5ZM2820 126.5C2802.34 126.5 2785.98 112.794 2773.95 89.8143C2761.96 66.9059 2754.5 35.1543 2754.5 0.000222456L2751.5 0.000222194C2751.5 35.5386 2759.04 67.787 2771.29 91.2055C2783.52 114.553 2800.66 129.5 2820 129.5L2820 126.5ZM2751.5 0.000222194C2751.5 40.5932 2718.59 73.5002 2678 73.5002L2678 76.5002C2720.25 76.5002 2754.5 42.25 2754.5 0.000222456L2751.5 0.000222194ZM2751.5 0.000222194C2751.5 46.2979 2718.42 83.5002 2678 83.5002L2678 86.5002C2720.42 86.5002 2754.5 47.5909 2754.5 0.000222456L2751.5 0.000222194ZM2751.5 0.000222194C2751.5 52.557 2718.27 94.5002 2678 94.5002L2678 97.5002C2720.57 97.5002 2754.5 53.4821 2754.5 0.000222456L2751.5 0.000222194ZM2751.5 0.000222194C2751.5 29.2813 2743.29 55.725 2730.09 74.8074C2716.89 93.8958 2698.8 105.5 2679 105.5L2679 108.5C2700.07 108.5 2718.98 96.1518 2732.56 76.5139C2746.15 56.8699 2754.5 29.8136 2754.5 0.000222456L2751.5 0.000222194ZM2751.5 0.000222194C2751.5 32.3592 2743.61 61.5821 2730.92 82.6655C2718.22 103.778 2700.87 116.5 2682 116.5L2682 119.5C2702.34 119.5 2720.5 105.807 2733.49 84.2122C2746.5 62.5879 2754.5 32.8109 2754.5 0.000222456L2751.5 0.000222194ZM2751.5 0.000222194C2751.5 35.1543 2744.04 66.9059 2732.05 89.8143C2720.02 112.794 2703.66 126.5 2686 126.5L2686 129.5C2705.34 129.5 2722.48 114.553 2734.71 91.2055C2746.96 67.787 2754.5 35.5386 2754.5 0.000222456L2751.5 0.000222194ZM2751.5 0.0986257L2760.31 134.025L2763.3 133.828L2754.5 -0.0981811L2751.5 0.0986257ZM2757.44 153.93L2752.09 168.483L2754.91 169.517L2760.25 154.964L2757.44 153.93ZM2760.31 134.025C2760.75 140.787 2759.78 147.568 2757.44 153.93L2760.25 154.964C2762.74 148.209 2763.77 141.009 2763.3 133.828L2760.31 134.025ZM2754.51 45.1507L2763.59 135.219L2766.57 134.918L2757.49 44.8498L2754.51 45.1507ZM2762.17 152.674L2757.88 168.611L2760.78 169.39L2765.07 153.453L2762.17 152.674ZM2763.59 135.219C2764.18 141.075 2763.7 146.99 2762.17 152.674L2765.07 153.453C2766.69 147.417 2767.2 141.137 2766.57 134.918L2763.59 135.219ZM2751.5 -0.0981813L2742.7 133.828L2745.69 134.025L2754.5 0.098626L2751.5 -0.0981813ZM2745.75 154.964L2751.09 169.517L2753.91 168.483L2748.56 153.93L2745.75 154.964ZM2742.7 133.828C2742.23 141.009 2743.26 148.209 2745.75 154.964L2748.56 153.93C2746.23 147.568 2745.25 140.787 2745.69 134.025L2742.7 133.828ZM2748.51 44.8498L2739.43 134.918L2742.41 135.219L2751.49 45.1507L2748.51 44.8498ZM2740.93 153.453L2745.22 169.39L2748.12 168.611L2743.83 152.674L2740.93 153.453ZM2739.43 134.918C2738.8 141.137 2739.31 147.417 2740.93 153.453L2743.83 152.674C2742.3 146.99 2741.82 141.075 2742.41 135.219L2739.43 134.918Z" fill="#ECECEC"/>
<path d="M2378 75.0002L2378 73.5002L2376.5 73.5002L2376.5 75.0002L2378 75.0002ZM2528 75.0002L2529.5 75.0002L2529.5 73.5002L2528 73.5002L2528 75.0002ZM2453 0.000222325L2454.5 -0.0981811L2451.5 -0.0981813L2453 0.000222325ZM2461.8 133.926L2460.31 134.025L2460.31 134.025L2461.8 133.926ZM2458.85 154.447L2460.25 154.964L2460.25 154.964L2458.85 154.447ZM2465.08 135.069L2463.59 135.219L2463.59 135.219L2465.08 135.069ZM2463.62 153.063L2465.07 153.453L2465.07 153.453L2463.62 153.063ZM2444.2 133.926L2445.69 134.025L2445.69 134.025L2444.2 133.926ZM2447.15 154.447L2445.75 154.964L2445.75 154.964L2447.15 154.447ZM2440.92 135.069L2442.41 135.219L2440.92 135.069ZM2442.38 153.063L2440.93 153.453L2440.93 153.453L2442.38 153.063ZM2379.5 94.0002L2379.5 75.0002L2376.5 75.0002L2376.5 94.0002L2379.5 94.0002ZM2526.5 75.0002L2526.5 94.0002L2529.5 94.0002L2529.5 75.0002L2526.5 75.0002ZM2453 167.5C2412.41 167.5 2379.5 134.593 2379.5 94.0002L2376.5 94.0002C2376.5 136.25 2410.75 170.5 2453 170.5L2453 167.5ZM2453 170.5C2495.25 170.5 2529.5 136.25 2529.5 94.0002L2526.5 94.0002C2526.5 134.593 2493.59 167.5 2453 167.5L2453 170.5ZM2528 73.5002C2487.41 73.5002 2454.5 40.5932 2454.5 0.000222456L2451.5 0.000222194C2451.5 42.25 2485.75 76.5002 2528 76.5002L2528 73.5002ZM2528 83.5002C2487.58 83.5002 2454.5 46.2979 2454.5 0.000222456L2451.5 0.000222194C2451.5 47.5909 2485.58 86.5002 2528 86.5002L2528 83.5002ZM2528 94.5002C2487.73 94.5002 2454.5 52.557 2454.5 0.000222456L2451.5 0.000222194C2451.5 53.4821 2485.43 97.5002 2528 97.5002L2528 94.5002ZM2527 105.5C2507.2 105.5 2489.11 93.8958 2475.91 74.8074C2462.71 55.725 2454.5 29.2813 2454.5 0.000222456L2451.5 0.000222194C2451.5 29.8136 2459.85 56.8699 2473.44 76.5139C2487.02 96.1519 2505.93 108.5 2527 108.5L2527 105.5ZM2524 116.5C2505.13 116.5 2487.78 103.778 2475.08 82.6655C2462.39 61.5821 2454.5 32.3592 2454.5 0.000222456L2451.5 0.000222194C2451.5 32.8109 2459.5 62.5879 2472.51 84.2122C2485.5 105.807 2503.66 119.5 2524 119.5L2524 116.5ZM2520 126.5C2502.34 126.5 2485.98 112.794 2473.95 89.8143C2461.96 66.9059 2454.5 35.1543 2454.5 0.000222456L2451.5 0.000222194C2451.5 35.5386 2459.04 67.787 2471.29 91.2055C2483.52 114.553 2500.66 129.5 2520 129.5L2520 126.5ZM2451.5 0.000222194C2451.5 40.5932 2418.59 73.5002 2378 73.5002L2378 76.5002C2420.25 76.5002 2454.5 42.25 2454.5 0.000222456L2451.5 0.000222194ZM2451.5 0.000222194C2451.5 46.2979 2418.42 83.5002 2378 83.5002L2378 86.5002C2420.42 86.5002 2454.5 47.5909 2454.5 0.000222456L2451.5 0.000222194ZM2451.5 0.000222194C2451.5 52.557 2418.27 94.5002 2378 94.5002L2378 97.5002C2420.57 97.5002 2454.5 53.4821 2454.5 0.000222456L2451.5 0.000222194ZM2451.5 0.000222194C2451.5 29.2813 2443.29 55.725 2430.09 74.8074C2416.89 93.8958 2398.8 105.5 2379 105.5L2379 108.5C2400.07 108.5 2418.98 96.1518 2432.56 76.5139C2446.15 56.8699 2454.5 29.8136 2454.5 0.000222456L2451.5 0.000222194ZM2451.5 0.000222194C2451.5 32.3592 2443.61 61.5821 2430.92 82.6655C2418.22 103.778 2400.87 116.5 2382 116.5L2382 119.5C2402.34 119.5 2420.5 105.807 2433.49 84.2122C2446.5 62.5879 2454.5 32.8109 2454.5 0.000222456L2451.5 0.000222194ZM2451.5 0.000222194C2451.5 35.1543 2444.04 66.9059 2432.05 89.8143C2420.02 112.794 2403.66 126.5 2386 126.5L2386 129.5C2405.34 129.5 2422.48 114.553 2434.71 91.2055C2446.96 67.787 2454.5 35.5386 2454.5 0.000222456L2451.5 0.000222194ZM2451.5 0.0986257L2460.31 134.025L2463.3 133.828L2454.5 -0.0981811L2451.5 0.0986257ZM2457.44 153.93L2452.09 168.483L2454.91 169.517L2460.25 154.964L2457.44 153.93ZM2460.31 134.025C2460.75 140.787 2459.78 147.568 2457.44 153.93L2460.25 154.964C2462.74 148.209 2463.77 141.009 2463.3 133.828L2460.31 134.025ZM2454.51 45.1507L2463.59 135.219L2466.57 134.918L2457.49 44.8498L2454.51 45.1507ZM2462.17 152.674L2457.88 168.611L2460.78 169.39L2465.07 153.453L2462.17 152.674ZM2463.59 135.219C2464.18 141.075 2463.7 146.99 2462.17 152.674L2465.07 153.453C2466.69 147.417 2467.2 141.137 2466.57 134.918L2463.59 135.219ZM2451.5 -0.0981813L2442.7 133.828L2445.69 134.025L2454.5 0.098626L2451.5 -0.0981813ZM2445.75 154.964L2451.09 169.517L2453.91 168.483L2448.56 153.93L2445.75 154.964ZM2442.7 133.828C2442.23 141.009 2443.26 148.209 2445.75 154.964L2448.56 153.93C2446.23 147.568 2445.25 140.787 2445.69 134.025L2442.7 133.828ZM2448.51 44.8498L2439.43 134.918L2442.41 135.219L2451.49 45.1507L2448.51 44.8498ZM2440.93 153.453L2445.22 169.39L2448.12 168.611L2443.83 152.674L2440.93 153.453ZM2439.43 134.918C2438.8 141.137 2439.31 147.417 2440.93 153.453L2443.83 152.674C2442.3 146.99 2441.82 141.075 2442.41 135.219L2439.43 134.918Z" fill="#ECECEC"/>
<path d="M2228 75.0002L2228 73.5002L2226.5 73.5002L2226.5 75.0002L2228 75.0002ZM2378 75.0002L2379.5 75.0002L2379.5 73.5002L2378 73.5002L2378 75.0002ZM2303 0.000222325L2304.5 -0.0981811L2301.5 -0.0981813L2303 0.000222325ZM2311.8 133.926L2310.31 134.025L2310.31 134.025L2311.8 133.926ZM2308.85 154.447L2310.25 154.964L2310.25 154.964L2308.85 154.447ZM2315.08 135.069L2313.59 135.219L2313.59 135.219L2315.08 135.069ZM2313.62 153.063L2315.07 153.453L2315.07 153.453L2313.62 153.063ZM2294.2 133.926L2295.69 134.025L2295.69 134.025L2294.2 133.926ZM2297.15 154.447L2295.75 154.964L2295.75 154.964L2297.15 154.447ZM2290.92 135.069L2292.41 135.219L2290.92 135.069ZM2292.38 153.063L2290.93 153.453L2290.93 153.453L2292.38 153.063ZM2229.5 94.0002L2229.5 75.0002L2226.5 75.0002L2226.5 94.0002L2229.5 94.0002ZM2376.5 75.0002L2376.5 94.0002L2379.5 94.0002L2379.5 75.0002L2376.5 75.0002ZM2303 167.5C2262.41 167.5 2229.5 134.593 2229.5 94.0002L2226.5 94.0002C2226.5 136.25 2260.75 170.5 2303 170.5L2303 167.5ZM2303 170.5C2345.25 170.5 2379.5 136.25 2379.5 94.0002L2376.5 94.0002C2376.5 134.593 2343.59 167.5 2303 167.5L2303 170.5ZM2378 73.5002C2337.41 73.5002 2304.5 40.5932 2304.5 0.000222456L2301.5 0.000222194C2301.5 42.25 2335.75 76.5002 2378 76.5002L2378 73.5002ZM2378 83.5002C2337.58 83.5002 2304.5 46.2979 2304.5 0.000222456L2301.5 0.000222194C2301.5 47.5909 2335.58 86.5002 2378 86.5002L2378 83.5002ZM2378 94.5002C2337.73 94.5002 2304.5 52.557 2304.5 0.000222456L2301.5 0.000222194C2301.5 53.4821 2335.43 97.5002 2378 97.5002L2378 94.5002ZM2377 105.5C2357.2 105.5 2339.11 93.8958 2325.91 74.8074C2312.71 55.725 2304.5 29.2813 2304.5 0.000222456L2301.5 0.000222194C2301.5 29.8136 2309.85 56.8699 2323.44 76.5139C2337.02 96.1519 2355.93 108.5 2377 108.5L2377 105.5ZM2374 116.5C2355.13 116.5 2337.78 103.778 2325.08 82.6655C2312.39 61.5821 2304.5 32.3592 2304.5 0.000222456L2301.5 0.000222194C2301.5 32.8109 2309.5 62.5879 2322.51 84.2122C2335.5 105.807 2353.66 119.5 2374 119.5L2374 116.5ZM2370 126.5C2352.34 126.5 2335.98 112.794 2323.95 89.8143C2311.96 66.9059 2304.5 35.1543 2304.5 0.000222456L2301.5 0.000222194C2301.5 35.5386 2309.04 67.787 2321.29 91.2055C2333.52 114.553 2350.66 129.5 2370 129.5L2370 126.5ZM2301.5 0.000222194C2301.5 40.5932 2268.59 73.5002 2228 73.5002L2228 76.5002C2270.25 76.5002 2304.5 42.25 2304.5 0.000222456L2301.5 0.000222194ZM2301.5 0.000222194C2301.5 46.2979 2268.42 83.5002 2228 83.5002L2228 86.5002C2270.42 86.5002 2304.5 47.5909 2304.5 0.000222456L2301.5 0.000222194ZM2301.5 0.000222194C2301.5 52.557 2268.27 94.5002 2228 94.5002L2228 97.5002C2270.57 97.5002 2304.5 53.4821 2304.5 0.000222456L2301.5 0.000222194ZM2301.5 0.000222194C2301.5 29.2813 2293.29 55.725 2280.09 74.8074C2266.89 93.8958 2248.8 105.5 2229 105.5L2229 108.5C2250.07 108.5 2268.98 96.1518 2282.56 76.5139C2296.15 56.8699 2304.5 29.8136 2304.5 0.000222456L2301.5 0.000222194ZM2301.5 0.000222194C2301.5 32.3592 2293.61 61.5821 2280.92 82.6655C2268.22 103.778 2250.87 116.5 2232 116.5L2232 119.5C2252.34 119.5 2270.5 105.807 2283.49 84.2122C2296.5 62.5879 2304.5 32.8109 2304.5 0.000222456L2301.5 0.000222194ZM2301.5 0.000222194C2301.5 35.1543 2294.04 66.9059 2282.05 89.8143C2270.02 112.794 2253.66 126.5 2236 126.5L2236 129.5C2255.34 129.5 2272.48 114.553 2284.71 91.2055C2296.96 67.787 2304.5 35.5386 2304.5 0.000222456L2301.5 0.000222194ZM2301.5 0.0986257L2310.31 134.025L2313.3 133.828L2304.5 -0.0981811L2301.5 0.0986257ZM2307.44 153.93L2302.09 168.483L2304.91 169.517L2310.25 154.964L2307.44 153.93ZM2310.31 134.025C2310.75 140.787 2309.78 147.568 2307.44 153.93L2310.25 154.964C2312.74 148.209 2313.77 141.009 2313.3 133.828L2310.31 134.025ZM2304.51 45.1507L2313.59 135.219L2316.57 134.918L2307.49 44.8498L2304.51 45.1507ZM2312.17 152.674L2307.88 168.611L2310.78 169.39L2315.07 153.453L2312.17 152.674ZM2313.59 135.219C2314.18 141.075 2313.7 146.99 2312.17 152.674L2315.07 153.453C2316.69 147.417 2317.2 141.137 2316.57 134.918L2313.59 135.219ZM2301.5 -0.0981813L2292.7 133.828L2295.69 134.025L2304.5 0.098626L2301.5 -0.0981813ZM2295.75 154.964L2301.09 169.517L2303.91 168.483L2298.56 153.93L2295.75 154.964ZM2292.7 133.828C2292.23 141.009 2293.26 148.209 2295.75 154.964L2298.56 153.93C2296.23 147.568 2295.25 140.787 2295.69 134.025L2292.7 133.828ZM2298.51 44.8498L2289.43 134.918L2292.41 135.219L2301.49 45.1507L2298.51 44.8498ZM2290.93 153.453L2295.22 169.39L2298.12 168.611L2293.83 152.674L2290.93 153.453ZM2289.43 134.918C2288.8 141.137 2289.31 147.417 2290.93 153.453L2293.83 152.674C2292.3 146.99 2291.82 141.075 2292.41 135.219L2289.43 134.918Z" fill="#ECECEC"/>
</g>
<defs>
<clipPath id="clip0_701_561">
<rect width="2806" height="173" fill="white" transform="translate(2806 173) rotate(-180)"/>
</clipPath>
</defs>
</svg>
