<svg width="32" height="21" viewBox="0 0 32 21" fill="none" xmlns="http://www.w3.org/2000/svg">
<g clip-path="url(#clip0_364_1885)">
<path d="M9.47942 0C10.4382 0 11.3124 0.0843833 12.102 0.25347C12.8916 0.422396 13.5684 0.699519 14.1323 1.08388C14.6963 1.46872 15.1334 1.98029 15.4436 2.6186C15.7538 3.25691 15.9089 4.04513 15.9089 4.98357C15.9089 5.99729 15.6786 6.84192 15.2181 7.51747C14.7572 8.19317 14.076 8.74678 13.1737 9.1786C14.4144 9.53531 15.3402 10.1597 15.9514 11.0509C16.5619 11.9426 16.8681 13.0174 16.8681 14.2747C16.8681 15.2882 16.6707 16.166 16.2757 16.9075C15.8811 17.6492 15.3497 18.2544 14.6827 18.723C14.0152 19.1926 13.2537 19.5395 12.3985 19.7652C11.5378 19.9909 10.6516 20.1043 9.76178 20.1027H0.00439453V0H9.47942ZM8.91549 8.13708C9.70512 8.13708 10.3536 7.94945 10.8613 7.57388C11.3689 7.19863 11.6226 6.58845 11.6226 5.74382C11.6226 5.27476 11.5381 4.88976 11.3689 4.58946C11.1997 4.28933 10.9742 4.05423 10.6921 3.88563C10.4101 3.71654 10.0858 3.59972 9.7192 3.53355C9.34217 3.46707 8.95997 3.43413 8.5771 3.4351H4.43177V8.13724H8.91549V8.13708ZM9.1692 16.6678C9.60139 16.6678 10.0152 16.6254 10.4099 16.541C10.8046 16.4565 11.1523 16.3157 11.4534 16.1185C11.7539 15.9218 11.9936 15.6541 12.1724 15.3161C12.3509 14.9784 12.4402 14.5467 12.4402 14.0209C12.4402 12.989 12.1486 12.2522 11.5661 11.8109C10.9831 11.3699 10.2124 11.1491 9.25372 11.1491H4.43177V16.6675L9.1692 16.6678ZM22.4396 16.2455C23.0412 16.8279 23.906 17.1183 25.0341 17.1183C25.8421 17.1183 26.5379 16.9169 27.1206 16.5131C27.7034 16.11 28.0607 15.6827 28.1922 15.232H31.7171C31.1534 16.9775 30.2882 18.226 29.1229 18.9765C27.9569 19.7275 26.5469 20.1027 24.8927 20.1027C23.746 20.1027 22.7118 19.9197 21.7907 19.5536C20.8694 19.1878 20.089 18.6668 19.4503 17.9911C18.811 17.3155 18.3175 16.5089 17.9697 15.57C17.6217 14.6317 17.4482 13.5991 17.4482 12.4729C17.4482 11.3846 17.6263 10.371 17.9839 9.43239C18.3407 8.49411 18.8482 7.68224 19.5068 6.99678C20.1644 6.31197 20.9496 5.77227 21.8615 5.378C22.7731 4.98373 23.7836 4.78684 24.8929 4.78684C26.1337 4.78684 27.2145 5.02608 28.1361 5.50473C29.0569 5.98322 29.8137 6.62681 30.4062 7.43324C30.9983 8.24048 31.4257 9.16039 31.6895 10.1923C31.9526 11.2249 32.0462 12.304 31.9715 13.4302H21.453C21.5092 14.725 21.8376 15.664 22.4396 16.2455ZM26.9656 8.58744C26.4864 8.06212 25.7576 7.79906 24.7803 7.79906C24.141 7.79906 23.6101 7.90726 23.1872 8.12285C22.7641 8.33909 22.4256 8.60598 22.1717 8.92529C21.9181 9.24461 21.7392 9.58262 21.6361 9.93885C21.5325 10.2956 21.4714 10.6147 21.4527 10.8962H27.9667C27.7788 9.88244 27.4452 9.11308 26.9656 8.58744ZM20.7688 1.02075H28.9078V3.27385H20.7688V1.02075Z" fill="#ECECEC"/>
</g>
<defs>
<clipPath id="clip0_364_1885">
<rect width="32" height="20.1026" fill="white"/>
</clipPath>
</defs>
</svg>
