<svg width="96" height="8" viewBox="0 0 96 8" fill="none" xmlns="http://www.w3.org/2000/svg">
<path d="M25.5731 5.80868C23.7694 5.80868 22.2779 4.47222 22.0347 2.73554L46.5 2.73555L46.5 5.80869L34.25 5.80868L25.5731 5.80868Z" stroke="white"/>
<path d="M23.5 5.29044L12 5.29043L3.55485 5.29043C1.8677 5.29043 0.500001 3.92273 0.500001 2.23558V2.23558L23.5 2.23558" stroke="white"/>
<path d="M70.4269 5.80869C72.2306 5.80869 73.7221 4.47223 73.9653 2.73555L49.5 2.73555L49.5 5.80869L61.75 5.80869L70.4269 5.80869Z" stroke="white"/>
<path d="M72.5 5.29041L84 5.29041L92.4451 5.29041C94.1323 5.29041 95.5 3.92271 95.5 2.23556V2.23556L72.5 2.23555" stroke="white"/>
<path d="M54 0.453567C54 2.14148 53.3679 3.76026 52.2426 4.95379C51.1174 6.14732 49.5913 6.81784 48 6.81784C46.4087 6.81784 44.8826 6.14732 43.7574 4.95379C42.6321 3.76025 42 2.14147 42 0.453563L48 0.453565L54 0.453567Z" fill="white" stroke="white" stroke-width="0.5"/>
</svg>
