<svg width="192" height="15" viewBox="0 0 192 15" fill="none" xmlns="http://www.w3.org/2000/svg">
<path d="M93 11.9817L68.5 11.9817L51.1463 11.9817C47.5389 11.9817 44.5558 9.3088 44.0694 5.83544L93 5.83545L93 11.9817Z" stroke="#ECECEC" stroke-width="2"/>
<path d="M47 10.9452L24 10.9452L7.1097 10.9452C3.73541 10.9452 1 8.20977 1 4.83548V4.83548L47 4.83549" stroke="#ECECEC" stroke-width="2"/>
<path d="M99 11.9817L123.5 11.9817L140.854 11.9817C144.461 11.9817 147.444 9.30882 147.931 5.83546L99 5.83544L99 11.9817Z" stroke="#ECECEC" stroke-width="2"/>
<path d="M145 10.9452L168 10.9452L184.89 10.9452C188.265 10.9452 191 8.20976 191 4.83546V4.83546L145 4.83545" stroke="#ECECEC" stroke-width="2"/>
<path d="M108 1.27145C108 4.64728 106.736 7.88483 104.485 10.2719C102.235 12.659 99.1826 14 96 14C92.8174 14 89.7652 12.659 87.5147 10.2719C85.2643 7.88483 84 4.64727 84 1.27145L96 1.27145L108 1.27145Z" fill="#ECECEC" stroke="#ECECEC"/>
</svg>
