<svg width="96" height="8" viewBox="0 0 96 8" fill="none" xmlns="http://www.w3.org/2000/svg">
<path d="M70.4269 1.46268C72.2306 1.46268 73.7221 2.79914 73.9653 4.53582L49.5 4.53581L49.5 1.46268L61.75 1.46268L70.4269 1.46268Z" stroke="white"/>
<path d="M72.5 1.98096L84 1.98096L92.4451 1.98096C94.1323 1.98096 95.5 3.34866 95.5 5.03581V5.03581L72.5 5.03581" stroke="white"/>
<path d="M25.5731 1.46267C23.7694 1.46267 22.2779 2.79913 22.0347 4.53581L46.5 4.53582L46.5 1.46268L34.25 1.46267L25.5731 1.46267Z" stroke="white"/>
<path d="M23.5 1.98099L12 1.98099L3.55486 1.98098C1.86771 1.98098 0.5 3.34869 0.5 5.03584V5.03584L23.5 5.03584" stroke="white"/>
<path d="M42 6.81783C42 5.12992 42.6321 3.51114 43.7574 2.3176C44.8826 1.12407 46.4087 0.453551 48 0.453551C49.5913 0.453551 51.1174 1.12407 52.2426 2.3176C53.3679 3.51114 54 5.12992 54 6.81783L48 6.81783L42 6.81783Z" fill="white" stroke="white" stroke-width="0.5"/>
</svg>
