<svg width="192" height="15" viewBox="0 0 192 15" fill="none" xmlns="http://www.w3.org/2000/svg">
<path d="M140.854 3.01832C144.461 3.01832 147.444 5.69123 147.931 9.16459L99 9.16458L99 3.01831L123.5 3.01832L140.854 3.01832Z" stroke="white" stroke-width="2"/>
<path d="M145 4.05481L168 4.05481L184.89 4.05482C188.265 4.05482 191 6.79022 191 10.1645V10.1645L145 10.1645" stroke="white" stroke-width="2"/>
<path d="M51.1463 3.0183C47.5389 3.0183 44.5558 5.69122 44.0694 9.16458L93 9.16459L93 3.01831L68.5 3.01831L51.1463 3.0183Z" stroke="white" stroke-width="2"/>
<path d="M47 4.05487L24 4.05487L7.10971 4.05486C3.73541 4.05486 1 6.79027 1 10.1646V10.1646L47 10.1646" stroke="white" stroke-width="2"/>
<path d="M84 13.7285C84 10.3527 85.2643 7.11517 87.5147 4.7281C89.7651 2.34104 92.8174 0.999998 96 0.999998C99.1826 0.999998 102.235 2.34104 104.485 4.7281C106.736 7.11517 108 10.3527 108 13.7286L96 13.7285L84 13.7285Z" fill="white" stroke="white"/>
</svg>
