<svg width="13" height="16" viewBox="0 0 13 16" fill="none" xmlns="http://www.w3.org/2000/svg">
<path fill-rule="evenodd" clip-rule="evenodd" d="M7.4357 16C3.30742 16 -1.57545e-07 12.3958 -3.49691e-07 8C-5.41837e-07 3.60422 3.30742 -7.40618e-07 7.4357 -9.21071e-07L9.54915 -1.01345e-06L9.54915 0.307691C9.54915 2.37764 9.53901 4.02577 9.53097 5.33176C9.53003 5.48459 9.52912 5.63273 9.52825 5.77632C9.58561 5.78702 9.63397 5.80814 9.6707 5.82807C9.72374 5.85684 9.77066 5.89308 9.81001 5.92726C9.88771 5.99474 9.96927 6.08404 10.0485 6.17371C10.0806 6.21005 10.1135 6.2478 10.1474 6.2867C10.289 6.44919 10.4481 6.63179 10.6405 6.81649C10.9737 7.13633 11.3861 7.44132 11.9072 7.59285L12.657 7.69513L12.657 8.30487L11.9071 8.40715C11.3861 8.55868 10.9737 8.86367 10.6405 9.18351C10.4481 9.36821 10.289 9.55081 10.1474 9.7133C10.1135 9.7522 10.0806 9.78995 10.0485 9.82629C9.96927 9.91596 9.88771 10.0053 9.81001 10.0727C9.77066 10.1069 9.72374 10.1432 9.6707 10.1719C9.63397 10.1919 9.58561 10.213 9.52825 10.2237C9.52912 10.3673 9.53003 10.5154 9.53097 10.6682C9.53901 11.9742 9.54915 13.6224 9.54915 15.6923L9.54915 16L7.4357 16ZM8.91662 5.16142C8.92405 3.94637 8.9328 2.44826 8.93369 0.615384L8.59858 0.615384C8.59856 0.636105 8.59854 0.6568 8.59852 0.677467C8.59767 1.60636 8.59686 2.48029 8.64643 3.28292C8.68954 3.98078 8.77017 4.61059 8.91662 5.16142ZM7.98319 0.615384L7.55398 0.615384C7.5632 2.62207 7.67403 4.35504 8.31478 5.60677C8.38808 5.74996 8.46829 5.8867 8.55613 6.01669C8.53393 5.96355 8.5126 5.90973 8.49212 5.85526C8.21456 5.11703 8.08978 4.25276 8.03222 3.32085C7.98136 2.49754 7.98223 1.60271 7.98313 0.676838C7.98315 0.656368 7.98317 0.635883 7.98319 0.615384ZM7.78257 5.91735C7.77735 5.90732 7.77216 5.89726 7.767 5.88718C7.05408 4.49446 6.94773 2.62455 6.93863 0.634775C6.7942 0.646081 6.65097 0.662273 6.50907 0.683204C6.52691 2.66127 6.7486 4.37403 7.55886 5.60814C7.62861 5.71438 7.70306 5.81753 7.78257 5.91735ZM5.89495 0.805136C5.74939 0.841605 5.60556 0.883127 5.46365 0.929528C5.48584 2.83106 5.81504 4.48185 6.79943 5.67092C6.87506 5.76229 6.95489 5.8513 7.03914 5.9378C6.14754 4.57397 5.9201 2.75209 5.89495 0.805136ZM6.08008 5.74207C5.19526 4.48437 4.89464 2.87821 4.85241 1.16448C4.73792 1.21528 4.62496 1.26937 4.51364 1.32662C4.54244 3.08732 4.9622 4.62414 6.08008 5.74207ZM3.90885 1.67917C2.20848 2.79336 0.988799 4.6899 0.687625 6.91983L1.7366 6.61552C2.33194 6.44282 2.95189 6.3884 3.56583 6.45519L3.57415 6.4561L6.46027 6.84989C6.17098 6.65298 5.90968 6.43812 5.6745 6.20655C4.45677 5.00751 3.98734 3.40786 3.90885 1.67917ZM0.687625 9.08018C0.9888 11.3101 2.20848 13.2066 3.90885 14.3208C3.98734 12.5921 4.45677 10.9925 5.6745 9.79345C5.90968 9.56188 6.17098 9.34702 6.46027 9.15011L3.56584 9.54492C2.9519 9.61171 2.33194 9.55718 1.7366 9.38448L0.687625 9.08018ZM6.08008 10.2579C4.9622 11.3759 4.54244 12.9127 4.51364 14.6734C4.62496 14.7306 4.73792 14.7847 4.85241 14.8355C4.89464 13.1218 5.19526 11.5156 6.08008 10.2579ZM5.46365 15.0705C5.60556 15.1169 5.74939 15.1584 5.89496 15.1949C5.9201 13.2479 6.14754 11.426 7.03914 10.0622C6.95489 10.1487 6.87506 10.2377 6.79943 10.3291C5.81504 11.5182 5.48584 13.1689 5.46365 15.0705ZM7.78257 10.0827C7.70306 10.1825 7.62861 10.2856 7.55886 10.3919C6.7486 11.626 6.52691 13.3387 6.50908 15.3168C6.65097 15.3377 6.7942 15.3539 6.93863 15.3652C6.94774 13.3754 7.05408 11.5055 7.767 10.1128C7.77216 10.1027 7.77735 10.0927 7.78257 10.0827ZM7.55399 15.3846L7.98319 15.3846C7.98317 15.3641 7.98315 15.3436 7.98313 15.3232C7.98223 14.3973 7.98136 13.5025 8.03222 12.6791C8.08978 11.7472 8.21456 10.883 8.49212 10.1447C8.5126 10.0903 8.53393 10.0365 8.55613 9.98331C8.46829 10.1133 8.38808 10.25 8.31478 10.3932C7.67403 11.645 7.5632 13.3779 7.55399 15.3846ZM8.90699 7.93608L3.61491 7.40355C3.00027 7.36061 2.38363 7.45674 1.80421 7.68644L1.01324 8L1.80421 8.31356C2.38362 8.54326 3.00026 8.63939 3.61489 8.59645L8.90699 8.06392C8.9071 8.0424 8.90721 8.0211 8.90734 8C8.90721 7.9789 8.9071 7.9576 8.90699 7.93608ZM8.91662 10.8386C8.77017 11.3894 8.68954 12.0192 8.64643 12.7171C8.59686 13.5197 8.59767 14.3936 8.59852 15.3225C8.59854 15.3432 8.59856 15.3639 8.59858 15.3846L8.93369 15.3846C8.9328 13.5517 8.92406 12.0536 8.91662 10.8386Z" fill="#101010"/>
</svg>
