<svg width="13" height="16" viewBox="0 0 13 16" fill="none" xmlns="http://www.w3.org/2000/svg">
<path fill-rule="evenodd" clip-rule="evenodd" d="M5.22128 8.86698e-08C9.34956 3.94406e-08 12.657 3.60422 12.657 8C12.657 12.3958 9.34956 16 5.22128 16L3.10783 16L3.10783 15.6923C3.10783 13.6224 3.11797 11.9742 3.12601 10.6682C3.12695 10.5154 3.12787 10.3673 3.12873 10.2237C3.07138 10.213 3.02301 10.1919 2.98628 10.1719C2.93324 10.1432 2.88632 10.1069 2.84697 10.0727C2.76927 10.0053 2.68771 9.91596 2.60851 9.82629C2.5764 9.78995 2.54351 9.7522 2.50961 9.7133C2.36802 9.55081 2.20889 9.36821 2.01649 9.18351C1.6833 8.86367 1.27092 8.55868 0.749832 8.40715L1.37647e-05 8.30487L1.37575e-05 7.69513L0.749835 7.59285C1.27092 7.44132 1.6833 7.13633 2.01649 6.81649C2.20889 6.63179 2.36802 6.44919 2.50961 6.2867C2.54351 6.2478 2.5764 6.21005 2.60851 6.17371C2.68771 6.08404 2.76927 5.99475 2.84697 5.92726C2.88632 5.89308 2.93324 5.85684 2.98628 5.82807C3.02301 5.80814 3.07138 5.78702 3.12873 5.77633C3.12787 5.63274 3.12695 5.48459 3.12601 5.33176C3.11797 4.02577 3.10783 2.37764 3.10783 0.307692L3.10783 1.13873e-07L5.22128 8.86698e-08ZM3.74036 10.8386C3.73293 12.0536 3.72419 13.5517 3.72329 15.3846L4.0584 15.3846C4.05842 15.3639 4.05844 15.3432 4.05846 15.3225C4.05932 14.3936 4.06013 13.5197 4.01055 12.7171C3.96744 12.0192 3.88681 11.3894 3.74036 10.8386ZM4.67379 15.3846L5.103 15.3846C5.09378 13.3779 4.98295 11.645 4.3422 10.3932C4.2689 10.25 4.1887 10.1133 4.10085 9.98331C4.12306 10.0365 4.14438 10.0903 4.16486 10.1447C4.44242 10.883 4.5672 11.7472 4.62476 12.6791C4.67562 13.5025 4.67475 14.3973 4.67385 15.3232C4.67383 15.3436 4.67381 15.3641 4.67379 15.3846ZM4.87441 10.0827C4.87963 10.0927 4.88482 10.1027 4.88999 10.1128C5.60291 11.5055 5.70925 13.3754 5.71835 15.3652C5.86278 15.3539 6.00602 15.3377 6.14791 15.3168C6.13007 13.3387 5.90838 11.626 5.09812 10.3919C5.02837 10.2856 4.95392 10.1825 4.87441 10.0827ZM6.76203 15.1949C6.90759 15.1584 7.05142 15.1169 7.19333 15.0705C7.17114 13.1689 6.84194 11.5182 5.85756 10.3291C5.78192 10.2377 5.70209 10.1487 5.61784 10.0622C6.50944 11.426 6.73688 13.2479 6.76203 15.1949ZM6.5769 10.2579C7.46172 11.5156 7.76234 13.1218 7.80457 14.8355C7.91906 14.7847 8.03202 14.7306 8.14335 14.6734C8.11454 12.9127 7.69478 11.3759 6.5769 10.2579ZM8.74813 14.3208C10.4485 13.2066 11.6682 11.3101 11.9694 9.08017L10.9204 9.38448C10.325 9.55718 9.7051 9.6116 9.09115 9.54481L9.08283 9.5439L6.19671 9.15011C6.486 9.34702 6.7473 9.56188 6.98249 9.79345C8.20021 10.9925 8.66964 12.5921 8.74813 14.3208ZM11.9694 6.91982C11.6682 4.6899 10.4485 2.79336 8.74813 1.67917C8.66964 3.40786 8.20021 5.00751 6.98249 6.20655C6.7473 6.43812 6.486 6.65298 6.19671 6.84989L9.09114 6.45508C9.70508 6.38829 10.325 6.44282 10.9204 6.61552L11.9694 6.91982ZM6.5769 5.74207C7.69478 4.62413 8.11454 3.08733 8.14335 1.32663C8.03202 1.26937 7.91906 1.21529 7.80457 1.16448C7.76234 2.87822 7.46172 4.48437 6.5769 5.74207ZM7.19333 0.929529C7.05142 0.883128 6.90759 0.841605 6.76203 0.805137C6.73688 2.75209 6.50944 4.57397 5.61784 5.9378C5.70209 5.8513 5.78192 5.76229 5.85756 5.67092C6.84194 4.48185 7.17114 2.83105 7.19333 0.929529ZM4.87441 5.91735C4.95392 5.81753 5.02837 5.71438 5.09812 5.60814C5.90838 4.37403 6.13007 2.66127 6.14791 0.683206C6.00602 0.662275 5.86278 0.646082 5.71835 0.634776C5.70925 2.62455 5.60291 4.49446 4.88999 5.88718C4.88482 5.89726 4.87963 5.90732 4.87441 5.91735ZM5.103 0.615385L4.67379 0.615385C4.67381 0.635884 4.67383 0.656369 4.67385 0.676839C4.67475 1.60271 4.67562 2.49754 4.62476 3.32085C4.5672 4.25276 4.44242 5.11703 4.16486 5.85526C4.14438 5.90973 4.12306 5.96355 4.10085 6.01669C4.18869 5.8867 4.2689 5.74996 4.3422 5.60677C4.98295 4.35504 5.09378 2.62207 5.103 0.615385ZM3.75 8.06392L9.04207 8.59645C9.65671 8.63939 10.2734 8.54326 10.8528 8.31356L11.6437 8L10.8528 7.68644C10.2734 7.45674 9.65673 7.36061 9.04209 7.40355L3.75 7.93608C3.74989 7.9576 3.74977 7.9789 3.74964 8C3.74977 8.0211 3.74989 8.0424 3.75 8.06392ZM3.74036 5.16142C3.88681 4.61059 3.96744 3.98078 4.01055 3.28292C4.06013 2.48029 4.05932 1.60636 4.05846 0.677469C4.05844 0.656801 4.05842 0.636106 4.0584 0.615385L3.72329 0.615385C3.72419 2.44827 3.73293 3.94637 3.74036 5.16142Z" fill="#101010"/>
</svg>
