<svg width="46" height="40" viewBox="0 0 46 40" fill="none" xmlns="http://www.w3.org/2000/svg">
<path d="M0.999999 11.417L0.999999 10.917L0.499999 10.917L0.499999 11.417L0.999999 11.417ZM45 11.417L45.5 11.417L45.5 10.917L45 10.917L45 11.417ZM23 1L23.4961 0.937326L22.5039 0.937326L23 1ZM25.5828 28.708L26.0819 28.6752L26.0806 28.6616L25.5828 28.708ZM24.7149 34.7296L25.1842 34.9019L25.1842 34.9019L24.7149 34.7296ZM26.5433 29.0432L27.041 28.9931L27.0394 28.9806L26.5433 29.0432ZM26.1144 34.3236L26.5973 34.4533L26.1144 34.3236ZM20.4172 28.708L19.9192 28.6616L19.9183 28.6752L20.4172 28.708ZM21.2851 34.7296L20.8158 34.9019L20.8158 34.9019L21.2851 34.7296ZM19.4567 29.0432L18.9605 28.9805L18.9592 28.9931L19.4567 29.0432ZM19.8855 34.3236L19.4027 34.4533L19.8855 34.3236ZM1.5 16.9923L1.5 11.417L0.499999 11.417L0.499998 16.9923L1.5 16.9923ZM44.5 11.417L44.5 16.9923L45.5 16.9923L45.5 11.417L44.5 11.417ZM23 38.5C11.126 38.5 1.5 28.8708 1.5 16.9923L0.499998 16.9923C0.499997 29.4228 10.5734 39.5 23 39.5L23 38.5ZM23 39.5C35.4266 39.5 45.5 29.4228 45.5 16.9923L44.5 16.9923C44.5 28.8708 34.874 38.5 23 38.5L23 39.5ZM45 10.917C33.9846 10.917 27.1305 11.0256 23.0033 10.9986C20.9371 10.985 19.592 10.9373 18.7677 10.83C18.349 10.7755 18.1132 10.711 17.994 10.6543C17.8842 10.6021 18 10.6257 18 10.7664C18 10.8182 17.9808 10.7784 18.1259 10.598C18.2533 10.4397 18.4461 10.2456 18.7044 9.9992C19.2077 9.5193 19.9183 8.88088 20.6236 8.08759C22.0441 6.49013 23.5 4.20613 23.5 1L22.5 1C22.5 3.87115 21.2059 5.9279 19.8764 7.4231C19.2067 8.17615 18.5423 8.77205 18.0143 9.27549C17.7571 9.52079 17.5202 9.75562 17.3468 9.97112C17.1911 10.1646 17 10.4435 17 10.7664C17 11.1785 17.2877 11.4258 17.5646 11.5574C17.8321 11.6847 18.1979 11.7643 18.6386 11.8216C19.533 11.938 20.9379 11.9851 22.9967 11.9986C27.1195 12.0256 34.0154 11.917 45 11.917L45 10.917ZM45 13.8514C41.9533 13.8514 39.0809 13.8775 36.4699 13.7034C33.8586 13.5293 31.5499 13.1566 29.6317 12.3781C27.7251 11.6042 26.2086 10.4315 25.1601 8.64451C24.1062 6.84826 23.5 4.38823 23.5 1L22.5 1C22.5 4.49935 23.125 7.15201 24.2976 9.15056C25.4757 11.1584 27.181 12.4626 29.2556 13.3046C31.3187 14.142 33.7505 14.5243 36.4033 14.7012C39.0564 14.8781 41.9715 14.8514 45 14.8514L45 13.8514ZM45 17.0792C38.9034 17.0792 33.536 16.8139 29.6855 14.6861C27.7801 13.6332 26.2441 12.1211 25.1783 9.93484C24.1083 7.7399 23.5 4.84003 23.5 1L22.5 1C22.5 4.93887 23.123 8.00084 24.2794 10.373C25.4401 12.7539 27.126 14.4142 29.2018 15.5614C33.3138 17.8337 38.9463 18.0792 45 18.0792L45 17.0792ZM44.7067 20.3069C38.7192 20.3069 33.436 19.6839 29.6469 16.9982C25.8996 14.3422 23.5 9.57862 23.5 1L22.5 1C22.5 9.76185 24.9596 14.9017 29.0686 17.8141C33.1357 20.6968 38.7059 21.3069 44.7067 21.3069L44.7067 20.3069ZM43.8267 23.5347C38.1146 23.5347 33.0628 22.5596 29.4332 19.3157C25.8139 16.0811 23.5 10.4903 23.5 1L22.5 1C22.5 10.6329 24.8484 16.5594 28.7668 20.0614C32.6749 23.5541 38.0365 24.5347 43.8267 24.5347L43.8267 23.5347ZM42.6533 26.4691C37.3012 26.4691 32.5509 25.1818 29.1257 21.4265C25.6899 17.6595 23.5 11.3152 23.5 1L22.5 1C22.5 11.4286 24.7097 18.0688 28.3869 22.1004C32.0748 26.1438 37.1512 27.4691 42.6533 27.4691L42.6533 26.4691ZM22.5 1C22.5 4.20613 23.9559 6.49013 25.3764 8.0876C26.0817 8.88088 26.7923 9.5193 27.2956 9.9992C27.5539 10.2456 27.7467 10.4397 27.8741 10.598C28.0192 10.7784 28 10.8182 28 10.7664C28 10.6257 28.1158 10.6021 28.006 10.6544C27.8868 10.711 27.651 10.7755 27.2323 10.83C26.408 10.9373 25.0629 10.985 22.9967 10.9986C18.8695 11.0256 12.0154 10.917 0.999999 10.917L0.999999 11.917C11.9846 11.917 18.8805 12.0256 23.0033 11.9986C25.0621 11.9851 26.467 11.938 27.3614 11.8216C27.8021 11.7643 28.1679 11.6847 28.4354 11.5574C28.7123 11.4258 29 11.1785 29 10.7664C29 10.4435 28.8089 10.1646 28.6532 9.97112C28.4798 9.75562 28.2429 9.52079 27.9857 9.27549C27.4577 8.77205 26.7933 8.17615 26.1236 7.4231C24.7941 5.9279 23.5 3.87115 23.5 1L22.5 1ZM22.5 1C22.5 4.38823 21.8938 6.84826 20.8399 8.64451C19.7914 10.4315 18.2749 11.6042 16.3683 12.3781C14.4501 13.1566 12.1414 13.5293 9.53013 13.7034C6.91909 13.8775 4.04665 13.8513 0.999998 13.8513L0.999998 14.8513C4.02848 14.8513 6.94361 14.8781 9.59666 14.7012C12.2495 14.5243 14.6814 14.142 16.7444 13.3046C18.819 12.4626 20.5243 11.1584 21.7024 9.15056C22.875 7.15201 23.5 4.49935 23.5 1L22.5 1ZM22.5 1C22.5 4.84003 21.8917 7.7399 20.8217 9.93484C19.7559 12.1211 18.2199 13.6332 16.3145 14.6861C12.464 16.8139 7.09659 17.0791 0.999998 17.0791L0.999998 18.0791C7.05368 18.0791 12.6862 17.8337 16.7982 15.5614C18.874 14.4142 20.5599 12.7539 21.7206 10.373C22.877 8.00084 23.5 4.93887 23.5 1L22.5 1ZM22.5 1C22.5 9.57862 20.1004 14.3422 16.3531 16.9982C12.564 19.6839 7.28084 20.3069 1.29333 20.3069L1.29333 21.3069C7.29409 21.3069 12.8643 20.6968 16.9314 17.8141C21.0404 14.9017 23.5 9.76185 23.5 1L22.5 1ZM22.5 1C22.5 10.4903 20.1861 16.0811 16.5668 19.3157C12.9372 22.5596 7.88541 23.5347 2.17333 23.5347L2.17333 24.5347C7.9635 24.5347 13.3251 23.5541 17.2332 20.0614C21.1516 16.5594 23.5 10.6329 23.5 1L22.5 1ZM22.5 1C22.5 11.3152 20.3101 17.6595 16.8743 21.4265C13.4491 25.1818 8.69877 26.4691 3.34667 26.4691L3.34667 27.4691C8.8488 27.4691 13.9252 26.1437 17.6131 22.1004C21.2903 18.0688 23.5 11.4286 23.5 1L22.5 1ZM22.5022 1.04641L25.0849 28.7544L26.0806 28.6616L23.4978 0.953596L22.5022 1.04641ZM24.2455 34.5572L22.6773 38.8276L23.6161 39.1723L25.1842 34.9019L24.2455 34.5572ZM25.0838 28.7408C25.2137 30.7169 24.9281 32.6983 24.2455 34.5572L25.1842 34.9019C25.915 32.9119 26.2207 30.7907 26.0817 28.6752L25.0838 28.7408ZM22.5039 1.06268L26.0473 29.1059L27.0394 28.9806L23.4961 0.937326L22.5039 1.06268ZM25.6316 34.1938L24.3749 38.8702L25.3407 39.1298L26.5973 34.4533L25.6316 34.1938ZM26.0458 29.0934C26.2183 30.8046 26.0779 32.5329 25.6316 34.1938L26.5973 34.4533C27.0751 32.6752 27.2254 30.825 27.0408 28.9931L26.0458 29.0934ZM22.5022 0.953596L19.9194 28.6616L20.9151 28.7544L23.4978 1.04641L22.5022 0.953596ZM20.8158 34.9019L22.3839 39.1723L23.3227 38.8276L21.7545 34.5572L20.8158 34.9019ZM19.9183 28.6752C19.7793 30.7907 20.085 32.9119 20.8158 34.9019L21.7545 34.5572C21.0719 32.6983 20.7863 30.7169 20.9162 28.7408L19.9183 28.6752ZM22.5039 0.937326L18.9606 28.9806L19.9527 29.1059L23.4961 1.06268L22.5039 0.937326ZM19.4027 34.4533L20.6593 39.1298L21.6251 38.8702L20.3684 34.1938L19.4027 34.4533ZM18.9592 28.9931C18.7746 30.825 18.9249 32.6752 19.4027 34.4533L20.3684 34.1938C19.9221 32.5329 19.7817 30.8046 19.9542 29.0934L18.9592 28.9931Z" fill="#ECECEC"/>
</svg>
