<svg width="38" height="32" viewBox="0 0 38 32" fill="none" xmlns="http://www.w3.org/2000/svg">
<path d="M1 4C1 2.34315 2.28942 1 3.88 1H34.12C35.7106 1 37 2.34315 37 4V28C37 29.6569 35.7106 31 34.12 31H3.88C2.28942 31 1 29.6569 1 28V4Z" stroke="#ECECEC" stroke-width="2"/>
<path d="M4.39786 2.5H33.6021C34.6834 2.5 35.56 3.41309 35.56 4.53944C35.56 5.14776 35.2993 5.72433 34.8491 6.11176L20.8342 18.1716C19.7696 19.0878 18.2304 19.0878 17.1658 18.1716L3.15094 6.11176C2.7007 5.72433 2.44 5.14776 2.44 4.53944C2.44 3.41309 3.31656 2.5 4.39786 2.5Z" stroke="#ECECEC" stroke-width="2"/>
</svg>
