<svg width="154" height="21" viewBox="0 0 154 21" fill="none" xmlns="http://www.w3.org/2000/svg">
<path d="M74 16L55 16L41 16C38.581 16 36.5633 14.2822 36.1 12L74 12L74 16Z" stroke="#303030" stroke-width="2"/>
<path d="M38 15L19.5 15L5 15C2.79086 15 1 13.2091 1 11V11L38 11" stroke="#303030" stroke-width="2"/>
<path d="M80 16L99 16L113 16C115.419 16 117.437 14.2822 117.9 12L80 12L80 16Z" stroke="#303030" stroke-width="2"/>
<path d="M116 15L134.5 15L149 15C151.209 15 153 13.2091 153 11V11L116 11" stroke="#303030" stroke-width="2"/>
<path d="M87 10C87 12.6522 85.9464 15.1957 84.0711 17.0711C82.1957 18.9464 79.6522 20 77 20C74.3478 20 71.8043 18.9464 69.9289 17.0711C68.0536 15.1957 67 12.6522 67 10L77 10L87 10Z" fill="#303030" stroke="#303030"/>
<path d="M80 6L99 6L113 6.00001C115.419 6.00001 117.437 7.71776 117.9 10L80 9.99999L80 6Z" stroke="#303030" stroke-width="2"/>
<path d="M116 7L134.5 7L149 7.00001C151.209 7.00001 153 8.79087 153 11V11L116 11" stroke="#303030" stroke-width="2"/>
<path d="M74 6L55 6L41 5.99999C38.581 5.99999 36.5633 7.71776 36.1 10L74 10L74 6Z" stroke="#303030" stroke-width="2"/>
<path d="M38 7L19.5 7L5.00001 6.99999C2.79086 6.99999 1 8.79086 0.999999 11V11L38 11" stroke="#303030" stroke-width="2"/>
<path d="M67 11C67 8.34783 68.0536 5.80429 69.9289 3.92893C71.8043 2.05357 74.3478 0.999998 77 0.999998C79.6522 0.999999 82.1957 2.05357 84.0711 3.92893C85.9464 5.8043 87 8.34784 87 11L77 11L67 11Z" fill="#303030" stroke="#303030"/>
</svg>
