<svg width="226" height="194" viewBox="0 0 226 194" fill="none" xmlns="http://www.w3.org/2000/svg">
<path fill-rule="evenodd" clip-rule="evenodd" d="M0 113.125C0 50.656 50.5838 0 113 0C175.416 0 226 50.656 226 113.125V143.434H223.784C194.011 143.434 170.271 143.276 151.451 143.151C148.384 143.131 145.448 143.111 142.637 143.093C142.811 143.51 142.912 143.978 142.912 144.503C142.912 146.011 142.016 147.342 141.235 148.314C140.376 149.382 139.196 150.553 137.9 151.79C137.395 152.272 136.865 152.771 136.313 153.29C133.968 155.497 131.245 158.061 128.506 161.144C123.72 166.531 119.012 173.373 116.697 182.129L115.198 194H110.802L109.303 182.129C106.988 173.373 102.28 166.531 97.4936 161.144C94.7552 158.061 92.0317 155.498 89.6871 153.291C89.1354 152.771 88.6046 152.272 88.0996 151.79C86.8038 150.553 85.6243 149.382 84.7653 148.314C83.9841 147.342 83.0882 146.011 83.0882 144.503C83.0882 143.978 83.1888 143.51 83.3628 143.093C80.5523 143.111 77.616 143.131 74.549 143.151C55.7294 143.276 31.9889 143.434 2.21569 143.434H0V113.125ZM92.8034 143.739C92.3983 143.782 92.0138 143.827 91.6494 143.875C89.5493 144.148 88.3259 144.475 87.6781 144.78C87.7802 144.954 87.9478 145.207 88.2226 145.549C88.8783 146.364 89.8626 147.355 91.1633 148.596C91.6354 149.047 92.1427 149.524 92.6786 150.029C95.0282 152.24 97.9268 154.967 100.81 158.213C103.062 160.747 105.33 163.623 107.378 166.879L107.346 166.631C106.032 162.262 104.364 158.419 102.381 155.037C99.7519 150.552 96.5424 146.83 92.8034 143.739ZM118.622 166.879C120.67 163.623 122.938 160.747 125.19 158.213C128.073 154.967 130.972 152.24 133.321 150.029C133.857 149.524 134.365 149.047 134.837 148.596C136.137 147.355 137.122 146.364 137.777 145.549C138.052 145.207 138.22 144.954 138.322 144.78C137.674 144.475 136.451 144.148 134.351 143.875C133.986 143.827 133.602 143.782 133.197 143.739C129.458 146.83 126.248 150.552 123.619 155.037C121.636 158.419 119.968 162.262 118.654 166.631L118.622 166.879ZM125.723 144.748C126.171 144.259 126.628 143.782 127.093 143.316C126.929 143.308 126.762 143.301 126.594 143.294C126.299 143.771 126.008 144.256 125.723 144.748ZM129.848 138.604C130.742 138.607 131.652 138.612 132.579 138.616C136.224 135.945 140.254 133.769 144.612 131.999C154.958 127.796 167.168 125.872 180.514 124.981C192.303 124.195 205.121 124.208 218.466 124.222C219.497 124.223 220.531 124.224 221.569 124.225V113.125C221.569 112.877 221.568 112.628 221.566 112.38C191.791 112.447 165.52 113.968 146.523 124.475C140.081 128.038 134.471 132.64 129.848 138.604ZM221.448 107.96C221.261 103.951 220.857 99.9988 220.247 96.1147C190.938 96.2584 165.026 99.5562 146.3 112.84C138.536 118.347 131.924 125.637 126.819 135.293C131.729 129.133 137.641 124.333 144.373 120.61C164.474 109.493 191.845 108.028 221.448 107.96ZM127.107 126.218C131.78 119.346 137.362 113.757 143.731 109.239C163.486 95.2249 190.34 91.8954 219.46 91.6996C218.655 87.6634 217.626 83.7079 216.387 79.8466C188.21 80.0154 163.241 85.0417 145.197 101.182C138.057 107.568 131.928 115.761 127.107 126.218ZM214.868 75.4405C213.557 71.8896 212.066 68.4259 210.407 65.0607C184.048 65.3091 160.62 71.9192 143.626 90.5656C137.821 96.9361 132.723 104.758 128.508 114.29C132.502 107.912 137.103 102.485 142.238 97.8914C161.158 80.9686 186.892 75.7786 214.868 75.4405ZM125.877 109.414C129.979 100.86 134.836 93.6402 140.347 87.593C157.978 68.2471 181.949 61.2841 208.12 60.6779C191.53 30.578 161.103 9.1962 125.432 5.12448L130.824 25.2067C133.22 34.1308 133.973 43.4169 133.047 52.6111L133.045 52.6388L125.877 109.414ZM120.728 4.69069C119.469 4.60207 118.205 4.53493 116.935 4.48962L123.716 22.9726C127.381 32.9608 128.914 43.6067 128.217 54.2241L128.215 54.2541L127.766 59.0745L128.641 52.1419C129.509 43.4883 128.798 34.7488 126.543 26.3498L120.728 4.69069ZM115.91 138.589L123.797 53.9057C124.449 43.9119 123.004 33.8921 119.555 24.4914L113 6.62684L106.445 24.4914C102.996 33.8921 101.551 43.9119 102.203 53.9057L110.09 138.589C111.089 138.592 112.059 138.597 113 138.603C113.941 138.597 114.911 138.592 115.91 138.589ZM98.2341 59.0745L97.7852 54.2541L97.7832 54.2241C97.086 43.6067 98.6191 32.9608 102.284 22.9726L109.065 4.48962C107.795 4.53493 106.531 4.60207 105.272 4.69069L99.457 26.3498C97.2019 34.7489 96.491 43.4886 97.359 52.1424L98.2341 59.0745ZM100.568 5.12448C64.8972 9.19619 34.4704 30.578 17.8802 60.6779C44.0514 61.2841 68.0221 68.2471 85.6528 87.593C91.1638 93.6402 96.0209 100.86 100.123 109.414L92.9553 52.6388L92.9525 52.6111C92.0268 43.4169 92.7803 34.1308 95.1764 25.2067L100.568 5.12448ZM97.4916 114.29C93.2769 104.758 88.1792 96.9361 82.3735 90.5656C65.3803 71.9192 41.9524 65.3091 15.5932 65.0607C13.9337 68.4259 12.443 71.8896 11.1322 75.4405C39.1075 75.7786 64.8422 80.9686 83.7619 97.8914C88.8973 102.485 93.4977 107.912 97.4916 114.29ZM9.61304 79.8466C8.37428 83.7079 7.3453 87.6634 6.53954 91.6996C35.6603 91.8954 62.5136 95.2249 82.2689 109.239C88.638 113.757 94.2203 119.346 98.8929 126.218C94.0717 115.761 87.9429 107.568 80.8032 101.182C62.7588 85.0417 37.7904 80.0154 9.61304 79.8466ZM99.1808 135.293C94.0762 125.637 87.4635 118.347 79.7004 112.84C60.974 99.5562 35.062 96.2584 5.75278 96.1147C5.1432 99.9988 4.73903 103.951 4.55175 107.96C34.155 108.028 61.5257 109.493 81.6266 120.61C88.3591 124.333 94.271 129.133 99.1808 135.293ZM4.43387 112.38C4.43221 112.628 4.43137 112.877 4.43137 113.125V124.225C5.46868 124.224 6.50309 124.223 7.53435 124.222C20.8785 124.208 33.6969 124.195 45.4859 124.981C58.8323 125.872 71.0421 127.796 81.3878 131.999C85.7459 133.769 89.7757 135.945 93.4207 138.616C94.3476 138.612 95.258 138.607 96.1522 138.604C91.5287 132.64 85.9189 128.038 79.4775 124.475C60.4805 113.968 34.2086 112.447 4.43387 112.38ZM98.9067 143.316C99.3721 143.782 99.8289 144.259 100.277 144.748C99.9918 144.256 99.7015 143.771 99.406 143.294C99.2377 143.301 99.0713 143.308 98.9067 143.316ZM115.148 143.04C114.45 143.033 113.734 143.027 113 143.023C112.266 143.027 111.55 143.033 110.852 143.04C111.683 147.268 112.4 151.694 113 156.324C113.6 151.694 114.317 147.268 115.148 143.04ZM85.2049 138.662C83.4539 137.721 81.6232 136.867 79.7162 136.092C70.014 132.151 58.3517 130.269 45.19 129.391C33.5624 128.615 20.9071 128.628 7.53934 128.641C6.50754 128.642 5.47151 128.643 4.43137 128.644V139.014C33.083 139.006 56.1191 138.854 74.493 138.732C78.2565 138.707 81.8244 138.683 85.2049 138.662ZM221.569 128.644C220.528 128.643 219.492 128.642 218.461 128.641C205.093 128.628 192.438 128.615 180.81 129.391C167.648 130.269 155.986 132.151 146.284 136.092C144.377 136.867 142.546 137.721 140.795 138.662C144.176 138.683 147.744 138.707 151.507 138.732C169.881 138.854 192.917 139.006 221.569 139.014V128.644Z" fill="#ECECEC"/>
</svg>
