<svg width="21" height="26" viewBox="0 0 21 26" fill="none" xmlns="http://www.w3.org/2000/svg">
<path fill-rule="evenodd" clip-rule="evenodd" d="M8.48462 -5.28165e-07C15.1931 -2.34929e-07 20.5676 5.85685 20.5676 13C20.5676 20.1431 15.1931 26 8.48461 26L5.05025 26L5.05025 25.5C5.05025 22.1363 5.06674 19.4581 5.0798 17.3359C5.08133 17.0875 5.08281 16.8468 5.08421 16.6135C4.99101 16.5961 4.91242 16.5618 4.85273 16.5294C4.76655 16.4826 4.6903 16.4237 4.62635 16.3682C4.5001 16.2585 4.36755 16.1134 4.23885 15.9677C4.18668 15.9087 4.13323 15.8473 4.07815 15.7841C3.84806 15.5201 3.58948 15.2233 3.27682 14.9232C2.73539 14.4035 2.06527 13.9078 1.21851 13.6616L5.09085e-05 13.4954L5.09518e-05 12.5046L1.21851 12.3384C2.06527 12.0921 2.73539 11.5965 3.27682 11.0768C3.58948 10.7767 3.84806 10.4799 4.07815 10.2159C4.13323 10.1527 4.18668 10.0913 4.23885 10.0323C4.36756 9.88656 4.5001 9.74146 4.62635 9.6318C4.6903 9.57625 4.76655 9.51737 4.85273 9.47061C4.91242 9.43823 4.99102 9.40391 5.08421 9.38653C5.08281 9.1532 5.08133 8.91246 5.0798 8.66411C5.06674 6.54188 5.05025 3.86367 5.05025 0.499999L5.05025 -6.78286e-07L8.48462 -5.28165e-07ZM6.07811 17.6127C6.06604 19.5871 6.05183 22.0216 6.05037 25L6.59493 25C6.59496 24.9663 6.59499 24.9327 6.59502 24.8991C6.59642 23.3897 6.59773 21.9695 6.51717 20.6653C6.44713 19.5312 6.31609 18.5078 6.07811 17.6127ZM7.59494 25L8.2924 25C8.27743 21.7391 8.09732 18.9231 7.0561 16.889C6.93699 16.6563 6.80666 16.4341 6.66391 16.2229C6.7 16.3092 6.73465 16.3967 6.76793 16.4852C7.21897 17.6848 7.42173 19.0893 7.51527 20.6036C7.59791 21.9415 7.5965 23.3956 7.59504 24.9001C7.59501 24.9334 7.59498 24.9667 7.59494 25ZM7.92094 16.3843C7.92943 16.4006 7.93787 16.417 7.94625 16.4333C9.10475 18.6965 9.27756 21.7351 9.29235 24.9685C9.52705 24.9501 9.7598 24.9238 9.99038 24.8898C9.96139 21.6754 9.60115 18.8922 8.28447 16.8868C8.17113 16.7141 8.05015 16.5465 7.92094 16.3843ZM10.9883 24.6917C11.2249 24.6324 11.4586 24.5649 11.6892 24.4895C11.6531 21.3995 11.1182 18.717 9.51856 16.7847C9.39565 16.6363 9.26592 16.4916 9.12902 16.3511C10.5779 18.5673 10.9475 21.5278 10.9883 24.6917ZM10.6875 16.6691C12.1253 18.7129 12.6138 21.3229 12.6825 24.1077C12.8685 24.0252 13.0521 23.9373 13.233 23.8442C13.1862 20.9831 12.504 18.4858 10.6875 16.6691ZM14.2157 23.2713C16.9788 21.4608 18.9608 18.3789 19.4502 14.7553L17.7457 15.2498C16.7782 15.5304 15.7708 15.6188 14.7732 15.5103L14.7596 15.5088L10.0697 14.8689C10.5398 15.1889 10.9644 15.5381 11.3466 15.9144C13.3254 17.8628 14.0882 20.4622 14.2157 23.2713ZM19.4502 11.2447C18.9608 7.62108 16.9788 4.53922 14.2157 2.72865C14.0882 5.53777 13.3254 8.13721 11.3466 10.0856C10.9644 10.4619 10.5398 10.8111 10.0697 11.1311L14.7731 10.4895C15.7708 10.381 16.7782 10.4696 17.7457 10.7502L19.4502 11.2447ZM10.6875 9.33086C12.504 7.51422 13.1862 5.0169 13.233 2.15577C13.0521 2.06273 12.8685 1.97484 12.6825 1.89228C12.6138 4.6771 12.1253 7.2871 10.6875 9.33086ZM11.6892 1.51048C11.4586 1.43508 11.2249 1.36761 10.9883 1.30835C10.9475 4.47215 10.5779 7.43271 9.12902 9.64892C9.26592 9.50836 9.39565 9.36372 9.51856 9.21525C11.1182 7.283 11.6531 4.60046 11.6892 1.51048ZM7.92094 9.61569C8.05015 9.45348 8.17113 9.28587 8.28447 9.11323C9.60115 7.1078 9.96139 4.32456 9.99038 1.11021C9.7598 1.0762 9.52705 1.04988 9.29235 1.03151C9.27756 4.2649 9.10475 7.3035 7.94626 9.56667C7.93787 9.58305 7.92943 9.59939 7.92094 9.61569ZM8.2924 0.999999L7.59494 0.999999C7.59498 1.03331 7.59501 1.0666 7.59504 1.09986C7.5965 2.6044 7.59791 4.0585 7.51527 5.39639C7.42173 6.91074 7.21897 8.31518 6.76793 9.5148C6.73465 9.60331 6.7 9.69076 6.66391 9.77712C6.80666 9.56588 6.93699 9.34369 7.0561 9.111C8.09732 7.07694 8.27743 4.26086 8.2924 0.999999ZM6.09377 13.1039L14.6934 13.9692C15.6922 14.039 16.6942 13.8828 17.6358 13.5095L18.9211 13L17.6358 12.4905C16.6942 12.1172 15.6922 11.961 14.6934 12.0308L6.09377 12.8961C6.09359 12.9311 6.0934 12.9657 6.0932 13C6.0934 13.0343 6.09359 13.0689 6.09377 13.1039ZM6.07811 8.38731C6.31609 7.49221 6.44713 6.46877 6.51717 5.33474C6.59773 4.03048 6.59642 2.61033 6.59502 1.10089C6.59499 1.0673 6.59496 1.03367 6.59493 0.999999L6.05037 0.999999C6.05183 3.97843 6.06604 6.41285 6.07811 8.38731Z" fill="#202020"/>
</svg>
