<svg width="335" height="130" viewBox="0 0 335 130" fill="none" xmlns="http://www.w3.org/2000/svg">
<path d="M190.144 49.0761C185.885 49.0761 183.755 52.9401 183.755 60.6682V71.3295C183.755 90.9599 183.951 103.088 184.343 107.713C184.791 112.283 185.212 115.47 185.604 117.275C186.053 119.08 186.641 120.688 187.37 122.098C188.547 124.411 190.901 126.864 194.432 129.459H158.699C160.773 125.285 162.034 121.731 162.483 118.798C162.931 115.865 163.268 112.762 163.492 109.49C163.94 102.834 164.164 93.8932 164.164 82.6678C164.164 69.0731 163.94 56.6631 163.492 45.4377L162.567 22.1688C162.343 16.3023 161.838 12.2126 161.054 9.89982C159.82 6.23322 157.803 2.93328 155 0H201.999C214.667 0 223.832 1.35382 229.493 4.06147C235.49 6.88193 238.489 11.7049 238.489 18.5304C238.489 26.879 234.93 33.7891 227.811 39.2608C219.403 45.8043 206.848 49.0761 190.144 49.0761ZM211.08 33.5917C212.873 31.7866 214.191 29.8969 215.031 27.9226C215.872 25.8918 216.293 24.0303 216.293 22.3381C216.293 20.5894 216.04 18.8689 215.536 17.1766C215.087 15.4843 214.163 13.9895 212.761 12.6921C209.622 9.87162 204.241 8.46139 196.618 8.46139C192.022 8.46139 189.023 9.02548 187.622 10.1537C185.044 12.2972 183.755 16.4997 183.755 22.7611C183.755 29.8123 184.315 34.184 185.436 35.8763C186.557 37.5122 187.846 38.5839 189.304 39.0916C190.761 39.5429 192.975 39.7685 195.946 39.7685C198.973 39.7685 201.803 39.1762 204.438 37.9916C207.128 36.807 209.342 35.3404 211.08 33.5917Z" fill="#ECECEC"/>
<path d="M123.883 19.0263C120.007 22.0744 116.017 25.5069 115.532 25.9942H102.048L103.385 24.8402C110.231 18.9347 115.348 11.2835 118.191 2.70092L118.904 0.548828H143.842C141.912 2.49094 136.42 7.5624 131.928 11.9919C129.391 14.4942 126.684 16.8234 123.883 19.0263Z" fill="#ECECEC"/>
<path d="M149.225 0.393066L135.762 13.2571L127.334 20.0426L119.748 26.828C121.423 31.8844 122.277 37.1766 122.277 42.5031V107.734C122.277 109.769 122.029 111.796 121.538 113.771C120.37 118.473 117.863 122.736 114.322 126.041L110.661 129.458H149.225L146.666 126.229C143.923 122.767 141.953 118.758 140.888 114.472C140.282 112.032 139.976 109.527 139.976 107.012V34.8031L140.315 27.833C140.647 21.0153 142.372 14.3377 145.382 8.21169L149.225 0.393066Z" fill="#ECECEC"/>
<path fill-rule="evenodd" clip-rule="evenodd" d="M270.734 0.0771492C306.228 0.0771488 335 28.9555 335 64.5771C335 100.199 306.228 129.077 270.734 129.077L253.254 129.077L253.254 127.466C253.254 110.557 253.343 97.0816 253.414 86.4004C253.424 84.832 253.434 83.3239 253.443 81.8741C253.305 81.8981 253.161 81.9109 253.008 81.9109C252.02 81.9109 251.182 81.3257 250.629 80.8789C250.005 80.3748 249.329 79.6895 248.63 78.9544C248.355 78.665 248.071 78.3618 247.777 78.0473C246.531 76.717 245.095 75.185 243.367 73.6421C240.355 70.9526 236.546 68.321 231.682 67.0237L225 66.176L225 62.9783L231.682 62.1306C236.546 60.8333 240.355 58.2017 243.367 55.5122C245.095 53.9693 246.53 52.4373 247.777 51.107C248.071 50.7925 248.355 50.4893 248.63 50.1999C249.329 49.4648 250.005 48.7795 250.629 48.2754C251.182 47.8286 252.02 47.2434 253.008 47.2434C253.161 47.2434 253.305 47.2563 253.443 47.2802C253.434 45.8304 253.424 44.3223 253.414 42.7539C253.343 32.0727 253.254 18.597 253.254 1.68878L253.254 0.0771494L270.734 0.0771492ZM253.067 53.0027C253.048 52.8288 253.028 52.662 253.008 52.5021C252.903 51.6938 252.786 51.1346 252.675 50.7605C252.665 50.7687 252.654 50.7772 252.644 50.7859C252.203 51.1416 251.658 51.6846 250.957 52.4233C250.704 52.6887 250.437 52.9749 250.153 53.2778C248.904 54.6118 247.35 56.2714 245.503 57.92C244.616 58.7121 243.654 59.5086 242.612 60.2777C244.164 59.6873 245.58 59.0072 246.874 58.2453C249.323 56.8024 251.364 55.0469 253.067 53.0027ZM242.612 68.8766C243.654 69.6457 244.616 70.4422 245.503 71.2343C247.35 72.8828 248.904 74.5425 250.153 75.8765C250.437 76.1794 250.704 76.4655 250.957 76.731C251.658 77.4697 252.203 78.0127 252.644 78.3684C252.654 78.3771 252.665 78.3856 252.675 78.3938C252.786 78.0197 252.903 77.4605 253.008 76.6522C253.028 76.4923 253.048 76.3255 253.067 76.1516C251.364 74.1074 249.323 72.3519 246.874 70.909C245.58 70.1471 244.164 69.467 242.612 68.8766ZM256.696 74.8798C256.694 75.1109 256.693 75.3438 256.692 75.5786C258.188 77.6483 259.41 79.93 260.404 82.391C262.799 88.3147 263.889 95.2887 264.394 102.879C264.839 109.584 264.831 116.874 264.824 124.447C264.823 124.915 264.823 125.384 264.822 125.854L270.734 125.854C270.755 125.854 270.775 125.854 270.796 125.854C270.747 109.088 269.853 94.3961 264.008 83.7757C262.134 80.3712 259.747 77.3826 256.696 74.8798ZM274.009 125.767C276.028 125.66 278.021 125.455 279.984 125.155C279.881 108.651 277.993 94.1534 270.601 83.6826C268.139 80.1939 265.034 77.1131 261.114 74.5474C263.386 76.8264 265.268 79.397 266.82 82.2177C273.103 93.6324 273.96 109.114 274.009 125.767ZM266.738 74.7265C269.237 76.8428 271.385 79.2153 273.223 81.8197C281.137 93.03 283.053 108.202 283.193 124.577C285.226 124.154 287.221 123.63 289.174 123.009C289.05 107.15 286.196 93.1795 277.212 83.0878C274.397 79.9243 270.948 77.1089 266.738 74.7265ZM292.374 121.893C294.132 121.224 295.851 120.476 297.527 119.654C297.352 104.834 293.618 91.7299 283.235 82.2223C280.627 79.8339 277.582 77.6556 274.04 75.7273C276.097 77.3339 277.948 79.0751 279.609 80.9409C289.151 91.6606 292.127 106.176 292.374 121.893ZM274.833 72.4978C278.898 74.6344 282.402 77.0946 285.401 79.8417C296.282 89.8054 300.272 103.292 300.706 117.974C317.193 108.632 328.922 91.8192 331.33 72.1134L320.496 75.0363C315.412 76.408 310.122 76.8394 304.884 76.3094L304.843 76.3053L274.833 72.4978ZM331.652 68.6888C331.682 68.2366 331.707 67.783 331.727 67.3281L321.789 70.9919C319.54 71.8211 317.232 72.4597 314.89 72.9041C316.496 72.6749 318.09 72.3479 319.662 71.9237L331.652 68.6888ZM256.706 65.9069L304.218 70.3534C309.811 70.7194 315.419 69.9064 320.681 67.9665L329.874 64.5771L320.681 61.1878C315.419 59.2479 309.811 58.4349 304.218 58.8009L256.706 63.2474C256.704 63.7014 256.702 64.1446 256.699 64.5771C256.702 65.0097 256.704 65.4529 256.706 65.9069ZM314.89 56.2501C317.232 56.6946 319.54 57.3332 321.789 58.1624L331.727 61.8262C331.707 61.3713 331.682 60.9177 331.652 60.4655L319.662 57.2306C318.09 56.8064 316.496 56.4794 314.89 56.2501ZM331.33 57.0409C328.922 37.3351 317.193 20.5224 300.706 11.1799C300.272 25.862 296.282 39.3489 285.401 49.3126C282.402 52.0597 278.898 54.5199 274.833 56.6565L304.884 52.8444C310.122 52.3144 315.412 52.7463 320.496 54.118L331.33 57.0409ZM274.04 53.427C277.582 51.4987 280.627 49.3204 283.235 46.932C293.618 37.4244 297.352 24.3203 297.527 9.50071C295.851 8.67797 294.132 7.93 292.374 7.26114C292.127 22.9779 289.151 37.4937 279.609 48.2134C277.948 50.0792 276.097 51.8204 274.04 53.427ZM289.174 6.14504C287.221 5.5247 285.226 5.00029 283.193 4.5773C283.053 20.9525 281.137 36.1243 273.223 47.3346C271.385 49.939 269.237 52.3115 266.738 54.4278C270.948 52.0454 274.397 49.23 277.212 46.0665C286.196 35.9748 289.05 22.0047 289.174 6.14504ZM261.114 54.6069C265.034 52.0412 268.139 48.9604 270.601 45.4717C277.993 35.0009 279.881 20.5031 279.984 3.99915C278.021 3.69978 276.028 3.49418 274.009 3.38706C273.96 20.0405 273.103 35.5219 266.82 46.9366C265.268 49.7573 263.386 52.3279 261.114 54.6069ZM270.796 3.30044C270.775 3.30042 270.755 3.30041 270.734 3.30041L264.822 3.30041C264.823 3.77049 264.823 4.23956 264.824 4.70754C264.831 12.2808 264.839 19.5701 264.394 26.2749C263.889 33.8656 262.799 40.8396 260.404 46.7633C259.41 49.2243 258.188 51.506 256.692 53.5757C256.693 53.8105 256.694 54.0434 256.696 54.2745C259.747 51.7717 262.134 48.7831 264.008 45.3786C269.853 34.7582 270.747 20.0661 270.796 3.30044ZM253.48 65.3668C253.482 65.1078 253.484 64.8446 253.486 64.5771C253.484 64.3097 253.482 64.0465 253.48 63.7875C251.988 64.0757 250.454 64.3392 248.876 64.5771C250.454 64.8151 251.988 65.0786 253.48 65.3668ZM256.656 47.3121C256.928 46.7393 257.184 46.1524 257.427 45.5519C259.633 40.0949 260.692 33.5177 261.188 26.0606C261.625 19.4727 261.618 12.3015 261.61 4.71128C261.61 4.24257 261.61 3.77227 261.609 3.30041L256.467 3.30041C256.473 19.3941 256.558 32.3573 256.626 42.7136C256.637 44.3075 256.647 45.8397 256.656 47.3121ZM261.609 125.854C261.61 125.382 261.61 124.912 261.61 124.443C261.618 116.853 261.625 109.682 261.188 103.094C260.692 95.6366 259.633 89.0593 257.427 83.6024C257.184 83.0019 256.928 82.415 256.656 81.8422C256.647 83.3146 256.637 84.8468 256.626 86.4408C256.558 96.797 256.473 109.76 256.467 125.854L261.609 125.854Z" fill="#ECECEC"/>
<path fill-rule="evenodd" clip-rule="evenodd" d="M64.2659 129.077C28.7721 129.077 3.42293e-07 100.199 7.64515e-07 64.5771C1.18674e-06 28.9555 28.7721 0.0771488 64.2659 0.0771492L81.7462 0.0771494L81.7462 1.68878C81.7462 18.597 81.657 32.0727 81.5864 42.7539C81.576 44.3223 81.566 45.8303 81.5568 47.2802C81.6945 47.2562 81.8395 47.2434 81.9919 47.2434C82.9804 47.2434 83.8184 47.8286 84.3714 48.2754C84.9954 48.7795 85.6715 49.4648 86.3697 50.1999C86.6445 50.4893 86.9286 50.7925 87.2232 51.107C88.4695 52.4373 89.9047 53.9693 91.6329 55.5122C94.6455 58.2017 98.4541 60.8333 103.318 62.1306L110 62.9782L110 66.176L103.318 67.0237C98.4541 68.321 94.6455 70.9526 91.6329 73.6421C89.9047 75.185 88.4695 76.717 87.2232 78.0473C86.9286 78.3618 86.6445 78.665 86.3697 78.9544C85.6715 79.6895 84.9954 80.3748 84.3714 80.8789C83.8184 81.3257 82.9804 81.9109 81.9919 81.9109C81.8395 81.9109 81.6945 81.898 81.5568 81.8741C81.566 83.3239 81.576 84.832 81.5864 86.4004C81.657 97.0816 81.7462 110.557 81.7462 127.466L81.7462 129.077L64.2659 129.077ZM81.9325 76.1516C81.9517 76.3255 81.9717 76.4923 81.9924 76.6522C82.0972 77.4605 82.214 78.0197 82.3246 78.3938C82.335 78.3856 82.3455 78.3771 82.3563 78.3684C82.7966 78.0127 83.3418 77.4697 84.0435 76.731C84.2955 76.4656 84.5634 76.1795 84.8471 75.8766C86.0962 74.5425 87.6503 72.8829 89.4969 71.2343C90.3842 70.4422 91.3461 69.6457 92.3876 68.8766C90.836 69.467 89.4198 70.1471 88.1264 70.909C85.677 72.3519 83.6355 74.1074 81.9325 76.1516ZM92.3876 60.2777C91.3461 59.5086 90.3842 58.7121 89.4969 57.92C87.6503 56.2714 86.0962 54.6118 84.8471 53.2778C84.5635 52.9749 84.2955 52.6887 84.0435 52.4233C83.3418 51.6846 82.7966 51.1416 82.3563 50.7859C82.3455 50.7772 82.335 50.7687 82.3246 50.7605C82.214 51.1346 82.0972 51.6938 81.9924 52.5021C81.9717 52.662 81.9517 52.8288 81.9325 53.0027C83.6355 55.047 85.677 56.8024 88.1264 58.2453C89.4198 59.0072 90.836 59.6873 92.3876 60.2777ZM78.3045 54.2745C78.3055 54.0434 78.3066 53.8105 78.3077 53.5757C76.8116 51.506 75.5905 49.2243 74.5956 46.7633C72.2008 40.8396 71.1106 33.8656 70.6064 26.2749C70.1611 19.5701 70.1687 12.2807 70.1765 4.70754C70.177 4.23956 70.1775 3.77049 70.1778 3.3004L64.2659 3.3004C64.2452 3.3004 64.2245 3.30042 64.2038 3.30044C64.2535 20.0661 65.1468 34.7582 70.9923 45.3786C72.8662 48.7831 75.2527 51.7717 78.3045 54.2745ZM60.9909 3.38706C58.9717 3.49419 56.9785 3.69977 55.016 3.99915C55.1185 20.5031 57.0067 35.0009 64.3986 45.4717C66.8614 48.9604 69.9663 52.0412 73.8863 54.6069C71.6136 52.3279 69.7321 49.7573 68.1796 46.9366C61.8969 35.5219 61.0404 20.0405 60.9909 3.38706ZM68.2624 54.4278C65.7631 52.3115 63.6151 49.939 61.7766 47.3346C53.8627 36.1243 51.9475 20.9525 51.8071 4.57729C49.7745 5.00028 47.7788 5.5247 45.8257 6.14504C45.95 22.0047 48.8044 35.9748 57.7875 46.0665C60.6034 49.23 64.0521 52.0454 68.2624 54.4278ZM42.6256 7.26113C40.868 7.93 39.1491 8.67796 37.4733 9.5007C37.6477 24.3203 41.3823 37.4244 51.7647 46.932C54.3728 49.3204 57.4184 51.4987 60.96 53.4269C58.9027 51.8204 57.0518 50.0792 55.391 48.2134C45.8488 37.4937 42.873 22.9779 42.6256 7.26113ZM60.1666 56.6565C56.1016 54.5199 52.5984 52.0597 49.5986 49.3126C38.7182 39.3489 34.7283 25.862 34.2943 11.1799C17.8066 20.5224 6.07804 37.3351 3.67014 57.0409L14.5038 54.118C19.5878 52.7463 24.8782 52.3149 30.1161 52.8449L30.1566 52.849L60.1666 56.6565ZM3.34826 60.4655C3.31841 60.9177 3.29344 61.3713 3.27342 61.8262L13.2109 58.1624C15.4601 57.3332 17.7678 56.6946 20.11 56.2501C18.5041 56.4794 16.9105 56.8064 15.3382 57.2306L3.34826 60.4655ZM78.294 63.2474L30.7822 58.8009C25.1888 58.4349 19.5809 59.2479 14.3192 61.1878L5.12623 64.5771L14.3192 67.9665C19.5809 69.9064 25.1888 70.7194 30.7822 70.3534L78.294 65.9069C78.2958 65.4529 78.2981 65.0097 78.3009 64.5771C78.2981 64.1446 78.2958 63.7014 78.294 63.2474ZM20.1101 72.9042C17.7679 72.4597 15.4601 71.8211 13.2109 70.9919L3.27342 67.3281C3.29344 67.783 3.31841 68.2366 3.34826 68.6888L15.3382 71.9237C16.9105 72.3479 18.5041 72.6749 20.1101 72.9042ZM3.67015 72.1134C6.07804 91.8192 17.8066 108.632 34.2943 117.974C34.7283 103.292 38.7182 89.8054 49.5986 79.8417C52.5984 77.0946 56.1016 74.6344 60.1666 72.4978L30.1162 76.3099C24.8782 76.8399 19.5878 76.408 14.5038 75.0363L3.67015 72.1134ZM60.96 75.7273C57.4185 77.6556 54.3728 79.8339 51.7647 82.2223C41.3823 91.7299 37.6477 104.834 37.4733 119.654C39.1491 120.476 40.868 121.224 42.6256 121.893C42.873 106.176 45.8489 91.6606 55.391 80.9409C57.0518 79.0751 58.9027 77.3339 60.96 75.7273ZM45.8257 123.009C47.7788 123.63 49.7745 124.154 51.8071 124.577C51.9475 108.202 53.8627 93.03 61.7766 81.8197C63.6151 79.2153 65.7631 76.8428 68.2624 74.7265C64.0521 77.1089 60.6035 79.9243 57.7875 83.0878C48.8044 93.1795 45.95 107.15 45.8257 123.009ZM73.8863 74.5474C69.9663 77.1131 66.8614 80.1939 64.3986 83.6826C57.0067 94.1534 55.1185 108.651 55.016 125.155C56.9785 125.455 58.9717 125.66 60.9909 125.767C61.0404 109.114 61.8969 93.6324 68.1796 82.2177C69.7321 79.397 71.6136 76.8264 73.8863 74.5474ZM64.2038 125.854C64.2245 125.854 64.2452 125.854 64.2659 125.854L70.1778 125.854C70.1775 125.384 70.177 124.915 70.1765 124.447C70.1687 116.874 70.1611 109.584 70.6064 102.879C71.1106 95.2887 72.2008 88.3147 74.5956 82.391C75.5905 79.93 76.8116 77.6483 78.3077 75.5786C78.3066 75.3438 78.3055 75.1109 78.3045 74.8798C75.2527 77.3826 72.8662 80.3712 70.9923 83.7757C65.1468 94.3961 64.2535 109.088 64.2038 125.854ZM81.5198 63.7875C81.5176 64.0465 81.5157 64.3097 81.5139 64.5771C81.5157 64.8446 81.5176 65.1078 81.5198 65.3668C83.0117 65.0786 84.5463 64.8151 86.1244 64.5771C84.5463 64.3392 83.0117 64.0757 81.5198 63.7875ZM78.3436 81.8422C78.0724 82.415 77.8158 83.0019 77.573 83.6024C75.3669 89.0594 74.3076 95.6366 73.8123 103.094C73.3748 109.682 73.3819 116.853 73.3895 124.443C73.39 124.912 73.3905 125.382 73.3909 125.854L78.5329 125.854C78.5275 109.76 78.4419 96.797 78.3736 86.4407C78.3631 84.8468 78.353 83.3146 78.3436 81.8422ZM73.3909 3.3004C73.3905 3.77226 73.39 4.24256 73.3896 4.71127C73.3819 12.3015 73.3748 19.4727 73.8123 26.0606C74.3076 33.5177 75.3669 40.0949 77.573 45.5519C77.8158 46.1524 78.0724 46.7393 78.3436 47.3121C78.353 45.8397 78.3631 44.3075 78.3736 42.7135C78.4419 32.3573 78.5275 19.3941 78.5329 3.3004L73.3909 3.3004Z" fill="#ECECEC"/>
</svg>
