<svg width="154" height="133" viewBox="0 0 154 133" fill="none" xmlns="http://www.w3.org/2000/svg">
<path fill-rule="evenodd" clip-rule="evenodd" d="M0.5 77.4719C0.5 34.9669 34.7448 0.5 77 0.5C119.255 0.5 153.5 34.967 153.5 77.4719V98.0941H152C131.844 98.0941 115.772 97.9867 103.031 97.9016C100.955 97.8878 98.9668 97.8745 97.0641 97.8624C97.1819 98.1459 97.25 98.4645 97.25 98.8213C97.25 99.848 96.6435 100.753 96.1146 101.414C95.5331 102.141 94.7346 102.938 93.8574 103.78C93.5155 104.107 93.1562 104.447 92.7827 104.801C91.1954 106.302 89.3516 108.047 87.4977 110.144C84.2574 113.81 81.0701 118.465 79.5029 124.423L78.4883 132.5H75.5117L74.4971 124.423C72.9299 118.465 69.7426 113.81 66.5023 110.144C64.6484 108.047 62.8046 106.302 61.2174 104.801C60.8439 104.447 60.4845 104.107 60.1426 103.78C59.2654 102.938 58.4669 102.141 57.8854 101.414C57.3565 100.753 56.75 99.848 56.75 98.8213C56.75 98.4645 56.8181 98.1459 56.9359 97.8624C55.0332 97.8745 53.0453 97.8878 50.969 97.9016C38.2283 97.9867 22.1562 98.0941 2 98.0941H0.5V77.4719ZM63.3271 98.3019C63.0528 98.3311 62.7926 98.3618 62.5458 98.3941C61.1241 98.5803 60.2959 98.8026 59.8573 99.01C59.9264 99.1288 60.0399 99.3006 60.2259 99.5332C60.6698 100.088 61.3362 100.762 62.2167 101.607C62.5363 101.913 62.8798 102.238 63.2426 102.581C64.8333 104.086 66.7956 105.942 68.7477 108.15C70.2722 109.874 71.8072 111.831 73.1938 114.046L73.1726 113.878C72.283 110.905 71.1536 108.29 69.8112 105.989C68.0311 102.937 65.8584 100.405 63.3271 98.3019ZM80.8062 114.046C82.1928 111.831 83.7278 109.874 85.2523 108.15C87.2044 105.942 89.1667 104.086 90.7573 102.581C91.1202 102.238 91.4636 101.913 91.7833 101.607C92.6638 100.762 93.3302 100.088 93.7741 99.5332C93.9602 99.3006 94.0736 99.1288 94.1427 99.01C93.7041 98.8025 92.8759 98.5803 91.4542 98.3941C91.2075 98.3618 90.9472 98.3311 90.6729 98.3019C88.1416 100.405 85.9689 102.937 84.1888 105.989C82.8464 108.29 81.717 110.905 80.8274 113.878L80.8062 114.046ZM85.6135 98.9882C85.9167 98.6555 86.226 98.3308 86.5411 98.0138C86.4296 98.0088 86.317 98.0039 86.203 97.9991C86.003 98.3237 85.8064 98.6534 85.6135 98.9882ZM88.4058 94.8076C89.0111 94.8102 89.6275 94.813 90.255 94.8161C92.7226 92.9989 95.4508 91.5182 98.4012 90.3136C105.405 87.454 113.671 86.1449 122.706 85.5389C130.688 85.0036 139.365 85.0126 148.399 85.022C149.097 85.0227 149.798 85.0235 150.5 85.0239V77.4719C150.5 77.3027 150.499 77.1336 150.498 76.9646C130.341 77.0105 112.555 78.0454 99.6945 85.1943C95.3337 87.6183 91.5359 90.7496 88.4058 94.8076ZM150.419 73.9576C150.292 71.2297 150.018 68.5404 149.605 65.8977C129.763 65.9954 112.221 68.2393 99.5435 77.2779C94.288 81.0248 89.8113 85.9853 86.3554 92.5552C89.6794 88.364 93.6817 85.098 98.2395 82.5645C111.848 75.0002 130.377 74.0036 150.419 73.9576ZM86.5504 86.3804C89.7137 81.7047 93.4929 77.9015 97.8047 74.8274C111.179 65.2922 129.358 63.0267 149.073 62.8935C148.527 60.1472 147.831 57.4559 146.992 54.8286C127.916 54.9435 111.013 58.3634 98.7969 69.3452C93.9634 73.6904 89.8143 79.2655 86.5504 86.3804ZM145.964 51.8307C145.076 49.4145 144.067 47.0578 142.944 44.7681C125.099 44.9371 109.238 49.4347 97.7339 62.122C93.8034 66.4566 90.3523 71.7786 87.499 78.2645C90.2029 73.9248 93.3173 70.2319 96.7939 67.1066C109.602 55.592 127.025 52.0607 145.964 51.8307ZM85.7177 74.9464C88.4947 69.1266 91.7829 64.2139 95.5138 60.0994C107.45 46.9362 123.678 42.1984 141.395 41.786C130.164 21.3056 109.565 6.75721 85.4161 3.98676L89.0664 17.6509C90.6885 23.723 91.1987 30.0414 90.572 36.2972L90.5701 36.3161L85.7177 74.9464ZM82.2315 3.69161C81.3795 3.63131 80.5235 3.58562 79.6637 3.5548L84.2547 16.1309C86.7357 22.9269 87.7736 30.1706 87.3016 37.3948L87.3003 37.4152L86.9964 40.695L87.5889 35.978C88.1765 30.09 87.6952 24.1435 86.1685 18.4288L82.2315 3.69161ZM78.9699 94.7974L84.3093 37.1781C84.7508 30.3782 83.7725 23.5606 81.4374 17.1642L77 5.00899L72.5626 17.1642C70.2275 23.5606 69.2492 30.3782 69.6907 37.1781L75.0301 94.7974C75.7064 94.7998 76.3629 94.803 77 94.8072C77.6371 94.803 78.2936 94.7998 78.9699 94.7974ZM67.0036 40.695L66.6997 37.4152L66.6984 37.3948C66.2264 30.1706 67.2643 22.9269 69.7453 16.1309L74.3363 3.5548C73.4765 3.58562 72.6205 3.63131 71.7685 3.69161L67.8315 18.4288C66.3048 24.1436 65.8235 30.0902 66.4112 35.9783L67.0036 40.695ZM68.5839 3.98676C44.4348 6.7572 23.8362 21.3056 12.6048 41.786C30.3224 42.1984 46.5503 46.9362 58.4862 60.0994C62.2171 64.2139 65.5053 69.1266 68.2823 74.9465L63.4299 36.3161L63.428 36.2972C62.8013 30.0414 63.3115 23.723 64.9336 17.6509L68.5839 3.98676ZM66.501 78.2645C63.6476 71.7786 60.1966 66.4566 56.2661 62.122C44.7619 49.4347 28.9014 44.9371 11.0564 44.7681C9.93297 47.0578 8.92379 49.4145 8.03641 51.8307C26.9754 52.0607 44.3976 55.592 57.2061 67.1066C60.6827 70.2319 63.7971 73.9248 66.501 78.2645ZM7.00794 54.8286C6.16931 57.4559 5.4727 60.1472 4.92721 62.8935C24.6417 63.0267 42.8212 65.2922 56.1953 74.8274C60.5071 77.9015 64.2863 81.7047 67.4496 86.3804C64.1857 79.2655 60.0366 73.6904 55.2031 69.3452C42.9871 58.3634 26.0838 54.9435 7.00794 54.8286ZM67.6445 92.5552C64.1887 85.9853 59.712 81.0248 54.4565 77.2779C41.7788 68.2393 24.2367 65.9954 4.39458 65.8977C3.9819 68.5404 3.70828 71.2297 3.58149 73.9576C23.6226 74.0036 42.1523 75.0002 55.7605 82.5645C60.3183 85.098 64.3206 88.364 67.6445 92.5552ZM3.50169 76.9646C3.50056 77.1336 3.5 77.3027 3.5 77.4719V85.0239C4.20225 85.0235 4.90253 85.0227 5.60069 85.022C14.6346 85.0126 23.3125 85.0036 31.2935 85.5389C40.3289 86.1449 48.5948 87.454 55.5988 90.3136C58.5492 91.5182 61.2774 92.9989 63.745 94.8161C64.3725 94.813 64.9888 94.8102 65.5942 94.8076C62.4641 90.7496 58.6663 87.6183 54.3056 85.1943C41.4447 78.0454 23.6589 77.0105 3.50169 76.9646ZM67.4589 98.0138C67.774 98.3308 68.0833 98.6555 68.3865 98.9882C68.1936 98.6534 67.997 98.3237 67.797 97.9991C67.683 98.0039 67.5704 98.0088 67.4589 98.0138ZM78.4544 97.826C77.9816 97.8215 77.4969 97.8176 77 97.8144C76.5031 97.8176 76.0184 97.8215 75.5456 97.826C76.1081 100.703 76.5939 103.714 77 106.865C77.4061 103.714 77.8919 100.703 78.4544 97.826ZM58.183 94.8475C56.9975 94.2068 55.7582 93.6257 54.4672 93.0986C47.8988 90.4169 40.0036 89.1369 31.0932 88.5393C23.2214 88.0113 14.6539 88.02 5.60406 88.0292C4.90555 88.0299 4.20416 88.0306 3.5 88.0311V95.0868C22.8969 95.0816 38.4921 94.9776 50.9311 94.8947C53.479 94.8777 55.8944 94.8616 58.183 94.8475ZM150.5 88.0311C149.796 88.0306 149.094 88.0299 148.396 88.0292C139.346 88.02 130.779 88.0113 122.907 88.5393C113.996 89.1369 106.101 90.4169 99.5328 93.0986C98.2418 93.6257 97.0025 94.2068 95.817 94.8475C98.1056 94.8616 100.521 94.8777 103.069 94.8947C115.508 94.9776 131.103 95.0816 150.5 95.0868V88.0311Z" fill="black"/>
</svg>
