<svg width="169" height="35" viewBox="0 0 169 35" fill="none" xmlns="http://www.w3.org/2000/svg">
<path d="M48.954 24.8522C48.8618 25.1806 48.8157 25.575 48.8157 26.0356C48.8157 26.492 48.8245 26.7841 48.842 26.912C48.864 27.04 48.8969 27.1423 48.9408 27.2191C49.0243 27.347 49.1868 27.411 49.4283 27.411H51.1939C51.1939 27.6498 51.1346 27.8332 51.016 27.9612C50.8008 28.1915 50.5373 28.3066 50.2255 28.3066C50.0718 28.3066 49.9356 28.2853 49.817 28.2426C49.6018 28.1573 49.4349 28.1147 49.3163 28.1147C49.1978 28.1147 49.1011 28.1381 49.0265 28.1851C48.9518 28.2277 48.8925 28.2917 48.8486 28.377C48.7696 28.5305 48.73 28.8653 48.73 29.3813C48.73 29.8973 48.7454 30.4262 48.7761 30.9678C48.8113 31.5094 48.8947 31.9636 49.0265 32.3304C49.1582 32.6929 49.3581 32.9658 49.626 33.1492C49.8939 33.3326 50.2628 33.4243 50.7327 33.4243C50.7327 33.5565 50.6405 33.7143 50.4561 33.8977C50.4077 33.9488 50.366 33.9829 50.3309 34C49.5535 34 48.9716 33.9104 48.5851 33.7313C48.1415 33.5181 47.8253 33.1385 47.6364 32.5926C47.4476 32.0382 47.3532 31.2173 47.3532 30.1298C47.3532 29.1787 47.3268 28.6179 47.2741 28.4473C47.2214 28.2725 47.1731 28.1573 47.1292 28.1019C47.0765 28.0379 46.9491 27.959 46.7471 27.8652C47.0194 27.6648 47.2895 27.2916 47.5574 26.7457L47.8868 26.074C48.1195 25.5622 48.3172 25.2317 48.4797 25.0825C48.6466 24.9289 48.8047 24.8522 48.954 24.8522Z" fill="#ECECEC"/>
<path d="M64.8888 30.456L64.869 31.6843C64.869 32.4476 64.9415 32.9679 65.0864 33.2452C65.1743 33.4115 65.2775 33.5394 65.3961 33.629L65.7057 33.8721H63.7952L63.591 33.13C63.0947 33.71 62.3876 34 61.4697 34C60.947 34 60.5254 33.8294 60.2048 33.4882C59.9237 33.1812 59.7832 32.8187 59.7832 32.4007C59.7832 31.9828 59.8842 31.6182 60.0862 31.3068C60.2926 30.9955 60.5627 30.7375 60.8965 30.5328C61.5553 30.1362 62.3832 29.9293 63.3802 29.9123V29.8419C63.3802 28.8056 63.2155 28.1978 62.8861 28.0187C62.7675 27.9548 62.6138 27.9228 62.4249 27.9228C62.2405 27.9228 62.056 27.9825 61.8715 28.1019C61.6871 28.2213 61.5202 28.3748 61.3709 28.5625C61.0722 28.942 60.8592 29.3898 60.7318 29.9059C60.341 29.6798 60.1455 29.247 60.1455 28.6073C60.1455 28.3471 60.1807 28.055 60.2509 27.7309C60.4178 27.7309 60.5759 27.7074 60.7253 27.6605L61.2325 27.507C61.7288 27.3577 62.2141 27.2831 62.6884 27.2831C63.1628 27.2831 63.5405 27.3513 63.8216 27.4878C64.107 27.6242 64.3288 27.8268 64.4869 28.0955C64.7548 28.5518 64.8888 29.3387 64.8888 30.456ZM61.2062 32.5287C61.2062 32.7931 61.2677 32.9978 61.3906 33.1428C61.518 33.2878 61.6761 33.3603 61.865 33.3603C62.0538 33.3603 62.2361 33.3134 62.4118 33.2196C62.5874 33.1215 62.7455 32.9893 62.8861 32.8229C63.2155 32.4434 63.3802 31.9977 63.3802 31.486V30.5392C62.7653 30.5946 62.258 30.7929 61.8584 31.1341C61.4236 31.5009 61.2062 31.9657 61.2062 32.5287Z" fill="#ECECEC"/>
<path d="M76.7259 24.8522C76.6337 25.1806 76.5876 25.575 76.5876 26.0356C76.5876 26.492 76.5964 26.7841 76.6139 26.912C76.6359 27.04 76.6688 27.1423 76.7127 27.2191C76.7962 27.347 76.9587 27.411 77.2002 27.411H78.9658C78.9658 27.6498 78.9065 27.8332 78.7879 27.9612C78.5727 28.1915 78.3092 28.3066 77.9974 28.3066C77.8437 28.3066 77.7075 28.2853 77.5889 28.2426C77.3737 28.1573 77.2068 28.1147 77.0882 28.1147C76.9697 28.1147 76.873 28.1381 76.7984 28.1851C76.7237 28.2277 76.6644 28.2917 76.6205 28.377C76.5415 28.5305 76.5019 28.8653 76.5019 29.3813C76.5019 29.8973 76.5173 30.4262 76.548 30.9678C76.5832 31.5094 76.6666 31.9636 76.7984 32.3304C76.9301 32.6929 77.13 32.9658 77.3979 33.1492C77.6658 33.3326 78.0347 33.4243 78.5046 33.4243C78.5046 33.5565 78.4124 33.7143 78.228 33.8977C78.1796 33.9488 78.1379 33.9829 78.1028 34C77.3254 34 76.7435 33.9104 76.357 33.7313C75.9134 33.5181 75.5972 33.1385 75.4083 32.5926C75.2195 32.0382 75.1251 31.2173 75.1251 30.1298C75.1251 29.1787 75.0987 28.6179 75.046 28.4473C74.9933 28.2725 74.945 28.1573 74.9011 28.1019C74.8484 28.0379 74.721 27.959 74.519 27.8652C74.7913 27.6648 75.0614 27.2916 75.3293 26.7457L75.6587 26.074C75.8914 25.5622 76.0891 25.2317 76.2516 25.0825C76.4185 24.9289 76.5766 24.8522 76.7259 24.8522Z" fill="#ECECEC"/>
<path d="M89.6962 24.8522C89.6039 25.1806 89.5578 25.575 89.5578 26.0356C89.5578 26.492 89.5666 26.7841 89.5842 26.912C89.6061 27.04 89.6391 27.1423 89.683 27.2191C89.7664 27.347 89.9289 27.411 90.1705 27.411H91.936C91.936 27.6498 91.8767 27.8332 91.7582 27.9612C91.543 28.1915 91.2794 28.3066 90.9676 28.3066C90.8139 28.3066 90.6777 28.2853 90.5592 28.2426C90.344 28.1573 90.1771 28.1147 90.0585 28.1147C89.9399 28.1147 89.8433 28.1381 89.7686 28.1851C89.694 28.2277 89.6347 28.2917 89.5907 28.377C89.5117 28.5305 89.4722 28.8653 89.4722 29.3813C89.4722 29.8973 89.4875 30.4262 89.5183 30.9678C89.5534 31.5094 89.6369 31.9636 89.7686 32.3304C89.9004 32.6929 90.1002 32.9658 90.3681 33.1492C90.636 33.3326 91.0049 33.4243 91.4749 33.4243C91.4749 33.5565 91.3826 33.7143 91.1982 33.8977C91.1499 33.9488 91.1082 33.9829 91.073 34C90.2956 34 89.7137 33.9104 89.3272 33.7313C88.8836 33.5181 88.5674 33.1385 88.3786 32.5926C88.1897 32.0382 88.0953 31.2173 88.0953 30.1298C88.0953 29.1787 88.0689 28.6179 88.0162 28.4473C87.9635 28.2725 87.9152 28.1573 87.8713 28.1019C87.8186 28.0379 87.6912 27.959 87.4892 27.8652C87.7615 27.6648 88.0316 27.2916 88.2995 26.7457L88.6289 26.074C88.8617 25.5622 89.0593 25.2317 89.2218 25.0825C89.3887 24.9289 89.5468 24.8522 89.6962 24.8522Z" fill="#ECECEC"/>
<path d="M103.641 27.9228C103.246 27.9228 102.961 28.1147 102.785 28.4985C102.614 28.8823 102.528 29.5284 102.528 30.4368C102.528 32.3858 102.899 33.3603 103.641 33.3603C104.037 33.3603 104.32 33.1002 104.491 32.5799C104.667 32.0596 104.755 31.3452 104.755 30.4368C104.755 29.5284 104.667 28.8823 104.491 28.4985C104.32 28.1147 104.037 27.9228 103.641 27.9228ZM100.868 30.1937C100.868 28.2533 101.792 27.2831 103.641 27.2831C105.49 27.2831 106.415 28.2533 106.415 30.1937C106.415 31.3708 106.16 32.3026 105.651 32.9893C105.154 33.6631 104.485 34 103.641 34C102.798 34 102.128 33.6631 101.632 32.9893C101.123 32.3026 100.868 31.3708 100.868 30.1937Z" fill="#ECECEC"/>
<path d="M119.01 27.9228C118.614 27.9228 118.329 28.1147 118.153 28.4985C117.982 28.8823 117.896 29.5284 117.896 30.4368C117.896 32.3858 118.267 33.3603 119.01 33.3603C119.405 33.3603 119.688 33.1002 119.859 32.5799C120.035 32.0596 120.123 31.3452 120.123 30.4368C120.123 29.5284 120.035 28.8823 119.859 28.4985C119.688 28.1147 119.405 27.9228 119.01 27.9228ZM116.236 30.1937C116.236 28.2533 117.161 27.2831 119.01 27.2831C120.859 27.2831 121.783 28.2533 121.783 30.1937C121.783 31.3708 121.528 32.3026 121.019 32.9893C120.523 33.6631 119.853 34 119.01 34C118.166 34 117.497 33.6631 117 32.9893C116.491 32.3026 116.236 31.3708 116.236 30.1937Z" fill="#ECECEC"/>
<path d="M47.4305 9.77584C46.2568 9.77584 45.6699 10.4627 45.6699 11.8363C45.6699 17.5313 45.766 20.8852 45.9583 21.8979C46.0696 22.5095 46.2112 22.9657 46.3832 23.2665L46.8386 24.0636H41.4507C41.7744 23.3016 41.9616 22.6649 42.0122 22.1536C42.0729 21.6422 42.1235 21.0958 42.164 20.5142C42.2449 19.3311 42.2854 17.7419 42.2854 15.7466C42.2854 13.3302 42.2449 11.1244 42.164 9.12913L41.997 4.9932C41.9566 3.95044 41.8655 3.22352 41.7239 2.81243C41.5013 2.16071 41.137 1.57416 40.6311 1.05278H48.6598C51.1084 1.05278 52.8791 1.29342 53.9718 1.77469C55.1253 2.27602 55.702 3.13328 55.702 4.34649C55.702 5.4093 55.3024 6.40694 54.503 7.3394C53.7543 8.20168 52.7728 8.8885 51.5587 9.39985C51.7104 13.25 52.9297 16.9448 55.2163 20.4841C56.1978 22.0182 57.1995 23.2114 58.2214 24.0636H52.53C51.5384 22.7201 50.6227 19.9979 49.7829 15.897C49.4996 14.4733 49.3124 13.2901 49.2214 12.3476C49.1404 11.4051 49.0696 10.8387 49.0089 10.6481C48.9583 10.4476 48.8723 10.2872 48.7509 10.1669C48.508 9.90619 48.0679 9.77584 47.4305 9.77584ZM50.9212 7.09877C51.2045 6.79797 51.4018 6.47712 51.5131 6.13622C51.6345 5.79532 51.6952 5.46946 51.6952 5.15864C51.6952 4.83779 51.6497 4.52195 51.5587 4.21113C51.4777 3.89028 51.3108 3.60954 51.0578 3.36891C50.5013 2.82747 49.53 2.55676 48.1438 2.55676C47.6278 2.55676 47.2079 2.57681 46.8841 2.61692C46.5704 2.65702 46.3225 2.76732 46.1404 2.94779C45.8267 3.24859 45.6699 4.01561 45.6699 5.24887C45.6699 6.33174 45.7863 7.02357 46.019 7.32436C46.4338 7.85577 47.0612 8.12147 47.901 8.12147C48.7408 8.12147 49.3833 8.02622 49.8285 7.83571C50.2838 7.63518 50.648 7.38953 50.9212 7.09877Z" fill="#ECECEC"/>
<path d="M61.7152 1.05278C61.3408 1.98525 61.1233 2.92273 61.0626 3.86522C61.0019 4.79768 60.9563 5.5998 60.926 6.27158C60.8956 6.94335 60.8703 7.6402 60.8501 8.3621C60.8198 10.0466 60.8046 11.5806 60.8046 12.9643C60.8046 18.6393 61.0171 22.1185 61.442 23.4019C61.5128 23.6224 61.6039 23.843 61.7152 24.0636H56.4791C56.7927 23.3818 56.9799 22.7652 57.0406 22.2137C57.1013 21.6623 57.157 21.0055 57.2076 20.2435C57.329 18.6694 57.3897 16.8546 57.3897 14.7991C57.3897 12.7437 57.3847 11.34 57.3745 10.588C57.3644 9.82597 57.3492 9.08401 57.329 8.3621C57.2582 4.8428 57.0457 2.60689 56.6916 1.65437L56.4791 1.05278H61.7152Z" fill="#ECECEC"/>
<path d="M66.241 16.0925C66.1095 17.1353 66.0437 17.9675 66.0437 18.5891C66.0437 19.2008 66.1196 19.7673 66.2714 20.2886C66.4232 20.81 66.6407 21.2612 66.924 21.6422C67.5311 22.4544 68.3001 22.8604 69.2309 22.8604C71.0117 22.8604 71.9021 21.8879 71.9021 19.9427C71.9021 18.3786 70.9864 16.7192 69.155 14.9646L67.5766 13.4455C66.1904 12.122 65.2444 11.0592 64.7385 10.2571C63.7368 8.67293 63.236 7.09877 63.236 5.53463C63.236 4.26126 63.6508 3.19344 64.4805 2.33116C65.4822 1.27838 66.924 0.751988 68.806 0.751988C69.5446 0.751988 70.1011 0.787081 70.4755 0.857266C71.1736 0.987611 71.639 1.05278 71.8718 1.05278C72.4586 1.05278 72.9139 0.872306 73.2377 0.511352C73.3591 0.381007 73.4906 0.210557 73.6323 0C74.3709 0.411087 74.7402 1.92008 74.7402 4.52697C74.7402 6.19137 74.5733 7.41961 74.2394 8.21171C74.1281 8.48242 74.0016 8.65287 73.86 8.72306C73.6981 7.20906 73.2023 5.85548 72.3726 4.66232C71.4013 3.25861 70.2782 2.55676 69.0033 2.55676C67.9105 2.55676 67.2377 3.05307 66.9847 4.04569C66.9139 4.32644 66.8785 4.67736 66.8785 5.09848C66.8785 5.50956 67.0049 5.98081 67.2579 6.51221C67.5109 7.04362 67.8397 7.57502 68.2444 8.10643C68.6593 8.62781 69.1348 9.1542 69.6711 9.6856C71.29 11.3299 72.3625 12.4429 72.8886 13.0244C73.4249 13.606 73.9004 14.2076 74.3153 14.8292C75.2259 16.2229 75.6812 17.5714 75.6812 18.8749C75.6812 20.4491 75.064 21.7525 73.8296 22.7852C72.5547 23.838 70.9156 24.3644 68.9122 24.3644C67.2528 24.3644 65.8262 23.9533 64.6323 23.1311C63.3169 22.2288 62.6592 21.0356 62.6592 19.5517C63.0538 18.158 63.9139 17.1353 65.2393 16.4836C65.5935 16.3031 65.9274 16.1728 66.241 16.0925Z" fill="#ECECEC"/>
<path d="M89.9368 9.77584C89.1678 9.77584 88.7834 10.4627 88.7834 11.8363V13.7313C88.7834 17.2205 88.8188 19.3762 88.8896 20.1984C88.9705 21.0105 89.0464 21.577 89.1172 21.8979C89.1982 22.2187 89.3044 22.5045 89.436 22.7552C89.6484 23.1662 90.0734 23.6024 90.7109 24.0636H84.2606C84.6349 23.3216 84.8626 22.69 84.9435 22.1686C85.0245 21.6472 85.0852 21.0958 85.1257 20.5142C85.2066 19.3311 85.2471 17.7419 85.2471 15.7466C85.2471 13.3302 85.2066 11.1244 85.1257 9.12913L84.9587 4.9932C84.9182 3.95044 84.8272 3.22352 84.6855 2.81243C84.4629 2.16071 84.0987 1.57416 83.5928 1.05278H92.0768C94.3635 1.05278 96.0178 1.29342 97.0397 1.77469C98.1224 2.27602 98.6637 3.13328 98.6637 4.34649C98.6637 5.83041 98.0212 7.05866 96.7362 8.03123C95.2185 9.1943 92.952 9.77584 89.9368 9.77584ZM93.7159 7.02357C94.0397 6.70272 94.2775 6.36683 94.4293 6.0159C94.581 5.65495 94.6569 5.32407 94.6569 5.02328C94.6569 4.71246 94.6114 4.40665 94.5203 4.10585C94.4394 3.80506 94.2724 3.53936 94.0195 3.30875C93.4529 2.80742 92.4815 2.55676 91.1055 2.55676C90.2758 2.55676 89.7345 2.65702 89.4815 2.85755C89.0161 3.23856 88.7834 3.98554 88.7834 5.09848C88.7834 6.35179 88.8845 7.12884 89.0869 7.42964C89.2893 7.72041 89.522 7.91091 89.785 8.00115C90.0481 8.08136 90.4478 8.12147 90.984 8.12147C91.5304 8.12147 92.0414 8.01619 92.5169 7.80563C93.0026 7.59508 93.4023 7.33439 93.7159 7.02357Z" fill="#ECECEC"/>
<path d="M105.017 24.0636C105.149 23.4319 105.215 22.9306 105.215 22.5596C105.215 22.1786 105.205 21.8929 105.184 21.7024C105.174 21.5119 105.154 21.3113 105.124 21.1008C105.103 20.8802 105.073 20.6396 105.033 20.3789C105.002 20.1082 104.972 19.7973 104.942 19.4464C104.709 17.0501 103.884 15.0799 102.468 13.5358C101.84 12.854 101.162 12.3376 100.434 11.9867C99.7054 11.6257 99.1034 11.4453 98.6279 11.4453C98.1624 11.4453 97.8032 11.4753 97.5503 11.5355C96.9837 13.2199 96.7004 14.9796 96.7004 16.8144C96.7004 18.4387 96.7864 19.6519 96.9584 20.4541C97.2316 21.6572 97.6515 22.8654 98.2181 24.0787H93.6801C93.9229 23.4771 94.0444 22.2137 94.0444 20.2886C94.0444 18.3535 94.1911 16.5487 94.4845 14.8743C94.7779 13.1899 95.1574 11.6909 95.6228 10.3774C96.0983 9.06396 96.6245 7.91593 97.2012 6.93333C97.7881 5.9407 98.3698 5.07842 98.9466 4.34649C99.5334 3.60453 100.085 2.97286 100.601 2.45148C101.117 1.92008 101.547 1.45384 101.891 1.05278H106.672C106.237 1.54408 106.019 2.2309 106.019 3.11323C106.019 3.51429 106.085 4.17103 106.216 5.08344L106.596 7.82067C107.982 17.2857 109.222 22.7 110.314 24.0636H105.017ZM98.1725 9.94128C98.5672 9.79088 98.982 9.71568 99.4171 9.71568C99.8522 9.71568 100.242 9.74576 100.586 9.80592C100.94 9.86608 101.289 9.96635 101.633 10.1067C102.372 10.3875 102.989 10.8336 103.485 11.4453C102.989 8.86844 102.685 7.29428 102.574 6.72277L102.043 4.09081L101.178 5.11352C99.9634 6.55733 98.9618 8.16659 98.1725 9.94128Z" fill="#ECECEC"/>
<path d="M122.276 18.4989C122.549 18.8899 122.685 19.3612 122.685 19.9126C122.685 20.4641 122.645 20.9404 122.564 21.3414C122.493 21.7425 122.392 22.1235 122.261 22.4844C121.957 23.2765 121.572 23.8029 121.107 24.0636H108.905C109.704 23.5723 110.225 23.1462 110.468 22.7852C110.933 22.1034 111.166 21.2211 111.166 20.1382C111.156 17.4712 111.151 15.0598 111.151 12.9041V5.02328C111.151 3.56944 110.908 2.50161 110.422 1.81981C110.25 1.56915 110.038 1.31347 109.785 1.05278H116.023C115.426 1.90504 115.087 2.78235 115.006 3.68474C114.986 3.98554 114.975 4.31641 114.975 4.67736V18.4538C114.975 20.3287 115.077 21.4517 115.279 21.8227C115.481 22.1836 115.724 22.3992 116.008 22.4694C116.291 22.5296 116.721 22.5596 117.298 22.5596C117.874 22.5596 118.421 22.4594 118.937 22.2588C119.453 22.0583 119.913 21.7776 120.318 21.4166C121.006 20.795 121.658 19.8224 122.276 18.4989Z" fill="#ECECEC"/>
<path d="M127.971 22.8604C129.914 22.8604 131.169 20.5142 131.735 15.8218C131.928 14.2376 132.024 12.3727 132.024 10.227C132.024 4.91299 130.663 2.25596 127.941 2.25596C125.219 2.25596 123.858 4.91299 123.858 10.227C123.858 16.4936 124.673 20.4491 126.302 22.0934C126.808 22.6048 127.364 22.8604 127.971 22.8604ZM127.941 24.3644C125.25 24.3644 123.221 23.1111 121.855 20.6045C120.54 18.1881 119.882 14.7289 119.882 10.227C119.882 5.54466 121.334 2.59686 124.238 1.38366C125.26 0.962544 126.494 0.751988 127.941 0.751988C132.089 0.751988 134.624 2.57681 135.545 6.22646C135.848 7.39956 136 8.90855 136 10.7534C136 12.5983 135.838 14.3981 135.514 16.1527C135.191 17.8973 134.695 19.3812 134.027 20.6045C132.661 23.1111 130.632 24.3644 127.941 24.3644Z" fill="#ECECEC"/>
<path d="M146.95 33.7906L146.45 33.7906L146.45 34.2906L146.95 34.2906L146.95 33.7906ZM146.95 0.993897L146.95 0.493897L146.45 0.493897L146.45 0.993897L146.95 0.993897ZM139 17.3922L138.939 16.896L138.939 17.8885L139 17.3922ZM160.146 15.4671L160.114 14.968L160.1 14.9692L160.146 15.4671ZM164.741 16.114L164.91 15.6434L164.91 15.6434L164.741 16.114ZM160.401 14.7511L160.352 14.2534L160.34 14.2549L160.401 14.7511ZM164.431 15.0708L164.558 14.5872L164.558 14.5872L164.431 15.0708ZM160.146 19.3174L160.1 19.8155L160.114 19.8163L160.146 19.3174ZM164.741 18.6705L164.91 19.1411L164.91 19.1411L164.741 18.6705ZM160.401 20.0334L160.34 20.5297L160.352 20.531L160.401 20.0334ZM164.431 19.7137L164.558 20.1973L164.558 20.1973L164.431 19.7137ZM151.205 33.2906L146.95 33.2906L146.95 34.2906L151.205 34.2906L151.205 33.2906ZM146.95 1.4939L151.205 1.4939L151.205 0.493897L146.95 0.493897L146.95 1.4939ZM167.5 17.3922C167.5 26.1614 160.216 33.2906 151.205 33.2906L151.205 34.2906C160.745 34.2906 168.5 26.7362 168.5 17.3922L167.5 17.3922ZM168.5 17.3922C168.5 8.04834 160.745 0.493897 151.205 0.493897L151.205 1.4939C160.216 1.4939 167.5 8.62304 167.5 17.3922L168.5 17.3922ZM146.45 0.993897C146.45 9.20882 146.533 14.3119 146.512 17.3889C146.502 18.9299 146.465 19.9243 146.385 20.529C146.343 20.8378 146.296 20.9958 146.263 21.0648C146.235 21.1214 146.287 20.9918 146.453 20.9918C146.533 20.9918 146.529 21.0286 146.395 20.9225C146.281 20.833 146.138 20.6946 145.949 20.502C145.586 20.1298 145.094 19.5946 144.483 19.0645C143.251 17.9944 141.482 16.8922 139 16.8922L139 17.8922C141.155 17.8922 142.7 18.8399 143.828 19.8195C144.397 20.3144 144.847 20.804 145.234 21.2006C145.421 21.3922 145.605 21.5741 145.777 21.7088C145.927 21.827 146.167 21.9918 146.453 21.9918C146.827 21.9918 147.049 21.7342 147.162 21.5025C147.269 21.2832 147.332 20.9928 147.376 20.6611C147.466 19.9847 147.502 18.9292 147.512 17.3956C147.533 14.3232 147.45 9.17732 147.45 0.993897L146.45 0.993897ZM148.689 0.993897C148.689 3.26734 148.709 5.40245 148.577 7.34282C148.444 9.28331 148.161 10.9873 147.575 12.3974C146.994 13.7955 146.116 14.903 144.778 15.6698C143.431 16.4422 141.574 16.8922 139 16.8922L139 17.8922C141.682 17.8922 143.728 17.4246 145.276 16.5374C146.834 15.6445 147.846 14.3506 148.499 12.7812C149.146 11.2238 149.439 9.39418 149.574 7.41093C149.71 5.42755 149.689 3.24873 149.689 0.993897L148.689 0.993897ZM151.153 0.993897C151.153 5.54367 150.947 9.5081 149.343 12.3431C147.783 15.1017 144.825 16.8922 139 16.8922L139 17.8922C145.048 17.8922 148.417 16.0119 150.214 12.8355C151.968 9.73542 152.153 5.50068 152.153 0.993897L151.153 0.993897ZM153.616 1.21254C153.616 5.67288 153.139 9.57187 151.116 12.3597C149.121 15.1086 145.529 16.8922 139 16.8922L139 17.8922C145.704 17.8922 149.671 16.0539 151.925 12.947C154.152 9.87887 154.616 5.688 154.616 1.21254L153.616 1.21254ZM156.079 1.86848C156.079 6.11413 155.336 9.83811 152.893 12.5079C150.457 15.1703 146.229 16.8922 139 16.8922L139 17.8922C146.365 17.8922 150.926 16.1391 153.631 13.183C156.329 10.2343 157.079 6.19636 157.079 1.86848L156.079 1.86848ZM158.319 2.74305C158.319 6.71006 157.342 10.2079 154.513 12.7283C151.67 15.2615 146.861 16.8922 139 16.8922L139 17.8922C146.97 17.8922 152.07 16.2437 155.178 13.4749C158.301 10.6934 159.319 6.86658 159.319 2.74305L158.319 2.74305ZM139 17.8922C141.482 17.8922 143.251 16.7901 144.483 15.72C145.094 15.1899 145.586 14.6547 145.949 14.2825C146.138 14.0898 146.281 13.9514 146.395 13.8619C146.529 13.7559 146.533 13.7927 146.453 13.7927C146.287 13.7927 146.235 13.6631 146.263 13.7197C146.296 13.7886 146.343 13.9467 146.385 14.2555C146.465 14.8602 146.502 15.8545 146.512 17.3956C146.533 20.4726 146.45 25.5757 146.45 33.7906L147.45 33.7906C147.45 25.6072 147.533 20.4613 147.512 17.3889C147.502 15.8553 147.466 14.7998 147.376 14.1234C147.332 13.7917 147.269 13.5013 147.162 13.282C147.049 13.0503 146.827 12.7927 146.453 12.7927C146.167 12.7927 145.927 12.9575 145.777 13.0757C145.605 13.2104 145.421 13.3923 145.234 13.5839C144.847 13.9804 144.397 14.4701 143.828 14.9649C142.7 15.9446 141.155 16.8922 139 16.8922L139 17.8922ZM139 17.8922C141.574 17.8922 143.431 18.3423 144.778 19.1147C146.116 19.8815 146.994 20.989 147.575 22.3871C148.161 23.7972 148.444 25.5012 148.577 27.4417C148.709 29.382 148.689 31.5171 148.689 33.7906L149.689 33.7906C149.689 31.5358 149.71 29.3569 149.574 27.3736C149.439 25.3903 149.146 23.5607 148.499 22.0033C147.846 20.4339 146.834 19.14 145.276 18.2471C143.728 17.3599 141.682 16.8922 139 16.8922L139 17.8922ZM139 17.8922C144.825 17.8922 147.783 19.6828 149.343 22.4414C150.947 25.2764 151.153 29.2408 151.153 33.7906L152.153 33.7906C152.153 29.2838 151.968 25.0491 150.214 21.949C148.417 18.7726 145.048 16.8922 139 16.8922L139 17.8922ZM139 17.8922C145.529 17.8922 149.121 19.6758 151.116 22.4248C153.139 25.2126 153.616 29.1116 153.616 33.5719L154.616 33.5719C154.616 29.0965 154.152 24.9056 151.925 21.8375C149.671 18.7306 145.704 16.8922 139 16.8922L139 17.8922ZM139 17.8922C146.229 17.8922 150.457 19.6142 152.893 22.2766C155.336 24.9464 156.079 28.6704 156.079 32.916L157.079 32.916C157.079 28.5881 156.329 24.5502 153.631 21.6015C150.926 18.6454 146.365 16.8922 139 16.8922L139 17.8922ZM139 17.8922C146.861 17.8922 151.67 19.523 154.513 22.0562C157.342 24.5766 158.319 28.0744 158.319 32.0414L159.319 32.0414C159.319 27.9179 158.301 24.0911 155.178 21.3096C152.07 18.5408 146.97 16.8922 139 16.8922L139 17.8922ZM139.045 17.8902L160.191 15.9651L160.1 14.9692L138.955 16.8943L139.045 17.8902ZM164.572 16.5847L167.831 17.7535L168.169 16.8123L164.91 15.6434L164.572 16.5847ZM160.178 15.9661C161.671 15.8702 163.168 16.081 164.572 16.5847L164.91 15.6434C163.377 15.0935 161.743 14.8636 160.114 14.9681L160.178 15.9661ZM139.061 17.8885L160.463 15.2474L160.34 14.2549L138.939 16.896L139.061 17.8885ZM164.304 15.5544L167.873 16.4911L168.127 15.5239L164.558 14.5872L164.304 15.5544ZM160.45 15.2487C161.743 15.1215 163.049 15.2251 164.304 15.5544L164.558 14.5872C163.188 14.2277 161.763 14.1147 160.352 14.2535L160.45 15.2487ZM138.955 17.8902L160.1 19.8153L160.191 18.8194L139.045 16.8943L138.955 17.8902ZM164.91 19.1411L168.169 17.9722L167.831 17.0309L164.572 18.1998L164.91 19.1411ZM160.114 19.8163C161.743 19.9209 163.377 19.691 164.91 19.1411L164.572 18.1998C163.168 18.7034 161.671 18.9143 160.178 18.8184L160.114 19.8163ZM138.939 17.8885L160.34 20.5296L160.463 19.5371L139.061 16.896L138.939 17.8885ZM164.558 20.1973L168.127 19.2606L167.873 18.2934L164.304 19.2301L164.558 20.1973ZM160.352 20.531C161.763 20.6698 163.188 20.5568 164.558 20.1973L164.304 19.2301C163.049 19.5594 161.743 19.663 160.45 19.5358L160.352 20.531Z" fill="#ECECEC"/>
<path d="M21.3243 0.993837L21.8243 0.993837L21.8243 0.493837L21.3243 0.493837L21.3243 0.993837ZM21.3243 33.7905L21.3243 34.2905L21.8243 34.2905L21.8243 33.7905L21.3243 33.7905ZM29 17.3922L29.0634 17.8881L29.0634 16.8962L29 17.3922ZM8.58355 19.3173L8.61673 19.8164L8.63049 19.8151L8.58355 19.3173ZM4.14662 18.6704L3.97251 19.1391L3.97251 19.1391L4.14662 18.6704ZM8.33656 20.0333L8.38728 20.5309L8.39995 20.5293L8.33656 20.0333ZM4.44579 19.7136L4.31463 20.1961L4.31463 20.1961L4.44579 19.7136ZM8.58355 15.4671L8.63051 14.9691L8.61672 14.9682L8.58355 15.4671ZM4.14662 16.114L3.97251 15.6453L3.97251 15.6453L4.14662 16.114ZM8.33656 14.7511L8.39997 14.2549L8.38727 14.2536L8.33656 14.7511ZM4.44579 15.0707L4.31463 14.5882L4.31463 14.5882L4.44579 15.0707ZM17.2162 1.49384L21.3243 1.49384L21.3243 0.493837L17.2162 0.493837L17.2162 1.49384ZM21.3243 33.2905L17.2162 33.2905L17.2162 34.2905L21.3243 34.2905L21.3243 33.2905ZM1.5 17.3922C1.5 8.60649 8.54164 1.49384 17.2162 1.49384L17.2162 0.493837C7.97886 0.493837 0.500002 8.06476 0.500002 17.3922L1.5 17.3922ZM0.500002 17.3922C0.500002 26.7196 7.97886 34.2905 17.2162 34.2905L17.2162 33.2905C8.54164 33.2905 1.5 26.1779 1.5 17.3922L0.500002 17.3922ZM21.8243 33.7905C21.8243 25.5762 21.7443 20.4723 21.7642 17.3954C21.7742 15.8545 21.8095 14.8591 21.8874 14.2532C21.9272 13.9437 21.9729 13.784 22.006 13.7135C22.0355 13.6508 21.9833 13.7926 21.8037 13.7926C21.7142 13.7926 21.7113 13.7493 21.8431 13.8565C21.9523 13.9454 22.0901 14.0834 22.2718 14.2761C22.6224 14.648 23.0983 15.1837 23.688 15.7141C24.878 16.7846 26.5915 17.8922 29 17.8922L29 16.8922C26.9305 16.8922 25.4455 15.95 24.3568 14.9706C23.8071 14.4762 23.3735 13.9869 22.9995 13.5902C22.8189 13.3986 22.6406 13.2163 22.4744 13.081C22.3307 12.964 22.093 12.7926 21.8037 12.7926C21.4242 12.7926 21.2071 13.0625 21.1011 13.2881C20.9987 13.5059 20.9382 13.7945 20.8956 14.1256C20.8087 14.8008 20.7742 15.8552 20.7642 17.3889C20.7443 20.4614 20.8243 25.6066 20.8243 33.7905L21.8243 33.7905ZM19.6622 33.7905C19.6622 31.5174 19.6429 29.3815 19.7709 27.4404C19.8989 25.499 20.1723 23.7932 20.7388 22.3813C21.3008 20.9808 22.1484 19.875 23.436 19.1108C24.7324 18.3413 26.5189 17.8922 29 17.8922L29 16.8922C26.4061 16.8922 24.4253 17.3607 22.9256 18.2509C21.4169 19.1463 20.4395 20.442 19.8108 22.009C19.1866 23.5646 18.9037 25.3923 18.773 27.3747C18.6424 29.3573 18.6622 31.5354 18.6622 33.7905L19.6622 33.7905ZM17.2838 33.7905C17.2838 29.2408 17.4817 25.2725 19.0318 22.4349C19.796 21.0359 20.8913 19.9109 22.4761 19.1293C24.0696 18.3435 26.1842 17.8922 29 17.8922L29 16.8922C26.084 16.8922 23.8057 17.3586 22.0338 18.2324C20.2535 19.1104 19.0111 20.3868 18.1542 21.9554C16.4622 25.0528 16.2838 29.2837 16.2838 33.7905L17.2838 33.7905ZM14.9054 33.5719C14.9054 29.1102 15.3662 25.2076 17.3207 22.418C19.2449 19.6718 22.7051 17.8922 29 17.8922L29 16.8922C22.5177 16.8922 18.6806 18.7345 16.5018 21.8442C14.3533 24.9105 13.9054 29.0978 13.9054 33.5719L14.9054 33.5719ZM12.527 32.9159C12.527 28.6672 13.2452 24.9402 15.6042 22.27C17.9528 19.6116 22.0275 17.8922 29 17.8922L29 16.8922C21.8818 16.8922 17.47 18.6478 14.8548 21.6079C12.25 24.5563 11.527 28.5911 11.527 32.9159L12.527 32.9159ZM10.3649 32.0414C10.3649 28.0696 11.3093 24.5696 14.0397 22.0503C16.7805 19.5214 21.4154 17.8922 29 17.8922L29 16.8922C21.2997 16.8922 16.3671 18.5423 13.3616 21.3154C10.3456 24.0981 9.36487 27.9226 9.36487 32.0414L10.3649 32.0414ZM29 16.8922C26.5915 16.8922 24.878 17.9998 23.688 19.0702C23.0983 19.6007 22.6224 20.1363 22.2718 20.5082C22.0901 20.701 21.9523 20.8389 21.8431 20.9278C21.7113 21.0351 21.7142 20.9918 21.8037 20.9918C21.9833 20.9918 22.0355 21.1336 22.006 21.0709C21.9729 21.0004 21.9272 20.8407 21.8874 20.5312C21.8095 19.9253 21.7742 18.9299 21.7642 17.3889C21.7443 14.312 21.8243 9.20821 21.8243 0.993837L20.8243 0.993837C20.8243 9.17781 20.7443 14.3229 20.7642 17.3954C20.7742 18.9292 20.8087 19.9836 20.8956 20.6588C20.9382 20.9899 20.9987 21.2785 21.1011 21.4963C21.2071 21.7219 21.4242 21.9918 21.8037 21.9918C22.093 21.9918 22.3307 21.8203 22.4744 21.7034C22.6406 21.5681 22.8189 21.3857 22.9995 21.1942C23.3735 20.7974 23.8071 20.3082 24.3568 19.8137C25.4455 18.8344 26.9305 17.8922 29 17.8922L29 16.8922ZM29 16.8922C26.5189 16.8922 24.7324 16.443 23.436 15.6735C22.1484 14.9094 21.3008 13.8036 20.7388 12.403C20.1723 10.9911 19.8989 9.28534 19.7709 7.34393C19.6429 5.40283 19.6622 3.26696 19.6622 0.993837L18.6622 0.993837C18.6622 3.24899 18.6424 5.42706 18.7731 7.4097C18.9037 9.39203 19.1866 11.2198 19.8108 12.7754C20.4395 14.3424 21.4169 15.6381 22.9256 16.5335C24.4253 17.4236 26.4061 17.8922 29 17.8922L29 16.8922ZM29 16.8922C26.1842 16.8922 24.0696 16.4409 22.4761 15.6551C20.8913 14.8735 19.796 13.7484 19.0318 12.3495C17.4817 9.51185 17.2838 5.54354 17.2838 0.993837L16.2838 0.993837C16.2838 5.50069 16.4622 9.73155 18.1542 12.8289C19.0111 14.3975 20.2535 15.674 22.0338 16.552C23.8057 17.4258 26.084 17.8922 29 17.8922L29 16.8922ZM29 16.8922C22.7051 16.8922 19.2449 15.1125 17.3207 12.3663C15.3662 9.57679 14.9054 5.67419 14.9054 1.21248L13.9054 1.21248C13.9054 5.68657 14.3533 9.87383 16.5018 12.9402C18.6806 16.0499 22.5177 17.8922 29 17.8922L29 16.8922ZM29 16.8922C22.0275 16.8922 17.9528 15.1727 15.6042 12.5143C13.2452 9.84416 12.527 6.11712 12.527 1.86842L11.527 1.86842C11.527 6.19325 12.25 10.2281 14.8548 13.1764C17.47 16.1365 21.8818 17.8922 29 17.8922L29 16.8922ZM29 16.8922C21.4154 16.8922 16.7805 15.2629 14.0397 12.7341C11.3093 10.2148 10.3649 6.71478 10.3649 2.74299L9.36487 2.74299C9.36487 6.86173 10.3456 10.6863 13.3616 13.469C16.3671 16.2421 21.2997 17.8922 29 17.8922L29 16.8922ZM28.9531 16.8944L8.53662 18.8195L8.63049 19.8151L29.0469 17.89L28.9531 16.8944ZM4.32073 18.2017L1.17411 17.0328L0.825892 17.9702L3.97251 19.1391L4.32073 18.2017ZM8.55039 18.8184C7.1135 18.9139 5.67267 18.7039 4.32073 18.2017L3.97251 19.1391C5.45665 19.6904 7.03875 19.9211 8.61672 19.8162L8.55039 18.8184ZM28.9366 16.8962L8.27317 19.5373L8.39995 20.5293L29.0634 17.8881L28.9366 16.8962ZM4.57695 19.2311L1.13116 18.2945L0.868843 19.2594L4.31463 20.1961L4.57695 19.2311ZM8.28585 19.5359C7.04155 19.6627 5.78479 19.5595 4.57695 19.2311L4.31463 20.1961C5.64078 20.5566 7.02084 20.67 8.38727 20.5307L8.28585 19.5359ZM29.0469 16.8944L8.63049 14.9693L8.53662 15.9648L28.9531 17.89L29.0469 16.8944ZM3.97251 15.6453L0.825892 16.8141L1.17411 17.7515L4.32073 16.5827L3.97251 15.6453ZM8.61672 14.9682C7.03875 14.8632 5.45665 15.094 3.97251 15.6453L4.32073 16.5827C5.67267 16.0805 7.1135 15.8704 8.55039 15.966L8.61672 14.9682ZM29.0634 16.8962L8.39995 14.2551L8.27317 15.247L28.9366 17.8881L29.0634 16.8962ZM4.31463 14.5882L0.868843 15.5249L1.13116 16.4899L4.57695 15.5532L4.31463 14.5882ZM8.38727 14.2536C7.02084 14.1144 5.64078 14.2278 4.31463 14.5882L4.57695 15.5532C5.78479 15.2249 7.04155 15.1216 8.28585 15.2485L8.38727 14.2536Z" fill="#ECECEC"/>
<path d="M98.1193 9.94525L97.6336 11.3891C95.4457 12.2352 93.4606 13.5328 91.8078 15.1975L89.3772 17.6456L91.9334 14.2405C93.4797 12.1807 95.649 10.6744 98.1193 9.94525Z" fill="#ECECEC"/>
<path d="M38.5444 1.15051C38.3962 1.29743 38.1314 1.54509 37.8137 1.84182C36.3982 3.16384 34.81 4.31 33.4342 5.67331H31C32.3935 4.48967 33.438 2.94845 34.0209 1.21549L34.0427 1.15051H38.5444Z" fill="#ECECEC"/>
<path d="M39.5162 1.12274L37.0859 3.40928L35.5645 4.61536L34.1953 5.82144C34.4975 6.72002 34.6517 7.66178 34.6517 8.60984V20.1987C34.6517 20.5626 34.6067 20.9252 34.5176 21.2781C34.3073 22.1117 33.858 22.8658 33.225 23.4476L32.5549 24.0634H39.5162L39.049 23.4828C38.5574 22.8721 38.2037 22.1623 38.0119 21.4021C37.9021 20.9669 37.8466 20.5197 37.8466 20.0708V7.23897C37.9469 5.21045 38.467 3.2248 39.374 1.40757L39.5162 1.12274Z" fill="#ECECEC"/>
</svg>
