<svg width="21" height="26" viewBox="0 0 21 26" fill="none" xmlns="http://www.w3.org/2000/svg">
<path fill-rule="evenodd" clip-rule="evenodd" d="M12.083 26C5.37456 26 -2.56011e-07 20.1431 -5.68248e-07 13C-8.80485e-07 5.85685 5.37456 -2.34929e-07 12.083 -5.28165e-07L15.5174 -6.78286e-07L15.5174 0.499999C15.5174 3.86367 15.5009 6.54188 15.4878 8.66411C15.4863 8.91246 15.4848 9.15319 15.4834 9.38653C15.5766 9.4039 15.6552 9.43823 15.7149 9.47061C15.8011 9.51737 15.8773 9.57625 15.9413 9.6318C16.0675 9.74146 16.2001 9.88657 16.3288 10.0323C16.3809 10.0913 16.4344 10.1527 16.4895 10.2159C16.7196 10.4799 16.9781 10.7767 17.2908 11.0768C17.8322 11.5965 18.5024 12.0922 19.3491 12.3384L20.5676 12.5046L20.5676 13.4954L19.3491 13.6616C18.5024 13.9078 17.8322 14.4035 17.2908 14.9232C16.9781 15.2233 16.7196 15.5201 16.4895 15.7841C16.4344 15.8473 16.3809 15.9087 16.3288 15.9677C16.2001 16.1134 16.0675 16.2585 15.9413 16.3682C15.8773 16.4237 15.8011 16.4826 15.7149 16.5294C15.6552 16.5618 15.5766 16.5961 15.4834 16.6135C15.4848 16.8468 15.4863 17.0875 15.4878 17.3359C15.5009 19.4581 15.5174 22.1363 15.5174 25.5L15.5174 26L12.083 26ZM14.4895 8.38731C14.5016 6.41285 14.5158 3.97843 14.5173 0.999999L13.9727 0.999999C13.9727 1.03367 13.9726 1.0673 13.9726 1.10088C13.9712 2.61033 13.9699 4.03048 14.0505 5.33474C14.1205 6.46877 14.2515 7.49221 14.4895 8.38731ZM12.9727 0.999999L12.2752 0.999999C12.2902 4.26086 12.4703 7.07694 13.5115 9.111C13.6306 9.34369 13.761 9.56588 13.9037 9.77712C13.8676 9.69076 13.833 9.60331 13.7997 9.5148C13.3487 8.31518 13.1459 6.91074 13.0524 5.39639C12.9697 4.05851 12.9711 2.6044 12.9726 1.09986C12.9726 1.0666 12.9726 1.03331 12.9727 0.999999ZM12.6467 9.61569C12.6382 9.59939 12.6298 9.58305 12.6214 9.56667C11.4629 7.3035 11.2901 4.2649 11.2753 1.03151C11.0406 1.04988 10.8078 1.07619 10.5772 1.11021C10.6062 4.32456 10.9665 7.10781 12.2832 9.11323C12.3965 9.28587 12.5175 9.45348 12.6467 9.61569ZM9.5793 1.30835C9.34276 1.36761 9.10904 1.43508 8.87843 1.51048C8.91449 4.60047 9.44944 7.283 11.0491 9.21525C11.172 9.36372 11.3017 9.50837 11.4386 9.64893C9.98975 7.43271 9.62017 4.47215 9.5793 1.30835ZM9.88013 9.33087C8.4423 7.28711 7.95379 4.6771 7.88517 1.89228C7.69912 1.97484 7.51556 2.06272 7.33466 2.15577C7.38147 5.0169 8.06358 7.51422 9.88013 9.33087ZM6.35188 2.72865C3.58878 4.53922 1.6068 7.62108 1.11739 11.2447L2.82197 10.7502C3.78941 10.4696 4.79681 10.3812 5.79447 10.4897L5.808 10.4912L10.4979 11.1311C10.0278 10.8111 9.60323 10.4619 9.22106 10.0856C7.24226 8.13721 6.47943 5.53777 6.35188 2.72865ZM1.11739 14.7553C1.6068 18.3789 3.58878 21.4608 6.35189 23.2713C6.47943 20.4622 7.24226 17.8628 9.22106 15.9144C9.60323 15.5381 10.0278 15.1889 10.4979 14.8689L5.79449 15.5105C4.79684 15.619 3.78941 15.5304 2.82197 15.2498L1.11739 14.7553ZM9.88013 16.6691C8.06358 18.4858 7.38147 20.9831 7.33466 23.8442C7.51556 23.9373 7.69912 24.0252 7.88517 24.1077C7.95379 21.3229 8.4423 18.7129 9.88013 16.6691ZM8.87843 24.4895C9.10904 24.5649 9.34276 24.6324 9.5793 24.6917C9.62017 21.5278 9.98975 18.5673 11.4386 16.3511C11.3017 16.4916 11.172 16.6363 11.0491 16.7847C9.44944 18.717 8.91449 21.3995 8.87843 24.4895ZM12.6467 16.3843C12.5175 16.5465 12.3965 16.7141 12.2832 16.8868C10.9665 18.8922 10.6062 21.6754 10.5772 24.8898C10.8078 24.9238 11.0406 24.9501 11.2753 24.9685C11.2901 21.7351 11.4629 18.6965 12.6214 16.4333C12.6298 16.417 12.6382 16.4006 12.6467 16.3843ZM12.2752 25L12.9727 25C12.9727 24.9667 12.9726 24.9334 12.9726 24.9001C12.9711 23.3956 12.9697 21.9415 13.0524 20.6036C13.1459 19.0893 13.3487 17.6848 13.7997 16.4852C13.833 16.3967 13.8676 16.3092 13.9037 16.2229C13.761 16.4341 13.6306 16.6563 13.5115 16.889C12.4703 18.9231 12.2902 21.7391 12.2752 25ZM14.4739 12.8961L5.87423 12.0308C4.87544 11.961 3.8734 12.1172 2.93185 12.4905L1.64651 13L2.93185 13.5095C3.87339 13.8828 4.87542 14.039 5.8742 13.9692L14.4739 13.1039C14.474 13.0689 14.4742 13.0343 14.4744 13C14.4742 12.9657 14.474 12.9311 14.4739 12.8961ZM14.4895 17.6127C14.2515 18.5078 14.1205 19.5312 14.0505 20.6653C13.9699 21.9695 13.9712 23.3897 13.9726 24.8991C13.9726 24.9327 13.9727 24.9663 13.9727 25L14.5173 25C14.5158 22.0216 14.5016 19.5871 14.4895 17.6127Z" fill="#ECECEC"/>
</svg>
