<svg width="46" height="40" viewBox="0 0 46 40" fill="none" xmlns="http://www.w3.org/2000/svg">
<path d="M45 28.583L45 29.583L46 29.583L46 28.583L45 28.583ZM0.999998 28.583L-1.53462e-06 28.583L-1.59025e-06 29.583L0.999998 29.583L0.999998 28.583ZM23 39L22.0079 39.1254L23.9921 39.1254L23 39ZM20.4172 11.292L19.4194 11.3575L19.4203 11.3712L19.4216 11.3848L20.4172 11.292ZM21.2851 5.27042L20.3464 4.92571L20.3464 4.92571L21.2851 5.27042ZM19.4567 10.9568L18.4617 11.057L18.463 11.0696L18.4646 11.0821L19.4567 10.9568ZM19.8856 5.67643L18.9198 5.41692L18.9198 5.41692L19.8856 5.67643ZM25.5828 11.292L26.5784 11.3848L26.5797 11.3712L26.5806 11.3575L25.5828 11.292ZM24.7149 5.27042L25.6536 4.92571L25.6536 4.92571L24.7149 5.27042ZM26.5433 10.9568L27.5354 11.0821L27.537 11.0696L27.5383 11.057L26.5433 10.9568ZM26.1144 5.67643L27.0802 5.41692L27.0802 5.41692L26.1144 5.67643ZM44 23.0077L44 28.583L46 28.583L46 23.0077L44 23.0077ZM2 28.583L2 23.0077L-1.22443e-06 23.0077L-1.53462e-06 28.583L2 28.583ZM23 2C34.5976 2 44 11.4052 44 23.0077L46 23.0077C46 10.3012 35.7029 4.45131e-06 23 3.74457e-06L23 2ZM23 3.74457e-06C10.2971 3.03783e-06 -5.17486e-07 10.3012 -1.22443e-06 23.0077L2 23.0077C2 11.4051 11.4024 2 23 2L23 3.74457e-06ZM0.999998 29.583C12.0308 29.583 18.864 29.4744 22.9934 29.5014C25.0632 29.515 26.3786 29.5631 27.1678 29.6658C27.5755 29.7189 27.7462 29.7758 27.7912 29.7972C27.8176 29.8097 27.5 29.6508 27.5 29.2336C27.5 28.9945 27.6244 28.9147 27.4846 29.0886C27.3802 29.2183 27.2095 29.392 26.9505 29.6389C26.4596 30.1071 25.726 30.7668 25.0027 31.5802C23.5368 33.2288 22 35.6264 22 39L24 39C24 36.2964 25.2132 34.3532 26.4973 32.9091C27.149 32.1762 27.7904 31.6016 28.3307 31.0864C28.5874 30.8416 28.8464 30.5864 29.0428 30.3423C29.2037 30.1423 29.5 29.7439 29.5 29.2336C29.5 28.5451 29.0105 28.1624 28.6502 27.991C28.3085 27.8285 27.8777 27.7414 27.4259 27.6826C26.4964 27.5616 25.0618 27.5149 23.0065 27.5015C18.886 27.4745 11.9692 27.583 0.999999 27.583L0.999998 29.583ZM0.999999 26.6487C4.05574 26.6487 6.90683 26.6228 9.49686 26.7955C12.0874 26.9682 14.3345 27.3361 16.1803 28.0852C18.0028 28.825 19.4249 29.932 20.4086 31.6085C21.4032 33.3036 22 35.6673 22 39L24 39C24 35.4451 23.3656 32.6961 22.1336 30.5964C20.8908 28.4782 19.0911 27.1083 16.9324 26.2321C14.797 25.3653 12.3035 24.9782 9.62992 24.7999C6.95586 24.6216 4.01939 24.6487 0.999999 24.6487L0.999999 26.6487ZM0.999999 23.4209C7.11804 23.4209 12.353 23.6959 16.0727 25.7515C17.8928 26.7573 19.3538 28.1952 20.3723 30.2843C21.3991 32.3906 22 35.2094 22 39L24 39C24 35.0117 23.3697 31.8687 22.17 29.4079C20.9619 26.9298 19.2011 25.1952 17.04 24.001C12.7973 21.6564 7.03222 21.4209 0.999999 21.4209L0.999999 23.4209ZM1.29333 20.1931C7.27421 20.1931 12.4139 20.8226 16.064 23.4097C19.6304 25.9375 22 30.513 22 39L24 39C24 30.1465 21.5104 24.8186 17.2205 21.778C13.0144 18.7968 7.30071 18.1931 1.29333 18.1931L1.29333 20.1931ZM2.17333 16.9653C7.84637 16.9653 12.7432 17.9376 16.2336 21.0571C19.7034 24.158 22 29.581 22 39L24 39C24 29.2959 21.6344 23.2015 17.5664 19.5658C13.519 15.9487 8.00255 14.9653 2.17333 14.9653L2.17333 16.9653ZM3.34667 14.0309C8.62375 14.0309 13.211 15.2992 16.5048 18.9104C19.82 22.5451 22 28.7415 22 39L24 39C24 28.5148 21.7804 21.7266 17.9825 17.5627C14.1632 13.3753 8.92381 12.0309 3.34667 12.0309L3.34667 14.0309ZM24 39C24 35.6264 22.4632 33.2288 20.9973 31.5802C20.274 30.7668 19.5404 30.1071 19.0495 29.6389C18.7905 29.392 18.6198 29.2183 18.5154 29.0886C18.3756 28.9147 18.5 28.9945 18.5 29.2336C18.5 29.6508 18.1824 29.8097 18.2088 29.7972C18.2538 29.7758 18.4245 29.7189 18.8322 29.6658C19.6214 29.5631 20.9368 29.515 23.0065 29.5014C27.136 29.4744 33.9692 29.583 45 29.583L45 27.583C34.0308 27.583 27.114 27.4745 22.9934 27.5015C20.9382 27.5149 19.5036 27.5616 18.5741 27.6826C18.1223 27.7414 17.6915 27.8285 17.3498 27.991C16.9895 28.1624 16.5 28.5451 16.5 29.2336C16.5 29.7439 16.7963 30.1423 16.9572 30.3423C17.1536 30.5864 17.4126 30.8416 17.6693 31.0864C18.2096 31.6016 18.851 32.1762 19.5027 32.9091C20.7868 34.3532 22 36.2964 22 39L24 39ZM24 39C24 35.6673 24.5968 33.3036 25.5914 31.6085C26.5751 29.932 27.9972 28.825 29.8197 28.0852C31.6655 27.3361 33.9126 26.9682 36.5031 26.7955C39.0932 26.6228 41.9443 26.6487 45 26.6487L45 24.6487C41.9806 24.6487 39.0441 24.6216 36.3701 24.7999C33.6965 24.9782 31.203 25.3653 29.0676 26.2321C26.9089 27.1083 25.1092 28.4782 23.8664 30.5964C22.6344 32.6961 22 35.4451 22 39L24 39ZM24 39C24 35.2094 24.6009 32.3906 25.6277 30.2843C26.6462 28.1952 28.1072 26.7573 29.9273 25.7515C33.647 23.6959 38.882 23.4209 45 23.4209L45 21.4209C38.9678 21.4209 33.2027 21.6564 28.96 24.001C26.7989 25.1952 25.0381 26.9298 23.83 29.4079C22.6303 31.8687 22 35.0117 22 39L24 39ZM24 39C24 30.513 26.3696 25.9375 29.936 23.4097C33.5861 20.8226 38.7258 20.1931 44.7067 20.1931L44.7067 18.1931C38.6993 18.1931 32.9856 18.7968 28.7795 21.778C24.4896 24.8186 22 30.1465 22 39L24 39ZM24 39C24 29.581 26.2966 24.158 29.7664 21.0571C33.2568 17.9376 38.1536 16.9653 43.8267 16.9653L43.8267 14.9653C37.9974 14.9653 32.481 15.9487 28.4336 19.5658C24.3656 23.2015 22 29.2959 22 39L24 39ZM24 39C24 28.7415 26.18 22.5451 29.4952 18.9104C32.789 15.2992 37.3762 14.0309 42.6533 14.0309L42.6533 12.0309C37.0762 12.0309 31.8368 13.3753 28.0175 17.5627C24.2195 21.7266 22 28.5148 22 39L24 39ZM23.9957 38.9072L21.4129 11.1992L19.4216 11.3848L22.0043 39.0928L23.9957 38.9072ZM22.2239 5.61512L23.792 1.34471L21.9146 0.655296L20.3464 4.92571L22.2239 5.61512ZM21.4151 11.2264C21.2898 9.31998 21.5653 7.40847 22.2239 5.61512L20.3464 4.92571C19.5916 6.98132 19.2758 9.17236 19.4194 11.3575L21.4151 11.2264ZM23.9921 38.8746L20.4488 10.8314L18.4646 11.0821L22.0079 39.1254L23.9921 38.8746ZM20.8513 5.93594L22.1079 1.25951L20.1765 0.740487L18.9198 5.41692L20.8513 5.93594ZM20.4516 10.8565C20.2853 9.20564 20.4207 7.53828 20.8513 5.93594L18.9198 5.41692C18.4263 7.25358 18.271 9.16476 18.4617 11.057L20.4516 10.8565ZM23.9957 39.0928L26.5784 11.3848L24.5871 11.1992L22.0043 38.9072L23.9957 39.0928ZM25.6536 4.92571L24.0854 0.655296L22.208 1.34471L23.7761 5.61512L25.6536 4.92571ZM26.5806 11.3575C26.7242 9.17236 26.4084 6.98132 25.6536 4.92571L23.7761 5.61512C24.4347 7.40847 24.7102 9.31998 24.5849 11.2264L26.5806 11.3575ZM23.9921 39.1254L27.5354 11.0821L25.5512 10.8314L22.0079 38.8746L23.9921 39.1254ZM27.0802 5.41692L25.8235 0.740488L23.8921 1.25951L25.1487 5.93594L27.0802 5.41692ZM27.5383 11.057C27.729 9.16476 27.5737 7.25358 27.0802 5.41692L25.1487 5.93594C25.5793 7.53828 25.7147 9.20564 25.5484 10.8565L27.5383 11.057Z" fill="#0B0B0B"/>
<path d="M45 28.583L45 29.083L45.5 29.083L45.5 28.583L45 28.583ZM0.999998 28.583L0.499998 28.583L0.499998 29.083L0.999998 29.083L0.999998 28.583ZM23 39L22.5039 39.0627L23.4961 39.0627L23 39ZM20.4172 11.292L19.9181 11.3248L19.9194 11.3384L20.4172 11.292ZM21.2851 5.27042L20.8158 5.09806L20.8158 5.09806L21.2851 5.27042ZM19.4567 10.9568L18.959 11.0069L18.9606 11.0194L19.4567 10.9568ZM19.8856 5.67643L19.4027 5.54667L19.4027 5.54667L19.8856 5.67643ZM25.5828 11.292L26.0808 11.3384L26.0817 11.3248L25.5828 11.292ZM24.7149 5.27042L25.1842 5.09806L25.1842 5.09806L24.7149 5.27042ZM26.5433 10.9568L27.0395 11.0195L27.0408 11.0069L26.5433 10.9568ZM26.1145 5.67643L26.5973 5.54667L26.5973 5.54667L26.1145 5.67643ZM44.5 23.0077L44.5 28.583L45.5 28.583L45.5 23.0077L44.5 23.0077ZM1.5 28.583L1.5 23.0077L0.499999 23.0077L0.499998 28.583L1.5 28.583ZM23 1.5C34.874 1.5 44.5 11.1292 44.5 23.0077L45.5 23.0077C45.5 10.5772 35.4266 0.500004 23 0.500004L23 1.5ZM23 0.500004C10.5734 0.500003 0.499999 10.5772 0.499999 23.0077L1.5 23.0077C1.5 11.1292 11.126 1.5 23 1.5L23 0.500004ZM0.999998 29.083C12.0154 29.083 18.8695 28.9744 22.9967 29.0014C25.0629 29.015 26.408 29.0627 27.2323 29.17C27.651 29.2245 27.8868 29.289 28.006 29.3457C28.1158 29.3979 28 29.3743 28 29.2336C28 29.1818 28.0192 29.2216 27.8741 29.402C27.7467 29.5603 27.5539 29.7544 27.2956 30.0008C26.7923 30.4807 26.0817 31.1191 25.3764 31.9124C23.9559 33.5099 22.5 35.7939 22.5 39L23.5 39C23.5 36.1289 24.7941 34.0721 26.1236 32.5769C26.7933 31.8238 27.4577 31.228 27.9857 30.7245C28.2429 30.4792 28.4798 30.2444 28.6532 30.0289C28.8089 29.8354 29 29.5565 29 29.2336C29 28.8215 28.7123 28.5742 28.4354 28.4426C28.1679 28.3153 27.8021 28.2357 27.3614 28.1784C26.467 28.062 25.0621 28.0149 23.0033 28.0014C18.8805 27.9744 11.9846 28.083 0.999998 28.083L0.999998 29.083ZM0.999999 26.1486C4.04665 26.1486 6.91909 26.1225 9.53013 26.2966C12.1414 26.4707 14.4501 26.8434 16.3683 27.6219C18.2749 28.3958 19.7914 29.5685 20.8399 31.3555C21.8938 33.1517 22.5 35.6118 22.5 39L23.5 39C23.5 35.5007 22.875 32.848 21.7024 30.8494C20.5243 28.8416 18.819 27.5374 16.7444 26.6954C14.6813 25.858 12.2495 25.4757 9.59666 25.2988C6.94361 25.1219 4.02848 25.1486 0.999999 25.1486L0.999999 26.1486ZM0.999999 22.9208C7.09659 22.9208 12.464 23.1861 16.3145 25.3139C18.2199 26.3668 19.7559 27.8789 20.8217 30.0652C21.8917 32.2601 22.5 35.16 22.5 39L23.5 39C23.5 35.0611 22.877 31.9992 21.7206 29.627C20.5599 27.2461 18.874 25.5858 16.7982 24.4386C12.6862 22.1663 7.05368 21.9208 0.999999 21.9208L0.999999 22.9208ZM1.29333 19.6931C7.28084 19.6931 12.564 20.3161 16.3531 23.0018C20.1004 25.6578 22.5 30.4214 22.5 39L23.5 39C23.5 30.2382 21.0404 25.0983 16.9314 22.1859C12.8643 19.3032 7.29409 18.6931 1.29333 18.6931L1.29333 19.6931ZM2.17333 16.4653C7.88541 16.4653 12.9372 17.4404 16.5668 20.6843C20.1861 23.9189 22.5 29.5097 22.5 39L23.5 39C23.5 29.3671 21.1516 23.4406 17.2332 19.9386C13.3251 16.4459 7.9635 15.4653 2.17333 15.4653L2.17333 16.4653ZM3.34667 13.5309C8.69877 13.5309 13.4491 14.8182 16.8743 18.5735C20.3101 22.3405 22.5 28.6848 22.5 39L23.5 39C23.5 28.5715 21.2903 21.9312 17.6131 17.8996C13.9252 13.8562 8.8488 12.5309 3.34667 12.5309L3.34667 13.5309ZM23.5 39C23.5 35.7939 22.0441 33.5099 20.6236 31.9124C19.9183 31.1191 19.2077 30.4807 18.7044 30.0008C18.4461 29.7544 18.2533 29.5603 18.1259 29.402C17.9808 29.2216 18 29.1818 18 29.2336C18 29.3743 17.8842 29.3979 17.994 29.3457C18.1132 29.289 18.349 29.2245 18.7677 29.17C19.592 29.0627 20.9371 29.015 23.0033 29.0014C27.1305 28.9744 33.9846 29.083 45 29.083L45 28.083C34.0154 28.083 27.1195 27.9744 22.9967 28.0014C20.9379 28.0149 19.533 28.062 18.6386 28.1784C18.1979 28.2357 17.8321 28.3153 17.5646 28.4426C17.2877 28.5742 17 28.8215 17 29.2336C17 29.5565 17.1911 29.8354 17.3468 30.0289C17.5202 30.2444 17.7571 30.4792 18.0143 30.7245C18.5423 31.228 19.2067 31.8238 19.8764 32.5769C21.2059 34.0721 22.5 36.1289 22.5 39L23.5 39ZM23.5 39C23.5 35.6118 24.1062 33.1517 25.1601 31.3555C26.2086 29.5685 27.7251 28.3958 29.6317 27.6219C31.5499 26.8434 33.8586 26.4707 36.4699 26.2966C39.0809 26.1225 41.9533 26.1486 45 26.1486L45 25.1486C41.9715 25.1486 39.0564 25.1219 36.4033 25.2988C33.7505 25.4757 31.3187 25.858 29.2556 26.6954C27.181 27.5374 25.4757 28.8416 24.2976 30.8494C23.125 32.848 22.5 35.5007 22.5 39L23.5 39ZM23.5 39C23.5 35.16 24.1083 32.2601 25.1783 30.0652C26.2441 27.8789 27.7801 26.3668 29.6855 25.3139C33.536 23.1861 38.9034 22.9209 45 22.9209L45 21.9209C38.9463 21.9209 33.3138 22.1663 29.2018 24.4386C27.126 25.5858 25.4401 27.2461 24.2794 29.627C23.123 31.9992 22.5 35.0611 22.5 39L23.5 39ZM23.5 39C23.5 30.4214 25.8996 25.6578 29.6469 23.0018C33.436 20.3161 38.7192 19.6931 44.7067 19.6931L44.7067 18.6931C38.7059 18.6931 33.1357 19.3032 29.0686 22.1859C24.9596 25.0983 22.5 30.2382 22.5 39L23.5 39ZM23.5 39C23.5 29.5097 25.8139 23.9189 29.4332 20.6843C33.0628 17.4404 38.1146 16.4653 43.8267 16.4653L43.8267 15.4653C38.0365 15.4653 32.6749 16.4459 28.7668 19.9386C24.8484 23.4406 22.5 29.3671 22.5 39L23.5 39ZM23.5 39C23.5 28.6848 25.6899 22.3405 29.1257 18.5735C32.5509 14.8182 37.3012 13.5309 42.6533 13.5309L42.6533 12.5309C37.1512 12.5309 32.0748 13.8563 28.3869 17.8996C24.7097 21.9312 22.5 28.5715 22.5 39L23.5 39ZM23.4978 38.9536L20.9151 11.2456L19.9194 11.3384L22.5022 39.0464L23.4978 38.9536ZM21.7545 5.44277L23.3227 1.17236L22.3839 0.827649L20.8158 5.09806L21.7545 5.44277ZM20.9162 11.2592C20.7863 9.28307 21.0719 7.30168 21.7545 5.44277L20.8158 5.09806C20.085 7.08811 19.7793 9.20927 19.9183 11.3248L20.9162 11.2592ZM23.4961 38.9373L19.9527 10.8941L18.9606 11.0194L22.5039 39.0627L23.4961 38.9373ZM20.3684 5.80619L21.6251 1.12976L20.6593 0.870244L19.4027 5.54667L20.3684 5.80619ZM19.9542 10.9066C19.7817 9.19542 19.9221 7.4671 20.3684 5.80619L19.4027 5.54667C18.9249 7.32475 18.7746 9.17498 18.9592 11.0069L19.9542 10.9066ZM23.4978 39.0464L26.0806 11.3384L25.0849 11.2456L22.5022 38.9536L23.4978 39.0464ZM25.1842 5.09806L23.6161 0.82765L22.6773 1.17236L24.2455 5.44277L25.1842 5.09806ZM26.0817 11.3248C26.2207 9.20927 25.915 7.08811 25.1842 5.09806L24.2455 5.44277C24.9281 7.30168 25.2137 9.28307 25.0838 11.2592L26.0817 11.3248ZM23.4961 39.0627L27.0394 11.0194L26.0473 10.8941L22.5039 38.9373L23.4961 39.0627ZM26.5973 5.54667L25.3407 0.870244L24.3749 1.12976L25.6316 5.80619L26.5973 5.54667ZM27.0408 11.0069C27.2254 9.17498 27.0751 7.32475 26.5973 5.54667L25.6316 5.80619C26.0779 7.4671 26.2183 9.19542 26.0458 10.9066L27.0408 11.0069Z" fill="white"/>
</svg>
