<svg width="300" height="380" viewBox="0 0 300 380" fill="none" xmlns="http://www.w3.org/2000/svg">
<g clip-path="url(#clip0_364_1336)">
<path d="M150 296V296.5H150.5V296H150ZM0 296H-0.5V296.5H0V296ZM75 371L74.5011 371.033H75.4989L75 371ZM66.1952 237.074L66.6941 237.041L66.1952 237.074ZM69.1539 216.553L68.6846 216.381L69.1539 216.553ZM62.9205 235.932L63.418 235.881L62.9205 235.932ZM64.3826 217.937L63.8997 217.807L64.3826 217.937ZM83.8048 237.074L83.3059 237.041L83.8048 237.074ZM80.8461 216.553L81.3154 216.381L80.8461 216.553ZM87.0795 235.932L86.582 235.881L87.0795 235.932ZM85.6174 217.937L86.1003 217.807L85.6174 217.937ZM149.5 277V296H150.5V277H149.5ZM0.5 296V277H-0.5V296H0.5ZM75 202.5C116.145 202.5 149.5 235.855 149.5 277H150.5C150.5 235.303 116.698 201.5 75 201.5V202.5ZM75 201.5C33.3025 201.5 -0.5 235.303 -0.5 277H0.5C0.5 235.855 33.8548 202.5 75 202.5V201.5ZM0 296.5C41.1452 296.5 74.5 329.855 74.5 371H75.5C75.5 329.303 41.6975 295.5 0 295.5V296.5ZM0 286.5C41.0882 286.5 74.5 324.271 74.5 371H75.5C75.5 323.84 41.7545 285.5 0 285.5V286.5ZM0 275.5C41.0373 275.5 74.5 318.135 74.5 371H75.5C75.5 317.826 41.8054 274.5 0 274.5V275.5ZM1 264.5C21.2238 264.5 39.5866 276.352 52.9147 295.624C66.2413 314.894 74.5 341.542 74.5 371H75.5C75.5 341.364 67.1932 314.512 53.7371 295.055C40.2824 275.6 21.6452 263.5 1 263.5V264.5ZM4 253.5C23.3622 253.5 40.9761 266.546 53.7762 287.819C66.5704 309.083 74.5 338.491 74.5 371H75.5C75.5 338.34 67.5357 308.748 54.633 287.304C41.7361 265.869 23.85 252.5 4 252.5V253.5ZM8 243.5C26.2221 243.5 42.8406 257.62 54.9332 280.722C67.0133 303.801 74.5 335.718 74.5 371H75.5C75.5 335.59 67.9883 303.507 55.8191 280.258C43.6625 257.034 26.781 242.5 8 242.5V243.5ZM75.5 371C75.5 329.855 108.855 296.5 150 296.5V295.5C108.302 295.5 74.5 329.303 74.5 371H75.5ZM75.5 371C75.5 324.271 108.912 286.5 150 286.5V285.5C108.246 285.5 74.5 323.84 74.5 371H75.5ZM75.5 371C75.5 318.135 108.963 275.5 150 275.5V274.5C108.195 274.5 74.5 317.826 74.5 371H75.5ZM75.5 371C75.5 341.542 83.7587 314.894 97.0853 295.624C110.413 276.352 128.776 264.5 149 264.5V263.5C128.355 263.5 109.718 275.6 96.2629 295.055C82.8068 314.512 74.5 341.364 74.5 371H75.5ZM75.5 371C75.5 338.491 83.4296 309.083 96.2238 287.819C109.024 266.546 126.638 253.5 146 253.5V252.5C126.15 252.5 108.264 265.869 95.367 287.304C82.4643 308.748 74.5 338.34 74.5 371H75.5ZM75.5 371C75.5 335.718 82.9867 303.801 95.0668 280.722C107.159 257.62 123.778 243.5 142 243.5V242.5C123.219 242.5 106.338 257.034 94.1809 280.258C82.0117 303.507 74.5 335.59 74.5 371H75.5ZM75.4989 370.967L66.6941 237.041L65.6962 237.107L74.5011 371.033L75.4989 370.967ZM69.6232 216.726L74.9692 202.172L74.0306 201.828L68.6846 216.381L69.6232 216.726ZM66.6941 237.041C66.2403 230.139 67.2381 223.218 69.6232 216.726L68.6846 216.381C66.2513 223.005 65.2333 230.065 65.6962 237.107L66.6941 237.041ZM72.4975 325.95L63.418 235.881L62.423 235.982L71.5025 326.05L72.4975 325.95ZM64.8654 218.067L69.1495 202.13L68.1837 201.87L63.8997 217.807L64.8654 218.067ZM63.418 235.881C62.8155 229.905 63.306 223.868 64.8654 218.067L63.8997 217.807C62.3087 223.725 61.8084 229.884 62.423 235.982L63.418 235.881ZM75.4989 371.033L84.3038 237.107L83.3059 237.041L74.5011 370.967L75.4989 371.033ZM81.3154 216.381L75.9694 201.828L75.0308 202.172L80.3768 216.726L81.3154 216.381ZM84.3038 237.107C84.7667 230.065 83.7487 223.005 81.3154 216.381L80.3768 216.726C82.7619 223.218 83.7597 230.139 83.3059 237.041L84.3038 237.107ZM78.4975 326.05L87.577 235.982L86.582 235.881L77.5025 325.95L78.4975 326.05ZM86.1003 217.807L81.8163 201.87L80.8505 202.13L85.1346 218.067L86.1003 217.807ZM87.577 235.982C88.1917 229.884 87.6913 223.725 86.1003 217.807L85.1346 218.067C86.694 223.868 87.1845 229.905 86.582 235.881L87.577 235.982Z" fill="#404040"/>
<path d="M225 201V201.5H225.5V201H225ZM75 201H74.5V201.5H75V201ZM150 276L149.501 276.033H150.499L150 276ZM141.195 142.074L141.694 142.041L141.195 142.074ZM144.154 121.553L143.685 121.381L144.154 121.553ZM137.921 140.932L138.418 140.881L137.921 140.932ZM139.383 122.937L138.9 122.807L139.383 122.937ZM158.805 142.074L158.306 142.041L158.805 142.074ZM155.846 121.553L156.315 121.381L155.846 121.553ZM162.079 140.932L161.582 140.881L162.079 140.932ZM160.617 122.937L161.1 122.807L160.617 122.937ZM224.5 182V201H225.5V182H224.5ZM75.5 201V182H74.5V201H75.5ZM150 107.5C191.145 107.5 224.5 140.855 224.5 182H225.5C225.5 140.303 191.698 106.5 150 106.5V107.5ZM150 106.5C108.303 106.5 74.5 140.303 74.5 182H75.5C75.5 140.855 108.855 107.5 150 107.5V106.5ZM75 201.5C116.145 201.5 149.5 234.855 149.5 276H150.5C150.5 234.303 116.697 200.5 75 200.5V201.5ZM75 191.5C116.088 191.5 149.5 229.271 149.5 276H150.5C150.5 228.84 116.754 190.5 75 190.5V191.5ZM75 180.5C116.037 180.5 149.5 223.135 149.5 276H150.5C150.5 222.826 116.805 179.5 75 179.5V180.5ZM76 169.5C96.2238 169.5 114.587 181.352 127.915 200.624C141.241 219.894 149.5 246.542 149.5 276H150.5C150.5 246.364 142.193 219.512 128.737 200.055C115.282 180.6 96.6452 168.5 76 168.5V169.5ZM79 158.5C98.3622 158.5 115.976 171.546 128.776 192.819C141.57 214.083 149.5 243.491 149.5 276H150.5C150.5 243.34 142.536 213.748 129.633 192.304C116.736 170.869 98.85 157.5 79 157.5V158.5ZM83 148.5C101.222 148.5 117.841 162.62 129.933 185.722C142.013 208.801 149.5 240.718 149.5 276H150.5C150.5 240.59 142.988 208.507 130.819 185.258C118.662 162.034 101.781 147.5 83 147.5V148.5ZM150.5 276C150.5 234.855 183.855 201.5 225 201.5V200.5C183.302 200.5 149.5 234.303 149.5 276H150.5ZM150.5 276C150.5 229.271 183.912 191.5 225 191.5V190.5C183.246 190.5 149.5 228.84 149.5 276H150.5ZM150.5 276C150.5 223.135 183.963 180.5 225 180.5V179.5C183.195 179.5 149.5 222.826 149.5 276H150.5ZM150.5 276C150.5 246.542 158.759 219.894 172.085 200.624C185.413 181.352 203.776 169.5 224 169.5V168.5C203.355 168.5 184.718 180.6 171.263 200.055C157.807 219.512 149.5 246.364 149.5 276H150.5ZM150.5 276C150.5 243.491 158.43 214.083 171.224 192.819C184.024 171.546 201.638 158.5 221 158.5V157.5C201.15 157.5 183.264 170.869 170.367 192.304C157.464 213.748 149.5 243.34 149.5 276H150.5ZM150.5 276C150.5 240.718 157.987 208.801 170.067 185.722C182.159 162.62 198.778 148.5 217 148.5V147.5C198.219 147.5 181.338 162.034 169.181 185.258C157.012 208.507 149.5 240.59 149.5 276H150.5ZM150.499 275.967L141.694 142.041L140.696 142.107L149.501 276.033L150.499 275.967ZM144.623 121.726L149.969 107.172L149.031 106.828L143.685 121.381L144.623 121.726ZM141.694 142.041C141.24 135.139 142.238 128.218 144.623 121.726L143.685 121.381C141.251 128.005 140.233 135.065 140.696 142.107L141.694 142.041ZM147.497 230.95L138.418 140.881L137.423 140.982L146.503 231.05L147.497 230.95ZM139.865 123.067L144.149 107.13L143.184 106.87L138.9 122.807L139.865 123.067ZM138.418 140.881C137.815 134.905 138.306 128.868 139.865 123.067L138.9 122.807C137.309 128.725 136.808 134.884 137.423 140.982L138.418 140.881ZM150.499 276.033L159.304 142.107L158.306 142.041L149.501 275.967L150.499 276.033ZM156.315 121.381L150.969 106.828L150.031 107.172L155.377 121.726L156.315 121.381ZM159.304 142.107C159.767 135.065 158.749 128.005 156.315 121.381L155.377 121.726C157.762 128.218 158.76 135.139 158.306 142.041L159.304 142.107ZM153.497 231.05L162.577 140.982L161.582 140.881L152.503 230.95L153.497 231.05ZM161.1 122.807L156.816 106.87L155.851 107.13L160.135 123.067L161.1 122.807ZM162.577 140.982C163.192 134.884 162.691 128.725 161.1 122.807L160.135 123.067C161.694 128.868 162.185 134.905 161.582 140.881L162.577 140.982Z" fill="#404040"/>
<path d="M225 391V391.5H225.5V391H225ZM75 391H74.5V391.5H75V391ZM150 466L149.501 466.033H150.499L150 466ZM141.195 332.074L141.694 332.041L141.195 332.074ZM144.154 311.553L143.685 311.381L144.154 311.553ZM137.921 330.932L138.418 330.881L137.921 330.932ZM139.383 312.937L138.9 312.807L139.383 312.937ZM158.805 332.074L158.306 332.041L158.805 332.074ZM155.846 311.553L156.315 311.381L155.846 311.553ZM162.079 330.932L161.582 330.881L162.079 330.932ZM160.617 312.937L161.1 312.807L160.617 312.937ZM224.5 372V391H225.5V372H224.5ZM75.5 391V372H74.5V391H75.5ZM150 297.5C191.145 297.5 224.5 330.855 224.5 372H225.5C225.5 330.303 191.698 296.5 150 296.5V297.5ZM150 296.5C108.303 296.5 74.5 330.303 74.5 372H75.5C75.5 330.855 108.855 297.5 150 297.5V296.5ZM75 391.5C116.145 391.5 149.5 424.855 149.5 466H150.5C150.5 424.303 116.697 390.5 75 390.5V391.5ZM75 381.5C116.088 381.5 149.5 419.271 149.5 466H150.5C150.5 418.84 116.754 380.5 75 380.5V381.5ZM75 370.5C116.037 370.5 149.5 413.135 149.5 466H150.5C150.5 412.826 116.805 369.5 75 369.5V370.5ZM76 359.5C96.2238 359.5 114.587 371.352 127.915 390.624C141.241 409.894 149.5 436.542 149.5 466H150.5C150.5 436.364 142.193 409.512 128.737 390.055C115.282 370.6 96.6452 358.5 76 358.5V359.5ZM79 348.5C98.3622 348.5 115.976 361.546 128.776 382.819C141.57 404.083 149.5 433.491 149.5 466H150.5C150.5 433.34 142.536 403.748 129.633 382.304C116.736 360.869 98.85 347.5 79 347.5V348.5ZM83 338.5C101.222 338.5 117.841 352.62 129.933 375.722C142.013 398.801 149.5 430.718 149.5 466H150.5C150.5 430.59 142.988 398.507 130.819 375.258C118.662 352.034 101.781 337.5 83 337.5V338.5ZM150.5 466C150.5 424.855 183.855 391.5 225 391.5V390.5C183.302 390.5 149.5 424.303 149.5 466H150.5ZM150.5 466C150.5 419.271 183.912 381.5 225 381.5V380.5C183.246 380.5 149.5 418.84 149.5 466H150.5ZM150.5 466C150.5 413.135 183.963 370.5 225 370.5V369.5C183.195 369.5 149.5 412.826 149.5 466H150.5ZM150.5 466C150.5 436.542 158.759 409.894 172.085 390.624C185.413 371.352 203.776 359.5 224 359.5V358.5C203.355 358.5 184.718 370.6 171.263 390.055C157.807 409.512 149.5 436.364 149.5 466H150.5ZM150.5 466C150.5 433.491 158.43 404.083 171.224 382.819C184.024 361.546 201.638 348.5 221 348.5V347.5C201.15 347.5 183.264 360.869 170.367 382.304C157.464 403.748 149.5 433.34 149.5 466H150.5ZM150.5 466C150.5 430.718 157.987 398.801 170.067 375.722C182.159 352.62 198.778 338.5 217 338.5V337.5C198.219 337.5 181.338 352.034 169.181 375.258C157.012 398.507 149.5 430.59 149.5 466H150.5ZM150.499 465.967L141.694 332.041L140.696 332.107L149.501 466.033L150.499 465.967ZM144.623 311.726L149.969 297.172L149.031 296.828L143.685 311.381L144.623 311.726ZM141.694 332.041C141.24 325.139 142.238 318.218 144.623 311.726L143.685 311.381C141.251 318.005 140.233 325.065 140.696 332.107L141.694 332.041ZM147.497 420.95L138.418 330.881L137.423 330.982L146.503 421.05L147.497 420.95ZM139.865 313.067L144.149 297.13L143.184 296.87L138.9 312.807L139.865 313.067ZM138.418 330.881C137.815 324.905 138.306 318.868 139.865 313.067L138.9 312.807C137.309 318.725 136.808 324.884 137.423 330.982L138.418 330.881ZM150.499 466.033L159.304 332.107L158.306 332.041L149.501 465.967L150.499 466.033ZM156.315 311.381L150.969 296.828L150.031 297.172L155.377 311.726L156.315 311.381ZM159.304 332.107C159.767 325.065 158.749 318.005 156.315 311.381L155.377 311.726C157.762 318.218 158.76 325.139 158.306 332.041L159.304 332.107ZM153.497 421.05L162.577 330.982L161.582 330.881L152.503 420.95L153.497 421.05ZM161.1 312.807L156.816 296.87L155.851 297.13L160.135 313.067L161.1 312.807ZM162.577 330.982C163.192 324.884 162.691 318.725 161.1 312.807L160.135 313.067C161.694 318.868 162.185 324.905 161.582 330.881L162.577 330.982Z" fill="#404040"/>
<path d="M75 201V201.5H75.5V201H75ZM-75 201H-75.5V201.5H-75V201ZM0 276L-0.498924 276.033H0.498924L0 276ZM-8.80483 142.074L-8.30591 142.041L-8.80483 142.074ZM-5.84609 121.553L-6.31543 121.381L-5.84609 121.553ZM-12.0795 140.932L-11.582 140.881L-12.0795 140.932ZM-10.6174 122.937L-11.1003 122.807L-10.6174 122.937ZM8.80483 142.074L8.30591 142.041L8.80483 142.074ZM5.84609 121.553L6.31543 121.381L5.84609 121.553ZM12.0795 140.932L11.582 140.881L12.0795 140.932ZM10.6174 122.937L11.1003 122.807L10.6174 122.937ZM74.5 182V201H75.5V182H74.5ZM-74.5 201V182H-75.5V201H-74.5ZM0 107.5C41.1452 107.5 74.5 140.855 74.5 182H75.5C75.5 140.303 41.6975 106.5 0 106.5V107.5ZM0 106.5C-41.6975 106.5 -75.5 140.303 -75.5 182H-74.5C-74.5 140.855 -41.1452 107.5 0 107.5V106.5ZM-75 201.5C-33.8548 201.5 -0.5 234.855 -0.5 276H0.5C0.5 234.303 -33.3025 200.5 -75 200.5V201.5ZM-75 191.5C-33.9118 191.5 -0.5 229.271 -0.5 276H0.5C0.5 228.84 -33.2455 190.5 -75 190.5V191.5ZM-75 180.5C-33.9627 180.5 -0.5 223.135 -0.5 276H0.5C0.5 222.826 -33.1946 179.5 -75 179.5V180.5ZM-74 169.5C-53.7762 169.5 -35.4134 181.352 -22.0853 200.624C-8.7587 219.894 -0.5 246.542 -0.5 276H0.5C0.5 246.364 -7.80677 219.512 -21.2629 200.055C-34.7176 180.6 -53.3548 168.5 -74 168.5V169.5ZM-71 158.5C-51.6378 158.5 -34.0239 171.546 -21.2238 192.819C-8.42962 214.083 -0.5 243.491 -0.5 276H0.5C0.5 243.34 -7.46428 213.748 -20.367 192.304C-33.2639 170.869 -51.15 157.5 -71 157.5V158.5ZM-67 148.5C-48.7779 148.5 -32.1594 162.62 -20.0668 185.722C-7.98671 208.801 -0.5 240.718 -0.5 276H0.5C0.5 240.59 -7.01175 208.507 -19.1809 185.258C-31.3375 162.034 -48.219 147.5 -67 147.5V148.5ZM0.5 276C0.5 234.855 33.8548 201.5 75 201.5V200.5C33.3025 200.5 -0.5 234.303 -0.5 276H0.5ZM0.5 276C0.5 229.271 33.9118 191.5 75 191.5V190.5C33.2455 190.5 -0.5 228.84 -0.5 276H0.5ZM0.5 276C0.5 223.135 33.9627 180.5 75 180.5V179.5C33.1946 179.5 -0.5 222.826 -0.5 276H0.5ZM0.5 276C0.5 246.542 8.7587 219.894 22.0853 200.624C35.4134 181.352 53.7762 169.5 74 169.5V168.5C53.3548 168.5 34.7176 180.6 21.2629 200.055C7.80677 219.512 -0.5 246.364 -0.5 276H0.5ZM0.5 276C0.5 243.491 8.42961 214.083 21.2238 192.819C34.0239 171.546 51.6378 158.5 71 158.5V157.5C51.15 157.5 33.2639 170.869 20.367 192.304C7.46428 213.748 -0.5 243.34 -0.5 276H0.5ZM0.5 276C0.5 240.718 7.98671 208.801 20.0668 185.722C32.1594 162.62 48.7779 148.5 67 148.5V147.5C48.219 147.5 31.3375 162.034 19.1809 185.258C7.01175 208.507 -0.5 240.59 -0.5 276H0.5ZM0.498924 275.967L-8.30591 142.041L-9.30376 142.107L-0.498924 276.033L0.498924 275.967ZM-5.37675 121.726L-0.0307693 107.172L-0.969444 106.828L-6.31543 121.381L-5.37675 121.726ZM-8.30591 142.041C-8.75968 135.139 -7.76186 128.218 -5.37675 121.726L-6.31543 121.381C-8.74871 128.005 -9.7667 135.065 -9.30376 142.107L-8.30591 142.041ZM-2.50252 230.95L-11.582 140.881L-12.577 140.982L-3.49748 231.05L-2.50252 230.95ZM-10.1346 123.067L-5.85055 107.13L-6.81626 106.87L-11.1003 122.807L-10.1346 123.067ZM-11.582 140.881C-12.1845 134.905 -11.694 128.868 -10.1346 123.067L-11.1003 122.807C-12.6913 128.725 -13.1916 134.884 -12.577 140.982L-11.582 140.881ZM0.498924 276.033L9.30376 142.107L8.30591 142.041L-0.498924 275.967L0.498924 276.033ZM6.31543 121.381L0.969444 106.828L0.0307693 107.172L5.37675 121.726L6.31543 121.381ZM9.30376 142.107C9.7667 135.065 8.74871 128.005 6.31543 121.381L5.37675 121.726C7.76186 128.218 8.75968 135.139 8.30591 142.041L9.30376 142.107ZM3.49748 231.05L12.577 140.982L11.582 140.881L2.50252 230.95L3.49748 231.05ZM11.1003 122.807L6.81626 106.87L5.85055 107.13L10.1346 123.067L11.1003 122.807ZM12.577 140.982C13.1917 134.884 12.6913 128.725 11.1003 122.807L10.1346 123.067C11.694 128.868 12.1845 134.905 11.582 140.881L12.577 140.982Z" fill="#404040"/>
<path d="M75 391V391.5H75.5V391H75ZM-75 391H-75.5V391.5H-75V391ZM0 466L-0.498924 466.033H0.498924L0 466ZM-8.80483 332.074L-8.30591 332.041L-8.80483 332.074ZM-5.84609 311.553L-6.31543 311.381L-5.84609 311.553ZM-12.0795 330.932L-11.582 330.881L-12.0795 330.932ZM-10.6174 312.937L-11.1003 312.807L-10.6174 312.937ZM8.80483 332.074L8.30591 332.041L8.80483 332.074ZM5.84609 311.553L6.31543 311.381L5.84609 311.553ZM12.0795 330.932L11.582 330.881L12.0795 330.932ZM10.6174 312.937L11.1003 312.807L10.6174 312.937ZM74.5 372V391H75.5V372H74.5ZM-74.5 391V372H-75.5V391H-74.5ZM0 297.5C41.1452 297.5 74.5 330.855 74.5 372H75.5C75.5 330.303 41.6975 296.5 0 296.5V297.5ZM0 296.5C-41.6975 296.5 -75.5 330.303 -75.5 372H-74.5C-74.5 330.855 -41.1452 297.5 0 297.5V296.5ZM-75 391.5C-33.8548 391.5 -0.5 424.855 -0.5 466H0.5C0.5 424.303 -33.3025 390.5 -75 390.5V391.5ZM-75 381.5C-33.9118 381.5 -0.5 419.271 -0.5 466H0.5C0.5 418.84 -33.2455 380.5 -75 380.5V381.5ZM-75 370.5C-33.9627 370.5 -0.5 413.135 -0.5 466H0.5C0.5 412.826 -33.1946 369.5 -75 369.5V370.5ZM-74 359.5C-53.7762 359.5 -35.4134 371.352 -22.0853 390.624C-8.7587 409.894 -0.5 436.542 -0.5 466H0.5C0.5 436.364 -7.80677 409.512 -21.2629 390.055C-34.7176 370.6 -53.3548 358.5 -74 358.5V359.5ZM-71 348.5C-51.6378 348.5 -34.0239 361.546 -21.2238 382.819C-8.42962 404.083 -0.5 433.491 -0.5 466H0.5C0.5 433.34 -7.46428 403.748 -20.367 382.304C-33.2639 360.869 -51.15 347.5 -71 347.5V348.5ZM-67 338.5C-48.7779 338.5 -32.1594 352.62 -20.0668 375.722C-7.98671 398.801 -0.5 430.718 -0.5 466H0.5C0.5 430.59 -7.01175 398.507 -19.1809 375.258C-31.3375 352.034 -48.219 337.5 -67 337.5V338.5ZM0.5 466C0.5 424.855 33.8548 391.5 75 391.5V390.5C33.3025 390.5 -0.5 424.303 -0.5 466H0.5ZM0.5 466C0.5 419.271 33.9118 381.5 75 381.5V380.5C33.2455 380.5 -0.5 418.84 -0.5 466H0.5ZM0.5 466C0.5 413.135 33.9627 370.5 75 370.5V369.5C33.1946 369.5 -0.5 412.826 -0.5 466H0.5ZM0.5 466C0.5 436.542 8.7587 409.894 22.0853 390.624C35.4134 371.352 53.7762 359.5 74 359.5V358.5C53.3548 358.5 34.7176 370.6 21.2629 390.055C7.80677 409.512 -0.5 436.364 -0.5 466H0.5ZM0.5 466C0.5 433.491 8.42961 404.083 21.2238 382.819C34.0239 361.546 51.6378 348.5 71 348.5V347.5C51.15 347.5 33.2639 360.869 20.367 382.304C7.46428 403.748 -0.5 433.34 -0.5 466H0.5ZM0.5 466C0.5 430.718 7.98671 398.801 20.0668 375.722C32.1594 352.62 48.7779 338.5 67 338.5V337.5C48.219 337.5 31.3375 352.034 19.1809 375.258C7.01175 398.507 -0.5 430.59 -0.5 466H0.5ZM0.498924 465.967L-8.30591 332.041L-9.30376 332.107L-0.498924 466.033L0.498924 465.967ZM-5.37675 311.726L-0.0307693 297.172L-0.969444 296.828L-6.31543 311.381L-5.37675 311.726ZM-8.30591 332.041C-8.75968 325.139 -7.76186 318.218 -5.37675 311.726L-6.31543 311.381C-8.74871 318.005 -9.7667 325.065 -9.30376 332.107L-8.30591 332.041ZM-2.50252 420.95L-11.582 330.881L-12.577 330.982L-3.49748 421.05L-2.50252 420.95ZM-10.1346 313.067L-5.85055 297.13L-6.81626 296.87L-11.1003 312.807L-10.1346 313.067ZM-11.582 330.881C-12.1845 324.905 -11.694 318.868 -10.1346 313.067L-11.1003 312.807C-12.6913 318.725 -13.1916 324.884 -12.577 330.982L-11.582 330.881ZM0.498924 466.033L9.30376 332.107L8.30591 332.041L-0.498924 465.967L0.498924 466.033ZM6.31543 311.381L0.969444 296.828L0.0307693 297.172L5.37675 311.726L6.31543 311.381ZM9.30376 332.107C9.7667 325.065 8.74871 318.005 6.31543 311.381L5.37675 311.726C7.76186 318.218 8.75968 325.139 8.30591 332.041L9.30376 332.107ZM3.49748 421.05L12.577 330.982L11.582 330.881L2.50252 420.95L3.49748 421.05ZM11.1003 312.807L6.81626 296.87L5.85055 297.13L10.1346 313.067L11.1003 312.807ZM12.577 330.982C13.1917 324.884 12.6913 318.725 11.1003 312.807L10.1346 313.067C11.694 318.868 12.1845 324.905 11.582 330.881L12.577 330.982Z" fill="#404040"/>
</g>
<g clip-path="url(#clip1_364_1336)">
<path d="M300 296V296.5H300.5V296H300ZM150 296H149.5V296.5H150V296ZM225 371L224.501 371.033H225.499L225 371ZM216.195 237.074L216.694 237.041L216.195 237.074ZM219.154 216.553L218.685 216.381L219.154 216.553ZM212.921 235.932L213.418 235.881L212.921 235.932ZM214.383 217.937L213.9 217.807L214.383 217.937ZM233.805 237.074L233.306 237.041L233.805 237.074ZM230.846 216.553L231.315 216.381L230.846 216.553ZM237.079 235.932L236.582 235.881L237.079 235.932ZM235.617 217.937L236.1 217.807L235.617 217.937ZM299.5 277V296H300.5V277H299.5ZM150.5 296V277H149.5V296H150.5ZM225 202.5C266.145 202.5 299.5 235.855 299.5 277H300.5C300.5 235.303 266.698 201.5 225 201.5V202.5ZM225 201.5C183.303 201.5 149.5 235.303 149.5 277H150.5C150.5 235.855 183.855 202.5 225 202.5V201.5ZM150 296.5C191.145 296.5 224.5 329.855 224.5 371H225.5C225.5 329.303 191.697 295.5 150 295.5V296.5ZM150 286.5C191.088 286.5 224.5 324.271 224.5 371H225.5C225.5 323.84 191.754 285.5 150 285.5V286.5ZM150 275.5C191.037 275.5 224.5 318.135 224.5 371H225.5C225.5 317.826 191.805 274.5 150 274.5V275.5ZM151 264.5C171.224 264.5 189.587 276.352 202.915 295.624C216.241 314.894 224.5 341.542 224.5 371H225.5C225.5 341.364 217.193 314.512 203.737 295.055C190.282 275.6 171.645 263.5 151 263.5V264.5ZM154 253.5C173.362 253.5 190.976 266.546 203.776 287.819C216.57 309.083 224.5 338.491 224.5 371H225.5C225.5 338.34 217.536 308.748 204.633 287.304C191.736 265.869 173.85 252.5 154 252.5V253.5ZM158 243.5C176.222 243.5 192.841 257.62 204.933 280.722C217.013 303.801 224.5 335.718 224.5 371H225.5C225.5 335.59 217.988 303.507 205.819 280.258C193.662 257.034 176.781 242.5 158 242.5V243.5ZM225.5 371C225.5 329.855 258.855 296.5 300 296.5V295.5C258.302 295.5 224.5 329.303 224.5 371H225.5ZM225.5 371C225.5 324.271 258.912 286.5 300 286.5V285.5C258.246 285.5 224.5 323.84 224.5 371H225.5ZM225.5 371C225.5 318.135 258.963 275.5 300 275.5V274.5C258.195 274.5 224.5 317.826 224.5 371H225.5ZM225.5 371C225.5 341.542 233.759 314.894 247.085 295.624C260.413 276.352 278.776 264.5 299 264.5V263.5C278.355 263.5 259.718 275.6 246.263 295.055C232.807 314.512 224.5 341.364 224.5 371H225.5ZM225.5 371C225.5 338.491 233.43 309.083 246.224 287.819C259.024 266.546 276.638 253.5 296 253.5V252.5C276.15 252.5 258.264 265.869 245.367 287.304C232.464 308.748 224.5 338.34 224.5 371H225.5ZM225.5 371C225.5 335.718 232.987 303.801 245.067 280.722C257.159 257.62 273.778 243.5 292 243.5V242.5C273.219 242.5 256.338 257.034 244.181 280.258C232.012 303.507 224.5 335.59 224.5 371H225.5ZM225.499 370.967L216.694 237.041L215.696 237.107L224.501 371.033L225.499 370.967ZM219.623 216.726L224.969 202.172L224.031 201.828L218.685 216.381L219.623 216.726ZM216.694 237.041C216.24 230.139 217.238 223.218 219.623 216.726L218.685 216.381C216.251 223.005 215.233 230.065 215.696 237.107L216.694 237.041ZM222.497 325.95L213.418 235.881L212.423 235.982L221.503 326.05L222.497 325.95ZM214.865 218.067L219.149 202.13L218.184 201.87L213.9 217.807L214.865 218.067ZM213.418 235.881C212.815 229.905 213.306 223.868 214.865 218.067L213.9 217.807C212.309 223.725 211.808 229.884 212.423 235.982L213.418 235.881ZM225.499 371.033L234.304 237.107L233.306 237.041L224.501 370.967L225.499 371.033ZM231.315 216.381L225.969 201.828L225.031 202.172L230.377 216.726L231.315 216.381ZM234.304 237.107C234.767 230.065 233.749 223.005 231.315 216.381L230.377 216.726C232.762 223.218 233.76 230.139 233.306 237.041L234.304 237.107ZM228.497 326.05L237.577 235.982L236.582 235.881L227.503 325.95L228.497 326.05ZM236.1 217.807L231.816 201.87L230.851 202.13L235.135 218.067L236.1 217.807ZM237.577 235.982C238.192 229.884 237.691 223.725 236.1 217.807L235.135 218.067C236.694 223.868 237.185 229.905 236.582 235.881L237.577 235.982Z" fill="#404040"/>
<path d="M375 201V201.5H375.5V201H375ZM225 201H224.5V201.5H225V201ZM300 276L299.501 276.033H300.499L300 276ZM291.195 142.074L291.694 142.041L291.195 142.074ZM294.154 121.553L293.685 121.381L294.154 121.553ZM287.921 140.932L288.418 140.881L287.921 140.932ZM289.383 122.937L288.9 122.807L289.383 122.937ZM308.805 142.074L308.306 142.041L308.805 142.074ZM305.846 121.553L306.315 121.381L305.846 121.553ZM312.079 140.932L311.582 140.881L312.079 140.932ZM310.617 122.937L311.1 122.807L310.617 122.937ZM374.5 182V201H375.5V182H374.5ZM225.5 201V182H224.5V201H225.5ZM300 107.5C341.145 107.5 374.5 140.855 374.5 182H375.5C375.5 140.303 341.698 106.5 300 106.5V107.5ZM300 106.5C258.303 106.5 224.5 140.303 224.5 182H225.5C225.5 140.855 258.855 107.5 300 107.5V106.5ZM225 201.5C266.145 201.5 299.5 234.855 299.5 276H300.5C300.5 234.303 266.697 200.5 225 200.5V201.5ZM225 191.5C266.088 191.5 299.5 229.271 299.5 276H300.5C300.5 228.84 266.754 190.5 225 190.5V191.5ZM225 180.5C266.037 180.5 299.5 223.135 299.5 276H300.5C300.5 222.826 266.805 179.5 225 179.5V180.5ZM226 169.5C246.224 169.5 264.587 181.352 277.915 200.624C291.241 219.894 299.5 246.542 299.5 276H300.5C300.5 246.364 292.193 219.512 278.737 200.055C265.282 180.6 246.645 168.5 226 168.5V169.5ZM229 158.5C248.362 158.5 265.976 171.546 278.776 192.819C291.57 214.083 299.5 243.491 299.5 276H300.5C300.5 243.34 292.536 213.748 279.633 192.304C266.736 170.869 248.85 157.5 229 157.5V158.5ZM233 148.5C251.222 148.5 267.841 162.62 279.933 185.722C292.013 208.801 299.5 240.718 299.5 276H300.5C300.5 240.59 292.988 208.507 280.819 185.258C268.662 162.034 251.781 147.5 233 147.5V148.5ZM300.5 276C300.5 234.855 333.855 201.5 375 201.5V200.5C333.302 200.5 299.5 234.303 299.5 276H300.5ZM300.5 276C300.5 229.271 333.912 191.5 375 191.5V190.5C333.246 190.5 299.5 228.84 299.5 276H300.5ZM300.5 276C300.5 223.135 333.963 180.5 375 180.5V179.5C333.195 179.5 299.5 222.826 299.5 276H300.5ZM300.5 276C300.5 246.542 308.759 219.894 322.085 200.624C335.413 181.352 353.776 169.5 374 169.5V168.5C353.355 168.5 334.718 180.6 321.263 200.055C307.807 219.512 299.5 246.364 299.5 276H300.5ZM300.5 276C300.5 243.491 308.43 214.083 321.224 192.819C334.024 171.546 351.638 158.5 371 158.5V157.5C351.15 157.5 333.264 170.869 320.367 192.304C307.464 213.748 299.5 243.34 299.5 276H300.5ZM300.5 276C300.5 240.718 307.987 208.801 320.067 185.722C332.159 162.62 348.778 148.5 367 148.5V147.5C348.219 147.5 331.338 162.034 319.181 185.258C307.012 208.507 299.5 240.59 299.5 276H300.5ZM300.499 275.967L291.694 142.041L290.696 142.107L299.501 276.033L300.499 275.967ZM294.623 121.726L299.969 107.172L299.031 106.828L293.685 121.381L294.623 121.726ZM291.694 142.041C291.24 135.139 292.238 128.218 294.623 121.726L293.685 121.381C291.251 128.005 290.233 135.065 290.696 142.107L291.694 142.041ZM297.497 230.95L288.418 140.881L287.423 140.982L296.503 231.05L297.497 230.95ZM289.865 123.067L294.149 107.13L293.184 106.87L288.9 122.807L289.865 123.067ZM288.418 140.881C287.815 134.905 288.306 128.868 289.865 123.067L288.9 122.807C287.309 128.725 286.808 134.884 287.423 140.982L288.418 140.881ZM300.499 276.033L309.304 142.107L308.306 142.041L299.501 275.967L300.499 276.033ZM306.315 121.381L300.969 106.828L300.031 107.172L305.377 121.726L306.315 121.381ZM309.304 142.107C309.767 135.065 308.749 128.005 306.315 121.381L305.377 121.726C307.762 128.218 308.76 135.139 308.306 142.041L309.304 142.107ZM303.497 231.05L312.577 140.982L311.582 140.881L302.503 230.95L303.497 231.05ZM311.1 122.807L306.816 106.87L305.851 107.13L310.135 123.067L311.1 122.807ZM312.577 140.982C313.192 134.884 312.691 128.725 311.1 122.807L310.135 123.067C311.694 128.868 312.185 134.905 311.582 140.881L312.577 140.982Z" fill="#404040"/>
<path d="M375 391V391.5H375.5V391H375ZM225 391H224.5V391.5H225V391ZM300 466L299.501 466.033H300.499L300 466ZM291.195 332.074L291.694 332.041L291.195 332.074ZM294.154 311.553L293.685 311.381L294.154 311.553ZM287.921 330.932L288.418 330.881L287.921 330.932ZM289.383 312.937L288.9 312.807L289.383 312.937ZM308.805 332.074L308.306 332.041L308.805 332.074ZM305.846 311.553L306.315 311.381L305.846 311.553ZM312.079 330.932L311.582 330.881L312.079 330.932ZM310.617 312.937L311.1 312.807L310.617 312.937ZM374.5 372V391H375.5V372H374.5ZM225.5 391V372H224.5V391H225.5ZM300 297.5C341.145 297.5 374.5 330.855 374.5 372H375.5C375.5 330.303 341.698 296.5 300 296.5V297.5ZM300 296.5C258.303 296.5 224.5 330.303 224.5 372H225.5C225.5 330.855 258.855 297.5 300 297.5V296.5ZM225 391.5C266.145 391.5 299.5 424.855 299.5 466H300.5C300.5 424.303 266.697 390.5 225 390.5V391.5ZM225 381.5C266.088 381.5 299.5 419.271 299.5 466H300.5C300.5 418.84 266.754 380.5 225 380.5V381.5ZM225 370.5C266.037 370.5 299.5 413.135 299.5 466H300.5C300.5 412.826 266.805 369.5 225 369.5V370.5ZM226 359.5C246.224 359.5 264.587 371.352 277.915 390.624C291.241 409.894 299.5 436.542 299.5 466H300.5C300.5 436.364 292.193 409.512 278.737 390.055C265.282 370.6 246.645 358.5 226 358.5V359.5ZM229 348.5C248.362 348.5 265.976 361.546 278.776 382.819C291.57 404.083 299.5 433.491 299.5 466H300.5C300.5 433.34 292.536 403.748 279.633 382.304C266.736 360.869 248.85 347.5 229 347.5V348.5ZM233 338.5C251.222 338.5 267.841 352.62 279.933 375.722C292.013 398.801 299.5 430.718 299.5 466H300.5C300.5 430.59 292.988 398.507 280.819 375.258C268.662 352.034 251.781 337.5 233 337.5V338.5ZM300.5 466C300.5 424.855 333.855 391.5 375 391.5V390.5C333.302 390.5 299.5 424.303 299.5 466H300.5ZM300.5 466C300.5 419.271 333.912 381.5 375 381.5V380.5C333.246 380.5 299.5 418.84 299.5 466H300.5ZM300.5 466C300.5 413.135 333.963 370.5 375 370.5V369.5C333.195 369.5 299.5 412.826 299.5 466H300.5ZM300.5 466C300.5 436.542 308.759 409.894 322.085 390.624C335.413 371.352 353.776 359.5 374 359.5V358.5C353.355 358.5 334.718 370.6 321.263 390.055C307.807 409.512 299.5 436.364 299.5 466H300.5ZM300.5 466C300.5 433.491 308.43 404.083 321.224 382.819C334.024 361.546 351.638 348.5 371 348.5V347.5C351.15 347.5 333.264 360.869 320.367 382.304C307.464 403.748 299.5 433.34 299.5 466H300.5ZM300.5 466C300.5 430.718 307.987 398.801 320.067 375.722C332.159 352.62 348.778 338.5 367 338.5V337.5C348.219 337.5 331.338 352.034 319.181 375.258C307.012 398.507 299.5 430.59 299.5 466H300.5ZM300.499 465.967L291.694 332.041L290.696 332.107L299.501 466.033L300.499 465.967ZM294.623 311.726L299.969 297.172L299.031 296.828L293.685 311.381L294.623 311.726ZM291.694 332.041C291.24 325.139 292.238 318.218 294.623 311.726L293.685 311.381C291.251 318.005 290.233 325.065 290.696 332.107L291.694 332.041ZM297.497 420.95L288.418 330.881L287.423 330.982L296.503 421.05L297.497 420.95ZM289.865 313.067L294.149 297.13L293.184 296.87L288.9 312.807L289.865 313.067ZM288.418 330.881C287.815 324.905 288.306 318.868 289.865 313.067L288.9 312.807C287.309 318.725 286.808 324.884 287.423 330.982L288.418 330.881ZM300.499 466.033L309.304 332.107L308.306 332.041L299.501 465.967L300.499 466.033ZM306.315 311.381L300.969 296.828L300.031 297.172L305.377 311.726L306.315 311.381ZM309.304 332.107C309.767 325.065 308.749 318.005 306.315 311.381L305.377 311.726C307.762 318.218 308.76 325.139 308.306 332.041L309.304 332.107ZM303.497 421.05L312.577 330.982L311.582 330.881L302.503 420.95L303.497 421.05ZM311.1 312.807L306.816 296.87L305.851 297.13L310.135 313.067L311.1 312.807ZM312.577 330.982C313.192 324.884 312.691 318.725 311.1 312.807L310.135 313.067C311.694 318.868 312.185 324.905 311.582 330.881L312.577 330.982Z" fill="#404040"/>
<path d="M225 201V201.5H225.5V201H225ZM75 201H74.5V201.5H75V201ZM150 276L149.501 276.033H150.499L150 276ZM141.195 142.074L141.694 142.041L141.195 142.074ZM144.154 121.553L143.685 121.381L144.154 121.553ZM137.921 140.932L138.418 140.881L137.921 140.932ZM139.383 122.937L138.9 122.807L139.383 122.937ZM158.805 142.074L158.306 142.041L158.805 142.074ZM155.846 121.553L156.315 121.381L155.846 121.553ZM162.079 140.932L161.582 140.881L162.079 140.932ZM160.617 122.937L161.1 122.807L160.617 122.937ZM224.5 182V201H225.5V182H224.5ZM75.5 201V182H74.5V201H75.5ZM150 107.5C191.145 107.5 224.5 140.855 224.5 182H225.5C225.5 140.303 191.698 106.5 150 106.5V107.5ZM150 106.5C108.303 106.5 74.5 140.303 74.5 182H75.5C75.5 140.855 108.855 107.5 150 107.5V106.5ZM75 201.5C116.145 201.5 149.5 234.855 149.5 276H150.5C150.5 234.303 116.697 200.5 75 200.5V201.5ZM75 191.5C116.088 191.5 149.5 229.271 149.5 276H150.5C150.5 228.84 116.754 190.5 75 190.5V191.5ZM75 180.5C116.037 180.5 149.5 223.135 149.5 276H150.5C150.5 222.826 116.805 179.5 75 179.5V180.5ZM76 169.5C96.2238 169.5 114.587 181.352 127.915 200.624C141.241 219.894 149.5 246.542 149.5 276H150.5C150.5 246.364 142.193 219.512 128.737 200.055C115.282 180.6 96.6452 168.5 76 168.5V169.5ZM79 158.5C98.3622 158.5 115.976 171.546 128.776 192.819C141.57 214.083 149.5 243.491 149.5 276H150.5C150.5 243.34 142.536 213.748 129.633 192.304C116.736 170.869 98.85 157.5 79 157.5V158.5ZM83 148.5C101.222 148.5 117.841 162.62 129.933 185.722C142.013 208.801 149.5 240.718 149.5 276H150.5C150.5 240.59 142.988 208.507 130.819 185.258C118.662 162.034 101.781 147.5 83 147.5V148.5ZM150.5 276C150.5 234.855 183.855 201.5 225 201.5V200.5C183.302 200.5 149.5 234.303 149.5 276H150.5ZM150.5 276C150.5 229.271 183.912 191.5 225 191.5V190.5C183.246 190.5 149.5 228.84 149.5 276H150.5ZM150.5 276C150.5 223.135 183.963 180.5 225 180.5V179.5C183.195 179.5 149.5 222.826 149.5 276H150.5ZM150.5 276C150.5 246.542 158.759 219.894 172.085 200.624C185.413 181.352 203.776 169.5 224 169.5V168.5C203.355 168.5 184.718 180.6 171.263 200.055C157.807 219.512 149.5 246.364 149.5 276H150.5ZM150.5 276C150.5 243.491 158.43 214.083 171.224 192.819C184.024 171.546 201.638 158.5 221 158.5V157.5C201.15 157.5 183.264 170.869 170.367 192.304C157.464 213.748 149.5 243.34 149.5 276H150.5ZM150.5 276C150.5 240.718 157.987 208.801 170.067 185.722C182.159 162.62 198.778 148.5 217 148.5V147.5C198.219 147.5 181.338 162.034 169.181 185.258C157.012 208.507 149.5 240.59 149.5 276H150.5ZM150.499 275.967L141.694 142.041L140.696 142.107L149.501 276.033L150.499 275.967ZM144.623 121.726L149.969 107.172L149.031 106.828L143.685 121.381L144.623 121.726ZM141.694 142.041C141.24 135.139 142.238 128.218 144.623 121.726L143.685 121.381C141.251 128.005 140.233 135.065 140.696 142.107L141.694 142.041ZM147.497 230.95L138.418 140.881L137.423 140.982L146.503 231.05L147.497 230.95ZM139.865 123.067L144.149 107.13L143.184 106.87L138.9 122.807L139.865 123.067ZM138.418 140.881C137.815 134.905 138.306 128.868 139.865 123.067L138.9 122.807C137.309 128.725 136.808 134.884 137.423 140.982L138.418 140.881ZM150.499 276.033L159.304 142.107L158.306 142.041L149.501 275.967L150.499 276.033ZM156.315 121.381L150.969 106.828L150.031 107.172L155.377 121.726L156.315 121.381ZM159.304 142.107C159.767 135.065 158.749 128.005 156.315 121.381L155.377 121.726C157.762 128.218 158.76 135.139 158.306 142.041L159.304 142.107ZM153.497 231.05L162.577 140.982L161.582 140.881L152.503 230.95L153.497 231.05ZM161.1 122.807L156.816 106.87L155.851 107.13L160.135 123.067L161.1 122.807ZM162.577 140.982C163.192 134.884 162.691 128.725 161.1 122.807L160.135 123.067C161.694 128.868 162.185 134.905 161.582 140.881L162.577 140.982Z" fill="#404040"/>
<path d="M225 391V391.5H225.5V391H225ZM75 391H74.5V391.5H75V391ZM150 466L149.501 466.033H150.499L150 466ZM141.195 332.074L141.694 332.041L141.195 332.074ZM144.154 311.553L143.685 311.381L144.154 311.553ZM137.921 330.932L138.418 330.881L137.921 330.932ZM139.383 312.937L138.9 312.807L139.383 312.937ZM158.805 332.074L158.306 332.041L158.805 332.074ZM155.846 311.553L156.315 311.381L155.846 311.553ZM162.079 330.932L161.582 330.881L162.079 330.932ZM160.617 312.937L161.1 312.807L160.617 312.937ZM224.5 372V391H225.5V372H224.5ZM75.5 391V372H74.5V391H75.5ZM150 297.5C191.145 297.5 224.5 330.855 224.5 372H225.5C225.5 330.303 191.698 296.5 150 296.5V297.5ZM150 296.5C108.303 296.5 74.5 330.303 74.5 372H75.5C75.5 330.855 108.855 297.5 150 297.5V296.5ZM75 391.5C116.145 391.5 149.5 424.855 149.5 466H150.5C150.5 424.303 116.697 390.5 75 390.5V391.5ZM75 381.5C116.088 381.5 149.5 419.271 149.5 466H150.5C150.5 418.84 116.754 380.5 75 380.5V381.5ZM75 370.5C116.037 370.5 149.5 413.135 149.5 466H150.5C150.5 412.826 116.805 369.5 75 369.5V370.5ZM76 359.5C96.2238 359.5 114.587 371.352 127.915 390.624C141.241 409.894 149.5 436.542 149.5 466H150.5C150.5 436.364 142.193 409.512 128.737 390.055C115.282 370.6 96.6452 358.5 76 358.5V359.5ZM79 348.5C98.3622 348.5 115.976 361.546 128.776 382.819C141.57 404.083 149.5 433.491 149.5 466H150.5C150.5 433.34 142.536 403.748 129.633 382.304C116.736 360.869 98.85 347.5 79 347.5V348.5ZM83 338.5C101.222 338.5 117.841 352.62 129.933 375.722C142.013 398.801 149.5 430.718 149.5 466H150.5C150.5 430.59 142.988 398.507 130.819 375.258C118.662 352.034 101.781 337.5 83 337.5V338.5ZM150.5 466C150.5 424.855 183.855 391.5 225 391.5V390.5C183.302 390.5 149.5 424.303 149.5 466H150.5ZM150.5 466C150.5 419.271 183.912 381.5 225 381.5V380.5C183.246 380.5 149.5 418.84 149.5 466H150.5ZM150.5 466C150.5 413.135 183.963 370.5 225 370.5V369.5C183.195 369.5 149.5 412.826 149.5 466H150.5ZM150.5 466C150.5 436.542 158.759 409.894 172.085 390.624C185.413 371.352 203.776 359.5 224 359.5V358.5C203.355 358.5 184.718 370.6 171.263 390.055C157.807 409.512 149.5 436.364 149.5 466H150.5ZM150.5 466C150.5 433.491 158.43 404.083 171.224 382.819C184.024 361.546 201.638 348.5 221 348.5V347.5C201.15 347.5 183.264 360.869 170.367 382.304C157.464 403.748 149.5 433.34 149.5 466H150.5ZM150.5 466C150.5 430.718 157.987 398.801 170.067 375.722C182.159 352.62 198.778 338.5 217 338.5V337.5C198.219 337.5 181.338 352.034 169.181 375.258C157.012 398.507 149.5 430.59 149.5 466H150.5ZM150.499 465.967L141.694 332.041L140.696 332.107L149.501 466.033L150.499 465.967ZM144.623 311.726L149.969 297.172L149.031 296.828L143.685 311.381L144.623 311.726ZM141.694 332.041C141.24 325.139 142.238 318.218 144.623 311.726L143.685 311.381C141.251 318.005 140.233 325.065 140.696 332.107L141.694 332.041ZM147.497 420.95L138.418 330.881L137.423 330.982L146.503 421.05L147.497 420.95ZM139.865 313.067L144.149 297.13L143.184 296.87L138.9 312.807L139.865 313.067ZM138.418 330.881C137.815 324.905 138.306 318.868 139.865 313.067L138.9 312.807C137.309 318.725 136.808 324.884 137.423 330.982L138.418 330.881ZM150.499 466.033L159.304 332.107L158.306 332.041L149.501 465.967L150.499 466.033ZM156.315 311.381L150.969 296.828L150.031 297.172L155.377 311.726L156.315 311.381ZM159.304 332.107C159.767 325.065 158.749 318.005 156.315 311.381L155.377 311.726C157.762 318.218 158.76 325.139 158.306 332.041L159.304 332.107ZM153.497 421.05L162.577 330.982L161.582 330.881L152.503 420.95L153.497 421.05ZM161.1 312.807L156.816 296.87L155.851 297.13L160.135 313.067L161.1 312.807ZM162.577 330.982C163.192 324.884 162.691 318.725 161.1 312.807L160.135 313.067C161.694 318.868 162.185 324.905 161.582 330.881L162.577 330.982Z" fill="#404040"/>
</g>
<g clip-path="url(#clip2_364_1336)">
<path d="M150 106V106.5H150.5V106H150ZM0 106H-0.5V106.5H0V106ZM75 181L74.5011 181.033H75.4989L75 181ZM66.1952 47.0739L66.6941 47.0411L66.1952 47.0739ZM69.1539 26.5531L68.6846 26.3807L69.1539 26.5531ZM62.9205 45.9316L63.418 45.8814L62.9205 45.9316ZM64.3826 27.9368L63.8997 27.807L64.3826 27.9368ZM83.8048 47.0739L83.3059 47.0411L83.8048 47.0739ZM80.8461 26.5531L81.3154 26.3807L80.8461 26.5531ZM87.0795 45.9316L86.582 45.8814L87.0795 45.9316ZM85.6174 27.9368L86.1003 27.807L85.6174 27.9368ZM149.5 87V106H150.5V87H149.5ZM0.5 106V87H-0.5V106H0.5ZM75 12.5C116.145 12.5 149.5 45.8548 149.5 87H150.5C150.5 45.3025 116.698 11.5 75 11.5V12.5ZM75 11.5C33.3025 11.5 -0.5 45.3025 -0.5 87H0.5C0.5 45.8548 33.8548 12.5 75 12.5V11.5ZM0 106.5C41.1452 106.5 74.5 139.855 74.5 181H75.5C75.5 139.303 41.6975 105.5 0 105.5V106.5ZM0 96.5C41.0882 96.5 74.5 134.271 74.5 181H75.5C75.5 133.84 41.7545 95.5 0 95.5V96.5ZM0 85.5C41.0373 85.5 74.5 128.135 74.5 181H75.5C75.5 127.826 41.8054 84.5 0 84.5V85.5ZM1 74.5C21.2238 74.5 39.5866 86.3524 52.9147 105.624C66.2413 124.894 74.5 151.542 74.5 181H75.5C75.5 151.364 67.1932 124.512 53.7371 105.055C40.2824 85.6004 21.6452 73.5 1 73.5V74.5ZM4 63.5C23.3622 63.5 40.9761 76.5458 53.7762 97.8192C66.5704 119.083 74.5 148.491 74.5 181H75.5C75.5 148.34 67.5357 118.748 54.633 97.3036C41.7361 75.8694 23.85 62.5 4 62.5V63.5ZM8 53.5C26.2221 53.5 42.8406 67.62 54.9332 90.7222C67.0133 113.801 74.5 145.718 74.5 181H75.5C75.5 145.59 67.9883 113.507 55.8191 90.2585C43.6625 67.0338 26.781 52.5 8 52.5V53.5ZM75.5 181C75.5 139.855 108.855 106.5 150 106.5V105.5C108.302 105.5 74.5 139.303 74.5 181H75.5ZM75.5 181C75.5 134.271 108.912 96.5 150 96.5V95.5C108.246 95.5 74.5 133.84 74.5 181H75.5ZM75.5 181C75.5 128.135 108.963 85.5 150 85.5V84.5C108.195 84.5 74.5 127.826 74.5 181H75.5ZM75.5 181C75.5 151.542 83.7587 124.894 97.0853 105.624C110.413 86.3524 128.776 74.5 149 74.5V73.5C128.355 73.5 109.718 85.6004 96.2629 105.055C82.8068 124.512 74.5 151.364 74.5 181H75.5ZM75.5 181C75.5 148.491 83.4296 119.083 96.2238 97.8192C109.024 76.5458 126.638 63.5 146 63.5V62.5C126.15 62.5 108.264 75.8694 95.367 97.3036C82.4643 118.748 74.5 148.34 74.5 181H75.5ZM75.5 181C75.5 145.718 82.9867 113.801 95.0668 90.7222C107.159 67.62 123.778 53.5 142 53.5V52.5C123.219 52.5 106.338 67.0338 94.1809 90.2585C82.0117 113.507 74.5 145.59 74.5 181H75.5ZM75.4989 180.967L66.6941 47.0411L65.6962 47.1067L74.5011 181.033L75.4989 180.967ZM69.6232 26.7255L74.9692 12.1724L74.0306 11.8276L68.6846 26.3807L69.6232 26.7255ZM66.6941 47.0411C66.2403 40.139 67.2381 33.2184 69.6232 26.7255L68.6846 26.3807C66.2513 33.0047 65.2333 40.0652 65.6962 47.1067L66.6941 47.0411ZM72.4975 135.95L63.418 45.8814L62.423 45.9817L71.5025 136.05L72.4975 135.95ZM64.8654 28.0666L69.1495 12.1298L68.1837 11.8702L63.8997 27.807L64.8654 28.0666ZM63.418 45.8814C62.8155 39.9045 63.306 33.8678 64.8654 28.0666L63.8997 27.807C62.3087 33.7254 61.8084 39.8841 62.423 45.9817L63.418 45.8814ZM75.4989 181.033L84.3038 47.1067L83.3059 47.0411L74.5011 180.967L75.4989 181.033ZM81.3154 26.3807L75.9694 11.8276L75.0308 12.1724L80.3768 26.7255L81.3154 26.3807ZM84.3038 47.1067C84.7667 40.0652 83.7487 33.0047 81.3154 26.3807L80.3768 26.7255C82.7619 33.2184 83.7597 40.139 83.3059 47.0411L84.3038 47.1067ZM78.4975 136.05L87.577 45.9817L86.582 45.8814L77.5025 135.95L78.4975 136.05ZM86.1003 27.807L81.8163 11.8702L80.8505 12.1298L85.1346 28.0666L86.1003 27.807ZM87.577 45.9817C88.1917 39.8841 87.6913 33.7254 86.1003 27.807L85.1346 28.0666C86.694 33.8678 87.1845 39.9045 86.582 45.8814L87.577 45.9817Z" fill="#404040"/>
<path d="M225 11V11.5H225.5V11H225ZM75 11H74.5V11.5H75V11ZM150 86L149.501 86.0328H150.499L150 86ZM141.195 -47.9261L141.694 -47.9589L141.195 -47.9261ZM144.154 -68.4469L143.685 -68.6193L144.154 -68.4469ZM137.921 -49.0684L138.418 -49.1186L137.921 -49.0684ZM139.383 -67.0632L138.9 -67.193L139.383 -67.0632ZM158.805 -47.9261L158.306 -47.9589L158.805 -47.9261ZM155.846 -68.4469L156.315 -68.6193L155.846 -68.4469ZM162.079 -49.0684L161.582 -49.1186L162.079 -49.0684ZM160.617 -67.0632L161.1 -67.193L160.617 -67.0632ZM224.5 -7.99999V11H225.5V-7.99999H224.5ZM75.5 11V-7.99999H74.5V11H75.5ZM150 -82.5C191.145 -82.5 224.5 -49.1452 224.5 -7.99999H225.5C225.5 -49.6975 191.698 -83.5 150 -83.5V-82.5ZM150 -83.5C108.303 -83.5 74.5 -49.6975 74.5 -7.99999H75.5C75.5 -49.1452 108.855 -82.5 150 -82.5V-83.5ZM75 11.5C116.145 11.5 149.5 44.8548 149.5 86H150.5C150.5 44.3025 116.697 10.5 75 10.5V11.5ZM75 1.50001C116.088 1.50001 149.5 39.2713 149.5 86H150.5C150.5 38.8403 116.754 0.500008 75 0.500008V1.50001ZM75 -9.49999C116.037 -9.49999 149.5 33.1349 149.5 86H150.5C150.5 32.8265 116.805 -10.5 75 -10.5V-9.49999ZM76 -20.5C96.2238 -20.5 114.587 -8.64761 127.915 10.624C141.241 29.8936 149.5 56.5415 149.5 86H150.5C150.5 56.3641 142.193 29.512 128.737 10.0552C115.282 -9.39961 96.6452 -21.5 76 -21.5V-20.5ZM79 -31.5C98.3622 -31.5 115.976 -18.4542 128.776 2.81919C141.57 24.0828 149.5 53.4905 149.5 86H150.5C150.5 53.3399 142.536 23.7476 129.633 2.30363C116.736 -19.1306 98.85 -32.5 79 -32.5V-31.5ZM83 -41.5C101.222 -41.5 117.841 -27.38 129.933 -4.27778C142.013 18.8007 149.5 50.7178 149.5 86H150.5C150.5 50.5897 142.988 18.5069 130.819 -4.74153C118.662 -27.9662 101.781 -42.5 83 -42.5V-41.5ZM150.5 86C150.5 44.8548 183.855 11.5 225 11.5V10.5C183.302 10.5 149.5 44.3025 149.5 86H150.5ZM150.5 86C150.5 39.2713 183.912 1.50001 225 1.50001V0.500008C183.246 0.500008 149.5 38.8403 149.5 86H150.5ZM150.5 86C150.5 33.1349 183.963 -9.49999 225 -9.49999V-10.5C183.195 -10.5 149.5 32.8265 149.5 86H150.5ZM150.5 86C150.5 56.5415 158.759 29.8936 172.085 10.624C185.413 -8.64761 203.776 -20.5 224 -20.5V-21.5C203.355 -21.5 184.718 -9.39961 171.263 10.0552C157.807 29.512 149.5 56.3641 149.5 86H150.5ZM150.5 86C150.5 53.4905 158.43 24.0828 171.224 2.81919C184.024 -18.4542 201.638 -31.5 221 -31.5V-32.5C201.15 -32.5 183.264 -19.1306 170.367 2.30363C157.464 23.7476 149.5 53.3399 149.5 86H150.5ZM150.5 86C150.5 50.7178 157.987 18.8007 170.067 -4.27778C182.159 -27.38 198.778 -41.5 217 -41.5V-42.5C198.219 -42.5 181.338 -27.9662 169.181 -4.74153C157.012 18.5069 149.5 50.5897 149.5 86H150.5ZM150.499 85.9672L141.694 -47.9589L140.696 -47.8933L149.501 86.0328L150.499 85.9672ZM144.623 -68.2745L149.969 -82.8276L149.031 -83.1724L143.685 -68.6193L144.623 -68.2745ZM141.694 -47.9589C141.24 -54.861 142.238 -61.7816 144.623 -68.2745L143.685 -68.6193C141.251 -61.9953 140.233 -54.9348 140.696 -47.8933L141.694 -47.9589ZM147.497 40.9499L138.418 -49.1186L137.423 -49.0183L146.503 41.0502L147.497 40.9499ZM139.865 -66.9334L144.149 -82.8702L143.184 -83.1298L138.9 -67.193L139.865 -66.9334ZM138.418 -49.1186C137.815 -55.0955 138.306 -61.1322 139.865 -66.9334L138.9 -67.193C137.309 -61.2746 136.808 -55.1159 137.423 -49.0183L138.418 -49.1186ZM150.499 86.0328L159.304 -47.8933L158.306 -47.9589L149.501 85.9672L150.499 86.0328ZM156.315 -68.6193L150.969 -83.1724L150.031 -82.8276L155.377 -68.2745L156.315 -68.6193ZM159.304 -47.8933C159.767 -54.9348 158.749 -61.9953 156.315 -68.6193L155.377 -68.2745C157.762 -61.7816 158.76 -54.861 158.306 -47.9589L159.304 -47.8933ZM153.497 41.0502L162.577 -49.0183L161.582 -49.1186L152.503 40.9499L153.497 41.0502ZM161.1 -67.193L156.816 -83.1298L155.851 -82.8702L160.135 -66.9334L161.1 -67.193ZM162.577 -49.0183C163.192 -55.1159 162.691 -61.2746 161.1 -67.193L160.135 -66.9334C161.694 -61.1322 162.185 -55.0955 161.582 -49.1186L162.577 -49.0183Z" fill="#404040"/>
<path d="M225 201V201.5H225.5V201H225ZM75 201H74.5V201.5H75V201ZM150 276L149.501 276.033H150.499L150 276ZM141.195 142.074L141.694 142.041L141.195 142.074ZM144.154 121.553L143.685 121.381L144.154 121.553ZM137.921 140.932L138.418 140.881L137.921 140.932ZM139.383 122.937L138.9 122.807L139.383 122.937ZM158.805 142.074L158.306 142.041L158.805 142.074ZM155.846 121.553L156.315 121.381L155.846 121.553ZM162.079 140.932L161.582 140.881L162.079 140.932ZM160.617 122.937L161.1 122.807L160.617 122.937ZM224.5 182V201H225.5V182H224.5ZM75.5 201V182H74.5V201H75.5ZM150 107.5C191.145 107.5 224.5 140.855 224.5 182H225.5C225.5 140.303 191.698 106.5 150 106.5V107.5ZM150 106.5C108.303 106.5 74.5 140.303 74.5 182H75.5C75.5 140.855 108.855 107.5 150 107.5V106.5ZM75 201.5C116.145 201.5 149.5 234.855 149.5 276H150.5C150.5 234.303 116.697 200.5 75 200.5V201.5ZM75 191.5C116.088 191.5 149.5 229.271 149.5 276H150.5C150.5 228.84 116.754 190.5 75 190.5V191.5ZM75 180.5C116.037 180.5 149.5 223.135 149.5 276H150.5C150.5 222.826 116.805 179.5 75 179.5V180.5ZM76 169.5C96.2238 169.5 114.587 181.352 127.915 200.624C141.241 219.894 149.5 246.542 149.5 276H150.5C150.5 246.364 142.193 219.512 128.737 200.055C115.282 180.6 96.6452 168.5 76 168.5V169.5ZM79 158.5C98.3622 158.5 115.976 171.546 128.776 192.819C141.57 214.083 149.5 243.491 149.5 276H150.5C150.5 243.34 142.536 213.748 129.633 192.304C116.736 170.869 98.85 157.5 79 157.5V158.5ZM83 148.5C101.222 148.5 117.841 162.62 129.933 185.722C142.013 208.801 149.5 240.718 149.5 276H150.5C150.5 240.59 142.988 208.507 130.819 185.258C118.662 162.034 101.781 147.5 83 147.5V148.5ZM150.5 276C150.5 234.855 183.855 201.5 225 201.5V200.5C183.302 200.5 149.5 234.303 149.5 276H150.5ZM150.5 276C150.5 229.271 183.912 191.5 225 191.5V190.5C183.246 190.5 149.5 228.84 149.5 276H150.5ZM150.5 276C150.5 223.135 183.963 180.5 225 180.5V179.5C183.195 179.5 149.5 222.826 149.5 276H150.5ZM150.5 276C150.5 246.542 158.759 219.894 172.085 200.624C185.413 181.352 203.776 169.5 224 169.5V168.5C203.355 168.5 184.718 180.6 171.263 200.055C157.807 219.512 149.5 246.364 149.5 276H150.5ZM150.5 276C150.5 243.491 158.43 214.083 171.224 192.819C184.024 171.546 201.638 158.5 221 158.5V157.5C201.15 157.5 183.264 170.869 170.367 192.304C157.464 213.748 149.5 243.34 149.5 276H150.5ZM150.5 276C150.5 240.718 157.987 208.801 170.067 185.722C182.159 162.62 198.778 148.5 217 148.5V147.5C198.219 147.5 181.338 162.034 169.181 185.258C157.012 208.507 149.5 240.59 149.5 276H150.5ZM150.499 275.967L141.694 142.041L140.696 142.107L149.501 276.033L150.499 275.967ZM144.623 121.726L149.969 107.172L149.031 106.828L143.685 121.381L144.623 121.726ZM141.694 142.041C141.24 135.139 142.238 128.218 144.623 121.726L143.685 121.381C141.251 128.005 140.233 135.065 140.696 142.107L141.694 142.041ZM147.497 230.95L138.418 140.881L137.423 140.982L146.503 231.05L147.497 230.95ZM139.865 123.067L144.149 107.13L143.184 106.87L138.9 122.807L139.865 123.067ZM138.418 140.881C137.815 134.905 138.306 128.868 139.865 123.067L138.9 122.807C137.309 128.725 136.808 134.884 137.423 140.982L138.418 140.881ZM150.499 276.033L159.304 142.107L158.306 142.041L149.501 275.967L150.499 276.033ZM156.315 121.381L150.969 106.828L150.031 107.172L155.377 121.726L156.315 121.381ZM159.304 142.107C159.767 135.065 158.749 128.005 156.315 121.381L155.377 121.726C157.762 128.218 158.76 135.139 158.306 142.041L159.304 142.107ZM153.497 231.05L162.577 140.982L161.582 140.881L152.503 230.95L153.497 231.05ZM161.1 122.807L156.816 106.87L155.851 107.13L160.135 123.067L161.1 122.807ZM162.577 140.982C163.192 134.884 162.691 128.725 161.1 122.807L160.135 123.067C161.694 128.868 162.185 134.905 161.582 140.881L162.577 140.982Z" fill="#404040"/>
<path d="M75 11V11.5H75.5V11H75ZM-75 11H-75.5V11.5H-75V11ZM0 86L-0.498924 86.0328H0.498924L0 86ZM-8.80483 -47.9261L-8.30591 -47.9589L-8.80483 -47.9261ZM-5.84609 -68.4469L-6.31543 -68.6193L-5.84609 -68.4469ZM-12.0795 -49.0684L-11.582 -49.1186L-12.0795 -49.0684ZM-10.6174 -67.0632L-11.1003 -67.193L-10.6174 -67.0632ZM8.80483 -47.9261L8.30591 -47.9589L8.80483 -47.9261ZM5.84609 -68.4469L6.31543 -68.6193L5.84609 -68.4469ZM12.0795 -49.0684L11.582 -49.1186L12.0795 -49.0684ZM10.6174 -67.0632L11.1003 -67.193L10.6174 -67.0632ZM74.5 -7.99999V11H75.5V-7.99999H74.5ZM-74.5 11V-7.99999H-75.5V11H-74.5ZM0 -82.5C41.1452 -82.5 74.5 -49.1452 74.5 -7.99999H75.5C75.5 -49.6975 41.6975 -83.5 0 -83.5V-82.5ZM0 -83.5C-41.6975 -83.5 -75.5 -49.6975 -75.5 -7.99999H-74.5C-74.5 -49.1452 -41.1452 -82.5 0 -82.5V-83.5ZM-75 11.5C-33.8548 11.5 -0.5 44.8548 -0.5 86H0.5C0.5 44.3025 -33.3025 10.5 -75 10.5V11.5ZM-75 1.50001C-33.9118 1.50001 -0.5 39.2713 -0.5 86H0.5C0.5 38.8403 -33.2455 0.500008 -75 0.500008V1.50001ZM-75 -9.49999C-33.9627 -9.49999 -0.5 33.1349 -0.5 86H0.5C0.5 32.8265 -33.1946 -10.5 -75 -10.5V-9.49999ZM-74 -20.5C-53.7762 -20.5 -35.4134 -8.64761 -22.0853 10.624C-8.7587 29.8936 -0.5 56.5415 -0.5 86H0.5C0.5 56.3641 -7.80677 29.512 -21.2629 10.0552C-34.7176 -9.39961 -53.3548 -21.5 -74 -21.5V-20.5ZM-71 -31.5C-51.6378 -31.5 -34.0239 -18.4542 -21.2238 2.81919C-8.42962 24.0828 -0.5 53.4905 -0.5 86H0.5C0.5 53.3399 -7.46428 23.7476 -20.367 2.30363C-33.2639 -19.1306 -51.15 -32.5 -71 -32.5V-31.5ZM-67 -41.5C-48.7779 -41.5 -32.1594 -27.38 -20.0668 -4.27778C-7.98671 18.8007 -0.5 50.7178 -0.5 86H0.5C0.5 50.5897 -7.01175 18.5069 -19.1809 -4.74153C-31.3375 -27.9662 -48.219 -42.5 -67 -42.5V-41.5ZM0.5 86C0.5 44.8548 33.8548 11.5 75 11.5V10.5C33.3025 10.5 -0.5 44.3025 -0.5 86H0.5ZM0.5 86C0.5 39.2713 33.9118 1.50001 75 1.50001V0.500008C33.2455 0.500008 -0.5 38.8403 -0.5 86H0.5ZM0.5 86C0.5 33.1349 33.9627 -9.49999 75 -9.49999V-10.5C33.1946 -10.5 -0.5 32.8265 -0.5 86H0.5ZM0.5 86C0.5 56.5415 8.7587 29.8936 22.0853 10.624C35.4134 -8.64761 53.7762 -20.5 74 -20.5V-21.5C53.3548 -21.5 34.7176 -9.39961 21.2629 10.0552C7.80677 29.512 -0.5 56.3641 -0.5 86H0.5ZM0.5 86C0.5 53.4905 8.42961 24.0828 21.2238 2.81919C34.0239 -18.4542 51.6378 -31.5 71 -31.5V-32.5C51.15 -32.5 33.2639 -19.1306 20.367 2.30363C7.46428 23.7476 -0.5 53.3399 -0.5 86H0.5ZM0.5 86C0.5 50.7178 7.98671 18.8007 20.0668 -4.27778C32.1594 -27.38 48.7779 -41.5 67 -41.5V-42.5C48.219 -42.5 31.3375 -27.9662 19.1809 -4.74153C7.01175 18.5069 -0.5 50.5897 -0.5 86H0.5ZM0.498924 85.9672L-8.30591 -47.9589L-9.30376 -47.8933L-0.498924 86.0328L0.498924 85.9672ZM-5.37675 -68.2745L-0.0307693 -82.8276L-0.969444 -83.1724L-6.31543 -68.6193L-5.37675 -68.2745ZM-8.30591 -47.9589C-8.75968 -54.861 -7.76186 -61.7816 -5.37675 -68.2745L-6.31543 -68.6193C-8.74871 -61.9953 -9.7667 -54.9348 -9.30376 -47.8933L-8.30591 -47.9589ZM-2.50252 40.9499L-11.582 -49.1186L-12.577 -49.0183L-3.49748 41.0502L-2.50252 40.9499ZM-10.1346 -66.9334L-5.85055 -82.8702L-6.81626 -83.1298L-11.1003 -67.193L-10.1346 -66.9334ZM-11.582 -49.1186C-12.1845 -55.0955 -11.694 -61.1322 -10.1346 -66.9334L-11.1003 -67.193C-12.6913 -61.2746 -13.1916 -55.1159 -12.577 -49.0183L-11.582 -49.1186ZM0.498924 86.0328L9.30376 -47.8933L8.30591 -47.9589L-0.498924 85.9672L0.498924 86.0328ZM6.31543 -68.6193L0.969444 -83.1724L0.0307693 -82.8276L5.37675 -68.2745L6.31543 -68.6193ZM9.30376 -47.8933C9.7667 -54.9348 8.74871 -61.9953 6.31543 -68.6193L5.37675 -68.2745C7.76186 -61.7816 8.75968 -54.861 8.30591 -47.9589L9.30376 -47.8933ZM3.49748 41.0502L12.577 -49.0183L11.582 -49.1186L2.50252 40.9499L3.49748 41.0502ZM11.1003 -67.193L6.81626 -83.1298L5.85055 -82.8702L10.1346 -66.9334L11.1003 -67.193ZM12.577 -49.0183C13.1917 -55.1159 12.6913 -61.2746 11.1003 -67.193L10.1346 -66.9334C11.694 -61.1322 12.1845 -55.0955 11.582 -49.1186L12.577 -49.0183Z" fill="#404040"/>
<path d="M75 201V201.5H75.5V201H75ZM-75 201H-75.5V201.5H-75V201ZM0 276L-0.498924 276.033H0.498924L0 276ZM-8.80483 142.074L-8.30591 142.041L-8.80483 142.074ZM-5.84609 121.553L-6.31543 121.381L-5.84609 121.553ZM-12.0795 140.932L-11.582 140.881L-12.0795 140.932ZM-10.6174 122.937L-11.1003 122.807L-10.6174 122.937ZM8.80483 142.074L8.30591 142.041L8.80483 142.074ZM5.84609 121.553L6.31543 121.381L5.84609 121.553ZM12.0795 140.932L11.582 140.881L12.0795 140.932ZM10.6174 122.937L11.1003 122.807L10.6174 122.937ZM74.5 182V201H75.5V182H74.5ZM-74.5 201V182H-75.5V201H-74.5ZM0 107.5C41.1452 107.5 74.5 140.855 74.5 182H75.5C75.5 140.303 41.6975 106.5 0 106.5V107.5ZM0 106.5C-41.6975 106.5 -75.5 140.303 -75.5 182H-74.5C-74.5 140.855 -41.1452 107.5 0 107.5V106.5ZM-75 201.5C-33.8548 201.5 -0.5 234.855 -0.5 276H0.5C0.5 234.303 -33.3025 200.5 -75 200.5V201.5ZM-75 191.5C-33.9118 191.5 -0.5 229.271 -0.5 276H0.5C0.5 228.84 -33.2455 190.5 -75 190.5V191.5ZM-75 180.5C-33.9627 180.5 -0.5 223.135 -0.5 276H0.5C0.5 222.826 -33.1946 179.5 -75 179.5V180.5ZM-74 169.5C-53.7762 169.5 -35.4134 181.352 -22.0853 200.624C-8.7587 219.894 -0.5 246.542 -0.5 276H0.5C0.5 246.364 -7.80677 219.512 -21.2629 200.055C-34.7176 180.6 -53.3548 168.5 -74 168.5V169.5ZM-71 158.5C-51.6378 158.5 -34.0239 171.546 -21.2238 192.819C-8.42962 214.083 -0.5 243.491 -0.5 276H0.5C0.5 243.34 -7.46428 213.748 -20.367 192.304C-33.2639 170.869 -51.15 157.5 -71 157.5V158.5ZM-67 148.5C-48.7779 148.5 -32.1594 162.62 -20.0668 185.722C-7.98671 208.801 -0.5 240.718 -0.5 276H0.5C0.5 240.59 -7.01175 208.507 -19.1809 185.258C-31.3375 162.034 -48.219 147.5 -67 147.5V148.5ZM0.5 276C0.5 234.855 33.8548 201.5 75 201.5V200.5C33.3025 200.5 -0.5 234.303 -0.5 276H0.5ZM0.5 276C0.5 229.271 33.9118 191.5 75 191.5V190.5C33.2455 190.5 -0.5 228.84 -0.5 276H0.5ZM0.5 276C0.5 223.135 33.9627 180.5 75 180.5V179.5C33.1946 179.5 -0.5 222.826 -0.5 276H0.5ZM0.5 276C0.5 246.542 8.7587 219.894 22.0853 200.624C35.4134 181.352 53.7762 169.5 74 169.5V168.5C53.3548 168.5 34.7176 180.6 21.2629 200.055C7.80677 219.512 -0.5 246.364 -0.5 276H0.5ZM0.5 276C0.5 243.491 8.42961 214.083 21.2238 192.819C34.0239 171.546 51.6378 158.5 71 158.5V157.5C51.15 157.5 33.2639 170.869 20.367 192.304C7.46428 213.748 -0.5 243.34 -0.5 276H0.5ZM0.5 276C0.5 240.718 7.98671 208.801 20.0668 185.722C32.1594 162.62 48.7779 148.5 67 148.5V147.5C48.219 147.5 31.3375 162.034 19.1809 185.258C7.01175 208.507 -0.5 240.59 -0.5 276H0.5ZM0.498924 275.967L-8.30591 142.041L-9.30376 142.107L-0.498924 276.033L0.498924 275.967ZM-5.37675 121.726L-0.0307693 107.172L-0.969444 106.828L-6.31543 121.381L-5.37675 121.726ZM-8.30591 142.041C-8.75968 135.139 -7.76186 128.218 -5.37675 121.726L-6.31543 121.381C-8.74871 128.005 -9.7667 135.065 -9.30376 142.107L-8.30591 142.041ZM-2.50252 230.95L-11.582 140.881L-12.577 140.982L-3.49748 231.05L-2.50252 230.95ZM-10.1346 123.067L-5.85055 107.13L-6.81626 106.87L-11.1003 122.807L-10.1346 123.067ZM-11.582 140.881C-12.1845 134.905 -11.694 128.868 -10.1346 123.067L-11.1003 122.807C-12.6913 128.725 -13.1916 134.884 -12.577 140.982L-11.582 140.881ZM0.498924 276.033L9.30376 142.107L8.30591 142.041L-0.498924 275.967L0.498924 276.033ZM6.31543 121.381L0.969444 106.828L0.0307693 107.172L5.37675 121.726L6.31543 121.381ZM9.30376 142.107C9.7667 135.065 8.74871 128.005 6.31543 121.381L5.37675 121.726C7.76186 128.218 8.75968 135.139 8.30591 142.041L9.30376 142.107ZM3.49748 231.05L12.577 140.982L11.582 140.881L2.50252 230.95L3.49748 231.05ZM11.1003 122.807L6.81626 106.87L5.85055 107.13L10.1346 123.067L11.1003 122.807ZM12.577 140.982C13.1917 134.884 12.6913 128.725 11.1003 122.807L10.1346 123.067C11.694 128.868 12.1845 134.905 11.582 140.881L12.577 140.982Z" fill="#404040"/>
</g>
<g clip-path="url(#clip3_364_1336)">
<path d="M300 106V106.5H300.5V106H300ZM150 106H149.5V106.5H150V106ZM225 181L224.501 181.033H225.499L225 181ZM216.195 47.0739L216.694 47.0411L216.195 47.0739ZM219.154 26.5531L218.685 26.3807L219.154 26.5531ZM212.921 45.9316L213.418 45.8814L212.921 45.9316ZM214.383 27.9368L213.9 27.807L214.383 27.9368ZM233.805 47.0739L233.306 47.0411L233.805 47.0739ZM230.846 26.5531L231.315 26.3807L230.846 26.5531ZM237.079 45.9316L236.582 45.8814L237.079 45.9316ZM235.617 27.9368L236.1 27.807L235.617 27.9368ZM299.5 87V106H300.5V87H299.5ZM150.5 106V87H149.5V106H150.5ZM225 12.5C266.145 12.5 299.5 45.8548 299.5 87H300.5C300.5 45.3025 266.698 11.5 225 11.5V12.5ZM225 11.5C183.303 11.5 149.5 45.3025 149.5 87H150.5C150.5 45.8548 183.855 12.5 225 12.5V11.5ZM150 106.5C191.145 106.5 224.5 139.855 224.5 181H225.5C225.5 139.303 191.697 105.5 150 105.5V106.5ZM150 96.5C191.088 96.5 224.5 134.271 224.5 181H225.5C225.5 133.84 191.754 95.5 150 95.5V96.5ZM150 85.5C191.037 85.5 224.5 128.135 224.5 181H225.5C225.5 127.826 191.805 84.5 150 84.5V85.5ZM151 74.5C171.224 74.5 189.587 86.3524 202.915 105.624C216.241 124.894 224.5 151.542 224.5 181H225.5C225.5 151.364 217.193 124.512 203.737 105.055C190.282 85.6004 171.645 73.5 151 73.5V74.5ZM154 63.5C173.362 63.5 190.976 76.5458 203.776 97.8192C216.57 119.083 224.5 148.491 224.5 181H225.5C225.5 148.34 217.536 118.748 204.633 97.3036C191.736 75.8694 173.85 62.5 154 62.5V63.5ZM158 53.5C176.222 53.5 192.841 67.62 204.933 90.7222C217.013 113.801 224.5 145.718 224.5 181H225.5C225.5 145.59 217.988 113.507 205.819 90.2585C193.662 67.0338 176.781 52.5 158 52.5V53.5ZM225.5 181C225.5 139.855 258.855 106.5 300 106.5V105.5C258.302 105.5 224.5 139.303 224.5 181H225.5ZM225.5 181C225.5 134.271 258.912 96.5 300 96.5V95.5C258.246 95.5 224.5 133.84 224.5 181H225.5ZM225.5 181C225.5 128.135 258.963 85.5 300 85.5V84.5C258.195 84.5 224.5 127.826 224.5 181H225.5ZM225.5 181C225.5 151.542 233.759 124.894 247.085 105.624C260.413 86.3524 278.776 74.5 299 74.5V73.5C278.355 73.5 259.718 85.6004 246.263 105.055C232.807 124.512 224.5 151.364 224.5 181H225.5ZM225.5 181C225.5 148.491 233.43 119.083 246.224 97.8192C259.024 76.5458 276.638 63.5 296 63.5V62.5C276.15 62.5 258.264 75.8694 245.367 97.3036C232.464 118.748 224.5 148.34 224.5 181H225.5ZM225.5 181C225.5 145.718 232.987 113.801 245.067 90.7222C257.159 67.62 273.778 53.5 292 53.5V52.5C273.219 52.5 256.338 67.0338 244.181 90.2585C232.012 113.507 224.5 145.59 224.5 181H225.5ZM225.499 180.967L216.694 47.0411L215.696 47.1067L224.501 181.033L225.499 180.967ZM219.623 26.7255L224.969 12.1724L224.031 11.8276L218.685 26.3807L219.623 26.7255ZM216.694 47.0411C216.24 40.139 217.238 33.2184 219.623 26.7255L218.685 26.3807C216.251 33.0047 215.233 40.0652 215.696 47.1067L216.694 47.0411ZM222.497 135.95L213.418 45.8814L212.423 45.9817L221.503 136.05L222.497 135.95ZM214.865 28.0666L219.149 12.1298L218.184 11.8702L213.9 27.807L214.865 28.0666ZM213.418 45.8814C212.815 39.9045 213.306 33.8678 214.865 28.0666L213.9 27.807C212.309 33.7254 211.808 39.8841 212.423 45.9817L213.418 45.8814ZM225.499 181.033L234.304 47.1067L233.306 47.0411L224.501 180.967L225.499 181.033ZM231.315 26.3807L225.969 11.8276L225.031 12.1724L230.377 26.7255L231.315 26.3807ZM234.304 47.1067C234.767 40.0652 233.749 33.0047 231.315 26.3807L230.377 26.7255C232.762 33.2184 233.76 40.139 233.306 47.0411L234.304 47.1067ZM228.497 136.05L237.577 45.9817L236.582 45.8814L227.503 135.95L228.497 136.05ZM236.1 27.807L231.816 11.8702L230.851 12.1298L235.135 28.0666L236.1 27.807ZM237.577 45.9817C238.192 39.8841 237.691 33.7254 236.1 27.807L235.135 28.0666C236.694 33.8678 237.185 39.9045 236.582 45.8814L237.577 45.9817Z" fill="#404040"/>
<path d="M375 11V11.5H375.5V11H375ZM225 11H224.5V11.5H225V11ZM300 86L299.501 86.0328H300.499L300 86ZM291.195 -47.9261L291.694 -47.9589L291.195 -47.9261ZM294.154 -68.4469L293.685 -68.6193L294.154 -68.4469ZM287.921 -49.0684L288.418 -49.1186L287.921 -49.0684ZM289.383 -67.0632L288.9 -67.193L289.383 -67.0632ZM308.805 -47.9261L308.306 -47.9589L308.805 -47.9261ZM305.846 -68.4469L306.315 -68.6193L305.846 -68.4469ZM312.079 -49.0684L311.582 -49.1186L312.079 -49.0684ZM310.617 -67.0632L311.1 -67.193L310.617 -67.0632ZM374.5 -7.99999V11H375.5V-7.99999H374.5ZM225.5 11V-7.99999H224.5V11H225.5ZM300 -82.5C341.145 -82.5 374.5 -49.1452 374.5 -7.99999H375.5C375.5 -49.6975 341.698 -83.5 300 -83.5V-82.5ZM300 -83.5C258.303 -83.5 224.5 -49.6975 224.5 -7.99999H225.5C225.5 -49.1452 258.855 -82.5 300 -82.5V-83.5ZM225 11.5C266.145 11.5 299.5 44.8548 299.5 86H300.5C300.5 44.3025 266.697 10.5 225 10.5V11.5ZM225 1.50001C266.088 1.50001 299.5 39.2713 299.5 86H300.5C300.5 38.8403 266.754 0.500008 225 0.500008V1.50001ZM225 -9.49999C266.037 -9.49999 299.5 33.1349 299.5 86H300.5C300.5 32.8265 266.805 -10.5 225 -10.5V-9.49999ZM226 -20.5C246.224 -20.5 264.587 -8.64761 277.915 10.624C291.241 29.8936 299.5 56.5415 299.5 86H300.5C300.5 56.3641 292.193 29.512 278.737 10.0552C265.282 -9.39961 246.645 -21.5 226 -21.5V-20.5ZM229 -31.5C248.362 -31.5 265.976 -18.4542 278.776 2.81919C291.57 24.0828 299.5 53.4905 299.5 86H300.5C300.5 53.3399 292.536 23.7476 279.633 2.30363C266.736 -19.1306 248.85 -32.5 229 -32.5V-31.5ZM233 -41.5C251.222 -41.5 267.841 -27.38 279.933 -4.27778C292.013 18.8007 299.5 50.7178 299.5 86H300.5C300.5 50.5897 292.988 18.5069 280.819 -4.74153C268.662 -27.9662 251.781 -42.5 233 -42.5V-41.5ZM300.5 86C300.5 44.8548 333.855 11.5 375 11.5V10.5C333.302 10.5 299.5 44.3025 299.5 86H300.5ZM300.5 86C300.5 39.2713 333.912 1.50001 375 1.50001V0.500008C333.246 0.500008 299.5 38.8403 299.5 86H300.5ZM300.5 86C300.5 33.1349 333.963 -9.49999 375 -9.49999V-10.5C333.195 -10.5 299.5 32.8265 299.5 86H300.5ZM300.5 86C300.5 56.5415 308.759 29.8936 322.085 10.624C335.413 -8.64761 353.776 -20.5 374 -20.5V-21.5C353.355 -21.5 334.718 -9.39961 321.263 10.0552C307.807 29.512 299.5 56.3641 299.5 86H300.5ZM300.5 86C300.5 53.4905 308.43 24.0828 321.224 2.81919C334.024 -18.4542 351.638 -31.5 371 -31.5V-32.5C351.15 -32.5 333.264 -19.1306 320.367 2.30363C307.464 23.7476 299.5 53.3399 299.5 86H300.5ZM300.5 86C300.5 50.7178 307.987 18.8007 320.067 -4.27778C332.159 -27.38 348.778 -41.5 367 -41.5V-42.5C348.219 -42.5 331.338 -27.9662 319.181 -4.74153C307.012 18.5069 299.5 50.5897 299.5 86H300.5ZM300.499 85.9672L291.694 -47.9589L290.696 -47.8933L299.501 86.0328L300.499 85.9672ZM294.623 -68.2745L299.969 -82.8276L299.031 -83.1724L293.685 -68.6193L294.623 -68.2745ZM291.694 -47.9589C291.24 -54.861 292.238 -61.7816 294.623 -68.2745L293.685 -68.6193C291.251 -61.9953 290.233 -54.9348 290.696 -47.8933L291.694 -47.9589ZM297.497 40.9499L288.418 -49.1186L287.423 -49.0183L296.503 41.0502L297.497 40.9499ZM289.865 -66.9334L294.149 -82.8702L293.184 -83.1298L288.9 -67.193L289.865 -66.9334ZM288.418 -49.1186C287.815 -55.0955 288.306 -61.1322 289.865 -66.9334L288.9 -67.193C287.309 -61.2746 286.808 -55.1159 287.423 -49.0183L288.418 -49.1186ZM300.499 86.0328L309.304 -47.8933L308.306 -47.9589L299.501 85.9672L300.499 86.0328ZM306.315 -68.6193L300.969 -83.1724L300.031 -82.8276L305.377 -68.2745L306.315 -68.6193ZM309.304 -47.8933C309.767 -54.9348 308.749 -61.9953 306.315 -68.6193L305.377 -68.2745C307.762 -61.7816 308.76 -54.861 308.306 -47.9589L309.304 -47.8933ZM303.497 41.0502L312.577 -49.0183L311.582 -49.1186L302.503 40.9499L303.497 41.0502ZM311.1 -67.193L306.816 -83.1298L305.851 -82.8702L310.135 -66.9334L311.1 -67.193ZM312.577 -49.0183C313.192 -55.1159 312.691 -61.2746 311.1 -67.193L310.135 -66.9334C311.694 -61.1322 312.185 -55.0955 311.582 -49.1186L312.577 -49.0183Z" fill="#404040"/>
<path d="M375 201V201.5H375.5V201H375ZM225 201H224.5V201.5H225V201ZM300 276L299.501 276.033H300.499L300 276ZM291.195 142.074L291.694 142.041L291.195 142.074ZM294.154 121.553L293.685 121.381L294.154 121.553ZM287.921 140.932L288.418 140.881L287.921 140.932ZM289.383 122.937L288.9 122.807L289.383 122.937ZM308.805 142.074L308.306 142.041L308.805 142.074ZM305.846 121.553L306.315 121.381L305.846 121.553ZM312.079 140.932L311.582 140.881L312.079 140.932ZM310.617 122.937L311.1 122.807L310.617 122.937ZM374.5 182V201H375.5V182H374.5ZM225.5 201V182H224.5V201H225.5ZM300 107.5C341.145 107.5 374.5 140.855 374.5 182H375.5C375.5 140.303 341.698 106.5 300 106.5V107.5ZM300 106.5C258.303 106.5 224.5 140.303 224.5 182H225.5C225.5 140.855 258.855 107.5 300 107.5V106.5ZM225 201.5C266.145 201.5 299.5 234.855 299.5 276H300.5C300.5 234.303 266.697 200.5 225 200.5V201.5ZM225 191.5C266.088 191.5 299.5 229.271 299.5 276H300.5C300.5 228.84 266.754 190.5 225 190.5V191.5ZM225 180.5C266.037 180.5 299.5 223.135 299.5 276H300.5C300.5 222.826 266.805 179.5 225 179.5V180.5ZM226 169.5C246.224 169.5 264.587 181.352 277.915 200.624C291.241 219.894 299.5 246.542 299.5 276H300.5C300.5 246.364 292.193 219.512 278.737 200.055C265.282 180.6 246.645 168.5 226 168.5V169.5ZM229 158.5C248.362 158.5 265.976 171.546 278.776 192.819C291.57 214.083 299.5 243.491 299.5 276H300.5C300.5 243.34 292.536 213.748 279.633 192.304C266.736 170.869 248.85 157.5 229 157.5V158.5ZM233 148.5C251.222 148.5 267.841 162.62 279.933 185.722C292.013 208.801 299.5 240.718 299.5 276H300.5C300.5 240.59 292.988 208.507 280.819 185.258C268.662 162.034 251.781 147.5 233 147.5V148.5ZM300.5 276C300.5 234.855 333.855 201.5 375 201.5V200.5C333.302 200.5 299.5 234.303 299.5 276H300.5ZM300.5 276C300.5 229.271 333.912 191.5 375 191.5V190.5C333.246 190.5 299.5 228.84 299.5 276H300.5ZM300.5 276C300.5 223.135 333.963 180.5 375 180.5V179.5C333.195 179.5 299.5 222.826 299.5 276H300.5ZM300.5 276C300.5 246.542 308.759 219.894 322.085 200.624C335.413 181.352 353.776 169.5 374 169.5V168.5C353.355 168.5 334.718 180.6 321.263 200.055C307.807 219.512 299.5 246.364 299.5 276H300.5ZM300.5 276C300.5 243.491 308.43 214.083 321.224 192.819C334.024 171.546 351.638 158.5 371 158.5V157.5C351.15 157.5 333.264 170.869 320.367 192.304C307.464 213.748 299.5 243.34 299.5 276H300.5ZM300.5 276C300.5 240.718 307.987 208.801 320.067 185.722C332.159 162.62 348.778 148.5 367 148.5V147.5C348.219 147.5 331.338 162.034 319.181 185.258C307.012 208.507 299.5 240.59 299.5 276H300.5ZM300.499 275.967L291.694 142.041L290.696 142.107L299.501 276.033L300.499 275.967ZM294.623 121.726L299.969 107.172L299.031 106.828L293.685 121.381L294.623 121.726ZM291.694 142.041C291.24 135.139 292.238 128.218 294.623 121.726L293.685 121.381C291.251 128.005 290.233 135.065 290.696 142.107L291.694 142.041ZM297.497 230.95L288.418 140.881L287.423 140.982L296.503 231.05L297.497 230.95ZM289.865 123.067L294.149 107.13L293.184 106.87L288.9 122.807L289.865 123.067ZM288.418 140.881C287.815 134.905 288.306 128.868 289.865 123.067L288.9 122.807C287.309 128.725 286.808 134.884 287.423 140.982L288.418 140.881ZM300.499 276.033L309.304 142.107L308.306 142.041L299.501 275.967L300.499 276.033ZM306.315 121.381L300.969 106.828L300.031 107.172L305.377 121.726L306.315 121.381ZM309.304 142.107C309.767 135.065 308.749 128.005 306.315 121.381L305.377 121.726C307.762 128.218 308.76 135.139 308.306 142.041L309.304 142.107ZM303.497 231.05L312.577 140.982L311.582 140.881L302.503 230.95L303.497 231.05ZM311.1 122.807L306.816 106.87L305.851 107.13L310.135 123.067L311.1 122.807ZM312.577 140.982C313.192 134.884 312.691 128.725 311.1 122.807L310.135 123.067C311.694 128.868 312.185 134.905 311.582 140.881L312.577 140.982Z" fill="#404040"/>
<path d="M225 11V11.5H225.5V11H225ZM75 11H74.5V11.5H75V11ZM150 86L149.501 86.0328H150.499L150 86ZM141.195 -47.9261L141.694 -47.9589L141.195 -47.9261ZM144.154 -68.4469L143.685 -68.6193L144.154 -68.4469ZM137.921 -49.0684L138.418 -49.1186L137.921 -49.0684ZM139.383 -67.0632L138.9 -67.193L139.383 -67.0632ZM158.805 -47.9261L158.306 -47.9589L158.805 -47.9261ZM155.846 -68.4469L156.315 -68.6193L155.846 -68.4469ZM162.079 -49.0684L161.582 -49.1186L162.079 -49.0684ZM160.617 -67.0632L161.1 -67.193L160.617 -67.0632ZM224.5 -7.99999V11H225.5V-7.99999H224.5ZM75.5 11V-7.99999H74.5V11H75.5ZM150 -82.5C191.145 -82.5 224.5 -49.1452 224.5 -7.99999H225.5C225.5 -49.6975 191.698 -83.5 150 -83.5V-82.5ZM150 -83.5C108.303 -83.5 74.5 -49.6975 74.5 -7.99999H75.5C75.5 -49.1452 108.855 -82.5 150 -82.5V-83.5ZM75 11.5C116.145 11.5 149.5 44.8548 149.5 86H150.5C150.5 44.3025 116.697 10.5 75 10.5V11.5ZM75 1.50001C116.088 1.50001 149.5 39.2713 149.5 86H150.5C150.5 38.8403 116.754 0.500008 75 0.500008V1.50001ZM75 -9.49999C116.037 -9.49999 149.5 33.1349 149.5 86H150.5C150.5 32.8265 116.805 -10.5 75 -10.5V-9.49999ZM76 -20.5C96.2238 -20.5 114.587 -8.64761 127.915 10.624C141.241 29.8936 149.5 56.5415 149.5 86H150.5C150.5 56.3641 142.193 29.512 128.737 10.0552C115.282 -9.39961 96.6452 -21.5 76 -21.5V-20.5ZM79 -31.5C98.3622 -31.5 115.976 -18.4542 128.776 2.81919C141.57 24.0828 149.5 53.4905 149.5 86H150.5C150.5 53.3399 142.536 23.7476 129.633 2.30363C116.736 -19.1306 98.85 -32.5 79 -32.5V-31.5ZM83 -41.5C101.222 -41.5 117.841 -27.38 129.933 -4.27778C142.013 18.8007 149.5 50.7178 149.5 86H150.5C150.5 50.5897 142.988 18.5069 130.819 -4.74153C118.662 -27.9662 101.781 -42.5 83 -42.5V-41.5ZM150.5 86C150.5 44.8548 183.855 11.5 225 11.5V10.5C183.302 10.5 149.5 44.3025 149.5 86H150.5ZM150.5 86C150.5 39.2713 183.912 1.50001 225 1.50001V0.500008C183.246 0.500008 149.5 38.8403 149.5 86H150.5ZM150.5 86C150.5 33.1349 183.963 -9.49999 225 -9.49999V-10.5C183.195 -10.5 149.5 32.8265 149.5 86H150.5ZM150.5 86C150.5 56.5415 158.759 29.8936 172.085 10.624C185.413 -8.64761 203.776 -20.5 224 -20.5V-21.5C203.355 -21.5 184.718 -9.39961 171.263 10.0552C157.807 29.512 149.5 56.3641 149.5 86H150.5ZM150.5 86C150.5 53.4905 158.43 24.0828 171.224 2.81919C184.024 -18.4542 201.638 -31.5 221 -31.5V-32.5C201.15 -32.5 183.264 -19.1306 170.367 2.30363C157.464 23.7476 149.5 53.3399 149.5 86H150.5ZM150.5 86C150.5 50.7178 157.987 18.8007 170.067 -4.27778C182.159 -27.38 198.778 -41.5 217 -41.5V-42.5C198.219 -42.5 181.338 -27.9662 169.181 -4.74153C157.012 18.5069 149.5 50.5897 149.5 86H150.5ZM150.499 85.9672L141.694 -47.9589L140.696 -47.8933L149.501 86.0328L150.499 85.9672ZM144.623 -68.2745L149.969 -82.8276L149.031 -83.1724L143.685 -68.6193L144.623 -68.2745ZM141.694 -47.9589C141.24 -54.861 142.238 -61.7816 144.623 -68.2745L143.685 -68.6193C141.251 -61.9953 140.233 -54.9348 140.696 -47.8933L141.694 -47.9589ZM147.497 40.9499L138.418 -49.1186L137.423 -49.0183L146.503 41.0502L147.497 40.9499ZM139.865 -66.9334L144.149 -82.8702L143.184 -83.1298L138.9 -67.193L139.865 -66.9334ZM138.418 -49.1186C137.815 -55.0955 138.306 -61.1322 139.865 -66.9334L138.9 -67.193C137.309 -61.2746 136.808 -55.1159 137.423 -49.0183L138.418 -49.1186ZM150.499 86.0328L159.304 -47.8933L158.306 -47.9589L149.501 85.9672L150.499 86.0328ZM156.315 -68.6193L150.969 -83.1724L150.031 -82.8276L155.377 -68.2745L156.315 -68.6193ZM159.304 -47.8933C159.767 -54.9348 158.749 -61.9953 156.315 -68.6193L155.377 -68.2745C157.762 -61.7816 158.76 -54.861 158.306 -47.9589L159.304 -47.8933ZM153.497 41.0502L162.577 -49.0183L161.582 -49.1186L152.503 40.9499L153.497 41.0502ZM161.1 -67.193L156.816 -83.1298L155.851 -82.8702L160.135 -66.9334L161.1 -67.193ZM162.577 -49.0183C163.192 -55.1159 162.691 -61.2746 161.1 -67.193L160.135 -66.9334C161.694 -61.1322 162.185 -55.0955 161.582 -49.1186L162.577 -49.0183Z" fill="#404040"/>
<path d="M225 201V201.5H225.5V201H225ZM75 201H74.5V201.5H75V201ZM150 276L149.501 276.033H150.499L150 276ZM141.195 142.074L141.694 142.041L141.195 142.074ZM144.154 121.553L143.685 121.381L144.154 121.553ZM137.921 140.932L138.418 140.881L137.921 140.932ZM139.383 122.937L138.9 122.807L139.383 122.937ZM158.805 142.074L158.306 142.041L158.805 142.074ZM155.846 121.553L156.315 121.381L155.846 121.553ZM162.079 140.932L161.582 140.881L162.079 140.932ZM160.617 122.937L161.1 122.807L160.617 122.937ZM224.5 182V201H225.5V182H224.5ZM75.5 201V182H74.5V201H75.5ZM150 107.5C191.145 107.5 224.5 140.855 224.5 182H225.5C225.5 140.303 191.698 106.5 150 106.5V107.5ZM150 106.5C108.303 106.5 74.5 140.303 74.5 182H75.5C75.5 140.855 108.855 107.5 150 107.5V106.5ZM75 201.5C116.145 201.5 149.5 234.855 149.5 276H150.5C150.5 234.303 116.697 200.5 75 200.5V201.5ZM75 191.5C116.088 191.5 149.5 229.271 149.5 276H150.5C150.5 228.84 116.754 190.5 75 190.5V191.5ZM75 180.5C116.037 180.5 149.5 223.135 149.5 276H150.5C150.5 222.826 116.805 179.5 75 179.5V180.5ZM76 169.5C96.2238 169.5 114.587 181.352 127.915 200.624C141.241 219.894 149.5 246.542 149.5 276H150.5C150.5 246.364 142.193 219.512 128.737 200.055C115.282 180.6 96.6452 168.5 76 168.5V169.5ZM79 158.5C98.3622 158.5 115.976 171.546 128.776 192.819C141.57 214.083 149.5 243.491 149.5 276H150.5C150.5 243.34 142.536 213.748 129.633 192.304C116.736 170.869 98.85 157.5 79 157.5V158.5ZM83 148.5C101.222 148.5 117.841 162.62 129.933 185.722C142.013 208.801 149.5 240.718 149.5 276H150.5C150.5 240.59 142.988 208.507 130.819 185.258C118.662 162.034 101.781 147.5 83 147.5V148.5ZM150.5 276C150.5 234.855 183.855 201.5 225 201.5V200.5C183.302 200.5 149.5 234.303 149.5 276H150.5ZM150.5 276C150.5 229.271 183.912 191.5 225 191.5V190.5C183.246 190.5 149.5 228.84 149.5 276H150.5ZM150.5 276C150.5 223.135 183.963 180.5 225 180.5V179.5C183.195 179.5 149.5 222.826 149.5 276H150.5ZM150.5 276C150.5 246.542 158.759 219.894 172.085 200.624C185.413 181.352 203.776 169.5 224 169.5V168.5C203.355 168.5 184.718 180.6 171.263 200.055C157.807 219.512 149.5 246.364 149.5 276H150.5ZM150.5 276C150.5 243.491 158.43 214.083 171.224 192.819C184.024 171.546 201.638 158.5 221 158.5V157.5C201.15 157.5 183.264 170.869 170.367 192.304C157.464 213.748 149.5 243.34 149.5 276H150.5ZM150.5 276C150.5 240.718 157.987 208.801 170.067 185.722C182.159 162.62 198.778 148.5 217 148.5V147.5C198.219 147.5 181.338 162.034 169.181 185.258C157.012 208.507 149.5 240.59 149.5 276H150.5ZM150.499 275.967L141.694 142.041L140.696 142.107L149.501 276.033L150.499 275.967ZM144.623 121.726L149.969 107.172L149.031 106.828L143.685 121.381L144.623 121.726ZM141.694 142.041C141.24 135.139 142.238 128.218 144.623 121.726L143.685 121.381C141.251 128.005 140.233 135.065 140.696 142.107L141.694 142.041ZM147.497 230.95L138.418 140.881L137.423 140.982L146.503 231.05L147.497 230.95ZM139.865 123.067L144.149 107.13L143.184 106.87L138.9 122.807L139.865 123.067ZM138.418 140.881C137.815 134.905 138.306 128.868 139.865 123.067L138.9 122.807C137.309 128.725 136.808 134.884 137.423 140.982L138.418 140.881ZM150.499 276.033L159.304 142.107L158.306 142.041L149.501 275.967L150.499 276.033ZM156.315 121.381L150.969 106.828L150.031 107.172L155.377 121.726L156.315 121.381ZM159.304 142.107C159.767 135.065 158.749 128.005 156.315 121.381L155.377 121.726C157.762 128.218 158.76 135.139 158.306 142.041L159.304 142.107ZM153.497 231.05L162.577 140.982L161.582 140.881L152.503 230.95L153.497 231.05ZM161.1 122.807L156.816 106.87L155.851 107.13L160.135 123.067L161.1 122.807ZM162.577 140.982C163.192 134.884 162.691 128.725 161.1 122.807L160.135 123.067C161.694 128.868 162.185 134.905 161.582 140.881L162.577 140.982Z" fill="#404040"/>
</g>
<defs>
<clipPath id="clip0_364_1336">
<rect width="150" height="190" fill="white" transform="translate(0 190)"/>
</clipPath>
<clipPath id="clip1_364_1336">
<rect width="150" height="190" fill="white" transform="translate(150 190)"/>
</clipPath>
<clipPath id="clip2_364_1336">
<rect width="150" height="190" fill="white"/>
</clipPath>
<clipPath id="clip3_364_1336">
<rect width="150" height="190" fill="white" transform="translate(150)"/>
</clipPath>
</defs>
</svg>
