<svg width="150" height="190" viewBox="0 0 150 190" fill="none" xmlns="http://www.w3.org/2000/svg">
<g clip-path="url(#clip0_202_380)">
<path d="M150 95V95.5H150.5V95H150ZM0 95H-0.5V95.5H0V95ZM75 170L74.5011 170.033H75.4989L75 170ZM66.1952 36.0739L66.6941 36.0411L66.1952 36.0739ZM69.1539 15.5531L68.6846 15.3807L69.1539 15.5531ZM62.9205 34.9316L63.418 34.8814L62.9205 34.9316ZM64.3826 16.9368L63.8997 16.807L64.3826 16.9368ZM83.8048 36.0739L83.3059 36.0411L83.8048 36.0739ZM80.8461 15.5531L81.3154 15.3807L80.8461 15.5531ZM87.0795 34.9316L86.582 34.8814L87.0795 34.9316ZM85.6174 16.9368L86.1003 16.807L85.6174 16.9368ZM149.5 76V95H150.5V76H149.5ZM0.5 95V76H-0.5V95H0.5ZM75 1.50001C116.145 1.50001 149.5 34.8548 149.5 76H150.5C150.5 34.3025 116.698 0.500009 75 0.500009V1.50001ZM75 0.500009C33.3025 0.500009 -0.5 34.3025 -0.5 76H0.5C0.5 34.8548 33.8548 1.50001 75 1.50001V0.500009ZM0 95.5C41.1452 95.5 74.5 128.855 74.5 170H75.5C75.5 128.303 41.6975 94.5 0 94.5V95.5ZM0 85.5C41.0882 85.5 74.5 123.271 74.5 170H75.5C75.5 122.84 41.7545 84.5 0 84.5V85.5ZM0 74.5C41.0373 74.5 74.5 117.135 74.5 170H75.5C75.5 116.826 41.8054 73.5 0 73.5V74.5ZM1 63.5C21.2238 63.5 39.5866 75.3524 52.9147 94.624C66.2413 113.894 74.5 140.542 74.5 170H75.5C75.5 140.364 67.1932 113.512 53.7371 94.0552C40.2824 74.6004 21.6452 62.5 1 62.5V63.5ZM4 52.5C23.3622 52.5 40.9761 65.5458 53.7762 86.8192C66.5704 108.083 74.5 137.491 74.5 170H75.5C75.5 137.34 67.5357 107.748 54.633 86.3036C41.7361 64.8694 23.85 51.5 4 51.5V52.5ZM8 42.5C26.2221 42.5 42.8406 56.62 54.9332 79.7222C67.0133 102.801 74.5 134.718 74.5 170H75.5C75.5 134.59 67.9883 102.507 55.8191 79.2585C43.6625 56.0338 26.781 41.5 8 41.5V42.5ZM75.5 170C75.5 128.855 108.855 95.5 150 95.5V94.5C108.302 94.5 74.5 128.303 74.5 170H75.5ZM75.5 170C75.5 123.271 108.912 85.5 150 85.5V84.5C108.246 84.5 74.5 122.84 74.5 170H75.5ZM75.5 170C75.5 117.135 108.963 74.5 150 74.5V73.5C108.195 73.5 74.5 116.826 74.5 170H75.5ZM75.5 170C75.5 140.542 83.7587 113.894 97.0853 94.624C110.413 75.3524 128.776 63.5 149 63.5V62.5C128.355 62.5 109.718 74.6004 96.2629 94.0552C82.8068 113.512 74.5 140.364 74.5 170H75.5ZM75.5 170C75.5 137.491 83.4296 108.083 96.2238 86.8192C109.024 65.5458 126.638 52.5 146 52.5V51.5C126.15 51.5 108.264 64.8694 95.367 86.3036C82.4643 107.748 74.5 137.34 74.5 170H75.5ZM75.5 170C75.5 134.718 82.9867 102.801 95.0668 79.7222C107.159 56.62 123.778 42.5 142 42.5V41.5C123.219 41.5 106.338 56.0338 94.1809 79.2585C82.0117 102.507 74.5 134.59 74.5 170H75.5ZM75.4989 169.967L66.6941 36.0411L65.6962 36.1067L74.5011 170.033L75.4989 169.967ZM69.6232 15.7255L74.9692 1.17241L74.0306 0.827601L68.6846 15.3807L69.6232 15.7255ZM66.6941 36.0411C66.2403 29.139 67.2381 22.2184 69.6232 15.7255L68.6846 15.3807C66.2513 22.0047 65.2333 29.0652 65.6962 36.1067L66.6941 36.0411ZM72.4975 124.95L63.418 34.8814L62.423 34.9817L71.5025 125.05L72.4975 124.95ZM64.8654 17.0666L69.1495 1.1298L68.1837 0.870201L63.8997 16.807L64.8654 17.0666ZM63.418 34.8814C62.8155 28.9045 63.306 22.8678 64.8654 17.0666L63.8997 16.807C62.3087 22.7254 61.8084 28.8841 62.423 34.9817L63.418 34.8814ZM75.4989 170.033L84.3038 36.1067L83.3059 36.0411L74.5011 169.967L75.4989 170.033ZM81.3154 15.3807L75.9694 0.827601L75.0308 1.17241L80.3768 15.7255L81.3154 15.3807ZM84.3038 36.1067C84.7667 29.0652 83.7487 22.0047 81.3154 15.3807L80.3768 15.7255C82.7619 22.2184 83.7597 29.139 83.3059 36.0411L84.3038 36.1067ZM78.4975 125.05L87.577 34.9817L86.582 34.8814L77.5025 124.95L78.4975 125.05ZM86.1003 16.807L81.8163 0.870201L80.8505 1.1298L85.1346 17.0666L86.1003 16.807ZM87.577 34.9817C88.1917 28.8841 87.6913 22.7254 86.1003 16.807L85.1346 17.0666C86.694 22.8678 87.1845 28.9045 86.582 34.8814L87.577 34.9817Z" fill="#412F02"/>
<path d="M225 190V190.5H225.5V190H225ZM75 190H74.5V190.5H75V190ZM150 265L149.501 265.033H150.499L150 265ZM141.195 131.074L141.694 131.041L141.195 131.074ZM144.154 110.553L143.685 110.381L144.154 110.553ZM137.921 129.932L138.418 129.881L137.921 129.932ZM139.383 111.937L138.9 111.807L139.383 111.937ZM158.805 131.074L158.306 131.041L158.805 131.074ZM155.846 110.553L156.315 110.381L155.846 110.553ZM162.079 129.932L161.582 129.881L162.079 129.932ZM160.617 111.937L161.1 111.807L160.617 111.937ZM224.5 171V190H225.5V171H224.5ZM75.5 190V171H74.5V190H75.5ZM150 96.5C191.145 96.5 224.5 129.855 224.5 171H225.5C225.5 129.303 191.698 95.5 150 95.5V96.5ZM150 95.5C108.303 95.5 74.5 129.303 74.5 171H75.5C75.5 129.855 108.855 96.5 150 96.5V95.5ZM75 190.5C116.145 190.5 149.5 223.855 149.5 265H150.5C150.5 223.303 116.697 189.5 75 189.5V190.5ZM75 180.5C116.088 180.5 149.5 218.271 149.5 265H150.5C150.5 217.84 116.754 179.5 75 179.5V180.5ZM75 169.5C116.037 169.5 149.5 212.135 149.5 265H150.5C150.5 211.826 116.805 168.5 75 168.5V169.5ZM76 158.5C96.2238 158.5 114.587 170.352 127.915 189.624C141.241 208.894 149.5 235.542 149.5 265H150.5C150.5 235.364 142.193 208.512 128.737 189.055C115.282 169.6 96.6452 157.5 76 157.5V158.5ZM79 147.5C98.3622 147.5 115.976 160.546 128.776 181.819C141.57 203.083 149.5 232.491 149.5 265H150.5C150.5 232.34 142.536 202.748 129.633 181.304C116.736 159.869 98.85 146.5 79 146.5V147.5ZM83 137.5C101.222 137.5 117.841 151.62 129.933 174.722C142.013 197.801 149.5 229.718 149.5 265H150.5C150.5 229.59 142.988 197.507 130.819 174.258C118.662 151.034 101.781 136.5 83 136.5V137.5ZM150.5 265C150.5 223.855 183.855 190.5 225 190.5V189.5C183.302 189.5 149.5 223.303 149.5 265H150.5ZM150.5 265C150.5 218.271 183.912 180.5 225 180.5V179.5C183.246 179.5 149.5 217.84 149.5 265H150.5ZM150.5 265C150.5 212.135 183.963 169.5 225 169.5V168.5C183.195 168.5 149.5 211.826 149.5 265H150.5ZM150.5 265C150.5 235.542 158.759 208.894 172.085 189.624C185.413 170.352 203.776 158.5 224 158.5V157.5C203.355 157.5 184.718 169.6 171.263 189.055C157.807 208.512 149.5 235.364 149.5 265H150.5ZM150.5 265C150.5 232.491 158.43 203.083 171.224 181.819C184.024 160.546 201.638 147.5 221 147.5V146.5C201.15 146.5 183.264 159.869 170.367 181.304C157.464 202.748 149.5 232.34 149.5 265H150.5ZM150.5 265C150.5 229.718 157.987 197.801 170.067 174.722C182.159 151.62 198.778 137.5 217 137.5V136.5C198.219 136.5 181.338 151.034 169.181 174.258C157.012 197.507 149.5 229.59 149.5 265H150.5ZM150.499 264.967L141.694 131.041L140.696 131.107L149.501 265.033L150.499 264.967ZM144.623 110.726L149.969 96.1724L149.031 95.8276L143.685 110.381L144.623 110.726ZM141.694 131.041C141.24 124.139 142.238 117.218 144.623 110.726L143.685 110.381C141.251 117.005 140.233 124.065 140.696 131.107L141.694 131.041ZM147.497 219.95L138.418 129.881L137.423 129.982L146.503 220.05L147.497 219.95ZM139.865 112.067L144.149 96.1298L143.184 95.8702L138.9 111.807L139.865 112.067ZM138.418 129.881C137.815 123.905 138.306 117.868 139.865 112.067L138.9 111.807C137.309 117.725 136.808 123.884 137.423 129.982L138.418 129.881ZM150.499 265.033L159.304 131.107L158.306 131.041L149.501 264.967L150.499 265.033ZM156.315 110.381L150.969 95.8276L150.031 96.1724L155.377 110.726L156.315 110.381ZM159.304 131.107C159.767 124.065 158.749 117.005 156.315 110.381L155.377 110.726C157.762 117.218 158.76 124.139 158.306 131.041L159.304 131.107ZM153.497 220.05L162.577 129.982L161.582 129.881L152.503 219.95L153.497 220.05ZM161.1 111.807L156.816 95.8702L155.851 96.1298L160.135 112.067L161.1 111.807ZM162.577 129.982C163.192 123.884 162.691 117.725 161.1 111.807L160.135 112.067C161.694 117.868 162.185 123.905 161.582 129.881L162.577 129.982Z" fill="#412F02"/>
<path d="M75 190V190.5H75.5V190H75ZM-75 190H-75.5V190.5H-75V190ZM0 265L-0.498924 265.033H0.498924L0 265ZM-8.80483 131.074L-8.30591 131.041L-8.80483 131.074ZM-5.84609 110.553L-6.31543 110.381L-5.84609 110.553ZM-12.0795 129.932L-11.582 129.881L-12.0795 129.932ZM-10.6174 111.937L-11.1003 111.807L-10.6174 111.937ZM8.80483 131.074L8.30591 131.041L8.80483 131.074ZM5.84609 110.553L6.31543 110.381L5.84609 110.553ZM12.0795 129.932L11.582 129.881L12.0795 129.932ZM10.6174 111.937L11.1003 111.807L10.6174 111.937ZM74.5 171V190H75.5V171H74.5ZM-74.5 190V171H-75.5V190H-74.5ZM0 96.5C41.1452 96.5 74.5 129.855 74.5 171H75.5C75.5 129.303 41.6975 95.5 0 95.5V96.5ZM0 95.5C-41.6975 95.5 -75.5 129.303 -75.5 171H-74.5C-74.5 129.855 -41.1452 96.5 0 96.5V95.5ZM-75 190.5C-33.8548 190.5 -0.5 223.855 -0.5 265H0.5C0.5 223.303 -33.3025 189.5 -75 189.5V190.5ZM-75 180.5C-33.9118 180.5 -0.5 218.271 -0.5 265H0.5C0.5 217.84 -33.2455 179.5 -75 179.5V180.5ZM-75 169.5C-33.9627 169.5 -0.5 212.135 -0.5 265H0.5C0.5 211.826 -33.1946 168.5 -75 168.5V169.5ZM-74 158.5C-53.7762 158.5 -35.4134 170.352 -22.0853 189.624C-8.7587 208.894 -0.5 235.542 -0.5 265H0.5C0.5 235.364 -7.80677 208.512 -21.2629 189.055C-34.7176 169.6 -53.3548 157.5 -74 157.5V158.5ZM-71 147.5C-51.6378 147.5 -34.0239 160.546 -21.2238 181.819C-8.42962 203.083 -0.5 232.491 -0.5 265H0.5C0.5 232.34 -7.46428 202.748 -20.367 181.304C-33.2639 159.869 -51.15 146.5 -71 146.5V147.5ZM-67 137.5C-48.7779 137.5 -32.1594 151.62 -20.0668 174.722C-7.98671 197.801 -0.5 229.718 -0.5 265H0.5C0.5 229.59 -7.01175 197.507 -19.1809 174.258C-31.3375 151.034 -48.219 136.5 -67 136.5V137.5ZM0.5 265C0.5 223.855 33.8548 190.5 75 190.5V189.5C33.3025 189.5 -0.5 223.303 -0.5 265H0.5ZM0.5 265C0.5 218.271 33.9118 180.5 75 180.5V179.5C33.2455 179.5 -0.5 217.84 -0.5 265H0.5ZM0.5 265C0.5 212.135 33.9627 169.5 75 169.5V168.5C33.1946 168.5 -0.5 211.826 -0.5 265H0.5ZM0.5 265C0.5 235.542 8.7587 208.894 22.0853 189.624C35.4134 170.352 53.7762 158.5 74 158.5V157.5C53.3548 157.5 34.7176 169.6 21.2629 189.055C7.80677 208.512 -0.5 235.364 -0.5 265H0.5ZM0.5 265C0.5 232.491 8.42961 203.083 21.2238 181.819C34.0239 160.546 51.6378 147.5 71 147.5V146.5C51.15 146.5 33.2639 159.869 20.367 181.304C7.46428 202.748 -0.5 232.34 -0.5 265H0.5ZM0.5 265C0.5 229.718 7.98671 197.801 20.0668 174.722C32.1594 151.62 48.7779 137.5 67 137.5V136.5C48.219 136.5 31.3375 151.034 19.1809 174.258C7.01175 197.507 -0.5 229.59 -0.5 265H0.5ZM0.498924 264.967L-8.30591 131.041L-9.30376 131.107L-0.498924 265.033L0.498924 264.967ZM-5.37675 110.726L-0.0307693 96.1724L-0.969444 95.8276L-6.31543 110.381L-5.37675 110.726ZM-8.30591 131.041C-8.75968 124.139 -7.76186 117.218 -5.37675 110.726L-6.31543 110.381C-8.74871 117.005 -9.7667 124.065 -9.30376 131.107L-8.30591 131.041ZM-2.50252 219.95L-11.582 129.881L-12.577 129.982L-3.49748 220.05L-2.50252 219.95ZM-10.1346 112.067L-5.85055 96.1298L-6.81626 95.8702L-11.1003 111.807L-10.1346 112.067ZM-11.582 129.881C-12.1845 123.905 -11.694 117.868 -10.1346 112.067L-11.1003 111.807C-12.6913 117.725 -13.1916 123.884 -12.577 129.982L-11.582 129.881ZM0.498924 265.033L9.30376 131.107L8.30591 131.041L-0.498924 264.967L0.498924 265.033ZM6.31543 110.381L0.969444 95.8276L0.0307693 96.1724L5.37675 110.726L6.31543 110.381ZM9.30376 131.107C9.7667 124.065 8.74871 117.005 6.31543 110.381L5.37675 110.726C7.76186 117.218 8.75968 124.139 8.30591 131.041L9.30376 131.107ZM3.49748 220.05L12.577 129.982L11.582 129.881L2.50252 219.95L3.49748 220.05ZM11.1003 111.807L6.81626 95.8702L5.85055 96.1298L10.1346 112.067L11.1003 111.807ZM12.577 129.982C13.1917 123.884 12.6913 117.725 11.1003 111.807L10.1346 112.067C11.694 117.868 12.1845 123.905 11.582 129.881L12.577 129.982Z" fill="#412F02"/>
<path d="M225 7.62939e-06V0.500008H225.5V7.62939e-06H225ZM75 7.62939e-06H74.5V0.500008H75V7.62939e-06ZM150 75L149.501 75.0328H150.499L150 75ZM141.195 -58.9261L141.694 -58.9589L141.195 -58.9261ZM144.154 -79.4469L143.685 -79.6193L144.154 -79.4469ZM137.921 -60.0684L138.418 -60.1186L137.921 -60.0684ZM139.383 -78.0632L138.9 -78.193L139.383 -78.0632ZM158.805 -58.9261L158.306 -58.9589L158.805 -58.9261ZM155.846 -79.4469L156.315 -79.6193L155.846 -79.4469ZM162.079 -60.0684L161.582 -60.1186L162.079 -60.0684ZM160.617 -78.0632L161.1 -78.193L160.617 -78.0632ZM224.5 -19V7.62939e-06H225.5V-19H224.5ZM75.5 7.62939e-06V-19H74.5V7.62939e-06H75.5ZM150 -93.5C191.145 -93.5 224.5 -60.1452 224.5 -19H225.5C225.5 -60.6975 191.698 -94.5 150 -94.5V-93.5ZM150 -94.5C108.303 -94.5 74.5 -60.6975 74.5 -19H75.5C75.5 -60.1452 108.855 -93.5 150 -93.5V-94.5ZM75 0.500008C116.145 0.500008 149.5 33.8548 149.5 75H150.5C150.5 33.3025 116.697 -0.499992 75 -0.499992V0.500008ZM75 -9.49999C116.088 -9.49999 149.5 28.2713 149.5 75H150.5C150.5 27.8403 116.754 -10.5 75 -10.5V-9.49999ZM75 -20.5C116.037 -20.5 149.5 22.1349 149.5 75H150.5C150.5 21.8265 116.805 -21.5 75 -21.5V-20.5ZM76 -31.5C96.2238 -31.5 114.587 -19.6476 127.915 -0.376007C141.241 18.8936 149.5 45.5415 149.5 75H150.5C150.5 45.3641 142.193 18.512 128.737 -0.944817C115.282 -20.3996 96.6452 -32.5 76 -32.5V-31.5ZM79 -42.5C98.3622 -42.5 115.976 -29.4542 128.776 -8.18081C141.57 13.0828 149.5 42.4905 149.5 75H150.5C150.5 42.3399 142.536 12.7476 129.633 -8.69637C116.736 -30.1306 98.85 -43.5 79 -43.5V-42.5ZM83 -52.5C101.222 -52.5 117.841 -38.38 129.933 -15.2778C142.013 7.80065 149.5 39.7178 149.5 75H150.5C150.5 39.5897 142.988 7.50693 130.819 -15.7415C118.662 -38.9662 101.781 -53.5 83 -53.5V-52.5ZM150.5 75C150.5 33.8548 183.855 0.500008 225 0.500008V-0.499992C183.302 -0.499992 149.5 33.3025 149.5 75H150.5ZM150.5 75C150.5 28.2713 183.912 -9.49999 225 -9.49999V-10.5C183.246 -10.5 149.5 27.8403 149.5 75H150.5ZM150.5 75C150.5 22.1349 183.963 -20.5 225 -20.5V-21.5C183.195 -21.5 149.5 21.8265 149.5 75H150.5ZM150.5 75C150.5 45.5415 158.759 18.8936 172.085 -0.376007C185.413 -19.6476 203.776 -31.5 224 -31.5V-32.5C203.355 -32.5 184.718 -20.3996 171.263 -0.944817C157.807 18.512 149.5 45.3641 149.5 75H150.5ZM150.5 75C150.5 42.4905 158.43 13.0828 171.224 -8.18081C184.024 -29.4542 201.638 -42.5 221 -42.5V-43.5C201.15 -43.5 183.264 -30.1306 170.367 -8.69637C157.464 12.7476 149.5 42.3399 149.5 75H150.5ZM150.5 75C150.5 39.7178 157.987 7.80065 170.067 -15.2778C182.159 -38.38 198.778 -52.5 217 -52.5V-53.5C198.219 -53.5 181.338 -38.9662 169.181 -15.7415C157.012 7.50693 149.5 39.5897 149.5 75H150.5ZM150.499 74.9672L141.694 -58.9589L140.696 -58.8933L149.501 75.0328L150.499 74.9672ZM144.623 -79.2745L149.969 -93.8276L149.031 -94.1724L143.685 -79.6193L144.623 -79.2745ZM141.694 -58.9589C141.24 -65.861 142.238 -72.7816 144.623 -79.2745L143.685 -79.6193C141.251 -72.9953 140.233 -65.9348 140.696 -58.8933L141.694 -58.9589ZM147.497 29.9499L138.418 -60.1186L137.423 -60.0183L146.503 30.0502L147.497 29.9499ZM139.865 -77.9334L144.149 -93.8702L143.184 -94.1298L138.9 -78.193L139.865 -77.9334ZM138.418 -60.1186C137.815 -66.0955 138.306 -72.1322 139.865 -77.9334L138.9 -78.193C137.309 -72.2746 136.808 -66.1159 137.423 -60.0183L138.418 -60.1186ZM150.499 75.0328L159.304 -58.8933L158.306 -58.9589L149.501 74.9672L150.499 75.0328ZM156.315 -79.6193L150.969 -94.1724L150.031 -93.8276L155.377 -79.2745L156.315 -79.6193ZM159.304 -58.8933C159.767 -65.9348 158.749 -72.9953 156.315 -79.6193L155.377 -79.2745C157.762 -72.7816 158.76 -65.861 158.306 -58.9589L159.304 -58.8933ZM153.497 30.0502L162.577 -60.0183L161.582 -60.1186L152.503 29.9499L153.497 30.0502ZM161.1 -78.193L156.816 -94.1298L155.851 -93.8702L160.135 -77.9334L161.1 -78.193ZM162.577 -60.0183C163.192 -66.1159 162.691 -72.2746 161.1 -78.193L160.135 -77.9334C161.694 -72.1322 162.185 -66.0955 161.582 -60.1186L162.577 -60.0183Z" fill="#412F02"/>
<path d="M75 7.62939e-06V0.500008H75.5V7.62939e-06H75ZM-75 7.62939e-06H-75.5V0.500008H-75V7.62939e-06ZM0 75L-0.498924 75.0328H0.498924L0 75ZM-8.80483 -58.9261L-8.30591 -58.9589L-8.80483 -58.9261ZM-5.84609 -79.4469L-6.31543 -79.6193L-5.84609 -79.4469ZM-12.0795 -60.0684L-11.582 -60.1186L-12.0795 -60.0684ZM-10.6174 -78.0632L-11.1003 -78.193L-10.6174 -78.0632ZM8.80483 -58.9261L8.30591 -58.9589L8.80483 -58.9261ZM5.84609 -79.4469L6.31543 -79.6193L5.84609 -79.4469ZM12.0795 -60.0684L11.582 -60.1186L12.0795 -60.0684ZM10.6174 -78.0632L11.1003 -78.193L10.6174 -78.0632ZM74.5 -19V7.62939e-06H75.5V-19H74.5ZM-74.5 7.62939e-06V-19H-75.5V7.62939e-06H-74.5ZM0 -93.5C41.1452 -93.5 74.5 -60.1452 74.5 -19H75.5C75.5 -60.6975 41.6975 -94.5 0 -94.5V-93.5ZM0 -94.5C-41.6975 -94.5 -75.5 -60.6975 -75.5 -19H-74.5C-74.5 -60.1452 -41.1452 -93.5 0 -93.5V-94.5ZM-75 0.500008C-33.8548 0.500008 -0.5 33.8548 -0.5 75H0.5C0.5 33.3025 -33.3025 -0.499992 -75 -0.499992V0.500008ZM-75 -9.49999C-33.9118 -9.49999 -0.5 28.2713 -0.5 75H0.5C0.5 27.8403 -33.2455 -10.5 -75 -10.5V-9.49999ZM-75 -20.5C-33.9627 -20.5 -0.5 22.1349 -0.5 75H0.5C0.5 21.8265 -33.1946 -21.5 -75 -21.5V-20.5ZM-74 -31.5C-53.7762 -31.5 -35.4134 -19.6476 -22.0853 -0.376007C-8.7587 18.8936 -0.5 45.5415 -0.5 75H0.5C0.5 45.3641 -7.80677 18.512 -21.2629 -0.944817C-34.7176 -20.3996 -53.3548 -32.5 -74 -32.5V-31.5ZM-71 -42.5C-51.6378 -42.5 -34.0239 -29.4542 -21.2238 -8.18081C-8.42962 13.0828 -0.5 42.4905 -0.5 75H0.5C0.5 42.3399 -7.46428 12.7476 -20.367 -8.69637C-33.2639 -30.1306 -51.15 -43.5 -71 -43.5V-42.5ZM-67 -52.5C-48.7779 -52.5 -32.1594 -38.38 -20.0668 -15.2778C-7.98671 7.80065 -0.5 39.7178 -0.5 75H0.5C0.5 39.5897 -7.01175 7.50693 -19.1809 -15.7415C-31.3375 -38.9662 -48.219 -53.5 -67 -53.5V-52.5ZM0.5 75C0.5 33.8548 33.8548 0.500008 75 0.500008V-0.499992C33.3025 -0.499992 -0.5 33.3025 -0.5 75H0.5ZM0.5 75C0.5 28.2713 33.9118 -9.49999 75 -9.49999V-10.5C33.2455 -10.5 -0.5 27.8403 -0.5 75H0.5ZM0.5 75C0.5 22.1349 33.9627 -20.5 75 -20.5V-21.5C33.1946 -21.5 -0.5 21.8265 -0.5 75H0.5ZM0.5 75C0.5 45.5415 8.7587 18.8936 22.0853 -0.376007C35.4134 -19.6476 53.7762 -31.5 74 -31.5V-32.5C53.3548 -32.5 34.7176 -20.3996 21.2629 -0.944817C7.80677 18.512 -0.5 45.3641 -0.5 75H0.5ZM0.5 75C0.5 42.4905 8.42961 13.0828 21.2238 -8.18081C34.0239 -29.4542 51.6378 -42.5 71 -42.5V-43.5C51.15 -43.5 33.2639 -30.1306 20.367 -8.69637C7.46428 12.7476 -0.5 42.3399 -0.5 75H0.5ZM0.5 75C0.5 39.7178 7.98671 7.80065 20.0668 -15.2778C32.1594 -38.38 48.7779 -52.5 67 -52.5V-53.5C48.219 -53.5 31.3375 -38.9662 19.1809 -15.7415C7.01175 7.50693 -0.5 39.5897 -0.5 75H0.5ZM0.498924 74.9672L-8.30591 -58.9589L-9.30376 -58.8933L-0.498924 75.0328L0.498924 74.9672ZM-5.37675 -79.2745L-0.0307693 -93.8276L-0.969444 -94.1724L-6.31543 -79.6193L-5.37675 -79.2745ZM-8.30591 -58.9589C-8.75968 -65.861 -7.76186 -72.7816 -5.37675 -79.2745L-6.31543 -79.6193C-8.74871 -72.9953 -9.7667 -65.9348 -9.30376 -58.8933L-8.30591 -58.9589ZM-2.50252 29.9499L-11.582 -60.1186L-12.577 -60.0183L-3.49748 30.0502L-2.50252 29.9499ZM-10.1346 -77.9334L-5.85055 -93.8702L-6.81626 -94.1298L-11.1003 -78.193L-10.1346 -77.9334ZM-11.582 -60.1186C-12.1845 -66.0955 -11.694 -72.1322 -10.1346 -77.9334L-11.1003 -78.193C-12.6913 -72.2746 -13.1916 -66.1159 -12.577 -60.0183L-11.582 -60.1186ZM0.498924 75.0328L9.30376 -58.8933L8.30591 -58.9589L-0.498924 74.9672L0.498924 75.0328ZM6.31543 -79.6193L0.969444 -94.1724L0.0307693 -93.8276L5.37675 -79.2745L6.31543 -79.6193ZM9.30376 -58.8933C9.7667 -65.9348 8.74871 -72.9953 6.31543 -79.6193L5.37675 -79.2745C7.76186 -72.7816 8.75968 -65.861 8.30591 -58.9589L9.30376 -58.8933ZM3.49748 30.0502L12.577 -60.0183L11.582 -60.1186L2.50252 29.9499L3.49748 30.0502ZM11.1003 -78.193L6.81626 -94.1298L5.85055 -93.8702L10.1346 -77.9334L11.1003 -78.193ZM12.577 -60.0183C13.1917 -66.1159 12.6913 -72.2746 11.1003 -78.193L10.1346 -77.9334C11.694 -72.1322 12.1845 -66.0955 11.582 -60.1186L12.577 -60.0183Z" fill="#412F02"/>
</g>
<defs>
<clipPath id="clip0_202_380">
<rect width="150" height="190" fill="white"/>
</clipPath>
</defs>
</svg>
