<svg width="192" height="55" viewBox="0 0 192 55" fill="none" xmlns="http://www.w3.org/2000/svg">
<g clip-path="url(#clip0_500_536)">
<path d="M140.86 47.7894C144.464 47.7894 147.444 50.4597 147.931 53.9298L99 53.9298L99 47.7894L123.5 47.7894L140.86 47.7894Z" stroke="#ECECEC" stroke-width="2"/>
<path d="M145 48.8246L168 48.8246L184.895 48.8246C188.267 48.8246 191 51.558 191 54.9299V54.9299L145 54.9298" stroke="#ECECEC" stroke-width="2"/>
<path d="M51.1404 47.7894C47.5362 47.7894 44.5558 50.4597 44.0695 53.9298L93 53.9298L93 47.7894L68.5 47.7894L51.1404 47.7894Z" stroke="#ECECEC" stroke-width="2"/>
<path d="M47 48.8246L24 48.8246L7.10527 48.8246C3.73342 48.8246 1 51.558 1 54.9298V54.9298L47 54.9299" stroke="#ECECEC" stroke-width="2"/>
<path d="M84 58.4911C84 55.1178 85.2643 51.8826 87.5147 49.4972C89.7651 47.1119 92.8174 45.7718 96 45.7718C99.1826 45.7718 102.235 47.1119 104.485 49.4972C106.736 51.8826 108 55.1178 108 58.4912L96 58.4911L84 58.4911Z" fill="#ECECEC" stroke="#ECECEC"/>
<path d="M118 29.0669L118 29.5669L118.5 29.5669L118.5 29.0669L118 29.0669ZM74 29.0669L73.5 29.0669L73.5 29.5669L74 29.5669L74 29.0669ZM96 39.6667L95.5038 39.7283L96.4962 39.7283L96 39.6667ZM93.4172 11.4725L92.9181 11.5048L92.9193 11.5181L93.4172 11.4725ZM94.2851 5.34534L93.8148 5.17561L93.8148 5.17561L94.2851 5.34534ZM92.4567 11.1314L91.959 11.1807L91.9605 11.1931L92.4567 11.1314ZM92.8856 5.75847L92.4021 5.63081L92.4021 5.63081L92.8856 5.75847ZM98.5828 11.4725L99.0808 11.5182L99.0817 11.5048L98.5828 11.4725ZM97.7149 5.34534L98.1852 5.17561L98.1852 5.17561L97.7149 5.34534ZM99.5433 11.1314L100.04 11.1931L100.041 11.1807L99.5433 11.1314ZM99.1144 5.75848L99.5979 5.63081L99.5979 5.63081L99.1144 5.75848ZM117.5 23.3938L117.5 29.0669L118.5 29.0669L118.5 23.3938L117.5 23.3938ZM74.5 29.0669L74.5 23.3938L73.5 23.3938L73.5 29.0669L74.5 29.0669ZM96 1.50001C107.866 1.50001 117.5 11.2938 117.5 23.3938L118.5 23.3938C118.5 10.7583 108.435 0.500009 96 0.500006L96 1.50001ZM96 0.500006C83.5653 0.500004 73.5 10.7583 73.5 23.3938L74.5 23.3938C74.5 11.2938 84.1342 1.5 96 1.50001L96 0.500006ZM74 29.5669C85.0156 29.5669 91.8694 29.4564 95.9967 29.4839C98.0629 29.4977 99.4075 29.5463 100.231 29.6554C100.65 29.7108 100.884 29.7763 101.003 29.8336C101.11 29.8853 101 29.8626 101 29.7289C101 29.6825 101.016 29.7263 100.871 29.9091C100.744 30.0706 100.551 30.2683 100.292 30.5189C99.789 31.0074 99.0787 31.6568 98.3735 32.4638C96.9532 34.0891 95.5 36.4102 95.5 39.6667L96.5 39.6667C96.5 36.7393 97.7968 34.6434 99.1265 33.1218C99.7963 32.3553 100.461 31.7488 100.989 31.2366C101.246 30.987 101.483 30.7483 101.656 30.5294C101.812 30.3317 102 30.0513 102 29.7289C102 29.3192 101.718 29.0688 101.438 28.9334C101.17 28.8036 100.804 28.7225 100.363 28.664C99.4675 28.5455 98.0621 28.4977 96.0033 28.4839C91.8806 28.4565 84.9843 28.5669 74 28.5669L74 29.5669ZM74 26.5811C77.0468 26.5811 79.9189 26.5544 82.5295 26.7316C85.1404 26.9087 87.4482 27.2878 89.3655 28.0797C91.2708 28.8667 92.7882 30.0598 93.838 31.8803C94.8934 33.7106 95.5 36.2168 95.5 39.6667L96.5 39.6667C96.5 36.1081 95.8754 33.4119 94.7043 31.3808C93.5275 29.34 91.8231 28.0128 89.7472 27.1554C87.6833 26.303 85.2505 25.9139 82.5972 25.7339C79.9438 25.5538 77.0283 25.5811 74 25.5811L74 26.5811ZM74 23.2967C80.0966 23.2967 85.4621 23.5666 89.3113 25.731C93.0835 27.8521 95.5 31.8638 95.5 39.6667L96.5 39.6667C96.5 31.6388 93.9917 27.2155 89.8014 24.8593C85.6881 22.5464 80.0536 22.2967 74 22.2967L74 23.2967ZM74.2933 20.0122C80.2802 20.0122 85.5615 20.6461 89.3498 23.3782C93.0984 26.0818 95.5 30.9329 95.5 39.6667L96.5 39.6667C96.5 30.7558 94.0423 25.5296 89.9347 22.5672C85.8667 19.6333 80.2948 19.0122 74.2933 19.0122L74.2933 20.0122ZM75.1733 16.7278C80.8839 16.7278 85.9341 17.7196 89.5636 21.0202C93.1849 24.3133 95.5 30.0063 95.5 39.6667L96.5 39.6667C96.5 29.8684 94.1529 23.8419 90.2364 20.2803C86.3281 16.7262 80.965 15.7278 75.1733 15.7278L75.1733 16.7278ZM76.3467 13.742C81.6964 13.742 86.4456 15.0509 89.8714 18.8727C93.3094 22.7081 95.5 29.1678 95.5 39.6667L96.5 39.6667C96.5 29.0579 94.2911 22.3052 90.616 18.2052C86.9286 14.0915 81.8512 12.742 76.3467 12.742L76.3467 13.742ZM96.5 39.6667C96.5 36.4102 95.0468 34.0891 93.6265 32.4638C92.9213 31.6568 92.211 31.0074 91.7076 30.5189C91.4492 30.2683 91.2562 30.0706 91.1285 29.9091C90.984 29.7263 91 29.6825 91 29.7289C91 29.8626 90.8902 29.8853 90.9971 29.8336C91.1155 29.7763 91.3504 29.7108 91.7688 29.6554C92.5925 29.5463 93.9371 29.4977 96.0033 29.4839C100.131 29.4564 106.984 29.5669 118 29.5669L118 28.5669C107.016 28.5669 100.119 28.4565 95.9967 28.4839C93.9379 28.4977 92.5325 28.5455 91.6375 28.664C91.1964 28.7225 90.8298 28.8036 90.5615 28.9334C90.2817 29.0688 90 29.3192 90 29.7289C90 30.0512 90.1879 30.3317 90.3441 30.5294C90.5172 30.7483 90.7539 30.987 91.0112 31.2366C91.539 31.7488 92.2037 32.3553 92.8735 33.1218C94.2032 34.6434 95.5 36.7393 95.5 39.6667L96.5 39.6667ZM96.5 39.6667C96.5 36.2168 97.1066 33.7106 98.162 31.8803C99.2118 30.0598 100.729 28.8667 102.635 28.0797C104.552 27.2878 106.86 26.9087 109.47 26.7316C112.081 26.5544 114.953 26.5811 118 26.5811L118 25.5811C114.972 25.5811 112.056 25.5538 109.403 25.7339C106.75 25.9139 104.317 26.303 102.253 27.1554C100.177 28.0128 98.4725 29.34 97.2957 31.3808C96.1246 33.4119 95.5 36.1081 95.5 39.6667L96.5 39.6667ZM96.5 39.6667C96.5 31.8638 98.9165 27.8521 102.689 25.731C106.538 23.5666 111.903 23.2967 118 23.2967L118 22.2967C111.946 22.2967 106.312 22.5464 102.199 24.8593C98.0083 27.2155 95.5 31.6388 95.5 39.6667L96.5 39.6667ZM96.5 39.6667C96.5 30.9329 98.9016 26.0818 102.65 23.3782C106.438 20.6461 111.72 20.0122 117.707 20.0122L117.707 19.0122C111.705 19.0122 106.133 19.6333 102.065 22.5672C97.9576 25.5296 95.5 30.7558 95.5 39.6667L96.5 39.6667ZM96.5 39.6667C96.5 30.0063 98.8151 24.3133 102.436 21.0202C106.066 17.7196 111.116 16.7278 116.827 16.7278L116.827 15.7278C111.035 15.7278 105.672 16.7262 101.764 20.2803C97.8471 23.8419 95.5 29.8684 95.5 39.6667L96.5 39.6667ZM96.5 39.6667C96.5 29.1678 98.6906 22.7081 102.129 18.8727C105.554 15.0509 110.304 13.742 115.653 13.742L115.653 12.742C110.149 12.742 105.071 14.0916 101.384 18.2052C97.7089 22.3052 95.5 29.0579 95.5 39.6667L96.5 39.6667ZM96.4979 39.6211L93.9152 11.4269L92.9193 11.5181L95.5021 39.7123L96.4979 39.6211ZM94.7555 5.51507L96.3236 1.16973L95.383 0.830279L93.8148 5.17561L94.7555 5.51507ZM93.9162 11.4403C93.7862 9.42704 94.0721 7.40854 94.7555 5.51506L93.8148 5.17561C93.0848 7.19862 92.7794 9.35464 92.9183 11.5048L93.9162 11.4403ZM96.4962 39.6051L92.9529 11.0698L91.9605 11.1931L95.5038 39.7283L96.4962 39.6051ZM93.369 5.88614L94.6256 1.12767L93.6588 0.872337L92.4021 5.63081L93.369 5.88614ZM92.9543 11.0822C92.7816 9.33881 92.9222 7.57808 93.369 5.88614L92.4021 5.63081C91.9248 7.4382 91.7747 9.31878 91.9591 11.1807L92.9543 11.0822ZM96.4979 39.7123L99.0807 11.5181L98.0848 11.4269L95.5021 39.6211L96.4979 39.7123ZM98.1852 5.17561L96.617 0.830279L95.6764 1.16973L97.2445 5.51507L98.1852 5.17561ZM99.0817 11.5048C99.2206 9.35464 98.9152 7.19862 98.1852 5.17561L97.2445 5.51507C97.9279 7.40854 98.2138 9.42704 98.0838 11.4403L99.0817 11.5048ZM96.4962 39.7283L100.04 11.1931L99.0471 11.0698L95.5038 39.6051L96.4962 39.7283ZM99.5979 5.63081L98.3412 0.872338L97.3744 1.12767L98.631 5.88614L99.5979 5.63081ZM100.041 11.1807C100.225 9.31878 100.075 7.4382 99.5979 5.63081L98.631 5.88614C99.0778 7.57808 99.2184 9.33882 99.0457 11.0822L100.041 11.1807Z" fill="#ECECEC"/>
<rect x="1" y="54" width="190" height="18" fill="#ECECEC"/>
</g>
<defs>
<clipPath id="clip0_500_536">
<rect width="192" height="55" fill="white"/>
</clipPath>
</defs>
</svg>
