<svg width="192" height="55" viewBox="0 0 192 55" fill="none" xmlns="http://www.w3.org/2000/svg">
<g clip-path="url(#clip0_500_538)">
<path d="M51.1403 7.21056C47.5362 7.21056 44.5558 4.54029 44.0695 1.07021L93 1.07022L93 7.21057L68.5 7.21056L51.1403 7.21056Z" stroke="white" stroke-width="2"/>
<path d="M47 6.17542L24 6.17541L7.10526 6.1754C3.73342 6.1754 1 3.44198 1 0.0701432V0.0701432L47 0.0701553" stroke="white" stroke-width="2"/>
<path d="M140.86 7.21058C144.464 7.21058 147.444 4.54031 147.931 1.07023L99 1.07022L99 7.21057L123.5 7.21058L140.86 7.21058Z" stroke="white" stroke-width="2"/>
<path d="M145 6.17554L168 6.17554L184.895 6.17555C188.267 6.17555 191 3.44213 191 0.0702823V0.0702823L145 0.0702702" stroke="white" stroke-width="2"/>
<path d="M108 -3.49114C108 -0.117776 106.736 3.11743 104.485 5.50276C102.235 7.88809 99.1826 9.22815 96 9.22815C92.8174 9.22815 89.7652 7.88809 87.5147 5.50275C85.2643 3.11742 84 -0.117783 84 -3.49115L96 -3.49115L108 -3.49114Z" fill="white" stroke="white"/>
<path d="M74 25.9331L74 25.4331L73.5 25.4331L73.5 25.9331L74 25.9331ZM118 25.9331L118.5 25.9331L118.5 25.4331L118 25.4331L118 25.9331ZM96 15.3333L96.4962 15.2717L95.5038 15.2717L96 15.3333ZM98.5828 43.5275L99.0819 43.4952L99.0807 43.4819L98.5828 43.5275ZM97.7149 49.6547L98.1852 49.8244L98.1852 49.8244L97.7149 49.6547ZM99.5433 43.8686L100.041 43.8193L100.04 43.8069L99.5433 43.8686ZM99.1144 49.2415L99.5979 49.3692L99.5979 49.3692L99.1144 49.2415ZM93.4173 43.5275L92.9192 43.4818L92.9183 43.4952L93.4173 43.5275ZM94.2851 49.6547L93.8148 49.8244L93.8148 49.8244L94.2851 49.6547ZM92.4567 43.8686L91.9603 43.8069L91.9591 43.8193L92.4567 43.8686ZM92.8856 49.2415L92.4021 49.3692L92.4021 49.3692L92.8856 49.2415ZM74.5 31.6062L74.5 25.9331L73.5 25.9331L73.5 31.6062L74.5 31.6062ZM117.5 25.9331L117.5 31.6062L118.5 31.6062L118.5 25.9331L117.5 25.9331ZM96 53.5C84.1342 53.5 74.5 43.7062 74.5 31.6062L73.5 31.6062C73.5 44.2417 83.5653 54.5 96 54.5L96 53.5ZM96 54.5C108.435 54.5 118.5 44.2417 118.5 31.6062L117.5 31.6062C117.5 43.7062 107.866 53.5 96 53.5L96 54.5ZM118 25.4331C106.984 25.4331 100.131 25.5436 96.0033 25.5161C93.9372 25.5023 92.5925 25.4537 91.7688 25.3446C91.3504 25.2892 91.1155 25.2237 90.9971 25.1664C90.8902 25.1147 91 25.1374 91 25.2711C91 25.3175 90.984 25.2737 91.1285 25.0909C91.2562 24.9294 91.4492 24.7317 91.7076 24.4811C92.211 23.9926 92.9213 23.3432 93.6265 22.5362C95.0468 20.9109 96.5 18.5898 96.5 15.3333L95.5 15.3333C95.5 18.2607 94.2032 20.3566 92.8735 21.8782C92.2037 22.6447 91.539 23.2512 91.0112 23.7634C90.7539 24.013 90.5172 24.2517 90.3441 24.4706C90.1879 24.6683 90 24.9487 90 25.2711C90 25.6808 90.2817 25.9312 90.5615 26.0666C90.8298 26.1964 91.1965 26.2775 91.6375 26.3359C92.5325 26.4545 93.9379 26.5023 95.9967 26.5161C100.119 26.5435 107.016 26.4331 118 26.4331L118 25.4331ZM118 28.4189C114.953 28.4189 112.081 28.4456 109.47 28.2684C106.86 28.0913 104.552 27.7122 102.635 26.9203C100.729 26.1333 99.2118 24.9402 98.162 23.1197C97.1066 21.2893 96.5 18.7832 96.5 15.3333L95.5 15.3333C95.5 18.8919 96.1246 21.5881 97.2957 23.6192C98.4725 25.66 100.177 26.9872 102.253 27.8446C104.317 28.697 106.75 29.0861 109.403 29.2661C112.056 29.4462 114.972 29.4189 118 29.4189L118 28.4189ZM118 31.7033C111.903 31.7033 106.538 31.4334 102.689 29.269C98.9165 27.1479 96.5 23.1362 96.5 15.3333L95.5 15.3333C95.5 23.3612 98.0083 27.7845 102.199 30.1407C106.312 32.4536 111.946 32.7033 118 32.7033L118 31.7033ZM117.707 34.9878C111.72 34.9878 106.438 34.3539 102.65 31.6218C98.9016 28.9182 96.5 24.0671 96.5 15.3333L95.5 15.3333C95.5 24.2442 97.9577 29.4704 102.065 32.4328C106.133 35.3667 111.705 35.9878 117.707 35.9878L117.707 34.9878ZM116.827 38.2722C111.116 38.2722 106.066 37.2804 102.436 33.9798C98.8151 30.6866 96.5 24.9937 96.5 15.3333L95.5 15.3333C95.5 25.1316 97.8471 31.1581 101.764 34.7197C105.672 38.2738 111.035 39.2722 116.827 39.2722L116.827 38.2722ZM115.653 41.258C110.304 41.258 105.554 39.9491 102.129 36.1273C98.6906 32.2919 96.5 25.8322 96.5 15.3333L95.5 15.3333C95.5 25.9421 97.7089 32.6948 101.384 36.7948C105.071 40.9084 110.149 42.258 115.653 42.258L115.653 41.258ZM95.5 15.3333C95.5 18.5898 96.9532 20.9109 98.3735 22.5362C99.0787 23.3432 99.789 23.9926 100.292 24.4811C100.551 24.7317 100.744 24.9294 100.871 25.0909C101.016 25.2737 101 25.3175 101 25.2711C101 25.1374 101.11 25.1147 101.003 25.1664C100.884 25.2237 100.65 25.2892 100.231 25.3446C99.4075 25.4537 98.0629 25.5023 95.9967 25.5161C91.8694 25.5436 85.0157 25.4331 74 25.4331L74 26.4331C84.9844 26.4331 91.8806 26.5435 96.0033 26.5161C98.0622 26.5023 99.4675 26.4545 100.363 26.336C100.804 26.2775 101.17 26.1964 101.439 26.0666C101.718 25.9312 102 25.6808 102 25.2711C102 24.9487 101.812 24.6683 101.656 24.4706C101.483 24.2517 101.246 24.013 100.989 23.7634C100.461 23.2512 99.7963 22.6447 99.1265 21.8782C97.7968 20.3566 96.5 18.2607 96.5 15.3333L95.5 15.3333ZM95.5 15.3333C95.5 18.7832 94.8934 21.2893 93.838 23.1197C92.7882 24.9402 91.2708 26.1333 89.3655 26.9203C87.4482 27.7122 85.1404 28.0913 82.5295 28.2684C79.9189 28.4456 77.0468 28.4189 74 28.4189L74 29.4189C77.0283 29.4189 79.9438 29.4462 82.5972 29.2661C85.2505 29.0861 87.6833 28.697 89.7472 27.8446C91.8231 26.9872 93.5275 25.66 94.7043 23.6192C95.8754 21.5881 96.5 18.8919 96.5 15.3333L95.5 15.3333ZM95.5 15.3333C95.5 23.1362 93.0835 27.1479 89.3113 29.269C85.4622 31.4334 80.0966 31.7033 74 31.7033L74 32.7033C80.0536 32.7033 85.6881 32.4536 89.8014 30.1407C93.9917 27.7845 96.5 23.3612 96.5 15.3333L95.5 15.3333ZM95.5 15.3333C95.5 24.0671 93.0985 28.9182 89.3498 31.6218C85.5615 34.3539 80.2802 34.9878 74.2933 34.9878L74.2933 35.9878C80.2948 35.9878 85.8667 35.3667 89.9347 32.4328C94.0424 29.4704 96.5 24.2442 96.5 15.3333L95.5 15.3333ZM95.5 15.3333C95.5 24.9937 93.1849 30.6866 89.5636 33.9798C85.9341 37.2804 80.8839 38.2722 75.1733 38.2722L75.1733 39.2722C80.965 39.2722 86.3281 38.2738 90.2364 34.7197C94.1529 31.1581 96.5 25.1316 96.5 15.3333L95.5 15.3333ZM95.5 15.3333C95.5 25.8322 93.3094 32.2918 89.8714 36.1273C86.4456 39.9491 81.6964 41.258 76.3467 41.258L76.3467 42.258C81.8512 42.258 86.9286 40.9084 90.616 36.7948C94.2911 32.6948 96.5 25.9421 96.5 15.3333L95.5 15.3333ZM95.5021 15.3789L98.0848 43.5731L99.0807 43.4819L96.4979 15.2877L95.5021 15.3789ZM97.2445 49.4849L95.6764 53.8303L96.617 54.1697L98.1852 49.8244L97.2445 49.4849ZM98.0838 43.5597C98.2138 45.573 97.9279 47.5915 97.2445 49.4849L98.1852 49.8244C98.9152 47.8014 99.2206 45.6454 99.0817 43.4952L98.0838 43.5597ZM95.5038 15.3949L99.0471 43.9302L100.04 43.8069L96.4962 15.2717L95.5038 15.3949ZM98.631 49.1139L97.3744 53.8723L98.3412 54.1277L99.5979 49.3692L98.631 49.1139ZM99.0457 43.9178C99.2184 45.6612 99.0778 47.4219 98.631 49.1139L99.5979 49.3692C100.075 47.5618 100.225 45.6812 100.041 43.8193L99.0457 43.9178ZM95.5021 15.2877L92.9193 43.4819L93.9152 43.5731L96.4979 15.3789L95.5021 15.2877ZM93.8148 49.8244L95.383 54.1697L96.3236 53.8303L94.7555 49.4849L93.8148 49.8244ZM92.9183 43.4952C92.7794 45.6454 93.0848 47.8014 93.8148 49.8244L94.7555 49.4849C94.0721 47.5915 93.7862 45.573 93.9162 43.5597L92.9183 43.4952ZM95.5038 15.2717L91.9605 43.8069L92.9529 43.9302L96.4962 15.3949L95.5038 15.2717ZM92.4021 49.3692L93.6588 54.1277L94.6256 53.8723L93.369 49.1139L92.4021 49.3692ZM91.9591 43.8193C91.7747 45.6812 91.9248 47.5618 92.4021 49.3692L93.369 49.1139C92.9222 47.4219 92.7816 45.6612 92.9543 43.9178L91.9591 43.8193Z" fill="white"/>
<rect x="191" y="1" width="190" height="18" transform="rotate(-180 191 1)" fill="white"/>
</g>
<defs>
<clipPath id="clip0_500_538">
<rect width="192" height="55" fill="white" transform="translate(192 55) rotate(-180)"/>
</clipPath>
</defs>
</svg>
