<svg width="21" height="30" viewBox="0 0 21 30" fill="none" xmlns="http://www.w3.org/2000/svg">
<path d="M2.95418 13.1524L8.91828 14.4705L8.59961 16.0122L2.07786 17.3923L2.95418 13.1524Z" fill="#ECECEC"/>
<path d="M6.9265 24.1066L0.962402 22.7885L1.28107 21.2467L7.80282 19.8667L6.9265 24.1066Z" fill="#ECECEC"/>
<path d="M7.96207 19.0958L1.44031 20.4758L1.91831 18.1632L8.44007 16.7831L7.96207 19.0958Z" fill="#ECECEC"/>
<path d="M2.82627 23.2004L5.06281 23.6947L4.70431 25.4292L2.59021 30.0001L2.56956 28.6856L3.14788 27.302L2.50834 26.153L2.46777 24.9349L2.82627 23.2004Z" fill="#ECECEC"/>
<path d="M8.27418 0.613254C8.36095 0.193443 8.76507 -0.0731181 9.17681 0.0178737L6.30883 13.8938L5.56331 13.7291L8.27418 0.613254Z" fill="#ECECEC"/>
<path d="M8.27194 0.62402C8.35994 0.198272 8.76977 -0.0720588 9.18733 0.0202199L20.3489 2.48689C20.7665 2.57917 21.0336 2.99911 20.9456 3.42486L8.27194 0.62402Z" fill="#ECECEC"/>
<path d="M6.04145 11.4164L6.20078 10.6455L18.8745 13.4464C18.7865 13.8721 18.3766 14.1424 17.9591 14.0502L6.04145 11.4164Z" fill="#ECECEC"/>
<path d="M10.0561 1.42134L14.5292 2.40988L12.6172 11.6605L8.14412 10.672L10.0561 1.42134Z" fill="#ECECEC"/>
<path d="M15.2747 2.57464L19.7477 3.56318L17.8358 12.8138L13.3627 11.8253L15.2747 2.57464Z" fill="#ECECEC"/>
</svg>
