<svg width="32" height="32" viewBox="0 0 32 32" fill="none" xmlns="http://www.w3.org/2000/svg">
<path d="M7.97368 14.0328L13.8836 15.3389L13.5678 16.8667L7.10532 18.2342L7.97368 14.0328Z" fill="#101010"/>
<path d="M11.9099 24.8874L6 23.5814L6.31577 22.0536L12.7783 20.6861L11.9099 24.8874Z" fill="#101010"/>
<path d="M12.9361 19.9222L6.47357 21.2897L6.94722 18.9981L13.4097 17.6306L12.9361 19.9222Z" fill="#101010"/>
<path d="M7.84693 23.9895L10.0631 24.4793L9.7079 26.198L7.61302 30.7274L7.59255 29.4249L8.16561 28.0538L7.53189 26.9153L7.49169 25.7082L7.84693 23.9895Z" fill="#101010"/>
<path d="M13.2453 1.60762C13.3313 1.19163 13.7318 0.927486 14.1398 1.01765L11.2978 14.7675L10.5591 14.6042L13.2453 1.60762Z" fill="#101010"/>
<path d="M13.2431 1.61829C13.3303 1.19641 13.7364 0.928536 14.1502 1.01998L25.2103 3.46423C25.6241 3.55567 25.8888 3.9718 25.8016 4.39368L13.2431 1.61829Z" fill="#101010"/>
<path d="M11.0329 12.3126L11.1908 11.5487L23.7493 14.3241C23.6621 14.746 23.256 15.0139 22.8422 14.9224L11.0329 12.3126Z" fill="#101010"/>
<path d="M15.0111 2.40837L19.4435 3.38792L17.5489 12.5545L13.1165 11.5749L15.0111 2.40837Z" fill="#101010"/>
<path d="M20.1822 3.55119L24.6146 4.53074L22.72 13.6973L18.2876 12.7178L20.1822 3.55119Z" fill="#101010"/>
</svg>
