<svg width="32" height="32" viewBox="0 0 32 32" fill="none" xmlns="http://www.w3.org/2000/svg">
<circle cx="16" cy="16" r="14.5" stroke="#ECECEC" stroke-width="3"/>
<path d="M9.20787 8.05618L10.0476 7.84624C10.2462 7.79659 10.4502 7.77148 10.6549 7.77148C11.1967 7.77148 11.7238 7.9472 12.1572 8.27226L12.3103 8.38705C12.7681 8.7304 13.1103 9.20518 13.2912 9.74806L13.3063 9.79312C13.5987 10.6704 13.4264 11.636 12.8488 12.3581L12.7932 12.4276C12.4425 12.866 12.2514 13.4107 12.2514 13.9721C12.2514 14.4023 12.3637 14.8251 12.5772 15.1987L13.4007 16.6398C13.6465 17.0701 13.9952 17.4328 14.4154 17.6954L16.2942 18.8696C16.6397 19.0856 17.0389 19.2001 17.4463 19.2001C18.0228 19.2001 18.5757 18.971 18.9833 18.5634L19.248 18.2987C19.6466 17.9002 20.1871 17.6762 20.7508 17.6762C21.1704 17.6762 21.5806 17.8004 21.9297 18.0332L22.3441 18.3095C23.1787 18.8659 23.68 19.8025 23.68 20.8056V21.2426C23.68 21.8861 23.4243 22.5033 22.9693 22.9584C22.4546 23.473 21.7362 23.7295 21.012 23.6571L18.8262 23.4385C18.5085 23.4067 18.198 23.3245 17.9063 23.1948L15.319 22.0449C15.0531 21.9267 14.8059 21.7706 14.585 21.5812L12.4266 19.7312C12.31 19.6312 12.2012 19.5224 12.1012 19.4058L10.2061 17.1947C10.0464 17.0085 9.91024 16.8034 9.80054 16.584L8.53724 14.0574C8.47376 13.9304 8.41937 13.7991 8.37448 13.6645L7.83394 12.0429C7.73198 11.737 7.67999 11.4166 7.67999 11.0942V10.5846C7.67999 9.9923 7.85531 9.41327 8.18384 8.92047L8.3632 8.65144C8.41554 8.57293 8.4755 8.49979 8.54222 8.43307C8.72585 8.24944 8.95593 8.11917 9.20787 8.05618Z" fill="#ECECEC"/>
</svg>
